M48
;GenerationSoftware,Autodesk,EAGLE,9.6.0*%
;CreationDate,2020-06-21T04:52:31Z*%
FMAT,2
ICI,OFF
METRIC,TZ,000.000
T4C0.381
T3C0.650
T2C1.200
T1C3.810
%
G90
M71
T1
X2540Y109728
X33020Y53340
X33020Y58928
X2540Y58928
X2540Y53340
X33020Y2540
X2540Y2540
X69088Y109728
X38608Y58928
X69088Y53340
X38608Y53340
X69088Y2540
X38608Y2540
X69088Y58928
X38608Y109728
X33020Y109728
T2
X68336Y67818
X32268Y67818
X57480Y67818
X61336Y67818
X64480Y67818
X21412Y11430
X25268Y11430
X28412Y11430
X32268Y11430
X57480Y11430
X61336Y11430
X64480Y11430
X68336Y11430
X21412Y67818
X25268Y67818
X28412Y67818
T3
X8540Y4905
X14320Y4905
X44608Y4905
X8540Y61293
X50388Y4905
X44608Y61293
X14320Y61293
X50388Y61293
T4
X29210Y1270
X3810Y6350
X3810Y11430
X2540Y10160
X23812Y48260
X23812Y46355
X10160Y14605
X5398Y14605
X10160Y24130
X10160Y27305
X11430Y16192
X4763Y37465
X8954Y7747
X16510Y20320
X14478Y8382
X34163Y38100
X23812Y38100
X4572Y10922
X12065Y14605
X12065Y7302
X11008Y8042
X8890Y1270
X13970Y1270
X8573Y3810
X14287Y3810
X54483Y8358
X63690Y23495
X50038Y23495
X68771Y46355
X45910Y50800
X43371Y6985
X40513Y9970
X70358Y40640
X62738Y41593
X46228Y52070
X58928Y52070
X50114Y7112
X37338Y49530
X37338Y44450
X37338Y39370
X39878Y36830
X37338Y34290
X39878Y31750
X37338Y29210
X39878Y26670
X42418Y29210
X44958Y26670
X42418Y24130
X42418Y19050
X52578Y24130
X55118Y26670
X57658Y24130
X57658Y29210
X60198Y26670
X62738Y29210
X67818Y25400
X70358Y27940
X70358Y22860
X62738Y34290
X70358Y33020
X65278Y17780
X65278Y6350
X62738Y3810
X55118Y6350
X57658Y3810
X65278Y1270
X39878Y6350
X39878Y11430
X38608Y10160
X59880Y48260
X59880Y46355
X46228Y14605
X41466Y14605
X46228Y24130
X46228Y27305
X47498Y16192
X40831Y37465
X45021Y7747
X52578Y20320
X50546Y8382
X70231Y38100
X59880Y38100
X40640Y10922
X48133Y14605
X48133Y7302
X47076Y8042
X44958Y1270
X50038Y1270
X44640Y3810
X50355Y3810
X18415Y64745
X27622Y79883
X13970Y79883
X32702Y102743
X9843Y107188
X7302Y63373
X4445Y66358
X34290Y97028
X26670Y97980
X10160Y108458
X22860Y108458
X14046Y63500
X1270Y105918
X1270Y100838
X1270Y95758
X3810Y93218
X1270Y90678
X3810Y88138
X1270Y85598
X3810Y83058
X26670Y3810
X8890Y83058
X6350Y80518
X6350Y75438
X16510Y80518
X19050Y83058
X21590Y80518
X21590Y85598
X24130Y83058
X26670Y85598
X31750Y81788
X34290Y84328
X34290Y79248
X26670Y90678
X34290Y89408
X29210Y74168
X29210Y62738
X26670Y60198
X19050Y62738
X21590Y60198
X29210Y57658
X3810Y62738
X3810Y67818
X2540Y66548
X23812Y104648
X23812Y102743
X10160Y70993
X5398Y70993
X10160Y80518
X10160Y83693
X11430Y72581
X4763Y93853
X8954Y64135
X16510Y76708
X14478Y64770
X34163Y94488
X23812Y94488
X4572Y67310
X12065Y70993
X12065Y63690
X11008Y64430
X8890Y57658
X13970Y57658
X8573Y60198
X14287Y60198
X54483Y64745
X63690Y79883
X50038Y79883
X68771Y102743
X45910Y107188
X43371Y63373
X40513Y66358
X70358Y97028
X62738Y97980
X46228Y108458
X58928Y108458
X50114Y63500
X37338Y105918
X37338Y100838
X37338Y95758
X39878Y93218
X37338Y90678
X39878Y88138
X37338Y85598
X39878Y83058
X42418Y85598
X44958Y83058
X42418Y80518
X42418Y75438
X52578Y80518
X55118Y83058
X57658Y80518
X57658Y85598
X60198Y83058
X62738Y85598
X18415Y8358
X70358Y84328
X70358Y79248
X62738Y90678
X70358Y89408
X65278Y74168
X65278Y62738
X62738Y60198
X55118Y62738
X57658Y60198
X65278Y57658
X39878Y62738
X39878Y67818
X38608Y66548
X59880Y104648
X59880Y102743
X46228Y70993
X41466Y70993
X46228Y80518
X46228Y83693
X47498Y72581
X40831Y93853
X45021Y64135
X52578Y76708
X50546Y64770
X70231Y94488
X59880Y94488
X40640Y67310
X48133Y70993
X48133Y63690
X47076Y64430
X44958Y57658
X50038Y57658
X44640Y60198
X50355Y60198
X27622Y23495
X13970Y23495
X6350Y85598
X32702Y46355
X9843Y50800
X7302Y6985
X4445Y9970
X34290Y40640
X26670Y41593
X10160Y52070
X22860Y52070
X14046Y7112
X1270Y49530
X1270Y44450
X1270Y39370
X3810Y36830
X1270Y34290
X3810Y31750
X1270Y29210
X3810Y26670
X6350Y29210
X8890Y26670
X6350Y24130
X6350Y19050
X16510Y24130
X19050Y26670
X21590Y24130
X21590Y29210
X24130Y26670
X26670Y29210
X31750Y25400
X34290Y27940
X34290Y22860
X26670Y34290
X34290Y33020
X29210Y17780
X29210Y6350
X19050Y6350
X21590Y3810
X67818Y81788
M30