G04 EAGLE Gerber RS-274X export*
G75*
%MOMM*%
%FSLAX34Y34*%
%LPD*%
%INSoldermask Bottom*%
%IPPOS*%
%AMOC8*
5,1,8,0,0,1.08239X$1,22.5*%
G01*
%ADD10C,0.853200*%
%ADD11C,4.013200*%
%ADD12C,1.203200*%
%ADD13R,2.235200X2.235200*%
%ADD14C,2.235200*%


D10*
X85400Y49050D03*
X143200Y49050D03*
D11*
X330200Y533400D03*
X25400Y533400D03*
X330200Y25400D03*
X25400Y25400D03*
D12*
X279400Y50800D03*
X63500Y533400D03*
D13*
X214122Y114300D03*
D14*
X252678Y114300D03*
X284122Y114300D03*
X322678Y114300D03*
D10*
X446080Y49050D03*
X503880Y49050D03*
D11*
X690880Y533400D03*
X386080Y533400D03*
X690880Y25400D03*
X386080Y25400D03*
D12*
X640080Y50800D03*
X424180Y533400D03*
D13*
X574802Y114300D03*
D14*
X613358Y114300D03*
X644802Y114300D03*
X683358Y114300D03*
D10*
X85400Y612930D03*
X143200Y612930D03*
D11*
X330200Y1097280D03*
X25400Y1097280D03*
X330200Y589280D03*
X25400Y589280D03*
D12*
X279400Y614680D03*
X63500Y1097280D03*
D13*
X214122Y678180D03*
D14*
X252678Y678180D03*
X284122Y678180D03*
X322678Y678180D03*
D10*
X446080Y612930D03*
X503880Y612930D03*
D11*
X690880Y1097280D03*
X386080Y1097280D03*
X690880Y589280D03*
X386080Y589280D03*
D12*
X640080Y614680D03*
X424180Y1097280D03*
D13*
X574802Y678180D03*
D14*
X613358Y678180D03*
X644802Y678180D03*
X683358Y678180D03*
D12*
X68580Y1143635D03*
X647065Y1143635D03*
M02*
