G04 EAGLE Gerber RS-274X export*
G75*
%MOMM*%
%FSLAX34Y34*%
%LPD*%
%INSoldermask Top*%
%IPPOS*%
%AMOC8*
5,1,8,0,0,1.08239X$1,22.5*%
G01*
%ADD10R,1.703200X1.103200*%
%ADD11R,5.203200X5.203200*%
%ADD12R,1.203200X1.303200*%
%ADD13R,1.303200X1.203200*%
%ADD14C,0.505344*%
%ADD15R,1.203200X1.103200*%
%ADD16R,0.503200X1.203200*%
%ADD17R,0.803200X1.203200*%
%ADD18C,0.853200*%
%ADD19R,1.403200X0.753200*%
%ADD20R,1.033200X0.833200*%
%ADD21R,2.603200X0.963200*%
%ADD22R,0.863200X0.503200*%
%ADD23R,1.053200X0.503200*%
%ADD24R,0.503200X1.053200*%
%ADD25R,2.753200X2.753200*%
%ADD26C,4.013200*%
%ADD27C,1.203200*%
%ADD28R,2.235200X2.235200*%
%ADD29C,2.235200*%
%ADD30C,1.270000*%
%ADD31C,1.703200*%

G36*
X519464Y606763D02*
X519464Y606763D01*
X519470Y606769D01*
X519475Y606765D01*
X520705Y607130D01*
X520710Y607137D01*
X520715Y607135D01*
X521834Y607765D01*
X521837Y607772D01*
X521843Y607771D01*
X522793Y608634D01*
X522794Y608642D01*
X522800Y608642D01*
X523534Y609695D01*
X523534Y609703D01*
X523539Y609705D01*
X524021Y610895D01*
X524019Y610900D01*
X524023Y610903D01*
X524022Y610904D01*
X524024Y610905D01*
X524229Y612172D01*
X524226Y612177D01*
X524229Y612180D01*
X524229Y624180D01*
X524226Y624184D01*
X524229Y624187D01*
X524074Y625309D01*
X524069Y625314D01*
X524072Y625318D01*
X523701Y626389D01*
X523695Y626393D01*
X523697Y626398D01*
X523124Y627375D01*
X523118Y627378D01*
X523119Y627383D01*
X522366Y628230D01*
X522359Y628232D01*
X522359Y628237D01*
X521456Y628921D01*
X521449Y628921D01*
X521448Y628926D01*
X520429Y629421D01*
X520422Y629419D01*
X520420Y629424D01*
X519323Y629711D01*
X519317Y629708D01*
X519314Y629712D01*
X518183Y629779D01*
X518177Y629779D01*
X517046Y629712D01*
X517041Y629707D01*
X517037Y629711D01*
X515940Y629424D01*
X515936Y629418D01*
X515931Y629421D01*
X514912Y628926D01*
X514909Y628920D01*
X514904Y628921D01*
X514001Y628237D01*
X513999Y628230D01*
X513994Y628230D01*
X513241Y627383D01*
X513241Y627376D01*
X513236Y627375D01*
X512663Y626398D01*
X512664Y626395D01*
X512663Y626394D01*
X512664Y626393D01*
X512664Y626391D01*
X512659Y626389D01*
X512288Y625318D01*
X512290Y625313D01*
X512287Y625311D01*
X512287Y625310D01*
X512286Y625309D01*
X512131Y624187D01*
X512134Y624182D01*
X512131Y624180D01*
X512131Y612180D01*
X512134Y612175D01*
X512131Y612172D01*
X512336Y610905D01*
X512342Y610899D01*
X512339Y610895D01*
X512821Y609705D01*
X512828Y609701D01*
X512826Y609695D01*
X513560Y608642D01*
X513568Y608640D01*
X513567Y608634D01*
X514517Y607771D01*
X514526Y607770D01*
X514526Y607765D01*
X515645Y607135D01*
X515653Y607136D01*
X515655Y607130D01*
X516885Y606765D01*
X516893Y606768D01*
X516896Y606763D01*
X518177Y606681D01*
X518181Y606684D01*
X518183Y606681D01*
X519464Y606763D01*
G37*
G36*
X433064Y606763D02*
X433064Y606763D01*
X433070Y606769D01*
X433075Y606765D01*
X434305Y607130D01*
X434310Y607137D01*
X434315Y607135D01*
X435434Y607765D01*
X435437Y607772D01*
X435443Y607771D01*
X436393Y608634D01*
X436394Y608642D01*
X436400Y608642D01*
X437134Y609695D01*
X437134Y609703D01*
X437139Y609705D01*
X437621Y610895D01*
X437619Y610900D01*
X437623Y610903D01*
X437622Y610904D01*
X437624Y610905D01*
X437829Y612172D01*
X437826Y612177D01*
X437829Y612180D01*
X437829Y624180D01*
X437826Y624184D01*
X437829Y624187D01*
X437674Y625309D01*
X437669Y625314D01*
X437672Y625318D01*
X437301Y626389D01*
X437295Y626393D01*
X437297Y626398D01*
X436724Y627375D01*
X436718Y627378D01*
X436719Y627383D01*
X435966Y628230D01*
X435959Y628232D01*
X435959Y628237D01*
X435056Y628921D01*
X435049Y628921D01*
X435048Y628926D01*
X434029Y629421D01*
X434022Y629419D01*
X434020Y629424D01*
X432923Y629711D01*
X432917Y629708D01*
X432914Y629712D01*
X431783Y629779D01*
X431777Y629779D01*
X430646Y629712D01*
X430641Y629707D01*
X430637Y629711D01*
X429540Y629424D01*
X429536Y629418D01*
X429531Y629421D01*
X428512Y628926D01*
X428509Y628920D01*
X428504Y628921D01*
X427601Y628237D01*
X427599Y628230D01*
X427594Y628230D01*
X426841Y627383D01*
X426841Y627376D01*
X426836Y627375D01*
X426263Y626398D01*
X426264Y626395D01*
X426263Y626394D01*
X426264Y626393D01*
X426264Y626391D01*
X426259Y626389D01*
X425888Y625318D01*
X425890Y625313D01*
X425887Y625311D01*
X425887Y625310D01*
X425886Y625309D01*
X425731Y624187D01*
X425734Y624182D01*
X425731Y624180D01*
X425731Y612180D01*
X425734Y612175D01*
X425731Y612172D01*
X425936Y610905D01*
X425942Y610899D01*
X425939Y610895D01*
X426421Y609705D01*
X426428Y609701D01*
X426426Y609695D01*
X427160Y608642D01*
X427168Y608640D01*
X427167Y608634D01*
X428117Y607771D01*
X428126Y607770D01*
X428126Y607765D01*
X429245Y607135D01*
X429253Y607136D01*
X429255Y607130D01*
X430485Y606765D01*
X430493Y606768D01*
X430496Y606763D01*
X431777Y606681D01*
X431781Y606684D01*
X431783Y606681D01*
X433064Y606763D01*
G37*
G36*
X72384Y606763D02*
X72384Y606763D01*
X72390Y606769D01*
X72395Y606765D01*
X73625Y607130D01*
X73630Y607137D01*
X73635Y607135D01*
X74754Y607765D01*
X74757Y607772D01*
X74763Y607771D01*
X75713Y608634D01*
X75714Y608642D01*
X75720Y608642D01*
X76454Y609695D01*
X76454Y609703D01*
X76459Y609705D01*
X76941Y610895D01*
X76939Y610900D01*
X76943Y610903D01*
X76942Y610904D01*
X76944Y610905D01*
X77149Y612172D01*
X77146Y612177D01*
X77149Y612180D01*
X77149Y624180D01*
X77146Y624184D01*
X77149Y624187D01*
X76994Y625309D01*
X76989Y625314D01*
X76992Y625318D01*
X76621Y626389D01*
X76615Y626393D01*
X76617Y626398D01*
X76044Y627375D01*
X76038Y627378D01*
X76039Y627383D01*
X75286Y628230D01*
X75279Y628232D01*
X75279Y628237D01*
X74376Y628921D01*
X74369Y628921D01*
X74368Y628926D01*
X73349Y629421D01*
X73342Y629419D01*
X73340Y629424D01*
X72243Y629711D01*
X72237Y629708D01*
X72234Y629712D01*
X71103Y629779D01*
X71097Y629779D01*
X69966Y629712D01*
X69961Y629707D01*
X69957Y629711D01*
X68860Y629424D01*
X68856Y629418D01*
X68851Y629421D01*
X67832Y628926D01*
X67829Y628920D01*
X67824Y628921D01*
X66921Y628237D01*
X66919Y628230D01*
X66914Y628230D01*
X66161Y627383D01*
X66161Y627376D01*
X66156Y627375D01*
X65583Y626398D01*
X65584Y626395D01*
X65583Y626394D01*
X65584Y626393D01*
X65584Y626391D01*
X65579Y626389D01*
X65208Y625318D01*
X65210Y625313D01*
X65207Y625311D01*
X65207Y625310D01*
X65206Y625309D01*
X65051Y624187D01*
X65054Y624182D01*
X65051Y624180D01*
X65051Y612180D01*
X65054Y612175D01*
X65051Y612172D01*
X65256Y610905D01*
X65262Y610899D01*
X65259Y610895D01*
X65741Y609705D01*
X65748Y609701D01*
X65746Y609695D01*
X66480Y608642D01*
X66488Y608640D01*
X66487Y608634D01*
X67437Y607771D01*
X67446Y607770D01*
X67446Y607765D01*
X68565Y607135D01*
X68573Y607136D01*
X68575Y607130D01*
X69805Y606765D01*
X69813Y606768D01*
X69816Y606763D01*
X71097Y606681D01*
X71101Y606684D01*
X71103Y606681D01*
X72384Y606763D01*
G37*
G36*
X158784Y606763D02*
X158784Y606763D01*
X158790Y606769D01*
X158795Y606765D01*
X160025Y607130D01*
X160030Y607137D01*
X160035Y607135D01*
X161154Y607765D01*
X161157Y607772D01*
X161163Y607771D01*
X162113Y608634D01*
X162114Y608642D01*
X162120Y608642D01*
X162854Y609695D01*
X162854Y609703D01*
X162859Y609705D01*
X163341Y610895D01*
X163339Y610900D01*
X163343Y610903D01*
X163342Y610904D01*
X163344Y610905D01*
X163549Y612172D01*
X163546Y612177D01*
X163549Y612180D01*
X163549Y624180D01*
X163546Y624184D01*
X163549Y624187D01*
X163394Y625309D01*
X163389Y625314D01*
X163392Y625318D01*
X163021Y626389D01*
X163015Y626393D01*
X163017Y626398D01*
X162444Y627375D01*
X162438Y627378D01*
X162439Y627383D01*
X161686Y628230D01*
X161679Y628232D01*
X161679Y628237D01*
X160776Y628921D01*
X160769Y628921D01*
X160768Y628926D01*
X159749Y629421D01*
X159742Y629419D01*
X159740Y629424D01*
X158643Y629711D01*
X158637Y629708D01*
X158634Y629712D01*
X157503Y629779D01*
X157497Y629779D01*
X156366Y629712D01*
X156361Y629707D01*
X156357Y629711D01*
X155260Y629424D01*
X155256Y629418D01*
X155251Y629421D01*
X154232Y628926D01*
X154229Y628920D01*
X154224Y628921D01*
X153321Y628237D01*
X153319Y628230D01*
X153314Y628230D01*
X152561Y627383D01*
X152561Y627376D01*
X152556Y627375D01*
X151983Y626398D01*
X151984Y626395D01*
X151983Y626394D01*
X151984Y626393D01*
X151984Y626391D01*
X151979Y626389D01*
X151608Y625318D01*
X151610Y625313D01*
X151607Y625311D01*
X151607Y625310D01*
X151606Y625309D01*
X151451Y624187D01*
X151454Y624182D01*
X151451Y624180D01*
X151451Y612180D01*
X151454Y612175D01*
X151451Y612172D01*
X151656Y610905D01*
X151662Y610899D01*
X151659Y610895D01*
X152141Y609705D01*
X152148Y609701D01*
X152146Y609695D01*
X152880Y608642D01*
X152888Y608640D01*
X152887Y608634D01*
X153837Y607771D01*
X153846Y607770D01*
X153846Y607765D01*
X154965Y607135D01*
X154973Y607136D01*
X154975Y607130D01*
X156205Y606765D01*
X156213Y606768D01*
X156216Y606763D01*
X157497Y606681D01*
X157501Y606684D01*
X157503Y606681D01*
X158784Y606763D01*
G37*
G36*
X433064Y42883D02*
X433064Y42883D01*
X433070Y42889D01*
X433075Y42885D01*
X434305Y43250D01*
X434310Y43257D01*
X434315Y43255D01*
X435434Y43885D01*
X435437Y43892D01*
X435443Y43891D01*
X436393Y44754D01*
X436394Y44762D01*
X436400Y44762D01*
X437134Y45815D01*
X437134Y45823D01*
X437139Y45825D01*
X437621Y47015D01*
X437619Y47020D01*
X437623Y47023D01*
X437622Y47024D01*
X437624Y47025D01*
X437829Y48292D01*
X437826Y48297D01*
X437829Y48300D01*
X437829Y60300D01*
X437826Y60304D01*
X437829Y60307D01*
X437674Y61429D01*
X437669Y61434D01*
X437672Y61438D01*
X437301Y62509D01*
X437295Y62513D01*
X437297Y62518D01*
X436724Y63495D01*
X436718Y63498D01*
X436719Y63503D01*
X435966Y64350D01*
X435959Y64352D01*
X435959Y64357D01*
X435056Y65041D01*
X435049Y65041D01*
X435048Y65046D01*
X434029Y65541D01*
X434022Y65539D01*
X434020Y65544D01*
X432923Y65831D01*
X432917Y65828D01*
X432914Y65832D01*
X431783Y65899D01*
X431777Y65899D01*
X430646Y65832D01*
X430641Y65827D01*
X430637Y65831D01*
X429540Y65544D01*
X429536Y65538D01*
X429531Y65541D01*
X428512Y65046D01*
X428509Y65040D01*
X428504Y65041D01*
X427601Y64357D01*
X427599Y64350D01*
X427594Y64350D01*
X426841Y63503D01*
X426841Y63496D01*
X426836Y63495D01*
X426263Y62518D01*
X426264Y62515D01*
X426263Y62514D01*
X426264Y62513D01*
X426264Y62511D01*
X426259Y62509D01*
X425888Y61438D01*
X425890Y61433D01*
X425887Y61431D01*
X425887Y61430D01*
X425886Y61429D01*
X425731Y60307D01*
X425734Y60302D01*
X425731Y60300D01*
X425731Y48300D01*
X425734Y48295D01*
X425731Y48292D01*
X425936Y47025D01*
X425942Y47019D01*
X425939Y47015D01*
X426421Y45825D01*
X426428Y45821D01*
X426426Y45815D01*
X427160Y44762D01*
X427168Y44760D01*
X427167Y44754D01*
X428117Y43891D01*
X428126Y43890D01*
X428126Y43885D01*
X429245Y43255D01*
X429253Y43256D01*
X429255Y43250D01*
X430485Y42885D01*
X430493Y42888D01*
X430496Y42883D01*
X431777Y42801D01*
X431781Y42804D01*
X431783Y42801D01*
X433064Y42883D01*
G37*
G36*
X158784Y42883D02*
X158784Y42883D01*
X158790Y42889D01*
X158795Y42885D01*
X160025Y43250D01*
X160030Y43257D01*
X160035Y43255D01*
X161154Y43885D01*
X161157Y43892D01*
X161163Y43891D01*
X162113Y44754D01*
X162114Y44762D01*
X162120Y44762D01*
X162854Y45815D01*
X162854Y45823D01*
X162859Y45825D01*
X163341Y47015D01*
X163339Y47020D01*
X163343Y47023D01*
X163342Y47024D01*
X163344Y47025D01*
X163549Y48292D01*
X163546Y48297D01*
X163549Y48300D01*
X163549Y60300D01*
X163546Y60304D01*
X163549Y60307D01*
X163394Y61429D01*
X163389Y61434D01*
X163392Y61438D01*
X163021Y62509D01*
X163015Y62513D01*
X163017Y62518D01*
X162444Y63495D01*
X162438Y63498D01*
X162439Y63503D01*
X161686Y64350D01*
X161679Y64352D01*
X161679Y64357D01*
X160776Y65041D01*
X160769Y65041D01*
X160768Y65046D01*
X159749Y65541D01*
X159742Y65539D01*
X159740Y65544D01*
X158643Y65831D01*
X158637Y65828D01*
X158634Y65832D01*
X157503Y65899D01*
X157497Y65899D01*
X156366Y65832D01*
X156361Y65827D01*
X156357Y65831D01*
X155260Y65544D01*
X155256Y65538D01*
X155251Y65541D01*
X154232Y65046D01*
X154229Y65040D01*
X154224Y65041D01*
X153321Y64357D01*
X153319Y64350D01*
X153314Y64350D01*
X152561Y63503D01*
X152561Y63496D01*
X152556Y63495D01*
X151983Y62518D01*
X151984Y62515D01*
X151983Y62514D01*
X151984Y62513D01*
X151984Y62511D01*
X151979Y62509D01*
X151608Y61438D01*
X151610Y61433D01*
X151607Y61431D01*
X151607Y61430D01*
X151606Y61429D01*
X151451Y60307D01*
X151454Y60302D01*
X151451Y60300D01*
X151451Y48300D01*
X151454Y48295D01*
X151451Y48292D01*
X151656Y47025D01*
X151662Y47019D01*
X151659Y47015D01*
X152141Y45825D01*
X152148Y45821D01*
X152146Y45815D01*
X152880Y44762D01*
X152888Y44760D01*
X152887Y44754D01*
X153837Y43891D01*
X153846Y43890D01*
X153846Y43885D01*
X154965Y43255D01*
X154973Y43256D01*
X154975Y43250D01*
X156205Y42885D01*
X156213Y42888D01*
X156216Y42883D01*
X157497Y42801D01*
X157501Y42804D01*
X157503Y42801D01*
X158784Y42883D01*
G37*
G36*
X519464Y42883D02*
X519464Y42883D01*
X519470Y42889D01*
X519475Y42885D01*
X520705Y43250D01*
X520710Y43257D01*
X520715Y43255D01*
X521834Y43885D01*
X521837Y43892D01*
X521843Y43891D01*
X522793Y44754D01*
X522794Y44762D01*
X522800Y44762D01*
X523534Y45815D01*
X523534Y45823D01*
X523539Y45825D01*
X524021Y47015D01*
X524019Y47020D01*
X524023Y47023D01*
X524022Y47024D01*
X524024Y47025D01*
X524229Y48292D01*
X524226Y48297D01*
X524229Y48300D01*
X524229Y60300D01*
X524226Y60304D01*
X524229Y60307D01*
X524074Y61429D01*
X524069Y61434D01*
X524072Y61438D01*
X523701Y62509D01*
X523695Y62513D01*
X523697Y62518D01*
X523124Y63495D01*
X523118Y63498D01*
X523119Y63503D01*
X522366Y64350D01*
X522359Y64352D01*
X522359Y64357D01*
X521456Y65041D01*
X521449Y65041D01*
X521448Y65046D01*
X520429Y65541D01*
X520422Y65539D01*
X520420Y65544D01*
X519323Y65831D01*
X519317Y65828D01*
X519314Y65832D01*
X518183Y65899D01*
X518177Y65899D01*
X517046Y65832D01*
X517041Y65827D01*
X517037Y65831D01*
X515940Y65544D01*
X515936Y65538D01*
X515931Y65541D01*
X514912Y65046D01*
X514909Y65040D01*
X514904Y65041D01*
X514001Y64357D01*
X513999Y64350D01*
X513994Y64350D01*
X513241Y63503D01*
X513241Y63496D01*
X513236Y63495D01*
X512663Y62518D01*
X512664Y62515D01*
X512663Y62514D01*
X512664Y62513D01*
X512664Y62511D01*
X512659Y62509D01*
X512288Y61438D01*
X512290Y61433D01*
X512287Y61431D01*
X512287Y61430D01*
X512286Y61429D01*
X512131Y60307D01*
X512134Y60302D01*
X512131Y60300D01*
X512131Y48300D01*
X512134Y48295D01*
X512131Y48292D01*
X512336Y47025D01*
X512342Y47019D01*
X512339Y47015D01*
X512821Y45825D01*
X512828Y45821D01*
X512826Y45815D01*
X513560Y44762D01*
X513568Y44760D01*
X513567Y44754D01*
X514517Y43891D01*
X514526Y43890D01*
X514526Y43885D01*
X515645Y43255D01*
X515653Y43256D01*
X515655Y43250D01*
X516885Y42885D01*
X516893Y42888D01*
X516896Y42883D01*
X518177Y42801D01*
X518181Y42804D01*
X518183Y42801D01*
X519464Y42883D01*
G37*
G36*
X72384Y42883D02*
X72384Y42883D01*
X72390Y42889D01*
X72395Y42885D01*
X73625Y43250D01*
X73630Y43257D01*
X73635Y43255D01*
X74754Y43885D01*
X74757Y43892D01*
X74763Y43891D01*
X75713Y44754D01*
X75714Y44762D01*
X75720Y44762D01*
X76454Y45815D01*
X76454Y45823D01*
X76459Y45825D01*
X76941Y47015D01*
X76939Y47020D01*
X76943Y47023D01*
X76942Y47024D01*
X76944Y47025D01*
X77149Y48292D01*
X77146Y48297D01*
X77149Y48300D01*
X77149Y60300D01*
X77146Y60304D01*
X77149Y60307D01*
X76994Y61429D01*
X76989Y61434D01*
X76992Y61438D01*
X76621Y62509D01*
X76615Y62513D01*
X76617Y62518D01*
X76044Y63495D01*
X76038Y63498D01*
X76039Y63503D01*
X75286Y64350D01*
X75279Y64352D01*
X75279Y64357D01*
X74376Y65041D01*
X74369Y65041D01*
X74368Y65046D01*
X73349Y65541D01*
X73342Y65539D01*
X73340Y65544D01*
X72243Y65831D01*
X72237Y65828D01*
X72234Y65832D01*
X71103Y65899D01*
X71097Y65899D01*
X69966Y65832D01*
X69961Y65827D01*
X69957Y65831D01*
X68860Y65544D01*
X68856Y65538D01*
X68851Y65541D01*
X67832Y65046D01*
X67829Y65040D01*
X67824Y65041D01*
X66921Y64357D01*
X66919Y64350D01*
X66914Y64350D01*
X66161Y63503D01*
X66161Y63496D01*
X66156Y63495D01*
X65583Y62518D01*
X65584Y62515D01*
X65583Y62514D01*
X65584Y62513D01*
X65584Y62511D01*
X65579Y62509D01*
X65208Y61438D01*
X65210Y61433D01*
X65207Y61431D01*
X65207Y61430D01*
X65206Y61429D01*
X65051Y60307D01*
X65054Y60302D01*
X65051Y60300D01*
X65051Y48300D01*
X65054Y48295D01*
X65051Y48292D01*
X65256Y47025D01*
X65262Y47019D01*
X65259Y47015D01*
X65741Y45825D01*
X65748Y45821D01*
X65746Y45815D01*
X66480Y44762D01*
X66488Y44760D01*
X66487Y44754D01*
X67437Y43891D01*
X67446Y43890D01*
X67446Y43885D01*
X68565Y43255D01*
X68573Y43256D01*
X68575Y43250D01*
X69805Y42885D01*
X69813Y42888D01*
X69816Y42883D01*
X71097Y42801D01*
X71101Y42804D01*
X71103Y42801D01*
X72384Y42883D01*
G37*
G36*
X432951Y567491D02*
X432951Y567491D01*
X432956Y567496D01*
X432960Y567493D01*
X434083Y567828D01*
X434087Y567834D01*
X434091Y567832D01*
X435127Y568380D01*
X435130Y568386D01*
X435135Y568385D01*
X436043Y569124D01*
X436045Y569131D01*
X436050Y569131D01*
X436797Y570033D01*
X436797Y570041D01*
X436803Y570041D01*
X437359Y571072D01*
X437358Y571079D01*
X437363Y571081D01*
X437707Y572200D01*
X437705Y572207D01*
X437709Y572210D01*
X437829Y573375D01*
X437827Y573378D01*
X437829Y573380D01*
X437829Y579380D01*
X437827Y579383D01*
X437829Y579385D01*
X437718Y580561D01*
X437713Y580566D01*
X437716Y580570D01*
X437378Y581702D01*
X437372Y581706D01*
X437374Y581711D01*
X436822Y582755D01*
X436815Y582758D01*
X436817Y582763D01*
X436071Y583679D01*
X436064Y583680D01*
X436064Y583686D01*
X435155Y584439D01*
X435147Y584439D01*
X435147Y584444D01*
X434107Y585005D01*
X434100Y585004D01*
X434098Y585009D01*
X432969Y585356D01*
X432963Y585354D01*
X432960Y585358D01*
X431785Y585479D01*
X431778Y585475D01*
X431774Y585479D01*
X430434Y585322D01*
X430428Y585317D01*
X430423Y585320D01*
X429152Y584869D01*
X429147Y584862D01*
X429142Y584864D01*
X428003Y584142D01*
X428000Y584134D01*
X427994Y584135D01*
X427044Y583177D01*
X427043Y583169D01*
X427037Y583168D01*
X426324Y582023D01*
X426325Y582015D01*
X426319Y582013D01*
X425879Y580737D01*
X425881Y580730D01*
X425877Y580727D01*
X425731Y579385D01*
X425733Y579382D01*
X425731Y579380D01*
X425731Y573380D01*
X425733Y573377D01*
X425731Y573374D01*
X425886Y572045D01*
X425892Y572039D01*
X425889Y572035D01*
X426336Y570774D01*
X426343Y570769D01*
X426341Y570764D01*
X427058Y569634D01*
X427065Y569631D01*
X427064Y569625D01*
X428015Y568683D01*
X428023Y568682D01*
X428023Y568676D01*
X429159Y567969D01*
X429167Y567970D01*
X429169Y567964D01*
X430434Y567528D01*
X430439Y567529D01*
X430440Y567529D01*
X430443Y567529D01*
X430445Y567525D01*
X431775Y567381D01*
X431781Y567385D01*
X431785Y567381D01*
X432951Y567491D01*
G37*
G36*
X158671Y567491D02*
X158671Y567491D01*
X158676Y567496D01*
X158680Y567493D01*
X159803Y567828D01*
X159807Y567834D01*
X159811Y567832D01*
X160847Y568380D01*
X160850Y568386D01*
X160855Y568385D01*
X161763Y569124D01*
X161765Y569131D01*
X161770Y569131D01*
X162517Y570033D01*
X162517Y570041D01*
X162523Y570041D01*
X163079Y571072D01*
X163078Y571079D01*
X163083Y571081D01*
X163427Y572200D01*
X163425Y572207D01*
X163429Y572210D01*
X163549Y573375D01*
X163547Y573378D01*
X163549Y573380D01*
X163549Y579380D01*
X163547Y579383D01*
X163549Y579385D01*
X163438Y580561D01*
X163433Y580566D01*
X163436Y580570D01*
X163098Y581702D01*
X163092Y581706D01*
X163094Y581711D01*
X162542Y582755D01*
X162535Y582758D01*
X162537Y582763D01*
X161791Y583679D01*
X161784Y583680D01*
X161784Y583686D01*
X160875Y584439D01*
X160867Y584439D01*
X160867Y584444D01*
X159827Y585005D01*
X159820Y585004D01*
X159818Y585009D01*
X158689Y585356D01*
X158683Y585354D01*
X158680Y585358D01*
X157505Y585479D01*
X157498Y585475D01*
X157494Y585479D01*
X156154Y585322D01*
X156148Y585317D01*
X156143Y585320D01*
X154872Y584869D01*
X154867Y584862D01*
X154862Y584864D01*
X153723Y584142D01*
X153720Y584134D01*
X153714Y584135D01*
X152764Y583177D01*
X152763Y583169D01*
X152757Y583168D01*
X152044Y582023D01*
X152045Y582015D01*
X152039Y582013D01*
X151599Y580737D01*
X151601Y580730D01*
X151597Y580727D01*
X151451Y579385D01*
X151453Y579382D01*
X151451Y579380D01*
X151451Y573380D01*
X151453Y573377D01*
X151451Y573374D01*
X151606Y572045D01*
X151612Y572039D01*
X151609Y572035D01*
X152056Y570774D01*
X152063Y570769D01*
X152061Y570764D01*
X152778Y569634D01*
X152785Y569631D01*
X152784Y569625D01*
X153735Y568683D01*
X153743Y568682D01*
X153743Y568676D01*
X154879Y567969D01*
X154887Y567970D01*
X154889Y567964D01*
X156154Y567528D01*
X156159Y567529D01*
X156160Y567529D01*
X156163Y567529D01*
X156165Y567525D01*
X157495Y567381D01*
X157501Y567385D01*
X157505Y567381D01*
X158671Y567491D01*
G37*
G36*
X519351Y567491D02*
X519351Y567491D01*
X519356Y567496D01*
X519360Y567493D01*
X520483Y567828D01*
X520487Y567834D01*
X520491Y567832D01*
X521527Y568380D01*
X521530Y568386D01*
X521535Y568385D01*
X522443Y569124D01*
X522445Y569131D01*
X522450Y569131D01*
X523197Y570033D01*
X523197Y570041D01*
X523203Y570041D01*
X523759Y571072D01*
X523758Y571079D01*
X523763Y571081D01*
X524107Y572200D01*
X524105Y572207D01*
X524109Y572210D01*
X524229Y573375D01*
X524227Y573378D01*
X524229Y573380D01*
X524229Y579380D01*
X524227Y579383D01*
X524229Y579385D01*
X524118Y580561D01*
X524113Y580566D01*
X524116Y580570D01*
X523778Y581702D01*
X523772Y581706D01*
X523774Y581711D01*
X523222Y582755D01*
X523215Y582758D01*
X523217Y582763D01*
X522471Y583679D01*
X522464Y583680D01*
X522464Y583686D01*
X521555Y584439D01*
X521547Y584439D01*
X521547Y584444D01*
X520507Y585005D01*
X520500Y585004D01*
X520498Y585009D01*
X519369Y585356D01*
X519363Y585354D01*
X519360Y585358D01*
X518185Y585479D01*
X518178Y585475D01*
X518174Y585479D01*
X516834Y585322D01*
X516828Y585317D01*
X516823Y585320D01*
X515552Y584869D01*
X515547Y584862D01*
X515542Y584864D01*
X514403Y584142D01*
X514400Y584134D01*
X514394Y584135D01*
X513444Y583177D01*
X513443Y583169D01*
X513437Y583168D01*
X512724Y582023D01*
X512725Y582015D01*
X512719Y582013D01*
X512279Y580737D01*
X512281Y580730D01*
X512277Y580727D01*
X512131Y579385D01*
X512133Y579382D01*
X512131Y579380D01*
X512131Y573380D01*
X512133Y573377D01*
X512131Y573374D01*
X512286Y572045D01*
X512292Y572039D01*
X512289Y572035D01*
X512736Y570774D01*
X512743Y570769D01*
X512741Y570764D01*
X513458Y569634D01*
X513465Y569631D01*
X513464Y569625D01*
X514415Y568683D01*
X514423Y568682D01*
X514423Y568676D01*
X515559Y567969D01*
X515567Y567970D01*
X515569Y567964D01*
X516834Y567528D01*
X516839Y567529D01*
X516840Y567529D01*
X516843Y567529D01*
X516845Y567525D01*
X518175Y567381D01*
X518181Y567385D01*
X518185Y567381D01*
X519351Y567491D01*
G37*
G36*
X72271Y567491D02*
X72271Y567491D01*
X72276Y567496D01*
X72280Y567493D01*
X73403Y567828D01*
X73407Y567834D01*
X73411Y567832D01*
X74447Y568380D01*
X74450Y568386D01*
X74455Y568385D01*
X75363Y569124D01*
X75365Y569131D01*
X75370Y569131D01*
X76117Y570033D01*
X76117Y570041D01*
X76123Y570041D01*
X76679Y571072D01*
X76678Y571079D01*
X76683Y571081D01*
X77027Y572200D01*
X77025Y572207D01*
X77029Y572210D01*
X77149Y573375D01*
X77147Y573378D01*
X77149Y573380D01*
X77149Y579380D01*
X77147Y579383D01*
X77149Y579385D01*
X77038Y580561D01*
X77033Y580566D01*
X77036Y580570D01*
X76698Y581702D01*
X76692Y581706D01*
X76694Y581711D01*
X76142Y582755D01*
X76135Y582758D01*
X76137Y582763D01*
X75391Y583679D01*
X75384Y583680D01*
X75384Y583686D01*
X74475Y584439D01*
X74467Y584439D01*
X74467Y584444D01*
X73427Y585005D01*
X73420Y585004D01*
X73418Y585009D01*
X72289Y585356D01*
X72283Y585354D01*
X72280Y585358D01*
X71105Y585479D01*
X71098Y585475D01*
X71094Y585479D01*
X69754Y585322D01*
X69748Y585317D01*
X69743Y585320D01*
X68472Y584869D01*
X68467Y584862D01*
X68462Y584864D01*
X67323Y584142D01*
X67320Y584134D01*
X67314Y584135D01*
X66364Y583177D01*
X66363Y583169D01*
X66357Y583168D01*
X65644Y582023D01*
X65645Y582015D01*
X65639Y582013D01*
X65199Y580737D01*
X65201Y580730D01*
X65197Y580727D01*
X65051Y579385D01*
X65053Y579382D01*
X65051Y579380D01*
X65051Y573380D01*
X65053Y573377D01*
X65051Y573374D01*
X65206Y572045D01*
X65212Y572039D01*
X65209Y572035D01*
X65656Y570774D01*
X65663Y570769D01*
X65661Y570764D01*
X66378Y569634D01*
X66385Y569631D01*
X66384Y569625D01*
X67335Y568683D01*
X67343Y568682D01*
X67343Y568676D01*
X68479Y567969D01*
X68487Y567970D01*
X68489Y567964D01*
X69754Y567528D01*
X69759Y567529D01*
X69760Y567529D01*
X69763Y567529D01*
X69765Y567525D01*
X71095Y567381D01*
X71101Y567385D01*
X71105Y567381D01*
X72271Y567491D01*
G37*
G36*
X432951Y3611D02*
X432951Y3611D01*
X432956Y3616D01*
X432960Y3613D01*
X434083Y3948D01*
X434087Y3954D01*
X434091Y3952D01*
X435127Y4500D01*
X435130Y4506D01*
X435135Y4505D01*
X436043Y5244D01*
X436045Y5251D01*
X436050Y5251D01*
X436797Y6153D01*
X436797Y6161D01*
X436803Y6161D01*
X437359Y7192D01*
X437358Y7199D01*
X437363Y7201D01*
X437707Y8320D01*
X437705Y8327D01*
X437709Y8330D01*
X437829Y9495D01*
X437827Y9498D01*
X437829Y9500D01*
X437829Y15500D01*
X437827Y15503D01*
X437829Y15505D01*
X437718Y16681D01*
X437713Y16686D01*
X437716Y16690D01*
X437378Y17822D01*
X437372Y17826D01*
X437374Y17831D01*
X436822Y18875D01*
X436815Y18878D01*
X436817Y18883D01*
X436071Y19799D01*
X436064Y19800D01*
X436064Y19806D01*
X435155Y20559D01*
X435147Y20559D01*
X435147Y20564D01*
X434107Y21125D01*
X434100Y21124D01*
X434098Y21129D01*
X432969Y21476D01*
X432963Y21474D01*
X432960Y21478D01*
X431785Y21599D01*
X431778Y21595D01*
X431774Y21599D01*
X430434Y21442D01*
X430428Y21437D01*
X430423Y21440D01*
X429152Y20989D01*
X429147Y20982D01*
X429142Y20984D01*
X428003Y20262D01*
X428000Y20254D01*
X427994Y20255D01*
X427044Y19297D01*
X427043Y19289D01*
X427037Y19288D01*
X426324Y18143D01*
X426325Y18135D01*
X426319Y18133D01*
X425879Y16857D01*
X425881Y16850D01*
X425877Y16847D01*
X425731Y15505D01*
X425733Y15502D01*
X425731Y15500D01*
X425731Y9500D01*
X425733Y9497D01*
X425731Y9494D01*
X425886Y8165D01*
X425892Y8159D01*
X425889Y8155D01*
X426336Y6894D01*
X426343Y6889D01*
X426341Y6884D01*
X427058Y5754D01*
X427065Y5751D01*
X427064Y5745D01*
X428015Y4803D01*
X428023Y4802D01*
X428023Y4796D01*
X429159Y4089D01*
X429167Y4090D01*
X429169Y4084D01*
X430434Y3648D01*
X430439Y3649D01*
X430440Y3649D01*
X430443Y3649D01*
X430445Y3645D01*
X431775Y3501D01*
X431781Y3505D01*
X431785Y3501D01*
X432951Y3611D01*
G37*
G36*
X519351Y3611D02*
X519351Y3611D01*
X519356Y3616D01*
X519360Y3613D01*
X520483Y3948D01*
X520487Y3954D01*
X520491Y3952D01*
X521527Y4500D01*
X521530Y4506D01*
X521535Y4505D01*
X522443Y5244D01*
X522445Y5251D01*
X522450Y5251D01*
X523197Y6153D01*
X523197Y6161D01*
X523203Y6161D01*
X523759Y7192D01*
X523758Y7199D01*
X523763Y7201D01*
X524107Y8320D01*
X524105Y8327D01*
X524109Y8330D01*
X524229Y9495D01*
X524227Y9498D01*
X524229Y9500D01*
X524229Y15500D01*
X524227Y15503D01*
X524229Y15505D01*
X524118Y16681D01*
X524113Y16686D01*
X524116Y16690D01*
X523778Y17822D01*
X523772Y17826D01*
X523774Y17831D01*
X523222Y18875D01*
X523215Y18878D01*
X523217Y18883D01*
X522471Y19799D01*
X522464Y19800D01*
X522464Y19806D01*
X521555Y20559D01*
X521547Y20559D01*
X521547Y20564D01*
X520507Y21125D01*
X520500Y21124D01*
X520498Y21129D01*
X519369Y21476D01*
X519363Y21474D01*
X519360Y21478D01*
X518185Y21599D01*
X518178Y21595D01*
X518174Y21599D01*
X516834Y21442D01*
X516828Y21437D01*
X516823Y21440D01*
X515552Y20989D01*
X515547Y20982D01*
X515542Y20984D01*
X514403Y20262D01*
X514400Y20254D01*
X514394Y20255D01*
X513444Y19297D01*
X513443Y19289D01*
X513437Y19288D01*
X512724Y18143D01*
X512725Y18135D01*
X512719Y18133D01*
X512279Y16857D01*
X512281Y16850D01*
X512277Y16847D01*
X512131Y15505D01*
X512133Y15502D01*
X512131Y15500D01*
X512131Y9500D01*
X512133Y9497D01*
X512131Y9494D01*
X512286Y8165D01*
X512292Y8159D01*
X512289Y8155D01*
X512736Y6894D01*
X512743Y6889D01*
X512741Y6884D01*
X513458Y5754D01*
X513465Y5751D01*
X513464Y5745D01*
X514415Y4803D01*
X514423Y4802D01*
X514423Y4796D01*
X515559Y4089D01*
X515567Y4090D01*
X515569Y4084D01*
X516834Y3648D01*
X516839Y3649D01*
X516840Y3649D01*
X516843Y3649D01*
X516845Y3645D01*
X518175Y3501D01*
X518181Y3505D01*
X518185Y3501D01*
X519351Y3611D01*
G37*
G36*
X72271Y3611D02*
X72271Y3611D01*
X72276Y3616D01*
X72280Y3613D01*
X73403Y3948D01*
X73407Y3954D01*
X73411Y3952D01*
X74447Y4500D01*
X74450Y4506D01*
X74455Y4505D01*
X75363Y5244D01*
X75365Y5251D01*
X75370Y5251D01*
X76117Y6153D01*
X76117Y6161D01*
X76123Y6161D01*
X76679Y7192D01*
X76678Y7199D01*
X76683Y7201D01*
X77027Y8320D01*
X77025Y8327D01*
X77029Y8330D01*
X77149Y9495D01*
X77147Y9498D01*
X77149Y9500D01*
X77149Y15500D01*
X77147Y15503D01*
X77149Y15505D01*
X77038Y16681D01*
X77033Y16686D01*
X77036Y16690D01*
X76698Y17822D01*
X76692Y17826D01*
X76694Y17831D01*
X76142Y18875D01*
X76135Y18878D01*
X76137Y18883D01*
X75391Y19799D01*
X75384Y19800D01*
X75384Y19806D01*
X74475Y20559D01*
X74467Y20559D01*
X74467Y20564D01*
X73427Y21125D01*
X73420Y21124D01*
X73418Y21129D01*
X72289Y21476D01*
X72283Y21474D01*
X72280Y21478D01*
X71105Y21599D01*
X71098Y21595D01*
X71094Y21599D01*
X69754Y21442D01*
X69748Y21437D01*
X69743Y21440D01*
X68472Y20989D01*
X68467Y20982D01*
X68462Y20984D01*
X67323Y20262D01*
X67320Y20254D01*
X67314Y20255D01*
X66364Y19297D01*
X66363Y19289D01*
X66357Y19288D01*
X65644Y18143D01*
X65645Y18135D01*
X65639Y18133D01*
X65199Y16857D01*
X65201Y16850D01*
X65197Y16847D01*
X65051Y15505D01*
X65053Y15502D01*
X65051Y15500D01*
X65051Y9500D01*
X65053Y9497D01*
X65051Y9494D01*
X65206Y8165D01*
X65212Y8159D01*
X65209Y8155D01*
X65656Y6894D01*
X65663Y6889D01*
X65661Y6884D01*
X66378Y5754D01*
X66385Y5751D01*
X66384Y5745D01*
X67335Y4803D01*
X67343Y4802D01*
X67343Y4796D01*
X68479Y4089D01*
X68487Y4090D01*
X68489Y4084D01*
X69754Y3648D01*
X69759Y3649D01*
X69760Y3649D01*
X69763Y3649D01*
X69765Y3645D01*
X71095Y3501D01*
X71101Y3505D01*
X71105Y3501D01*
X72271Y3611D01*
G37*
G36*
X158671Y3611D02*
X158671Y3611D01*
X158676Y3616D01*
X158680Y3613D01*
X159803Y3948D01*
X159807Y3954D01*
X159811Y3952D01*
X160847Y4500D01*
X160850Y4506D01*
X160855Y4505D01*
X161763Y5244D01*
X161765Y5251D01*
X161770Y5251D01*
X162517Y6153D01*
X162517Y6161D01*
X162523Y6161D01*
X163079Y7192D01*
X163078Y7199D01*
X163083Y7201D01*
X163427Y8320D01*
X163425Y8327D01*
X163429Y8330D01*
X163549Y9495D01*
X163547Y9498D01*
X163549Y9500D01*
X163549Y15500D01*
X163547Y15503D01*
X163549Y15505D01*
X163438Y16681D01*
X163433Y16686D01*
X163436Y16690D01*
X163098Y17822D01*
X163092Y17826D01*
X163094Y17831D01*
X162542Y18875D01*
X162535Y18878D01*
X162537Y18883D01*
X161791Y19799D01*
X161784Y19800D01*
X161784Y19806D01*
X160875Y20559D01*
X160867Y20559D01*
X160867Y20564D01*
X159827Y21125D01*
X159820Y21124D01*
X159818Y21129D01*
X158689Y21476D01*
X158683Y21474D01*
X158680Y21478D01*
X157505Y21599D01*
X157498Y21595D01*
X157494Y21599D01*
X156154Y21442D01*
X156148Y21437D01*
X156143Y21440D01*
X154872Y20989D01*
X154867Y20982D01*
X154862Y20984D01*
X153723Y20262D01*
X153720Y20254D01*
X153714Y20255D01*
X152764Y19297D01*
X152763Y19289D01*
X152757Y19288D01*
X152044Y18143D01*
X152045Y18135D01*
X152039Y18133D01*
X151599Y16857D01*
X151601Y16850D01*
X151597Y16847D01*
X151451Y15505D01*
X151453Y15502D01*
X151451Y15500D01*
X151451Y9500D01*
X151453Y9497D01*
X151451Y9494D01*
X151606Y8165D01*
X151612Y8159D01*
X151609Y8155D01*
X152056Y6894D01*
X152063Y6889D01*
X152061Y6884D01*
X152778Y5754D01*
X152785Y5751D01*
X152784Y5745D01*
X153735Y4803D01*
X153743Y4802D01*
X153743Y4796D01*
X154879Y4089D01*
X154887Y4090D01*
X154889Y4084D01*
X156154Y3648D01*
X156159Y3649D01*
X156160Y3649D01*
X156163Y3649D01*
X156165Y3645D01*
X157495Y3501D01*
X157501Y3505D01*
X157505Y3501D01*
X158671Y3611D01*
G37*
D10*
X78700Y522500D03*
X78700Y509800D03*
X78700Y497100D03*
X78700Y484400D03*
X78700Y471700D03*
X78700Y459000D03*
X78700Y446300D03*
X78700Y433600D03*
X78700Y420900D03*
X78700Y408200D03*
X78700Y395500D03*
X78700Y382800D03*
X78700Y370100D03*
X78700Y357400D03*
X78700Y344700D03*
X78700Y332000D03*
X78700Y319300D03*
X78700Y306600D03*
X78700Y293900D03*
X253700Y293900D03*
X253700Y306600D03*
X253700Y319300D03*
X253700Y332000D03*
X253700Y344700D03*
X253700Y357400D03*
X253700Y370100D03*
X253700Y382800D03*
X253700Y395500D03*
X253700Y408200D03*
X253700Y420900D03*
X253700Y433600D03*
X253700Y446300D03*
X253700Y459000D03*
X253700Y471700D03*
X253700Y484400D03*
X253700Y497100D03*
X253700Y509800D03*
X253700Y522500D03*
D11*
X156200Y446900D03*
D12*
X38100Y461400D03*
X38100Y478400D03*
D13*
X296300Y463550D03*
X313300Y463550D03*
X296300Y479425D03*
X313300Y479425D03*
D14*
X111440Y221180D02*
X104460Y221180D01*
X104460Y228160D01*
X111440Y228160D01*
X111440Y221180D01*
X111440Y225980D02*
X104460Y225980D01*
X104460Y203640D02*
X111440Y203640D01*
X104460Y203640D02*
X104460Y210620D01*
X111440Y210620D01*
X111440Y203640D01*
X111440Y208440D02*
X104460Y208440D01*
D12*
X92075Y207400D03*
X92075Y224400D03*
D15*
X46100Y170000D03*
X30100Y170000D03*
X30100Y211000D03*
X46100Y211000D03*
X46100Y385900D03*
X30100Y385900D03*
X30100Y426900D03*
X46100Y426900D03*
D16*
X121800Y60100D03*
X116800Y60100D03*
D17*
X146550Y60100D03*
X138800Y60100D03*
D16*
X131800Y60100D03*
X126800Y60100D03*
X106800Y60100D03*
X111800Y60100D03*
D17*
X82050Y60100D03*
X89800Y60100D03*
D16*
X96800Y60100D03*
X101800Y60100D03*
D18*
X85400Y49050D03*
X143200Y49050D03*
D19*
X250524Y225400D03*
X250524Y215900D03*
X250524Y206400D03*
X276526Y206400D03*
X276526Y225400D03*
D20*
X180975Y227400D03*
X180975Y204400D03*
X200025Y227400D03*
X200025Y204400D03*
D21*
X324300Y381000D03*
X324300Y368300D03*
X324300Y355600D03*
X324300Y393700D03*
X324300Y406400D03*
X285300Y406400D03*
X285300Y393700D03*
X285300Y381000D03*
X285300Y368300D03*
X285300Y355600D03*
D12*
X219075Y207400D03*
X219075Y224400D03*
X323850Y224400D03*
X323850Y207400D03*
X234950Y207400D03*
X234950Y224400D03*
X307975Y224400D03*
X307975Y207400D03*
X292100Y224400D03*
X292100Y207400D03*
D13*
X294250Y307975D03*
X277250Y307975D03*
X294250Y292100D03*
X277250Y292100D03*
X294250Y276225D03*
X277250Y276225D03*
X315350Y276225D03*
X332350Y276225D03*
X315350Y292100D03*
X332350Y292100D03*
X315350Y307975D03*
X332350Y307975D03*
D22*
X105100Y171600D03*
X123500Y165100D03*
X123500Y158600D03*
X123500Y171600D03*
X105100Y165100D03*
X105100Y158600D03*
D12*
X139700Y173600D03*
X139700Y156600D03*
X88900Y156600D03*
X88900Y173600D03*
D23*
X93800Y101800D03*
X93800Y106800D03*
X93800Y111800D03*
X93800Y116800D03*
X93800Y121800D03*
X93800Y126800D03*
D24*
X101800Y134800D03*
X106800Y134800D03*
X111800Y134800D03*
X116800Y134800D03*
X121800Y134800D03*
X126800Y134800D03*
X126800Y93800D03*
X121800Y93800D03*
X116800Y93800D03*
X111800Y93800D03*
X106800Y93800D03*
X101800Y93800D03*
D23*
X134800Y126800D03*
X134800Y121800D03*
X134800Y116800D03*
X134800Y111800D03*
X134800Y106800D03*
X134800Y101800D03*
D25*
X114300Y114300D03*
D12*
X155575Y83575D03*
X155575Y100575D03*
X171450Y100575D03*
X171450Y83575D03*
D14*
X127315Y221180D02*
X120335Y221180D01*
X120335Y228160D01*
X127315Y228160D01*
X127315Y221180D01*
X127315Y225980D02*
X120335Y225980D01*
X120335Y203640D02*
X127315Y203640D01*
X120335Y203640D02*
X120335Y210620D01*
X127315Y210620D01*
X127315Y203640D01*
X127315Y208440D02*
X120335Y208440D01*
D12*
X139700Y207400D03*
X139700Y224400D03*
D26*
X330200Y533400D03*
X25400Y533400D03*
X330200Y25400D03*
X25400Y25400D03*
D27*
X63500Y533400D03*
X279400Y50800D03*
D12*
X57150Y100575D03*
X57150Y83575D03*
X73025Y100575D03*
X73025Y83575D03*
D28*
X214122Y114300D03*
D29*
X252678Y114300D03*
X284122Y114300D03*
X322678Y114300D03*
D10*
X439380Y522500D03*
X439380Y509800D03*
X439380Y497100D03*
X439380Y484400D03*
X439380Y471700D03*
X439380Y459000D03*
X439380Y446300D03*
X439380Y433600D03*
X439380Y420900D03*
X439380Y408200D03*
X439380Y395500D03*
X439380Y382800D03*
X439380Y370100D03*
X439380Y357400D03*
X439380Y344700D03*
X439380Y332000D03*
X439380Y319300D03*
X439380Y306600D03*
X439380Y293900D03*
X614380Y293900D03*
X614380Y306600D03*
X614380Y319300D03*
X614380Y332000D03*
X614380Y344700D03*
X614380Y357400D03*
X614380Y370100D03*
X614380Y382800D03*
X614380Y395500D03*
X614380Y408200D03*
X614380Y420900D03*
X614380Y433600D03*
X614380Y446300D03*
X614380Y459000D03*
X614380Y471700D03*
X614380Y484400D03*
X614380Y497100D03*
X614380Y509800D03*
X614380Y522500D03*
D11*
X516880Y446900D03*
D12*
X398780Y461400D03*
X398780Y478400D03*
D13*
X656980Y463550D03*
X673980Y463550D03*
X656980Y479425D03*
X673980Y479425D03*
D14*
X472120Y221180D02*
X465140Y221180D01*
X465140Y228160D01*
X472120Y228160D01*
X472120Y221180D01*
X472120Y225980D02*
X465140Y225980D01*
X465140Y203640D02*
X472120Y203640D01*
X465140Y203640D02*
X465140Y210620D01*
X472120Y210620D01*
X472120Y203640D01*
X472120Y208440D02*
X465140Y208440D01*
D12*
X452755Y207400D03*
X452755Y224400D03*
D15*
X406780Y170000D03*
X390780Y170000D03*
X390780Y211000D03*
X406780Y211000D03*
X406780Y385900D03*
X390780Y385900D03*
X390780Y426900D03*
X406780Y426900D03*
D16*
X482480Y60100D03*
X477480Y60100D03*
D17*
X507230Y60100D03*
X499480Y60100D03*
D16*
X492480Y60100D03*
X487480Y60100D03*
X467480Y60100D03*
X472480Y60100D03*
D17*
X442730Y60100D03*
X450480Y60100D03*
D16*
X457480Y60100D03*
X462480Y60100D03*
D18*
X446080Y49050D03*
X503880Y49050D03*
D19*
X611204Y225400D03*
X611204Y215900D03*
X611204Y206400D03*
X637206Y206400D03*
X637206Y225400D03*
D20*
X541655Y227400D03*
X541655Y204400D03*
X560705Y227400D03*
X560705Y204400D03*
D21*
X684980Y381000D03*
X684980Y368300D03*
X684980Y355600D03*
X684980Y393700D03*
X684980Y406400D03*
X645980Y406400D03*
X645980Y393700D03*
X645980Y381000D03*
X645980Y368300D03*
X645980Y355600D03*
D12*
X579755Y207400D03*
X579755Y224400D03*
X684530Y224400D03*
X684530Y207400D03*
X595630Y207400D03*
X595630Y224400D03*
X668655Y224400D03*
X668655Y207400D03*
X652780Y224400D03*
X652780Y207400D03*
D13*
X654930Y307975D03*
X637930Y307975D03*
X654930Y292100D03*
X637930Y292100D03*
X654930Y276225D03*
X637930Y276225D03*
X676030Y276225D03*
X693030Y276225D03*
X676030Y292100D03*
X693030Y292100D03*
X676030Y307975D03*
X693030Y307975D03*
D22*
X465780Y171600D03*
X484180Y165100D03*
X484180Y158600D03*
X484180Y171600D03*
X465780Y165100D03*
X465780Y158600D03*
D12*
X500380Y173600D03*
X500380Y156600D03*
X449580Y156600D03*
X449580Y173600D03*
D23*
X454480Y101800D03*
X454480Y106800D03*
X454480Y111800D03*
X454480Y116800D03*
X454480Y121800D03*
X454480Y126800D03*
D24*
X462480Y134800D03*
X467480Y134800D03*
X472480Y134800D03*
X477480Y134800D03*
X482480Y134800D03*
X487480Y134800D03*
X487480Y93800D03*
X482480Y93800D03*
X477480Y93800D03*
X472480Y93800D03*
X467480Y93800D03*
X462480Y93800D03*
D23*
X495480Y126800D03*
X495480Y121800D03*
X495480Y116800D03*
X495480Y111800D03*
X495480Y106800D03*
X495480Y101800D03*
D25*
X474980Y114300D03*
D12*
X516255Y83575D03*
X516255Y100575D03*
X532130Y100575D03*
X532130Y83575D03*
D14*
X487995Y221180D02*
X481015Y221180D01*
X481015Y228160D01*
X487995Y228160D01*
X487995Y221180D01*
X487995Y225980D02*
X481015Y225980D01*
X481015Y203640D02*
X487995Y203640D01*
X481015Y203640D02*
X481015Y210620D01*
X487995Y210620D01*
X487995Y203640D01*
X487995Y208440D02*
X481015Y208440D01*
D12*
X500380Y207400D03*
X500380Y224400D03*
D26*
X690880Y533400D03*
X386080Y533400D03*
X690880Y25400D03*
X386080Y25400D03*
D27*
X424180Y533400D03*
X640080Y50800D03*
D12*
X417830Y100575D03*
X417830Y83575D03*
X433705Y100575D03*
X433705Y83575D03*
D28*
X574802Y114300D03*
D29*
X613358Y114300D03*
X644802Y114300D03*
X683358Y114300D03*
D10*
X78700Y1086380D03*
X78700Y1073680D03*
X78700Y1060980D03*
X78700Y1048280D03*
X78700Y1035580D03*
X78700Y1022880D03*
X78700Y1010180D03*
X78700Y997480D03*
X78700Y984780D03*
X78700Y972080D03*
X78700Y959380D03*
X78700Y946680D03*
X78700Y933980D03*
X78700Y921280D03*
X78700Y908580D03*
X78700Y895880D03*
X78700Y883180D03*
X78700Y870480D03*
X78700Y857780D03*
X253700Y857780D03*
X253700Y870480D03*
X253700Y883180D03*
X253700Y895880D03*
X253700Y908580D03*
X253700Y921280D03*
X253700Y933980D03*
X253700Y946680D03*
X253700Y959380D03*
X253700Y972080D03*
X253700Y984780D03*
X253700Y997480D03*
X253700Y1010180D03*
X253700Y1022880D03*
X253700Y1035580D03*
X253700Y1048280D03*
X253700Y1060980D03*
X253700Y1073680D03*
X253700Y1086380D03*
D11*
X156200Y1010780D03*
D12*
X38100Y1025280D03*
X38100Y1042280D03*
D13*
X296300Y1027430D03*
X313300Y1027430D03*
X296300Y1043305D03*
X313300Y1043305D03*
D14*
X111440Y785060D02*
X104460Y785060D01*
X104460Y792040D01*
X111440Y792040D01*
X111440Y785060D01*
X111440Y789860D02*
X104460Y789860D01*
X104460Y767520D02*
X111440Y767520D01*
X104460Y767520D02*
X104460Y774500D01*
X111440Y774500D01*
X111440Y767520D01*
X111440Y772320D02*
X104460Y772320D01*
D12*
X92075Y771280D03*
X92075Y788280D03*
D15*
X46100Y733880D03*
X30100Y733880D03*
X30100Y774880D03*
X46100Y774880D03*
X46100Y949780D03*
X30100Y949780D03*
X30100Y990780D03*
X46100Y990780D03*
D16*
X121800Y623980D03*
X116800Y623980D03*
D17*
X146550Y623980D03*
X138800Y623980D03*
D16*
X131800Y623980D03*
X126800Y623980D03*
X106800Y623980D03*
X111800Y623980D03*
D17*
X82050Y623980D03*
X89800Y623980D03*
D16*
X96800Y623980D03*
X101800Y623980D03*
D18*
X85400Y612930D03*
X143200Y612930D03*
D19*
X250524Y789280D03*
X250524Y779780D03*
X250524Y770280D03*
X276526Y770280D03*
X276526Y789280D03*
D20*
X180975Y791280D03*
X180975Y768280D03*
X200025Y791280D03*
X200025Y768280D03*
D21*
X324300Y944880D03*
X324300Y932180D03*
X324300Y919480D03*
X324300Y957580D03*
X324300Y970280D03*
X285300Y970280D03*
X285300Y957580D03*
X285300Y944880D03*
X285300Y932180D03*
X285300Y919480D03*
D12*
X219075Y771280D03*
X219075Y788280D03*
X323850Y788280D03*
X323850Y771280D03*
X234950Y771280D03*
X234950Y788280D03*
X307975Y788280D03*
X307975Y771280D03*
X292100Y788280D03*
X292100Y771280D03*
D13*
X294250Y871855D03*
X277250Y871855D03*
X294250Y855980D03*
X277250Y855980D03*
X294250Y840105D03*
X277250Y840105D03*
X315350Y840105D03*
X332350Y840105D03*
X315350Y855980D03*
X332350Y855980D03*
X315350Y871855D03*
X332350Y871855D03*
D22*
X105100Y735480D03*
X123500Y728980D03*
X123500Y722480D03*
X123500Y735480D03*
X105100Y728980D03*
X105100Y722480D03*
D12*
X139700Y737480D03*
X139700Y720480D03*
X88900Y720480D03*
X88900Y737480D03*
D23*
X93800Y665680D03*
X93800Y670680D03*
X93800Y675680D03*
X93800Y680680D03*
X93800Y685680D03*
X93800Y690680D03*
D24*
X101800Y698680D03*
X106800Y698680D03*
X111800Y698680D03*
X116800Y698680D03*
X121800Y698680D03*
X126800Y698680D03*
X126800Y657680D03*
X121800Y657680D03*
X116800Y657680D03*
X111800Y657680D03*
X106800Y657680D03*
X101800Y657680D03*
D23*
X134800Y690680D03*
X134800Y685680D03*
X134800Y680680D03*
X134800Y675680D03*
X134800Y670680D03*
X134800Y665680D03*
D25*
X114300Y678180D03*
D12*
X155575Y647455D03*
X155575Y664455D03*
X171450Y664455D03*
X171450Y647455D03*
D14*
X127315Y785060D02*
X120335Y785060D01*
X120335Y792040D01*
X127315Y792040D01*
X127315Y785060D01*
X127315Y789860D02*
X120335Y789860D01*
X120335Y767520D02*
X127315Y767520D01*
X120335Y767520D02*
X120335Y774500D01*
X127315Y774500D01*
X127315Y767520D01*
X127315Y772320D02*
X120335Y772320D01*
D12*
X139700Y771280D03*
X139700Y788280D03*
D26*
X330200Y1097280D03*
X25400Y1097280D03*
X330200Y589280D03*
X25400Y589280D03*
D27*
X63500Y1097280D03*
X279400Y614680D03*
D12*
X57150Y664455D03*
X57150Y647455D03*
X73025Y664455D03*
X73025Y647455D03*
D28*
X214122Y678180D03*
D29*
X252678Y678180D03*
X284122Y678180D03*
X322678Y678180D03*
D10*
X439380Y1086380D03*
X439380Y1073680D03*
X439380Y1060980D03*
X439380Y1048280D03*
X439380Y1035580D03*
X439380Y1022880D03*
X439380Y1010180D03*
X439380Y997480D03*
X439380Y984780D03*
X439380Y972080D03*
X439380Y959380D03*
X439380Y946680D03*
X439380Y933980D03*
X439380Y921280D03*
X439380Y908580D03*
X439380Y895880D03*
X439380Y883180D03*
X439380Y870480D03*
X439380Y857780D03*
X614380Y857780D03*
X614380Y870480D03*
X614380Y883180D03*
X614380Y895880D03*
X614380Y908580D03*
X614380Y921280D03*
X614380Y933980D03*
X614380Y946680D03*
X614380Y959380D03*
X614380Y972080D03*
X614380Y984780D03*
X614380Y997480D03*
X614380Y1010180D03*
X614380Y1022880D03*
X614380Y1035580D03*
X614380Y1048280D03*
X614380Y1060980D03*
X614380Y1073680D03*
X614380Y1086380D03*
D11*
X516880Y1010780D03*
D12*
X398780Y1025280D03*
X398780Y1042280D03*
D13*
X656980Y1027430D03*
X673980Y1027430D03*
X656980Y1043305D03*
X673980Y1043305D03*
D14*
X472120Y785060D02*
X465140Y785060D01*
X465140Y792040D01*
X472120Y792040D01*
X472120Y785060D01*
X472120Y789860D02*
X465140Y789860D01*
X465140Y767520D02*
X472120Y767520D01*
X465140Y767520D02*
X465140Y774500D01*
X472120Y774500D01*
X472120Y767520D01*
X472120Y772320D02*
X465140Y772320D01*
D12*
X452755Y771280D03*
X452755Y788280D03*
D15*
X406780Y733880D03*
X390780Y733880D03*
X390780Y774880D03*
X406780Y774880D03*
X406780Y949780D03*
X390780Y949780D03*
X390780Y990780D03*
X406780Y990780D03*
D16*
X482480Y623980D03*
X477480Y623980D03*
D17*
X507230Y623980D03*
X499480Y623980D03*
D16*
X492480Y623980D03*
X487480Y623980D03*
X467480Y623980D03*
X472480Y623980D03*
D17*
X442730Y623980D03*
X450480Y623980D03*
D16*
X457480Y623980D03*
X462480Y623980D03*
D18*
X446080Y612930D03*
X503880Y612930D03*
D19*
X611204Y789280D03*
X611204Y779780D03*
X611204Y770280D03*
X637206Y770280D03*
X637206Y789280D03*
D20*
X541655Y791280D03*
X541655Y768280D03*
X560705Y791280D03*
X560705Y768280D03*
D21*
X684980Y944880D03*
X684980Y932180D03*
X684980Y919480D03*
X684980Y957580D03*
X684980Y970280D03*
X645980Y970280D03*
X645980Y957580D03*
X645980Y944880D03*
X645980Y932180D03*
X645980Y919480D03*
D12*
X579755Y771280D03*
X579755Y788280D03*
X684530Y788280D03*
X684530Y771280D03*
X595630Y771280D03*
X595630Y788280D03*
X668655Y788280D03*
X668655Y771280D03*
X652780Y788280D03*
X652780Y771280D03*
D13*
X654930Y871855D03*
X637930Y871855D03*
X654930Y855980D03*
X637930Y855980D03*
X654930Y840105D03*
X637930Y840105D03*
X676030Y840105D03*
X693030Y840105D03*
X676030Y855980D03*
X693030Y855980D03*
X676030Y871855D03*
X693030Y871855D03*
D22*
X465780Y735480D03*
X484180Y728980D03*
X484180Y722480D03*
X484180Y735480D03*
X465780Y728980D03*
X465780Y722480D03*
D12*
X500380Y737480D03*
X500380Y720480D03*
X449580Y720480D03*
X449580Y737480D03*
D23*
X454480Y665680D03*
X454480Y670680D03*
X454480Y675680D03*
X454480Y680680D03*
X454480Y685680D03*
X454480Y690680D03*
D24*
X462480Y698680D03*
X467480Y698680D03*
X472480Y698680D03*
X477480Y698680D03*
X482480Y698680D03*
X487480Y698680D03*
X487480Y657680D03*
X482480Y657680D03*
X477480Y657680D03*
X472480Y657680D03*
X467480Y657680D03*
X462480Y657680D03*
D23*
X495480Y690680D03*
X495480Y685680D03*
X495480Y680680D03*
X495480Y675680D03*
X495480Y670680D03*
X495480Y665680D03*
D25*
X474980Y678180D03*
D12*
X516255Y647455D03*
X516255Y664455D03*
X532130Y664455D03*
X532130Y647455D03*
D14*
X487995Y785060D02*
X481015Y785060D01*
X481015Y792040D01*
X487995Y792040D01*
X487995Y785060D01*
X487995Y789860D02*
X481015Y789860D01*
X481015Y767520D02*
X487995Y767520D01*
X481015Y767520D02*
X481015Y774500D01*
X487995Y774500D01*
X487995Y767520D01*
X487995Y772320D02*
X481015Y772320D01*
D12*
X500380Y771280D03*
X500380Y788280D03*
D26*
X690880Y1097280D03*
X386080Y1097280D03*
X690880Y589280D03*
X386080Y589280D03*
D27*
X424180Y1097280D03*
X640080Y614680D03*
D12*
X417830Y664455D03*
X417830Y647455D03*
X433705Y664455D03*
X433705Y647455D03*
D28*
X574802Y678180D03*
D29*
X613358Y678180D03*
X644802Y678180D03*
X683358Y678180D03*
D27*
X68580Y1143635D03*
X647065Y1143635D03*
D30*
X59525Y-20955D02*
X59528Y-20733D01*
X59536Y-20511D01*
X59550Y-20289D01*
X59569Y-20067D01*
X59593Y-19847D01*
X59623Y-19626D01*
X59658Y-19407D01*
X59699Y-19188D01*
X59745Y-18971D01*
X59796Y-18755D01*
X59853Y-18540D01*
X59915Y-18326D01*
X59982Y-18115D01*
X60054Y-17904D01*
X60132Y-17696D01*
X60214Y-17490D01*
X60302Y-17286D01*
X60394Y-17083D01*
X60492Y-16884D01*
X60594Y-16687D01*
X60701Y-16492D01*
X60813Y-16300D01*
X60930Y-16111D01*
X61051Y-15924D01*
X61177Y-15741D01*
X61307Y-15561D01*
X61442Y-15384D01*
X61580Y-15211D01*
X61723Y-15041D01*
X61871Y-14874D01*
X62022Y-14711D01*
X62177Y-14552D01*
X62336Y-14397D01*
X62499Y-14246D01*
X62666Y-14098D01*
X62836Y-13955D01*
X63009Y-13817D01*
X63186Y-13682D01*
X63366Y-13552D01*
X63549Y-13426D01*
X63736Y-13305D01*
X63925Y-13188D01*
X64117Y-13076D01*
X64312Y-12969D01*
X64509Y-12867D01*
X64708Y-12769D01*
X64911Y-12677D01*
X65115Y-12589D01*
X65321Y-12507D01*
X65529Y-12429D01*
X65740Y-12357D01*
X65951Y-12290D01*
X66165Y-12228D01*
X66380Y-12171D01*
X66596Y-12120D01*
X66813Y-12074D01*
X67032Y-12033D01*
X67251Y-11998D01*
X67472Y-11968D01*
X67692Y-11944D01*
X67914Y-11925D01*
X68136Y-11911D01*
X68358Y-11903D01*
X68580Y-11900D01*
X68802Y-11903D01*
X69024Y-11911D01*
X69246Y-11925D01*
X69468Y-11944D01*
X69688Y-11968D01*
X69909Y-11998D01*
X70128Y-12033D01*
X70347Y-12074D01*
X70564Y-12120D01*
X70780Y-12171D01*
X70995Y-12228D01*
X71209Y-12290D01*
X71420Y-12357D01*
X71631Y-12429D01*
X71839Y-12507D01*
X72045Y-12589D01*
X72249Y-12677D01*
X72452Y-12769D01*
X72651Y-12867D01*
X72848Y-12969D01*
X73043Y-13076D01*
X73235Y-13188D01*
X73424Y-13305D01*
X73611Y-13426D01*
X73794Y-13552D01*
X73974Y-13682D01*
X74151Y-13817D01*
X74324Y-13955D01*
X74494Y-14098D01*
X74661Y-14246D01*
X74824Y-14397D01*
X74983Y-14552D01*
X75138Y-14711D01*
X75289Y-14874D01*
X75437Y-15041D01*
X75580Y-15211D01*
X75718Y-15384D01*
X75853Y-15561D01*
X75983Y-15741D01*
X76109Y-15924D01*
X76230Y-16111D01*
X76347Y-16300D01*
X76459Y-16492D01*
X76566Y-16687D01*
X76668Y-16884D01*
X76766Y-17083D01*
X76858Y-17286D01*
X76946Y-17490D01*
X77028Y-17696D01*
X77106Y-17904D01*
X77178Y-18115D01*
X77245Y-18326D01*
X77307Y-18540D01*
X77364Y-18755D01*
X77415Y-18971D01*
X77461Y-19188D01*
X77502Y-19407D01*
X77537Y-19626D01*
X77567Y-19847D01*
X77591Y-20067D01*
X77610Y-20289D01*
X77624Y-20511D01*
X77632Y-20733D01*
X77635Y-20955D01*
X77632Y-21177D01*
X77624Y-21399D01*
X77610Y-21621D01*
X77591Y-21843D01*
X77567Y-22063D01*
X77537Y-22284D01*
X77502Y-22503D01*
X77461Y-22722D01*
X77415Y-22939D01*
X77364Y-23155D01*
X77307Y-23370D01*
X77245Y-23584D01*
X77178Y-23795D01*
X77106Y-24006D01*
X77028Y-24214D01*
X76946Y-24420D01*
X76858Y-24624D01*
X76766Y-24827D01*
X76668Y-25026D01*
X76566Y-25223D01*
X76459Y-25418D01*
X76347Y-25610D01*
X76230Y-25799D01*
X76109Y-25986D01*
X75983Y-26169D01*
X75853Y-26349D01*
X75718Y-26526D01*
X75580Y-26699D01*
X75437Y-26869D01*
X75289Y-27036D01*
X75138Y-27199D01*
X74983Y-27358D01*
X74824Y-27513D01*
X74661Y-27664D01*
X74494Y-27812D01*
X74324Y-27955D01*
X74151Y-28093D01*
X73974Y-28228D01*
X73794Y-28358D01*
X73611Y-28484D01*
X73424Y-28605D01*
X73235Y-28722D01*
X73043Y-28834D01*
X72848Y-28941D01*
X72651Y-29043D01*
X72452Y-29141D01*
X72249Y-29233D01*
X72045Y-29321D01*
X71839Y-29403D01*
X71631Y-29481D01*
X71420Y-29553D01*
X71209Y-29620D01*
X70995Y-29682D01*
X70780Y-29739D01*
X70564Y-29790D01*
X70347Y-29836D01*
X70128Y-29877D01*
X69909Y-29912D01*
X69688Y-29942D01*
X69468Y-29966D01*
X69246Y-29985D01*
X69024Y-29999D01*
X68802Y-30007D01*
X68580Y-30010D01*
X68358Y-30007D01*
X68136Y-29999D01*
X67914Y-29985D01*
X67692Y-29966D01*
X67472Y-29942D01*
X67251Y-29912D01*
X67032Y-29877D01*
X66813Y-29836D01*
X66596Y-29790D01*
X66380Y-29739D01*
X66165Y-29682D01*
X65951Y-29620D01*
X65740Y-29553D01*
X65529Y-29481D01*
X65321Y-29403D01*
X65115Y-29321D01*
X64911Y-29233D01*
X64708Y-29141D01*
X64509Y-29043D01*
X64312Y-28941D01*
X64117Y-28834D01*
X63925Y-28722D01*
X63736Y-28605D01*
X63549Y-28484D01*
X63366Y-28358D01*
X63186Y-28228D01*
X63009Y-28093D01*
X62836Y-27955D01*
X62666Y-27812D01*
X62499Y-27664D01*
X62336Y-27513D01*
X62177Y-27358D01*
X62022Y-27199D01*
X61871Y-27036D01*
X61723Y-26869D01*
X61580Y-26699D01*
X61442Y-26526D01*
X61307Y-26349D01*
X61177Y-26169D01*
X61051Y-25986D01*
X60930Y-25799D01*
X60813Y-25610D01*
X60701Y-25418D01*
X60594Y-25223D01*
X60492Y-25026D01*
X60394Y-24827D01*
X60302Y-24624D01*
X60214Y-24420D01*
X60132Y-24214D01*
X60054Y-24006D01*
X59982Y-23795D01*
X59915Y-23584D01*
X59853Y-23370D01*
X59796Y-23155D01*
X59745Y-22939D01*
X59699Y-22722D01*
X59658Y-22503D01*
X59623Y-22284D01*
X59593Y-22063D01*
X59569Y-21843D01*
X59550Y-21621D01*
X59536Y-21399D01*
X59528Y-21177D01*
X59525Y-20955D01*
D31*
X68580Y-20955D03*
M02*
