G04 EAGLE Gerber RS-274X export*
G75*
%MOMM*%
%FSLAX34Y34*%
%LPD*%
%INSolderpaste Top*%
%IPPOS*%
%AMOC8*
5,1,8,0,0,1.08239X$1,22.5*%
G01*
%ADD10R,1.500000X0.900000*%
%ADD11R,3.000000X3.000000*%
%ADD12R,1.000000X1.100000*%
%ADD13R,1.100000X1.000000*%
%ADD14C,0.300000*%
%ADD15R,1.000000X0.900000*%
%ADD16R,0.300000X1.000000*%
%ADD17R,0.600000X1.000000*%
%ADD18R,1.200000X0.550000*%
%ADD19R,0.830000X0.630000*%
%ADD20R,2.400000X0.760000*%
%ADD21R,0.660000X0.300000*%

G36*
X157300Y607831D02*
X157300Y607831D01*
X157301Y607831D01*
X158369Y607850D01*
X158376Y607855D01*
X158380Y607851D01*
X159417Y608107D01*
X159422Y608114D01*
X159428Y608111D01*
X160382Y608592D01*
X160386Y608599D01*
X160391Y608598D01*
X161215Y609279D01*
X161216Y609287D01*
X161222Y609287D01*
X161873Y610134D01*
X161873Y610142D01*
X161879Y610143D01*
X162326Y611114D01*
X162324Y611122D01*
X162329Y611124D01*
X162548Y612170D01*
X162545Y612177D01*
X162549Y612180D01*
X162549Y624180D01*
X162546Y624185D01*
X162549Y624188D01*
X162369Y625283D01*
X162363Y625289D01*
X162366Y625294D01*
X161947Y626322D01*
X161940Y626326D01*
X161942Y626331D01*
X161305Y627240D01*
X161297Y627243D01*
X161297Y627248D01*
X160474Y627992D01*
X160466Y627993D01*
X160465Y627999D01*
X159497Y628541D01*
X159488Y628540D01*
X159486Y628546D01*
X158422Y628859D01*
X158417Y628857D01*
X158413Y628857D01*
X158411Y628861D01*
X157303Y628929D01*
X157297Y628925D01*
X157293Y628929D01*
X156185Y628759D01*
X156179Y628753D01*
X156174Y628756D01*
X155132Y628344D01*
X155128Y628337D01*
X155123Y628339D01*
X154198Y627705D01*
X154196Y627697D01*
X154190Y627698D01*
X153430Y626875D01*
X153429Y626866D01*
X153423Y626866D01*
X152866Y625894D01*
X152867Y625886D01*
X152861Y625884D01*
X152534Y624812D01*
X152537Y624804D01*
X152532Y624801D01*
X152451Y623684D01*
X152452Y623681D01*
X152451Y623680D01*
X152451Y611680D01*
X152456Y611673D01*
X152452Y611669D01*
X152671Y610725D01*
X152677Y610719D01*
X152675Y610714D01*
X153099Y609842D01*
X153106Y609839D01*
X153104Y609833D01*
X153711Y609077D01*
X153719Y609075D01*
X153719Y609069D01*
X154479Y608468D01*
X154488Y608468D01*
X154489Y608462D01*
X155364Y608044D01*
X155372Y608046D01*
X155374Y608041D01*
X156320Y607829D01*
X156327Y607832D01*
X156331Y607827D01*
X157300Y607831D01*
G37*
G36*
X517980Y607831D02*
X517980Y607831D01*
X517981Y607831D01*
X519049Y607850D01*
X519056Y607855D01*
X519060Y607851D01*
X520097Y608107D01*
X520102Y608114D01*
X520108Y608111D01*
X521062Y608592D01*
X521066Y608599D01*
X521071Y608598D01*
X521895Y609279D01*
X521896Y609287D01*
X521902Y609287D01*
X522553Y610134D01*
X522553Y610142D01*
X522559Y610143D01*
X523006Y611114D01*
X523004Y611122D01*
X523009Y611124D01*
X523228Y612170D01*
X523225Y612177D01*
X523229Y612180D01*
X523229Y624180D01*
X523226Y624185D01*
X523229Y624188D01*
X523049Y625283D01*
X523043Y625289D01*
X523046Y625294D01*
X522627Y626322D01*
X522620Y626326D01*
X522622Y626331D01*
X521985Y627240D01*
X521977Y627243D01*
X521977Y627248D01*
X521154Y627992D01*
X521146Y627993D01*
X521145Y627999D01*
X520177Y628541D01*
X520168Y628540D01*
X520166Y628546D01*
X519102Y628859D01*
X519097Y628857D01*
X519093Y628857D01*
X519091Y628861D01*
X517983Y628929D01*
X517977Y628925D01*
X517973Y628929D01*
X516865Y628759D01*
X516859Y628753D01*
X516854Y628756D01*
X515812Y628344D01*
X515808Y628337D01*
X515803Y628339D01*
X514878Y627705D01*
X514876Y627697D01*
X514870Y627698D01*
X514110Y626875D01*
X514109Y626866D01*
X514103Y626866D01*
X513546Y625894D01*
X513547Y625886D01*
X513541Y625884D01*
X513214Y624812D01*
X513217Y624804D01*
X513212Y624801D01*
X513131Y623684D01*
X513132Y623681D01*
X513131Y623680D01*
X513131Y611680D01*
X513136Y611673D01*
X513132Y611669D01*
X513351Y610725D01*
X513357Y610719D01*
X513355Y610714D01*
X513779Y609842D01*
X513786Y609839D01*
X513784Y609833D01*
X514391Y609077D01*
X514399Y609075D01*
X514399Y609069D01*
X515159Y608468D01*
X515168Y608468D01*
X515169Y608462D01*
X516044Y608044D01*
X516052Y608046D01*
X516054Y608041D01*
X517000Y607829D01*
X517007Y607832D01*
X517011Y607827D01*
X517980Y607831D01*
G37*
G36*
X157300Y43951D02*
X157300Y43951D01*
X157301Y43951D01*
X158369Y43970D01*
X158376Y43975D01*
X158380Y43971D01*
X159417Y44227D01*
X159422Y44234D01*
X159428Y44231D01*
X160382Y44712D01*
X160386Y44719D01*
X160391Y44718D01*
X161215Y45399D01*
X161216Y45407D01*
X161222Y45407D01*
X161873Y46254D01*
X161873Y46262D01*
X161879Y46263D01*
X162326Y47234D01*
X162324Y47242D01*
X162329Y47244D01*
X162548Y48290D01*
X162545Y48297D01*
X162549Y48300D01*
X162549Y60300D01*
X162546Y60305D01*
X162549Y60308D01*
X162369Y61403D01*
X162363Y61409D01*
X162366Y61414D01*
X161947Y62442D01*
X161940Y62446D01*
X161942Y62451D01*
X161305Y63360D01*
X161297Y63363D01*
X161297Y63368D01*
X160474Y64112D01*
X160466Y64113D01*
X160465Y64119D01*
X159497Y64661D01*
X159488Y64660D01*
X159486Y64666D01*
X158422Y64979D01*
X158417Y64977D01*
X158413Y64977D01*
X158411Y64981D01*
X157303Y65049D01*
X157297Y65045D01*
X157293Y65049D01*
X156185Y64879D01*
X156179Y64873D01*
X156174Y64876D01*
X155132Y64464D01*
X155128Y64457D01*
X155123Y64459D01*
X154198Y63825D01*
X154196Y63817D01*
X154190Y63818D01*
X153430Y62995D01*
X153429Y62986D01*
X153423Y62986D01*
X152866Y62014D01*
X152867Y62006D01*
X152861Y62004D01*
X152534Y60932D01*
X152537Y60924D01*
X152532Y60921D01*
X152451Y59804D01*
X152452Y59801D01*
X152451Y59800D01*
X152451Y47800D01*
X152456Y47793D01*
X152452Y47789D01*
X152671Y46845D01*
X152677Y46839D01*
X152675Y46834D01*
X153099Y45962D01*
X153106Y45959D01*
X153104Y45953D01*
X153711Y45197D01*
X153719Y45195D01*
X153719Y45189D01*
X154479Y44588D01*
X154488Y44588D01*
X154489Y44582D01*
X155364Y44164D01*
X155372Y44166D01*
X155374Y44161D01*
X156320Y43949D01*
X156327Y43952D01*
X156331Y43947D01*
X157300Y43951D01*
G37*
G36*
X517980Y43951D02*
X517980Y43951D01*
X517981Y43951D01*
X519049Y43970D01*
X519056Y43975D01*
X519060Y43971D01*
X520097Y44227D01*
X520102Y44234D01*
X520108Y44231D01*
X521062Y44712D01*
X521066Y44719D01*
X521071Y44718D01*
X521895Y45399D01*
X521896Y45407D01*
X521902Y45407D01*
X522553Y46254D01*
X522553Y46262D01*
X522559Y46263D01*
X523006Y47234D01*
X523004Y47242D01*
X523009Y47244D01*
X523228Y48290D01*
X523225Y48297D01*
X523229Y48300D01*
X523229Y60300D01*
X523226Y60305D01*
X523229Y60308D01*
X523049Y61403D01*
X523043Y61409D01*
X523046Y61414D01*
X522627Y62442D01*
X522620Y62446D01*
X522622Y62451D01*
X521985Y63360D01*
X521977Y63363D01*
X521977Y63368D01*
X521154Y64112D01*
X521146Y64113D01*
X521145Y64119D01*
X520177Y64661D01*
X520168Y64660D01*
X520166Y64666D01*
X519102Y64979D01*
X519097Y64977D01*
X519093Y64977D01*
X519091Y64981D01*
X517983Y65049D01*
X517977Y65045D01*
X517973Y65049D01*
X516865Y64879D01*
X516859Y64873D01*
X516854Y64876D01*
X515812Y64464D01*
X515808Y64457D01*
X515803Y64459D01*
X514878Y63825D01*
X514876Y63817D01*
X514870Y63818D01*
X514110Y62995D01*
X514109Y62986D01*
X514103Y62986D01*
X513546Y62014D01*
X513547Y62006D01*
X513541Y62004D01*
X513214Y60932D01*
X513217Y60924D01*
X513212Y60921D01*
X513131Y59804D01*
X513132Y59801D01*
X513131Y59800D01*
X513131Y47800D01*
X513136Y47793D01*
X513132Y47789D01*
X513351Y46845D01*
X513357Y46839D01*
X513355Y46834D01*
X513779Y45962D01*
X513786Y45959D01*
X513784Y45953D01*
X514391Y45197D01*
X514399Y45195D01*
X514399Y45189D01*
X515159Y44588D01*
X515168Y44588D01*
X515169Y44582D01*
X516044Y44164D01*
X516052Y44166D01*
X516054Y44161D01*
X517000Y43949D01*
X517007Y43952D01*
X517011Y43947D01*
X517980Y43951D01*
G37*
G36*
X71881Y607840D02*
X71881Y607840D01*
X71888Y607845D01*
X71892Y607841D01*
X72944Y608091D01*
X72949Y608097D01*
X72954Y608094D01*
X73924Y608571D01*
X73927Y608579D01*
X73933Y608577D01*
X74772Y609258D01*
X74774Y609266D01*
X74780Y609266D01*
X75446Y610117D01*
X75447Y610125D01*
X75452Y610126D01*
X75913Y611103D01*
X75911Y611111D01*
X75917Y611114D01*
X76148Y612169D01*
X76145Y612177D01*
X76149Y612180D01*
X76149Y624180D01*
X76145Y624185D01*
X76149Y624188D01*
X75956Y625294D01*
X75950Y625299D01*
X75953Y625304D01*
X75520Y626339D01*
X75513Y626343D01*
X75515Y626348D01*
X74862Y627261D01*
X74854Y627263D01*
X74855Y627269D01*
X74016Y628013D01*
X74007Y628014D01*
X74007Y628019D01*
X73023Y628558D01*
X73015Y628557D01*
X73013Y628562D01*
X71934Y628869D01*
X71926Y628866D01*
X71923Y628871D01*
X70803Y628929D01*
X70798Y628926D01*
X70795Y628929D01*
X69749Y628811D01*
X69743Y628805D01*
X69738Y628809D01*
X68744Y628461D01*
X68740Y628454D01*
X68735Y628456D01*
X67843Y627896D01*
X67841Y627889D01*
X67835Y627889D01*
X67091Y627145D01*
X67089Y627137D01*
X67084Y627137D01*
X66524Y626245D01*
X66524Y626237D01*
X66519Y626236D01*
X66171Y625242D01*
X66174Y625234D01*
X66169Y625231D01*
X66051Y624186D01*
X66053Y624182D01*
X66051Y624180D01*
X66051Y612180D01*
X66054Y612175D01*
X66051Y612172D01*
X66209Y611176D01*
X66215Y611170D01*
X66212Y611165D01*
X66587Y610229D01*
X66594Y610225D01*
X66592Y610219D01*
X67166Y609390D01*
X67174Y609387D01*
X67173Y609382D01*
X67917Y608701D01*
X67926Y608700D01*
X67926Y608694D01*
X68803Y608196D01*
X68812Y608197D01*
X68814Y608192D01*
X69779Y607901D01*
X69787Y607904D01*
X69790Y607899D01*
X70797Y607831D01*
X70799Y607832D01*
X70800Y607831D01*
X71881Y607840D01*
G37*
G36*
X432561Y607840D02*
X432561Y607840D01*
X432568Y607845D01*
X432572Y607841D01*
X433624Y608091D01*
X433629Y608097D01*
X433634Y608094D01*
X434604Y608571D01*
X434607Y608579D01*
X434613Y608577D01*
X435452Y609258D01*
X435454Y609266D01*
X435460Y609266D01*
X436126Y610117D01*
X436127Y610125D01*
X436132Y610126D01*
X436593Y611103D01*
X436591Y611111D01*
X436597Y611114D01*
X436828Y612169D01*
X436825Y612177D01*
X436829Y612180D01*
X436829Y624180D01*
X436825Y624185D01*
X436829Y624188D01*
X436636Y625294D01*
X436630Y625299D01*
X436633Y625304D01*
X436200Y626339D01*
X436193Y626343D01*
X436195Y626348D01*
X435542Y627261D01*
X435534Y627263D01*
X435535Y627269D01*
X434696Y628013D01*
X434687Y628014D01*
X434687Y628019D01*
X433703Y628558D01*
X433695Y628557D01*
X433693Y628562D01*
X432614Y628869D01*
X432606Y628866D01*
X432603Y628871D01*
X431483Y628929D01*
X431478Y628926D01*
X431475Y628929D01*
X430429Y628811D01*
X430423Y628805D01*
X430418Y628809D01*
X429424Y628461D01*
X429420Y628454D01*
X429415Y628456D01*
X428523Y627896D01*
X428521Y627889D01*
X428515Y627889D01*
X427771Y627145D01*
X427769Y627137D01*
X427764Y627137D01*
X427204Y626245D01*
X427204Y626237D01*
X427199Y626236D01*
X426851Y625242D01*
X426854Y625234D01*
X426849Y625231D01*
X426731Y624186D01*
X426733Y624182D01*
X426731Y624180D01*
X426731Y612180D01*
X426734Y612175D01*
X426731Y612172D01*
X426889Y611176D01*
X426895Y611170D01*
X426892Y611165D01*
X427267Y610229D01*
X427274Y610225D01*
X427272Y610219D01*
X427846Y609390D01*
X427854Y609387D01*
X427853Y609382D01*
X428597Y608701D01*
X428606Y608700D01*
X428606Y608694D01*
X429483Y608196D01*
X429492Y608197D01*
X429494Y608192D01*
X430459Y607901D01*
X430467Y607904D01*
X430470Y607899D01*
X431477Y607831D01*
X431479Y607832D01*
X431480Y607831D01*
X432561Y607840D01*
G37*
G36*
X432561Y43960D02*
X432561Y43960D01*
X432568Y43965D01*
X432572Y43961D01*
X433624Y44211D01*
X433629Y44217D01*
X433634Y44214D01*
X434604Y44691D01*
X434607Y44699D01*
X434613Y44697D01*
X435452Y45378D01*
X435454Y45386D01*
X435460Y45386D01*
X436126Y46237D01*
X436127Y46245D01*
X436132Y46246D01*
X436593Y47223D01*
X436591Y47231D01*
X436597Y47234D01*
X436828Y48289D01*
X436825Y48297D01*
X436829Y48300D01*
X436829Y60300D01*
X436825Y60305D01*
X436829Y60308D01*
X436636Y61414D01*
X436630Y61419D01*
X436633Y61424D01*
X436200Y62459D01*
X436193Y62463D01*
X436195Y62468D01*
X435542Y63381D01*
X435534Y63383D01*
X435535Y63389D01*
X434696Y64133D01*
X434687Y64134D01*
X434687Y64139D01*
X433703Y64678D01*
X433695Y64677D01*
X433693Y64682D01*
X432614Y64989D01*
X432606Y64986D01*
X432603Y64991D01*
X431483Y65049D01*
X431478Y65046D01*
X431475Y65049D01*
X430429Y64931D01*
X430423Y64925D01*
X430418Y64929D01*
X429424Y64581D01*
X429420Y64574D01*
X429415Y64576D01*
X428523Y64016D01*
X428521Y64009D01*
X428515Y64009D01*
X427771Y63265D01*
X427769Y63257D01*
X427764Y63257D01*
X427204Y62365D01*
X427204Y62357D01*
X427199Y62356D01*
X426851Y61362D01*
X426854Y61354D01*
X426849Y61351D01*
X426731Y60306D01*
X426733Y60302D01*
X426731Y60300D01*
X426731Y48300D01*
X426734Y48295D01*
X426731Y48292D01*
X426889Y47296D01*
X426895Y47290D01*
X426892Y47285D01*
X427267Y46349D01*
X427274Y46345D01*
X427272Y46339D01*
X427846Y45510D01*
X427854Y45507D01*
X427853Y45502D01*
X428597Y44821D01*
X428606Y44820D01*
X428606Y44814D01*
X429483Y44316D01*
X429492Y44317D01*
X429494Y44312D01*
X430459Y44021D01*
X430467Y44024D01*
X430470Y44019D01*
X431477Y43951D01*
X431479Y43952D01*
X431480Y43951D01*
X432561Y43960D01*
G37*
G36*
X71881Y43960D02*
X71881Y43960D01*
X71888Y43965D01*
X71892Y43961D01*
X72944Y44211D01*
X72949Y44217D01*
X72954Y44214D01*
X73924Y44691D01*
X73927Y44699D01*
X73933Y44697D01*
X74772Y45378D01*
X74774Y45386D01*
X74780Y45386D01*
X75446Y46237D01*
X75447Y46245D01*
X75452Y46246D01*
X75913Y47223D01*
X75911Y47231D01*
X75917Y47234D01*
X76148Y48289D01*
X76145Y48297D01*
X76149Y48300D01*
X76149Y60300D01*
X76145Y60305D01*
X76149Y60308D01*
X75956Y61414D01*
X75950Y61419D01*
X75953Y61424D01*
X75520Y62459D01*
X75513Y62463D01*
X75515Y62468D01*
X74862Y63381D01*
X74854Y63383D01*
X74855Y63389D01*
X74016Y64133D01*
X74007Y64134D01*
X74007Y64139D01*
X73023Y64678D01*
X73015Y64677D01*
X73013Y64682D01*
X71934Y64989D01*
X71926Y64986D01*
X71923Y64991D01*
X70803Y65049D01*
X70798Y65046D01*
X70795Y65049D01*
X69749Y64931D01*
X69743Y64925D01*
X69738Y64929D01*
X68744Y64581D01*
X68740Y64574D01*
X68735Y64576D01*
X67843Y64016D01*
X67841Y64009D01*
X67835Y64009D01*
X67091Y63265D01*
X67089Y63257D01*
X67084Y63257D01*
X66524Y62365D01*
X66524Y62357D01*
X66519Y62356D01*
X66171Y61362D01*
X66174Y61354D01*
X66169Y61351D01*
X66051Y60306D01*
X66053Y60302D01*
X66051Y60300D01*
X66051Y48300D01*
X66054Y48295D01*
X66051Y48292D01*
X66209Y47296D01*
X66215Y47290D01*
X66212Y47285D01*
X66587Y46349D01*
X66594Y46345D01*
X66592Y46339D01*
X67166Y45510D01*
X67174Y45507D01*
X67173Y45502D01*
X67917Y44821D01*
X67926Y44820D01*
X67926Y44814D01*
X68803Y44316D01*
X68812Y44317D01*
X68814Y44312D01*
X69779Y44021D01*
X69787Y44024D01*
X69790Y44019D01*
X70797Y43951D01*
X70799Y43952D01*
X70800Y43951D01*
X71881Y43960D01*
G37*
G36*
X518484Y568335D02*
X518484Y568335D01*
X518487Y568331D01*
X519563Y568486D01*
X519568Y568492D01*
X519573Y568489D01*
X520587Y568879D01*
X520591Y568886D01*
X520597Y568885D01*
X521499Y569491D01*
X521501Y569499D01*
X521507Y569498D01*
X522251Y570290D01*
X522252Y570298D01*
X522258Y570298D01*
X522807Y571236D01*
X522806Y571244D01*
X522812Y571246D01*
X523139Y572282D01*
X523136Y572290D01*
X523141Y572293D01*
X523229Y573376D01*
X523227Y573379D01*
X523229Y573380D01*
X523229Y579380D01*
X523226Y579384D01*
X523229Y579386D01*
X523079Y580519D01*
X523073Y580525D01*
X523076Y580530D01*
X522678Y581600D01*
X522671Y581604D01*
X522673Y581610D01*
X522046Y582565D01*
X522038Y582568D01*
X522039Y582573D01*
X521216Y583365D01*
X521208Y583366D01*
X521207Y583372D01*
X520228Y583961D01*
X520220Y583960D01*
X520218Y583965D01*
X519133Y584321D01*
X519125Y584319D01*
X519122Y584323D01*
X517985Y584429D01*
X517976Y584424D01*
X517971Y584428D01*
X516834Y584221D01*
X516828Y584215D01*
X516823Y584218D01*
X515761Y583763D01*
X515757Y583756D01*
X515751Y583758D01*
X514816Y583078D01*
X514814Y583070D01*
X514808Y583071D01*
X514048Y582200D01*
X514048Y582192D01*
X514042Y582191D01*
X513495Y581172D01*
X513496Y581164D01*
X513491Y581162D01*
X513487Y581149D01*
X513474Y581100D01*
X513473Y581100D01*
X513474Y581100D01*
X513460Y581051D01*
X513446Y581001D01*
X513433Y580952D01*
X513419Y580903D01*
X513406Y580854D01*
X513392Y580804D01*
X513379Y580755D01*
X513365Y580706D01*
X513351Y580657D01*
X513338Y580607D01*
X513324Y580558D01*
X513311Y580509D01*
X513297Y580460D01*
X513284Y580410D01*
X513270Y580361D01*
X513257Y580312D01*
X513256Y580312D01*
X513243Y580263D01*
X513229Y580213D01*
X513184Y580048D01*
X513187Y580040D01*
X513182Y580037D01*
X513131Y578882D01*
X513132Y578881D01*
X513131Y578880D01*
X513131Y572880D01*
X513135Y572874D01*
X513132Y572871D01*
X513344Y571790D01*
X513350Y571785D01*
X513347Y571780D01*
X513794Y570774D01*
X513801Y570770D01*
X513799Y570764D01*
X514459Y569883D01*
X514467Y569880D01*
X514467Y569875D01*
X515306Y569162D01*
X515314Y569162D01*
X515315Y569156D01*
X516292Y568648D01*
X516300Y568649D01*
X516302Y568644D01*
X517367Y568366D01*
X517375Y568369D01*
X517378Y568365D01*
X518479Y568331D01*
X518484Y568335D01*
G37*
G36*
X157804Y568335D02*
X157804Y568335D01*
X157807Y568331D01*
X158883Y568486D01*
X158888Y568492D01*
X158893Y568489D01*
X159907Y568879D01*
X159911Y568886D01*
X159917Y568885D01*
X160819Y569491D01*
X160821Y569499D01*
X160827Y569498D01*
X161571Y570290D01*
X161572Y570298D01*
X161578Y570298D01*
X162127Y571236D01*
X162126Y571244D01*
X162132Y571246D01*
X162459Y572282D01*
X162456Y572290D01*
X162461Y572293D01*
X162549Y573376D01*
X162547Y573379D01*
X162549Y573380D01*
X162549Y579380D01*
X162546Y579384D01*
X162549Y579386D01*
X162399Y580519D01*
X162393Y580525D01*
X162396Y580530D01*
X161998Y581600D01*
X161991Y581604D01*
X161993Y581610D01*
X161366Y582565D01*
X161358Y582568D01*
X161359Y582573D01*
X160536Y583365D01*
X160528Y583366D01*
X160527Y583372D01*
X159548Y583961D01*
X159540Y583960D01*
X159538Y583965D01*
X158453Y584321D01*
X158445Y584319D01*
X158442Y584323D01*
X157305Y584429D01*
X157296Y584424D01*
X157291Y584428D01*
X156154Y584221D01*
X156148Y584215D01*
X156143Y584218D01*
X155081Y583763D01*
X155077Y583756D01*
X155071Y583758D01*
X154136Y583078D01*
X154134Y583070D01*
X154128Y583071D01*
X153368Y582200D01*
X153368Y582192D01*
X153362Y582191D01*
X152815Y581172D01*
X152816Y581164D01*
X152811Y581162D01*
X152807Y581149D01*
X152794Y581100D01*
X152793Y581100D01*
X152794Y581100D01*
X152780Y581051D01*
X152766Y581001D01*
X152753Y580952D01*
X152739Y580903D01*
X152726Y580854D01*
X152712Y580804D01*
X152699Y580755D01*
X152685Y580706D01*
X152671Y580657D01*
X152658Y580607D01*
X152644Y580558D01*
X152631Y580509D01*
X152617Y580460D01*
X152604Y580410D01*
X152590Y580361D01*
X152577Y580312D01*
X152576Y580312D01*
X152563Y580263D01*
X152549Y580213D01*
X152504Y580048D01*
X152507Y580040D01*
X152502Y580037D01*
X152451Y578882D01*
X152452Y578881D01*
X152451Y578880D01*
X152451Y572880D01*
X152455Y572874D01*
X152452Y572871D01*
X152664Y571790D01*
X152670Y571785D01*
X152667Y571780D01*
X153114Y570774D01*
X153121Y570770D01*
X153119Y570764D01*
X153779Y569883D01*
X153787Y569880D01*
X153787Y569875D01*
X154626Y569162D01*
X154634Y569162D01*
X154635Y569156D01*
X155612Y568648D01*
X155620Y568649D01*
X155622Y568644D01*
X156687Y568366D01*
X156695Y568369D01*
X156698Y568365D01*
X157799Y568331D01*
X157804Y568335D01*
G37*
G36*
X518484Y4455D02*
X518484Y4455D01*
X518487Y4451D01*
X519563Y4606D01*
X519568Y4612D01*
X519573Y4609D01*
X520587Y4999D01*
X520591Y5006D01*
X520597Y5005D01*
X521499Y5611D01*
X521501Y5619D01*
X521507Y5618D01*
X522251Y6410D01*
X522252Y6418D01*
X522258Y6418D01*
X522807Y7356D01*
X522806Y7364D01*
X522812Y7366D01*
X523139Y8402D01*
X523136Y8410D01*
X523141Y8413D01*
X523229Y9496D01*
X523227Y9499D01*
X523229Y9500D01*
X523229Y15500D01*
X523226Y15504D01*
X523229Y15506D01*
X523079Y16639D01*
X523073Y16645D01*
X523076Y16650D01*
X522678Y17720D01*
X522671Y17724D01*
X522673Y17730D01*
X522046Y18685D01*
X522038Y18688D01*
X522039Y18693D01*
X521216Y19485D01*
X521208Y19486D01*
X521207Y19492D01*
X520228Y20081D01*
X520220Y20080D01*
X520218Y20085D01*
X519133Y20441D01*
X519125Y20439D01*
X519122Y20443D01*
X517985Y20549D01*
X517976Y20544D01*
X517971Y20548D01*
X516834Y20341D01*
X516828Y20335D01*
X516823Y20338D01*
X515761Y19883D01*
X515757Y19876D01*
X515751Y19878D01*
X514816Y19198D01*
X514814Y19190D01*
X514808Y19191D01*
X514048Y18320D01*
X514048Y18312D01*
X514042Y18311D01*
X513495Y17292D01*
X513496Y17284D01*
X513491Y17282D01*
X513487Y17269D01*
X513474Y17220D01*
X513473Y17220D01*
X513474Y17220D01*
X513460Y17171D01*
X513446Y17121D01*
X513433Y17072D01*
X513419Y17023D01*
X513406Y16974D01*
X513392Y16924D01*
X513379Y16875D01*
X513365Y16826D01*
X513351Y16777D01*
X513338Y16727D01*
X513324Y16678D01*
X513311Y16629D01*
X513297Y16580D01*
X513284Y16530D01*
X513270Y16481D01*
X513257Y16432D01*
X513256Y16432D01*
X513243Y16383D01*
X513229Y16333D01*
X513184Y16168D01*
X513187Y16160D01*
X513182Y16157D01*
X513131Y15002D01*
X513132Y15001D01*
X513131Y15000D01*
X513131Y9000D01*
X513135Y8994D01*
X513132Y8991D01*
X513344Y7910D01*
X513350Y7905D01*
X513347Y7900D01*
X513794Y6894D01*
X513801Y6890D01*
X513799Y6884D01*
X514459Y6003D01*
X514467Y6000D01*
X514467Y5995D01*
X515306Y5282D01*
X515314Y5282D01*
X515315Y5276D01*
X516292Y4768D01*
X516300Y4769D01*
X516302Y4764D01*
X517367Y4486D01*
X517375Y4489D01*
X517378Y4485D01*
X518479Y4451D01*
X518484Y4455D01*
G37*
G36*
X157804Y4455D02*
X157804Y4455D01*
X157807Y4451D01*
X158883Y4606D01*
X158888Y4612D01*
X158893Y4609D01*
X159907Y4999D01*
X159911Y5006D01*
X159917Y5005D01*
X160819Y5611D01*
X160821Y5619D01*
X160827Y5618D01*
X161571Y6410D01*
X161572Y6418D01*
X161578Y6418D01*
X162127Y7356D01*
X162126Y7364D01*
X162132Y7366D01*
X162459Y8402D01*
X162456Y8410D01*
X162461Y8413D01*
X162549Y9496D01*
X162547Y9499D01*
X162549Y9500D01*
X162549Y15500D01*
X162546Y15504D01*
X162549Y15506D01*
X162399Y16639D01*
X162393Y16645D01*
X162396Y16650D01*
X161998Y17720D01*
X161991Y17724D01*
X161993Y17730D01*
X161366Y18685D01*
X161358Y18688D01*
X161359Y18693D01*
X160536Y19485D01*
X160528Y19486D01*
X160527Y19492D01*
X159548Y20081D01*
X159540Y20080D01*
X159538Y20085D01*
X158453Y20441D01*
X158445Y20439D01*
X158442Y20443D01*
X157305Y20549D01*
X157296Y20544D01*
X157291Y20548D01*
X156154Y20341D01*
X156148Y20335D01*
X156143Y20338D01*
X155081Y19883D01*
X155077Y19876D01*
X155071Y19878D01*
X154136Y19198D01*
X154134Y19190D01*
X154128Y19191D01*
X153368Y18320D01*
X153368Y18312D01*
X153362Y18311D01*
X152815Y17292D01*
X152816Y17284D01*
X152811Y17282D01*
X152807Y17269D01*
X152794Y17220D01*
X152793Y17220D01*
X152794Y17220D01*
X152780Y17171D01*
X152766Y17121D01*
X152753Y17072D01*
X152739Y17023D01*
X152726Y16974D01*
X152712Y16924D01*
X152699Y16875D01*
X152685Y16826D01*
X152671Y16777D01*
X152658Y16727D01*
X152644Y16678D01*
X152631Y16629D01*
X152617Y16580D01*
X152604Y16530D01*
X152590Y16481D01*
X152577Y16432D01*
X152576Y16432D01*
X152563Y16383D01*
X152549Y16333D01*
X152504Y16168D01*
X152507Y16160D01*
X152502Y16157D01*
X152451Y15002D01*
X152452Y15001D01*
X152451Y15000D01*
X152451Y9000D01*
X152455Y8994D01*
X152452Y8991D01*
X152664Y7910D01*
X152670Y7905D01*
X152667Y7900D01*
X153114Y6894D01*
X153121Y6890D01*
X153119Y6884D01*
X153779Y6003D01*
X153787Y6000D01*
X153787Y5995D01*
X154626Y5282D01*
X154634Y5282D01*
X154635Y5276D01*
X155612Y4768D01*
X155620Y4769D01*
X155622Y4764D01*
X156687Y4486D01*
X156695Y4489D01*
X156698Y4485D01*
X157799Y4451D01*
X157804Y4455D01*
G37*
G36*
X71302Y568335D02*
X71302Y568335D01*
X71307Y568331D01*
X72394Y568476D01*
X72400Y568482D01*
X72405Y568479D01*
X73433Y568863D01*
X73438Y568869D01*
X73443Y568868D01*
X74360Y569470D01*
X74363Y569478D01*
X74369Y569477D01*
X75129Y570269D01*
X75130Y570277D01*
X75136Y570278D01*
X75700Y571219D01*
X75700Y571222D01*
X75701Y571223D01*
X75700Y571225D01*
X75699Y571227D01*
X75705Y571229D01*
X76046Y572272D01*
X76044Y572280D01*
X76048Y572283D01*
X76149Y573376D01*
X76147Y573378D01*
X76149Y573380D01*
X76149Y579380D01*
X76147Y579383D01*
X76149Y579385D01*
X76048Y580477D01*
X76043Y580483D01*
X76046Y580488D01*
X75705Y581531D01*
X75698Y581536D01*
X75700Y581541D01*
X75136Y582482D01*
X75128Y582485D01*
X75129Y582491D01*
X74369Y583283D01*
X74361Y583284D01*
X74360Y583290D01*
X73443Y583893D01*
X73435Y583892D01*
X73433Y583898D01*
X72405Y584281D01*
X72397Y584279D01*
X72394Y584284D01*
X71307Y584429D01*
X71299Y584425D01*
X71295Y584429D01*
X70158Y584323D01*
X70152Y584318D01*
X70147Y584321D01*
X69062Y583965D01*
X69057Y583958D01*
X69052Y583961D01*
X68073Y583372D01*
X68070Y583364D01*
X68064Y583365D01*
X67241Y582573D01*
X67240Y582565D01*
X67234Y582565D01*
X66607Y581610D01*
X66608Y581602D01*
X66602Y581600D01*
X66204Y580530D01*
X66206Y580522D01*
X66201Y580519D01*
X66051Y579386D01*
X66054Y579382D01*
X66051Y579380D01*
X66051Y573380D01*
X66054Y573376D01*
X66051Y573374D01*
X66201Y572241D01*
X66207Y572235D01*
X66204Y572230D01*
X66602Y571160D01*
X66609Y571156D01*
X66607Y571150D01*
X67234Y570195D01*
X67242Y570192D01*
X67241Y570187D01*
X68064Y569395D01*
X68072Y569394D01*
X68073Y569388D01*
X69052Y568799D01*
X69060Y568800D01*
X69062Y568795D01*
X70147Y568439D01*
X70155Y568442D01*
X70158Y568437D01*
X71295Y568331D01*
X71302Y568335D01*
G37*
G36*
X431982Y568335D02*
X431982Y568335D01*
X431987Y568331D01*
X433074Y568476D01*
X433080Y568482D01*
X433085Y568479D01*
X434113Y568863D01*
X434118Y568869D01*
X434123Y568868D01*
X435040Y569470D01*
X435043Y569478D01*
X435049Y569477D01*
X435809Y570269D01*
X435810Y570277D01*
X435816Y570278D01*
X436380Y571219D01*
X436380Y571222D01*
X436381Y571223D01*
X436380Y571225D01*
X436379Y571227D01*
X436385Y571229D01*
X436726Y572272D01*
X436724Y572280D01*
X436728Y572283D01*
X436829Y573376D01*
X436827Y573378D01*
X436829Y573380D01*
X436829Y579380D01*
X436827Y579383D01*
X436829Y579385D01*
X436728Y580477D01*
X436723Y580483D01*
X436726Y580488D01*
X436385Y581531D01*
X436378Y581536D01*
X436380Y581541D01*
X435816Y582482D01*
X435808Y582485D01*
X435809Y582491D01*
X435049Y583283D01*
X435041Y583284D01*
X435040Y583290D01*
X434123Y583893D01*
X434115Y583892D01*
X434113Y583898D01*
X433085Y584281D01*
X433077Y584279D01*
X433074Y584284D01*
X431987Y584429D01*
X431979Y584425D01*
X431975Y584429D01*
X430838Y584323D01*
X430832Y584318D01*
X430827Y584321D01*
X429742Y583965D01*
X429737Y583958D01*
X429732Y583961D01*
X428753Y583372D01*
X428750Y583364D01*
X428744Y583365D01*
X427921Y582573D01*
X427920Y582565D01*
X427914Y582565D01*
X427287Y581610D01*
X427288Y581602D01*
X427282Y581600D01*
X426884Y580530D01*
X426886Y580522D01*
X426881Y580519D01*
X426731Y579386D01*
X426734Y579382D01*
X426731Y579380D01*
X426731Y573380D01*
X426734Y573376D01*
X426731Y573374D01*
X426881Y572241D01*
X426887Y572235D01*
X426884Y572230D01*
X427282Y571160D01*
X427289Y571156D01*
X427287Y571150D01*
X427914Y570195D01*
X427922Y570192D01*
X427921Y570187D01*
X428744Y569395D01*
X428752Y569394D01*
X428753Y569388D01*
X429732Y568799D01*
X429740Y568800D01*
X429742Y568795D01*
X430827Y568439D01*
X430835Y568442D01*
X430838Y568437D01*
X431975Y568331D01*
X431982Y568335D01*
G37*
G36*
X71302Y4455D02*
X71302Y4455D01*
X71307Y4451D01*
X72394Y4596D01*
X72400Y4602D01*
X72405Y4599D01*
X73433Y4983D01*
X73438Y4989D01*
X73443Y4988D01*
X74360Y5590D01*
X74363Y5598D01*
X74369Y5597D01*
X75129Y6389D01*
X75130Y6397D01*
X75136Y6398D01*
X75700Y7339D01*
X75700Y7342D01*
X75701Y7343D01*
X75700Y7345D01*
X75699Y7347D01*
X75705Y7349D01*
X76046Y8392D01*
X76044Y8400D01*
X76048Y8403D01*
X76149Y9496D01*
X76147Y9498D01*
X76149Y9500D01*
X76149Y15500D01*
X76147Y15503D01*
X76149Y15505D01*
X76048Y16597D01*
X76043Y16603D01*
X76046Y16608D01*
X75705Y17651D01*
X75698Y17656D01*
X75700Y17661D01*
X75136Y18602D01*
X75128Y18605D01*
X75129Y18611D01*
X74369Y19403D01*
X74361Y19404D01*
X74360Y19410D01*
X73443Y20013D01*
X73435Y20012D01*
X73433Y20018D01*
X72405Y20401D01*
X72397Y20399D01*
X72394Y20404D01*
X71307Y20549D01*
X71299Y20545D01*
X71295Y20549D01*
X70158Y20443D01*
X70152Y20438D01*
X70147Y20441D01*
X69062Y20085D01*
X69057Y20078D01*
X69052Y20081D01*
X68073Y19492D01*
X68070Y19484D01*
X68064Y19485D01*
X67241Y18693D01*
X67240Y18685D01*
X67234Y18685D01*
X66607Y17730D01*
X66608Y17722D01*
X66602Y17720D01*
X66204Y16650D01*
X66206Y16642D01*
X66201Y16639D01*
X66051Y15506D01*
X66054Y15502D01*
X66051Y15500D01*
X66051Y9500D01*
X66054Y9496D01*
X66051Y9494D01*
X66201Y8361D01*
X66207Y8355D01*
X66204Y8350D01*
X66602Y7280D01*
X66609Y7276D01*
X66607Y7270D01*
X67234Y6315D01*
X67242Y6312D01*
X67241Y6307D01*
X68064Y5515D01*
X68072Y5514D01*
X68073Y5508D01*
X69052Y4919D01*
X69060Y4920D01*
X69062Y4915D01*
X70147Y4559D01*
X70155Y4562D01*
X70158Y4557D01*
X71295Y4451D01*
X71302Y4455D01*
G37*
G36*
X431982Y4455D02*
X431982Y4455D01*
X431987Y4451D01*
X433074Y4596D01*
X433080Y4602D01*
X433085Y4599D01*
X434113Y4983D01*
X434118Y4989D01*
X434123Y4988D01*
X435040Y5590D01*
X435043Y5598D01*
X435049Y5597D01*
X435809Y6389D01*
X435810Y6397D01*
X435816Y6398D01*
X436380Y7339D01*
X436380Y7342D01*
X436381Y7343D01*
X436380Y7345D01*
X436379Y7347D01*
X436385Y7349D01*
X436726Y8392D01*
X436724Y8400D01*
X436728Y8403D01*
X436829Y9496D01*
X436827Y9498D01*
X436829Y9500D01*
X436829Y15500D01*
X436827Y15503D01*
X436829Y15505D01*
X436728Y16597D01*
X436723Y16603D01*
X436726Y16608D01*
X436385Y17651D01*
X436378Y17656D01*
X436380Y17661D01*
X435816Y18602D01*
X435808Y18605D01*
X435809Y18611D01*
X435049Y19403D01*
X435041Y19404D01*
X435040Y19410D01*
X434123Y20013D01*
X434115Y20012D01*
X434113Y20018D01*
X433085Y20401D01*
X433077Y20399D01*
X433074Y20404D01*
X431987Y20549D01*
X431979Y20545D01*
X431975Y20549D01*
X430838Y20443D01*
X430832Y20438D01*
X430827Y20441D01*
X429742Y20085D01*
X429737Y20078D01*
X429732Y20081D01*
X428753Y19492D01*
X428750Y19484D01*
X428744Y19485D01*
X427921Y18693D01*
X427920Y18685D01*
X427914Y18685D01*
X427287Y17730D01*
X427288Y17722D01*
X427282Y17720D01*
X426884Y16650D01*
X426886Y16642D01*
X426881Y16639D01*
X426731Y15506D01*
X426734Y15502D01*
X426731Y15500D01*
X426731Y9500D01*
X426734Y9496D01*
X426731Y9494D01*
X426881Y8361D01*
X426887Y8355D01*
X426884Y8350D01*
X427282Y7280D01*
X427289Y7276D01*
X427287Y7270D01*
X427914Y6315D01*
X427922Y6312D01*
X427921Y6307D01*
X428744Y5515D01*
X428752Y5514D01*
X428753Y5508D01*
X429732Y4919D01*
X429740Y4920D01*
X429742Y4915D01*
X430827Y4559D01*
X430835Y4562D01*
X430838Y4557D01*
X431975Y4451D01*
X431982Y4455D01*
G37*
G36*
X111865Y680057D02*
X111865Y680057D01*
X111931Y680059D01*
X111974Y680077D01*
X112021Y680085D01*
X112078Y680119D01*
X112138Y680144D01*
X112173Y680175D01*
X112214Y680200D01*
X112256Y680251D01*
X112304Y680295D01*
X112326Y680337D01*
X112355Y680374D01*
X112376Y680436D01*
X112407Y680495D01*
X112415Y680549D01*
X112427Y680586D01*
X112426Y680626D01*
X112434Y680680D01*
X112434Y688180D01*
X112423Y688245D01*
X112421Y688311D01*
X112403Y688354D01*
X112395Y688401D01*
X112361Y688458D01*
X112336Y688518D01*
X112305Y688553D01*
X112280Y688594D01*
X112229Y688636D01*
X112185Y688684D01*
X112143Y688706D01*
X112106Y688735D01*
X112044Y688756D01*
X111985Y688787D01*
X111931Y688795D01*
X111894Y688807D01*
X111854Y688806D01*
X111800Y688814D01*
X104300Y688814D01*
X104235Y688803D01*
X104169Y688801D01*
X104126Y688783D01*
X104079Y688775D01*
X104022Y688741D01*
X103962Y688716D01*
X103927Y688685D01*
X103886Y688660D01*
X103845Y688609D01*
X103796Y688565D01*
X103774Y688523D01*
X103745Y688486D01*
X103724Y688424D01*
X103693Y688365D01*
X103685Y688311D01*
X103673Y688274D01*
X103674Y688234D01*
X103666Y688180D01*
X103666Y680680D01*
X103677Y680615D01*
X103679Y680549D01*
X103697Y680506D01*
X103705Y680459D01*
X103739Y680402D01*
X103764Y680342D01*
X103795Y680307D01*
X103820Y680266D01*
X103871Y680225D01*
X103915Y680176D01*
X103957Y680154D01*
X103994Y680125D01*
X104056Y680104D01*
X104115Y680073D01*
X104169Y680065D01*
X104206Y680053D01*
X104246Y680054D01*
X104300Y680046D01*
X111800Y680046D01*
X111865Y680057D01*
G37*
G36*
X485045Y680057D02*
X485045Y680057D01*
X485111Y680059D01*
X485154Y680077D01*
X485201Y680085D01*
X485258Y680119D01*
X485318Y680144D01*
X485353Y680175D01*
X485394Y680200D01*
X485436Y680251D01*
X485484Y680295D01*
X485506Y680337D01*
X485535Y680374D01*
X485556Y680436D01*
X485587Y680495D01*
X485595Y680549D01*
X485607Y680586D01*
X485606Y680626D01*
X485614Y680680D01*
X485614Y688180D01*
X485603Y688245D01*
X485601Y688311D01*
X485583Y688354D01*
X485575Y688401D01*
X485541Y688458D01*
X485516Y688518D01*
X485485Y688553D01*
X485460Y688594D01*
X485409Y688636D01*
X485365Y688684D01*
X485323Y688706D01*
X485286Y688735D01*
X485224Y688756D01*
X485165Y688787D01*
X485111Y688795D01*
X485074Y688807D01*
X485034Y688806D01*
X484980Y688814D01*
X477480Y688814D01*
X477415Y688803D01*
X477349Y688801D01*
X477306Y688783D01*
X477259Y688775D01*
X477202Y688741D01*
X477142Y688716D01*
X477107Y688685D01*
X477066Y688660D01*
X477025Y688609D01*
X476976Y688565D01*
X476954Y688523D01*
X476925Y688486D01*
X476904Y688424D01*
X476873Y688365D01*
X476865Y688311D01*
X476853Y688274D01*
X476854Y688234D01*
X476846Y688180D01*
X476846Y680680D01*
X476857Y680615D01*
X476859Y680549D01*
X476877Y680506D01*
X476885Y680459D01*
X476919Y680402D01*
X476944Y680342D01*
X476975Y680307D01*
X477000Y680266D01*
X477051Y680225D01*
X477095Y680176D01*
X477137Y680154D01*
X477174Y680125D01*
X477236Y680104D01*
X477295Y680073D01*
X477349Y680065D01*
X477386Y680053D01*
X477426Y680054D01*
X477480Y680046D01*
X484980Y680046D01*
X485045Y680057D01*
G37*
G36*
X472545Y680057D02*
X472545Y680057D01*
X472611Y680059D01*
X472654Y680077D01*
X472701Y680085D01*
X472758Y680119D01*
X472818Y680144D01*
X472853Y680175D01*
X472894Y680200D01*
X472936Y680251D01*
X472984Y680295D01*
X473006Y680337D01*
X473035Y680374D01*
X473056Y680436D01*
X473087Y680495D01*
X473095Y680549D01*
X473107Y680586D01*
X473106Y680626D01*
X473114Y680680D01*
X473114Y688180D01*
X473103Y688245D01*
X473101Y688311D01*
X473083Y688354D01*
X473075Y688401D01*
X473041Y688458D01*
X473016Y688518D01*
X472985Y688553D01*
X472960Y688594D01*
X472909Y688636D01*
X472865Y688684D01*
X472823Y688706D01*
X472786Y688735D01*
X472724Y688756D01*
X472665Y688787D01*
X472611Y688795D01*
X472574Y688807D01*
X472534Y688806D01*
X472480Y688814D01*
X464980Y688814D01*
X464915Y688803D01*
X464849Y688801D01*
X464806Y688783D01*
X464759Y688775D01*
X464702Y688741D01*
X464642Y688716D01*
X464607Y688685D01*
X464566Y688660D01*
X464525Y688609D01*
X464476Y688565D01*
X464454Y688523D01*
X464425Y688486D01*
X464404Y688424D01*
X464373Y688365D01*
X464365Y688311D01*
X464353Y688274D01*
X464354Y688234D01*
X464346Y688180D01*
X464346Y680680D01*
X464357Y680615D01*
X464359Y680549D01*
X464377Y680506D01*
X464385Y680459D01*
X464419Y680402D01*
X464444Y680342D01*
X464475Y680307D01*
X464500Y680266D01*
X464551Y680225D01*
X464595Y680176D01*
X464637Y680154D01*
X464674Y680125D01*
X464736Y680104D01*
X464795Y680073D01*
X464849Y680065D01*
X464886Y680053D01*
X464926Y680054D01*
X464980Y680046D01*
X472480Y680046D01*
X472545Y680057D01*
G37*
G36*
X124365Y680057D02*
X124365Y680057D01*
X124431Y680059D01*
X124474Y680077D01*
X124521Y680085D01*
X124578Y680119D01*
X124638Y680144D01*
X124673Y680175D01*
X124714Y680200D01*
X124756Y680251D01*
X124804Y680295D01*
X124826Y680337D01*
X124855Y680374D01*
X124876Y680436D01*
X124907Y680495D01*
X124915Y680549D01*
X124927Y680586D01*
X124926Y680626D01*
X124934Y680680D01*
X124934Y688180D01*
X124923Y688245D01*
X124921Y688311D01*
X124903Y688354D01*
X124895Y688401D01*
X124861Y688458D01*
X124836Y688518D01*
X124805Y688553D01*
X124780Y688594D01*
X124729Y688636D01*
X124685Y688684D01*
X124643Y688706D01*
X124606Y688735D01*
X124544Y688756D01*
X124485Y688787D01*
X124431Y688795D01*
X124394Y688807D01*
X124354Y688806D01*
X124300Y688814D01*
X116800Y688814D01*
X116735Y688803D01*
X116669Y688801D01*
X116626Y688783D01*
X116579Y688775D01*
X116522Y688741D01*
X116462Y688716D01*
X116427Y688685D01*
X116386Y688660D01*
X116345Y688609D01*
X116296Y688565D01*
X116274Y688523D01*
X116245Y688486D01*
X116224Y688424D01*
X116193Y688365D01*
X116185Y688311D01*
X116173Y688274D01*
X116174Y688234D01*
X116166Y688180D01*
X116166Y680680D01*
X116177Y680615D01*
X116179Y680549D01*
X116197Y680506D01*
X116205Y680459D01*
X116239Y680402D01*
X116264Y680342D01*
X116295Y680307D01*
X116320Y680266D01*
X116371Y680225D01*
X116415Y680176D01*
X116457Y680154D01*
X116494Y680125D01*
X116556Y680104D01*
X116615Y680073D01*
X116669Y680065D01*
X116706Y680053D01*
X116746Y680054D01*
X116800Y680046D01*
X124300Y680046D01*
X124365Y680057D01*
G37*
G36*
X485045Y667557D02*
X485045Y667557D01*
X485111Y667559D01*
X485154Y667577D01*
X485201Y667585D01*
X485258Y667619D01*
X485318Y667644D01*
X485353Y667675D01*
X485394Y667700D01*
X485436Y667751D01*
X485484Y667795D01*
X485506Y667837D01*
X485535Y667874D01*
X485556Y667936D01*
X485587Y667995D01*
X485595Y668049D01*
X485607Y668086D01*
X485606Y668126D01*
X485614Y668180D01*
X485614Y675680D01*
X485603Y675745D01*
X485601Y675811D01*
X485583Y675854D01*
X485575Y675901D01*
X485541Y675958D01*
X485516Y676018D01*
X485485Y676053D01*
X485460Y676094D01*
X485409Y676136D01*
X485365Y676184D01*
X485323Y676206D01*
X485286Y676235D01*
X485224Y676256D01*
X485165Y676287D01*
X485111Y676295D01*
X485074Y676307D01*
X485034Y676306D01*
X484980Y676314D01*
X477480Y676314D01*
X477415Y676303D01*
X477349Y676301D01*
X477306Y676283D01*
X477259Y676275D01*
X477202Y676241D01*
X477142Y676216D01*
X477107Y676185D01*
X477066Y676160D01*
X477025Y676109D01*
X476976Y676065D01*
X476954Y676023D01*
X476925Y675986D01*
X476904Y675924D01*
X476873Y675865D01*
X476865Y675811D01*
X476853Y675774D01*
X476854Y675734D01*
X476846Y675680D01*
X476846Y668180D01*
X476857Y668115D01*
X476859Y668049D01*
X476877Y668006D01*
X476885Y667959D01*
X476919Y667902D01*
X476944Y667842D01*
X476975Y667807D01*
X477000Y667766D01*
X477051Y667725D01*
X477095Y667676D01*
X477137Y667654D01*
X477174Y667625D01*
X477236Y667604D01*
X477295Y667573D01*
X477349Y667565D01*
X477386Y667553D01*
X477426Y667554D01*
X477480Y667546D01*
X484980Y667546D01*
X485045Y667557D01*
G37*
G36*
X111865Y667557D02*
X111865Y667557D01*
X111931Y667559D01*
X111974Y667577D01*
X112021Y667585D01*
X112078Y667619D01*
X112138Y667644D01*
X112173Y667675D01*
X112214Y667700D01*
X112256Y667751D01*
X112304Y667795D01*
X112326Y667837D01*
X112355Y667874D01*
X112376Y667936D01*
X112407Y667995D01*
X112415Y668049D01*
X112427Y668086D01*
X112426Y668126D01*
X112434Y668180D01*
X112434Y675680D01*
X112423Y675745D01*
X112421Y675811D01*
X112403Y675854D01*
X112395Y675901D01*
X112361Y675958D01*
X112336Y676018D01*
X112305Y676053D01*
X112280Y676094D01*
X112229Y676136D01*
X112185Y676184D01*
X112143Y676206D01*
X112106Y676235D01*
X112044Y676256D01*
X111985Y676287D01*
X111931Y676295D01*
X111894Y676307D01*
X111854Y676306D01*
X111800Y676314D01*
X104300Y676314D01*
X104235Y676303D01*
X104169Y676301D01*
X104126Y676283D01*
X104079Y676275D01*
X104022Y676241D01*
X103962Y676216D01*
X103927Y676185D01*
X103886Y676160D01*
X103845Y676109D01*
X103796Y676065D01*
X103774Y676023D01*
X103745Y675986D01*
X103724Y675924D01*
X103693Y675865D01*
X103685Y675811D01*
X103673Y675774D01*
X103674Y675734D01*
X103666Y675680D01*
X103666Y668180D01*
X103677Y668115D01*
X103679Y668049D01*
X103697Y668006D01*
X103705Y667959D01*
X103739Y667902D01*
X103764Y667842D01*
X103795Y667807D01*
X103820Y667766D01*
X103871Y667725D01*
X103915Y667676D01*
X103957Y667654D01*
X103994Y667625D01*
X104056Y667604D01*
X104115Y667573D01*
X104169Y667565D01*
X104206Y667553D01*
X104246Y667554D01*
X104300Y667546D01*
X111800Y667546D01*
X111865Y667557D01*
G37*
G36*
X124365Y667557D02*
X124365Y667557D01*
X124431Y667559D01*
X124474Y667577D01*
X124521Y667585D01*
X124578Y667619D01*
X124638Y667644D01*
X124673Y667675D01*
X124714Y667700D01*
X124756Y667751D01*
X124804Y667795D01*
X124826Y667837D01*
X124855Y667874D01*
X124876Y667936D01*
X124907Y667995D01*
X124915Y668049D01*
X124927Y668086D01*
X124926Y668126D01*
X124934Y668180D01*
X124934Y675680D01*
X124923Y675745D01*
X124921Y675811D01*
X124903Y675854D01*
X124895Y675901D01*
X124861Y675958D01*
X124836Y676018D01*
X124805Y676053D01*
X124780Y676094D01*
X124729Y676136D01*
X124685Y676184D01*
X124643Y676206D01*
X124606Y676235D01*
X124544Y676256D01*
X124485Y676287D01*
X124431Y676295D01*
X124394Y676307D01*
X124354Y676306D01*
X124300Y676314D01*
X116800Y676314D01*
X116735Y676303D01*
X116669Y676301D01*
X116626Y676283D01*
X116579Y676275D01*
X116522Y676241D01*
X116462Y676216D01*
X116427Y676185D01*
X116386Y676160D01*
X116345Y676109D01*
X116296Y676065D01*
X116274Y676023D01*
X116245Y675986D01*
X116224Y675924D01*
X116193Y675865D01*
X116185Y675811D01*
X116173Y675774D01*
X116174Y675734D01*
X116166Y675680D01*
X116166Y668180D01*
X116177Y668115D01*
X116179Y668049D01*
X116197Y668006D01*
X116205Y667959D01*
X116239Y667902D01*
X116264Y667842D01*
X116295Y667807D01*
X116320Y667766D01*
X116371Y667725D01*
X116415Y667676D01*
X116457Y667654D01*
X116494Y667625D01*
X116556Y667604D01*
X116615Y667573D01*
X116669Y667565D01*
X116706Y667553D01*
X116746Y667554D01*
X116800Y667546D01*
X124300Y667546D01*
X124365Y667557D01*
G37*
G36*
X485045Y116177D02*
X485045Y116177D01*
X485111Y116179D01*
X485154Y116197D01*
X485201Y116205D01*
X485258Y116239D01*
X485318Y116264D01*
X485353Y116295D01*
X485394Y116320D01*
X485436Y116371D01*
X485484Y116415D01*
X485506Y116457D01*
X485535Y116494D01*
X485556Y116556D01*
X485587Y116615D01*
X485595Y116669D01*
X485607Y116706D01*
X485606Y116746D01*
X485614Y116800D01*
X485614Y124300D01*
X485603Y124365D01*
X485601Y124431D01*
X485583Y124474D01*
X485575Y124521D01*
X485541Y124578D01*
X485516Y124638D01*
X485485Y124673D01*
X485460Y124714D01*
X485409Y124756D01*
X485365Y124804D01*
X485323Y124826D01*
X485286Y124855D01*
X485224Y124876D01*
X485165Y124907D01*
X485111Y124915D01*
X485074Y124927D01*
X485034Y124926D01*
X484980Y124934D01*
X477480Y124934D01*
X477415Y124923D01*
X477349Y124921D01*
X477306Y124903D01*
X477259Y124895D01*
X477202Y124861D01*
X477142Y124836D01*
X477107Y124805D01*
X477066Y124780D01*
X477025Y124729D01*
X476976Y124685D01*
X476954Y124643D01*
X476925Y124606D01*
X476904Y124544D01*
X476873Y124485D01*
X476865Y124431D01*
X476853Y124394D01*
X476854Y124354D01*
X476846Y124300D01*
X476846Y116800D01*
X476857Y116735D01*
X476859Y116669D01*
X476877Y116626D01*
X476885Y116579D01*
X476919Y116522D01*
X476944Y116462D01*
X476975Y116427D01*
X477000Y116386D01*
X477051Y116345D01*
X477095Y116296D01*
X477137Y116274D01*
X477174Y116245D01*
X477236Y116224D01*
X477295Y116193D01*
X477349Y116185D01*
X477386Y116173D01*
X477426Y116174D01*
X477480Y116166D01*
X484980Y116166D01*
X485045Y116177D01*
G37*
G36*
X472545Y667557D02*
X472545Y667557D01*
X472611Y667559D01*
X472654Y667577D01*
X472701Y667585D01*
X472758Y667619D01*
X472818Y667644D01*
X472853Y667675D01*
X472894Y667700D01*
X472936Y667751D01*
X472984Y667795D01*
X473006Y667837D01*
X473035Y667874D01*
X473056Y667936D01*
X473087Y667995D01*
X473095Y668049D01*
X473107Y668086D01*
X473106Y668126D01*
X473114Y668180D01*
X473114Y675680D01*
X473103Y675745D01*
X473101Y675811D01*
X473083Y675854D01*
X473075Y675901D01*
X473041Y675958D01*
X473016Y676018D01*
X472985Y676053D01*
X472960Y676094D01*
X472909Y676136D01*
X472865Y676184D01*
X472823Y676206D01*
X472786Y676235D01*
X472724Y676256D01*
X472665Y676287D01*
X472611Y676295D01*
X472574Y676307D01*
X472534Y676306D01*
X472480Y676314D01*
X464980Y676314D01*
X464915Y676303D01*
X464849Y676301D01*
X464806Y676283D01*
X464759Y676275D01*
X464702Y676241D01*
X464642Y676216D01*
X464607Y676185D01*
X464566Y676160D01*
X464525Y676109D01*
X464476Y676065D01*
X464454Y676023D01*
X464425Y675986D01*
X464404Y675924D01*
X464373Y675865D01*
X464365Y675811D01*
X464353Y675774D01*
X464354Y675734D01*
X464346Y675680D01*
X464346Y668180D01*
X464357Y668115D01*
X464359Y668049D01*
X464377Y668006D01*
X464385Y667959D01*
X464419Y667902D01*
X464444Y667842D01*
X464475Y667807D01*
X464500Y667766D01*
X464551Y667725D01*
X464595Y667676D01*
X464637Y667654D01*
X464674Y667625D01*
X464736Y667604D01*
X464795Y667573D01*
X464849Y667565D01*
X464886Y667553D01*
X464926Y667554D01*
X464980Y667546D01*
X472480Y667546D01*
X472545Y667557D01*
G37*
G36*
X124365Y116177D02*
X124365Y116177D01*
X124431Y116179D01*
X124474Y116197D01*
X124521Y116205D01*
X124578Y116239D01*
X124638Y116264D01*
X124673Y116295D01*
X124714Y116320D01*
X124756Y116371D01*
X124804Y116415D01*
X124826Y116457D01*
X124855Y116494D01*
X124876Y116556D01*
X124907Y116615D01*
X124915Y116669D01*
X124927Y116706D01*
X124926Y116746D01*
X124934Y116800D01*
X124934Y124300D01*
X124923Y124365D01*
X124921Y124431D01*
X124903Y124474D01*
X124895Y124521D01*
X124861Y124578D01*
X124836Y124638D01*
X124805Y124673D01*
X124780Y124714D01*
X124729Y124756D01*
X124685Y124804D01*
X124643Y124826D01*
X124606Y124855D01*
X124544Y124876D01*
X124485Y124907D01*
X124431Y124915D01*
X124394Y124927D01*
X124354Y124926D01*
X124300Y124934D01*
X116800Y124934D01*
X116735Y124923D01*
X116669Y124921D01*
X116626Y124903D01*
X116579Y124895D01*
X116522Y124861D01*
X116462Y124836D01*
X116427Y124805D01*
X116386Y124780D01*
X116345Y124729D01*
X116296Y124685D01*
X116274Y124643D01*
X116245Y124606D01*
X116224Y124544D01*
X116193Y124485D01*
X116185Y124431D01*
X116173Y124394D01*
X116174Y124354D01*
X116166Y124300D01*
X116166Y116800D01*
X116177Y116735D01*
X116179Y116669D01*
X116197Y116626D01*
X116205Y116579D01*
X116239Y116522D01*
X116264Y116462D01*
X116295Y116427D01*
X116320Y116386D01*
X116371Y116345D01*
X116415Y116296D01*
X116457Y116274D01*
X116494Y116245D01*
X116556Y116224D01*
X116615Y116193D01*
X116669Y116185D01*
X116706Y116173D01*
X116746Y116174D01*
X116800Y116166D01*
X124300Y116166D01*
X124365Y116177D01*
G37*
G36*
X472545Y116177D02*
X472545Y116177D01*
X472611Y116179D01*
X472654Y116197D01*
X472701Y116205D01*
X472758Y116239D01*
X472818Y116264D01*
X472853Y116295D01*
X472894Y116320D01*
X472936Y116371D01*
X472984Y116415D01*
X473006Y116457D01*
X473035Y116494D01*
X473056Y116556D01*
X473087Y116615D01*
X473095Y116669D01*
X473107Y116706D01*
X473106Y116746D01*
X473114Y116800D01*
X473114Y124300D01*
X473103Y124365D01*
X473101Y124431D01*
X473083Y124474D01*
X473075Y124521D01*
X473041Y124578D01*
X473016Y124638D01*
X472985Y124673D01*
X472960Y124714D01*
X472909Y124756D01*
X472865Y124804D01*
X472823Y124826D01*
X472786Y124855D01*
X472724Y124876D01*
X472665Y124907D01*
X472611Y124915D01*
X472574Y124927D01*
X472534Y124926D01*
X472480Y124934D01*
X464980Y124934D01*
X464915Y124923D01*
X464849Y124921D01*
X464806Y124903D01*
X464759Y124895D01*
X464702Y124861D01*
X464642Y124836D01*
X464607Y124805D01*
X464566Y124780D01*
X464525Y124729D01*
X464476Y124685D01*
X464454Y124643D01*
X464425Y124606D01*
X464404Y124544D01*
X464373Y124485D01*
X464365Y124431D01*
X464353Y124394D01*
X464354Y124354D01*
X464346Y124300D01*
X464346Y116800D01*
X464357Y116735D01*
X464359Y116669D01*
X464377Y116626D01*
X464385Y116579D01*
X464419Y116522D01*
X464444Y116462D01*
X464475Y116427D01*
X464500Y116386D01*
X464551Y116345D01*
X464595Y116296D01*
X464637Y116274D01*
X464674Y116245D01*
X464736Y116224D01*
X464795Y116193D01*
X464849Y116185D01*
X464886Y116173D01*
X464926Y116174D01*
X464980Y116166D01*
X472480Y116166D01*
X472545Y116177D01*
G37*
G36*
X111865Y116177D02*
X111865Y116177D01*
X111931Y116179D01*
X111974Y116197D01*
X112021Y116205D01*
X112078Y116239D01*
X112138Y116264D01*
X112173Y116295D01*
X112214Y116320D01*
X112256Y116371D01*
X112304Y116415D01*
X112326Y116457D01*
X112355Y116494D01*
X112376Y116556D01*
X112407Y116615D01*
X112415Y116669D01*
X112427Y116706D01*
X112426Y116746D01*
X112434Y116800D01*
X112434Y124300D01*
X112423Y124365D01*
X112421Y124431D01*
X112403Y124474D01*
X112395Y124521D01*
X112361Y124578D01*
X112336Y124638D01*
X112305Y124673D01*
X112280Y124714D01*
X112229Y124756D01*
X112185Y124804D01*
X112143Y124826D01*
X112106Y124855D01*
X112044Y124876D01*
X111985Y124907D01*
X111931Y124915D01*
X111894Y124927D01*
X111854Y124926D01*
X111800Y124934D01*
X104300Y124934D01*
X104235Y124923D01*
X104169Y124921D01*
X104126Y124903D01*
X104079Y124895D01*
X104022Y124861D01*
X103962Y124836D01*
X103927Y124805D01*
X103886Y124780D01*
X103845Y124729D01*
X103796Y124685D01*
X103774Y124643D01*
X103745Y124606D01*
X103724Y124544D01*
X103693Y124485D01*
X103685Y124431D01*
X103673Y124394D01*
X103674Y124354D01*
X103666Y124300D01*
X103666Y116800D01*
X103677Y116735D01*
X103679Y116669D01*
X103697Y116626D01*
X103705Y116579D01*
X103739Y116522D01*
X103764Y116462D01*
X103795Y116427D01*
X103820Y116386D01*
X103871Y116345D01*
X103915Y116296D01*
X103957Y116274D01*
X103994Y116245D01*
X104056Y116224D01*
X104115Y116193D01*
X104169Y116185D01*
X104206Y116173D01*
X104246Y116174D01*
X104300Y116166D01*
X111800Y116166D01*
X111865Y116177D01*
G37*
G36*
X485045Y103677D02*
X485045Y103677D01*
X485111Y103679D01*
X485154Y103697D01*
X485201Y103705D01*
X485258Y103739D01*
X485318Y103764D01*
X485353Y103795D01*
X485394Y103820D01*
X485436Y103871D01*
X485484Y103915D01*
X485506Y103957D01*
X485535Y103994D01*
X485556Y104056D01*
X485587Y104115D01*
X485595Y104169D01*
X485607Y104206D01*
X485606Y104246D01*
X485614Y104300D01*
X485614Y111800D01*
X485603Y111865D01*
X485601Y111931D01*
X485583Y111974D01*
X485575Y112021D01*
X485541Y112078D01*
X485516Y112138D01*
X485485Y112173D01*
X485460Y112214D01*
X485409Y112256D01*
X485365Y112304D01*
X485323Y112326D01*
X485286Y112355D01*
X485224Y112376D01*
X485165Y112407D01*
X485111Y112415D01*
X485074Y112427D01*
X485034Y112426D01*
X484980Y112434D01*
X477480Y112434D01*
X477415Y112423D01*
X477349Y112421D01*
X477306Y112403D01*
X477259Y112395D01*
X477202Y112361D01*
X477142Y112336D01*
X477107Y112305D01*
X477066Y112280D01*
X477025Y112229D01*
X476976Y112185D01*
X476954Y112143D01*
X476925Y112106D01*
X476904Y112044D01*
X476873Y111985D01*
X476865Y111931D01*
X476853Y111894D01*
X476854Y111854D01*
X476846Y111800D01*
X476846Y104300D01*
X476857Y104235D01*
X476859Y104169D01*
X476877Y104126D01*
X476885Y104079D01*
X476919Y104022D01*
X476944Y103962D01*
X476975Y103927D01*
X477000Y103886D01*
X477051Y103845D01*
X477095Y103796D01*
X477137Y103774D01*
X477174Y103745D01*
X477236Y103724D01*
X477295Y103693D01*
X477349Y103685D01*
X477386Y103673D01*
X477426Y103674D01*
X477480Y103666D01*
X484980Y103666D01*
X485045Y103677D01*
G37*
G36*
X124365Y103677D02*
X124365Y103677D01*
X124431Y103679D01*
X124474Y103697D01*
X124521Y103705D01*
X124578Y103739D01*
X124638Y103764D01*
X124673Y103795D01*
X124714Y103820D01*
X124756Y103871D01*
X124804Y103915D01*
X124826Y103957D01*
X124855Y103994D01*
X124876Y104056D01*
X124907Y104115D01*
X124915Y104169D01*
X124927Y104206D01*
X124926Y104246D01*
X124934Y104300D01*
X124934Y111800D01*
X124923Y111865D01*
X124921Y111931D01*
X124903Y111974D01*
X124895Y112021D01*
X124861Y112078D01*
X124836Y112138D01*
X124805Y112173D01*
X124780Y112214D01*
X124729Y112256D01*
X124685Y112304D01*
X124643Y112326D01*
X124606Y112355D01*
X124544Y112376D01*
X124485Y112407D01*
X124431Y112415D01*
X124394Y112427D01*
X124354Y112426D01*
X124300Y112434D01*
X116800Y112434D01*
X116735Y112423D01*
X116669Y112421D01*
X116626Y112403D01*
X116579Y112395D01*
X116522Y112361D01*
X116462Y112336D01*
X116427Y112305D01*
X116386Y112280D01*
X116345Y112229D01*
X116296Y112185D01*
X116274Y112143D01*
X116245Y112106D01*
X116224Y112044D01*
X116193Y111985D01*
X116185Y111931D01*
X116173Y111894D01*
X116174Y111854D01*
X116166Y111800D01*
X116166Y104300D01*
X116177Y104235D01*
X116179Y104169D01*
X116197Y104126D01*
X116205Y104079D01*
X116239Y104022D01*
X116264Y103962D01*
X116295Y103927D01*
X116320Y103886D01*
X116371Y103845D01*
X116415Y103796D01*
X116457Y103774D01*
X116494Y103745D01*
X116556Y103724D01*
X116615Y103693D01*
X116669Y103685D01*
X116706Y103673D01*
X116746Y103674D01*
X116800Y103666D01*
X124300Y103666D01*
X124365Y103677D01*
G37*
G36*
X472545Y103677D02*
X472545Y103677D01*
X472611Y103679D01*
X472654Y103697D01*
X472701Y103705D01*
X472758Y103739D01*
X472818Y103764D01*
X472853Y103795D01*
X472894Y103820D01*
X472936Y103871D01*
X472984Y103915D01*
X473006Y103957D01*
X473035Y103994D01*
X473056Y104056D01*
X473087Y104115D01*
X473095Y104169D01*
X473107Y104206D01*
X473106Y104246D01*
X473114Y104300D01*
X473114Y111800D01*
X473103Y111865D01*
X473101Y111931D01*
X473083Y111974D01*
X473075Y112021D01*
X473041Y112078D01*
X473016Y112138D01*
X472985Y112173D01*
X472960Y112214D01*
X472909Y112256D01*
X472865Y112304D01*
X472823Y112326D01*
X472786Y112355D01*
X472724Y112376D01*
X472665Y112407D01*
X472611Y112415D01*
X472574Y112427D01*
X472534Y112426D01*
X472480Y112434D01*
X464980Y112434D01*
X464915Y112423D01*
X464849Y112421D01*
X464806Y112403D01*
X464759Y112395D01*
X464702Y112361D01*
X464642Y112336D01*
X464607Y112305D01*
X464566Y112280D01*
X464525Y112229D01*
X464476Y112185D01*
X464454Y112143D01*
X464425Y112106D01*
X464404Y112044D01*
X464373Y111985D01*
X464365Y111931D01*
X464353Y111894D01*
X464354Y111854D01*
X464346Y111800D01*
X464346Y104300D01*
X464357Y104235D01*
X464359Y104169D01*
X464377Y104126D01*
X464385Y104079D01*
X464419Y104022D01*
X464444Y103962D01*
X464475Y103927D01*
X464500Y103886D01*
X464551Y103845D01*
X464595Y103796D01*
X464637Y103774D01*
X464674Y103745D01*
X464736Y103724D01*
X464795Y103693D01*
X464849Y103685D01*
X464886Y103673D01*
X464926Y103674D01*
X464980Y103666D01*
X472480Y103666D01*
X472545Y103677D01*
G37*
G36*
X111865Y103677D02*
X111865Y103677D01*
X111931Y103679D01*
X111974Y103697D01*
X112021Y103705D01*
X112078Y103739D01*
X112138Y103764D01*
X112173Y103795D01*
X112214Y103820D01*
X112256Y103871D01*
X112304Y103915D01*
X112326Y103957D01*
X112355Y103994D01*
X112376Y104056D01*
X112407Y104115D01*
X112415Y104169D01*
X112427Y104206D01*
X112426Y104246D01*
X112434Y104300D01*
X112434Y111800D01*
X112423Y111865D01*
X112421Y111931D01*
X112403Y111974D01*
X112395Y112021D01*
X112361Y112078D01*
X112336Y112138D01*
X112305Y112173D01*
X112280Y112214D01*
X112229Y112256D01*
X112185Y112304D01*
X112143Y112326D01*
X112106Y112355D01*
X112044Y112376D01*
X111985Y112407D01*
X111931Y112415D01*
X111894Y112427D01*
X111854Y112426D01*
X111800Y112434D01*
X104300Y112434D01*
X104235Y112423D01*
X104169Y112421D01*
X104126Y112403D01*
X104079Y112395D01*
X104022Y112361D01*
X103962Y112336D01*
X103927Y112305D01*
X103886Y112280D01*
X103845Y112229D01*
X103796Y112185D01*
X103774Y112143D01*
X103745Y112106D01*
X103724Y112044D01*
X103693Y111985D01*
X103685Y111931D01*
X103673Y111894D01*
X103674Y111854D01*
X103666Y111800D01*
X103666Y104300D01*
X103677Y104235D01*
X103679Y104169D01*
X103697Y104126D01*
X103705Y104079D01*
X103739Y104022D01*
X103764Y103962D01*
X103795Y103927D01*
X103820Y103886D01*
X103871Y103845D01*
X103915Y103796D01*
X103957Y103774D01*
X103994Y103745D01*
X104056Y103724D01*
X104115Y103693D01*
X104169Y103685D01*
X104206Y103673D01*
X104246Y103674D01*
X104300Y103666D01*
X111800Y103666D01*
X111865Y103677D01*
G37*
G36*
X458427Y684467D02*
X458427Y684467D01*
X458422Y684474D01*
X458429Y684480D01*
X458429Y686880D01*
X458393Y686927D01*
X458386Y686922D01*
X458380Y686929D01*
X450580Y686929D01*
X450533Y686893D01*
X450538Y686886D01*
X450531Y686880D01*
X450531Y684480D01*
X450567Y684433D01*
X450574Y684438D01*
X450580Y684431D01*
X458380Y684431D01*
X458427Y684467D01*
G37*
G36*
X97747Y684467D02*
X97747Y684467D01*
X97742Y684474D01*
X97749Y684480D01*
X97749Y686880D01*
X97713Y686927D01*
X97706Y686922D01*
X97700Y686929D01*
X89900Y686929D01*
X89853Y686893D01*
X89858Y686886D01*
X89851Y686880D01*
X89851Y684480D01*
X89887Y684433D01*
X89894Y684438D01*
X89900Y684431D01*
X97700Y684431D01*
X97747Y684467D01*
G37*
G36*
X499427Y684467D02*
X499427Y684467D01*
X499422Y684474D01*
X499429Y684480D01*
X499429Y686880D01*
X499393Y686927D01*
X499386Y686922D01*
X499380Y686929D01*
X491580Y686929D01*
X491533Y686893D01*
X491538Y686886D01*
X491531Y686880D01*
X491531Y684480D01*
X491567Y684433D01*
X491574Y684438D01*
X491580Y684431D01*
X499380Y684431D01*
X499427Y684467D01*
G37*
G36*
X138747Y684467D02*
X138747Y684467D01*
X138742Y684474D01*
X138749Y684480D01*
X138749Y686880D01*
X138713Y686927D01*
X138706Y686922D01*
X138700Y686929D01*
X130900Y686929D01*
X130853Y686893D01*
X130858Y686886D01*
X130851Y686880D01*
X130851Y684480D01*
X130887Y684433D01*
X130894Y684438D01*
X130900Y684431D01*
X138700Y684431D01*
X138747Y684467D01*
G37*
G36*
X138747Y679467D02*
X138747Y679467D01*
X138742Y679474D01*
X138749Y679480D01*
X138749Y681880D01*
X138713Y681927D01*
X138706Y681922D01*
X138700Y681929D01*
X130900Y681929D01*
X130853Y681893D01*
X130858Y681886D01*
X130851Y681880D01*
X130851Y679480D01*
X130887Y679433D01*
X130894Y679438D01*
X130900Y679431D01*
X138700Y679431D01*
X138747Y679467D01*
G37*
G36*
X499427Y679467D02*
X499427Y679467D01*
X499422Y679474D01*
X499429Y679480D01*
X499429Y681880D01*
X499393Y681927D01*
X499386Y681922D01*
X499380Y681929D01*
X491580Y681929D01*
X491533Y681893D01*
X491538Y681886D01*
X491531Y681880D01*
X491531Y679480D01*
X491567Y679433D01*
X491574Y679438D01*
X491580Y679431D01*
X499380Y679431D01*
X499427Y679467D01*
G37*
G36*
X97747Y679467D02*
X97747Y679467D01*
X97742Y679474D01*
X97749Y679480D01*
X97749Y681880D01*
X97713Y681927D01*
X97706Y681922D01*
X97700Y681929D01*
X89900Y681929D01*
X89853Y681893D01*
X89858Y681886D01*
X89851Y681880D01*
X89851Y679480D01*
X89887Y679433D01*
X89894Y679438D01*
X89900Y679431D01*
X97700Y679431D01*
X97747Y679467D01*
G37*
G36*
X458427Y679467D02*
X458427Y679467D01*
X458422Y679474D01*
X458429Y679480D01*
X458429Y681880D01*
X458393Y681927D01*
X458386Y681922D01*
X458380Y681929D01*
X450580Y681929D01*
X450533Y681893D01*
X450538Y681886D01*
X450531Y681880D01*
X450531Y679480D01*
X450567Y679433D01*
X450574Y679438D01*
X450580Y679431D01*
X458380Y679431D01*
X458427Y679467D01*
G37*
G36*
X499427Y674467D02*
X499427Y674467D01*
X499422Y674474D01*
X499429Y674480D01*
X499429Y676880D01*
X499393Y676927D01*
X499386Y676922D01*
X499380Y676929D01*
X491580Y676929D01*
X491533Y676893D01*
X491538Y676886D01*
X491531Y676880D01*
X491531Y674480D01*
X491567Y674433D01*
X491574Y674438D01*
X491580Y674431D01*
X499380Y674431D01*
X499427Y674467D01*
G37*
G36*
X138747Y674467D02*
X138747Y674467D01*
X138742Y674474D01*
X138749Y674480D01*
X138749Y676880D01*
X138713Y676927D01*
X138706Y676922D01*
X138700Y676929D01*
X130900Y676929D01*
X130853Y676893D01*
X130858Y676886D01*
X130851Y676880D01*
X130851Y674480D01*
X130887Y674433D01*
X130894Y674438D01*
X130900Y674431D01*
X138700Y674431D01*
X138747Y674467D01*
G37*
G36*
X458427Y674467D02*
X458427Y674467D01*
X458422Y674474D01*
X458429Y674480D01*
X458429Y676880D01*
X458393Y676927D01*
X458386Y676922D01*
X458380Y676929D01*
X450580Y676929D01*
X450533Y676893D01*
X450538Y676886D01*
X450531Y676880D01*
X450531Y674480D01*
X450567Y674433D01*
X450574Y674438D01*
X450580Y674431D01*
X458380Y674431D01*
X458427Y674467D01*
G37*
G36*
X97747Y674467D02*
X97747Y674467D01*
X97742Y674474D01*
X97749Y674480D01*
X97749Y676880D01*
X97713Y676927D01*
X97706Y676922D01*
X97700Y676929D01*
X89900Y676929D01*
X89853Y676893D01*
X89858Y676886D01*
X89851Y676880D01*
X89851Y674480D01*
X89887Y674433D01*
X89894Y674438D01*
X89900Y674431D01*
X97700Y674431D01*
X97747Y674467D01*
G37*
G36*
X113047Y694767D02*
X113047Y694767D01*
X113042Y694774D01*
X113049Y694780D01*
X113049Y702580D01*
X113013Y702627D01*
X113006Y702622D01*
X113000Y702629D01*
X110600Y702629D01*
X110553Y702593D01*
X110558Y702586D01*
X110551Y702580D01*
X110551Y694780D01*
X110587Y694733D01*
X110594Y694738D01*
X110600Y694731D01*
X113000Y694731D01*
X113047Y694767D01*
G37*
G36*
X97747Y669467D02*
X97747Y669467D01*
X97742Y669474D01*
X97749Y669480D01*
X97749Y671880D01*
X97713Y671927D01*
X97706Y671922D01*
X97700Y671929D01*
X89900Y671929D01*
X89853Y671893D01*
X89858Y671886D01*
X89851Y671880D01*
X89851Y669480D01*
X89887Y669433D01*
X89894Y669438D01*
X89900Y669431D01*
X97700Y669431D01*
X97747Y669467D01*
G37*
G36*
X458427Y669467D02*
X458427Y669467D01*
X458422Y669474D01*
X458429Y669480D01*
X458429Y671880D01*
X458393Y671927D01*
X458386Y671922D01*
X458380Y671929D01*
X450580Y671929D01*
X450533Y671893D01*
X450538Y671886D01*
X450531Y671880D01*
X450531Y669480D01*
X450567Y669433D01*
X450574Y669438D01*
X450580Y669431D01*
X458380Y669431D01*
X458427Y669467D01*
G37*
G36*
X138747Y669467D02*
X138747Y669467D01*
X138742Y669474D01*
X138749Y669480D01*
X138749Y671880D01*
X138713Y671927D01*
X138706Y671922D01*
X138700Y671929D01*
X130900Y671929D01*
X130853Y671893D01*
X130858Y671886D01*
X130851Y671880D01*
X130851Y669480D01*
X130887Y669433D01*
X130894Y669438D01*
X130900Y669431D01*
X138700Y669431D01*
X138747Y669467D01*
G37*
G36*
X499427Y669467D02*
X499427Y669467D01*
X499422Y669474D01*
X499429Y669480D01*
X499429Y671880D01*
X499393Y671927D01*
X499386Y671922D01*
X499380Y671929D01*
X491580Y671929D01*
X491533Y671893D01*
X491538Y671886D01*
X491531Y671880D01*
X491531Y669480D01*
X491567Y669433D01*
X491574Y669438D01*
X491580Y669431D01*
X499380Y669431D01*
X499427Y669467D01*
G37*
G36*
X138747Y664467D02*
X138747Y664467D01*
X138742Y664474D01*
X138749Y664480D01*
X138749Y666880D01*
X138713Y666927D01*
X138706Y666922D01*
X138700Y666929D01*
X130900Y666929D01*
X130853Y666893D01*
X130858Y666886D01*
X130851Y666880D01*
X130851Y664480D01*
X130887Y664433D01*
X130894Y664438D01*
X130900Y664431D01*
X138700Y664431D01*
X138747Y664467D01*
G37*
G36*
X458427Y664467D02*
X458427Y664467D01*
X458422Y664474D01*
X458429Y664480D01*
X458429Y666880D01*
X458393Y666927D01*
X458386Y666922D01*
X458380Y666929D01*
X450580Y666929D01*
X450533Y666893D01*
X450538Y666886D01*
X450531Y666880D01*
X450531Y664480D01*
X450567Y664433D01*
X450574Y664438D01*
X450580Y664431D01*
X458380Y664431D01*
X458427Y664467D01*
G37*
G36*
X499427Y664467D02*
X499427Y664467D01*
X499422Y664474D01*
X499429Y664480D01*
X499429Y666880D01*
X499393Y666927D01*
X499386Y666922D01*
X499380Y666929D01*
X491580Y666929D01*
X491533Y666893D01*
X491538Y666886D01*
X491531Y666880D01*
X491531Y664480D01*
X491567Y664433D01*
X491574Y664438D01*
X491580Y664431D01*
X499380Y664431D01*
X499427Y664467D01*
G37*
G36*
X97747Y664467D02*
X97747Y664467D01*
X97742Y664474D01*
X97749Y664480D01*
X97749Y666880D01*
X97713Y666927D01*
X97706Y666922D01*
X97700Y666929D01*
X89900Y666929D01*
X89853Y666893D01*
X89858Y666886D01*
X89851Y666880D01*
X89851Y664480D01*
X89887Y664433D01*
X89894Y664438D01*
X89900Y664431D01*
X97700Y664431D01*
X97747Y664467D01*
G37*
G36*
X113047Y653767D02*
X113047Y653767D01*
X113042Y653774D01*
X113049Y653780D01*
X113049Y661580D01*
X113013Y661627D01*
X113006Y661622D01*
X113000Y661629D01*
X110600Y661629D01*
X110553Y661593D01*
X110558Y661586D01*
X110551Y661580D01*
X110551Y653780D01*
X110587Y653733D01*
X110594Y653738D01*
X110600Y653731D01*
X113000Y653731D01*
X113047Y653767D01*
G37*
G36*
X123047Y653767D02*
X123047Y653767D01*
X123042Y653774D01*
X123049Y653780D01*
X123049Y661580D01*
X123013Y661627D01*
X123006Y661622D01*
X123000Y661629D01*
X120600Y661629D01*
X120553Y661593D01*
X120558Y661586D01*
X120551Y661580D01*
X120551Y653780D01*
X120587Y653733D01*
X120594Y653738D01*
X120600Y653731D01*
X123000Y653731D01*
X123047Y653767D01*
G37*
G36*
X463727Y653767D02*
X463727Y653767D01*
X463722Y653774D01*
X463729Y653780D01*
X463729Y661580D01*
X463693Y661627D01*
X463686Y661622D01*
X463680Y661629D01*
X461280Y661629D01*
X461233Y661593D01*
X461238Y661586D01*
X461231Y661580D01*
X461231Y653780D01*
X461267Y653733D01*
X461274Y653738D01*
X461280Y653731D01*
X463680Y653731D01*
X463727Y653767D01*
G37*
G36*
X473727Y653767D02*
X473727Y653767D01*
X473722Y653774D01*
X473729Y653780D01*
X473729Y661580D01*
X473693Y661627D01*
X473686Y661622D01*
X473680Y661629D01*
X471280Y661629D01*
X471233Y661593D01*
X471238Y661586D01*
X471231Y661580D01*
X471231Y653780D01*
X471267Y653733D01*
X471274Y653738D01*
X471280Y653731D01*
X473680Y653731D01*
X473727Y653767D01*
G37*
G36*
X468727Y653767D02*
X468727Y653767D01*
X468722Y653774D01*
X468729Y653780D01*
X468729Y661580D01*
X468693Y661627D01*
X468686Y661622D01*
X468680Y661629D01*
X466280Y661629D01*
X466233Y661593D01*
X466238Y661586D01*
X466231Y661580D01*
X466231Y653780D01*
X466267Y653733D01*
X466274Y653738D01*
X466280Y653731D01*
X468680Y653731D01*
X468727Y653767D01*
G37*
G36*
X103047Y653767D02*
X103047Y653767D01*
X103042Y653774D01*
X103049Y653780D01*
X103049Y661580D01*
X103013Y661627D01*
X103006Y661622D01*
X103000Y661629D01*
X100600Y661629D01*
X100553Y661593D01*
X100558Y661586D01*
X100551Y661580D01*
X100551Y653780D01*
X100587Y653733D01*
X100594Y653738D01*
X100600Y653731D01*
X103000Y653731D01*
X103047Y653767D01*
G37*
G36*
X488727Y653767D02*
X488727Y653767D01*
X488722Y653774D01*
X488729Y653780D01*
X488729Y661580D01*
X488693Y661627D01*
X488686Y661622D01*
X488680Y661629D01*
X486280Y661629D01*
X486233Y661593D01*
X486238Y661586D01*
X486231Y661580D01*
X486231Y653780D01*
X486267Y653733D01*
X486274Y653738D01*
X486280Y653731D01*
X488680Y653731D01*
X488727Y653767D01*
G37*
G36*
X108047Y653767D02*
X108047Y653767D01*
X108042Y653774D01*
X108049Y653780D01*
X108049Y661580D01*
X108013Y661627D01*
X108006Y661622D01*
X108000Y661629D01*
X105600Y661629D01*
X105553Y661593D01*
X105558Y661586D01*
X105551Y661580D01*
X105551Y653780D01*
X105587Y653733D01*
X105594Y653738D01*
X105600Y653731D01*
X108000Y653731D01*
X108047Y653767D01*
G37*
G36*
X483727Y653767D02*
X483727Y653767D01*
X483722Y653774D01*
X483729Y653780D01*
X483729Y661580D01*
X483693Y661627D01*
X483686Y661622D01*
X483680Y661629D01*
X481280Y661629D01*
X481233Y661593D01*
X481238Y661586D01*
X481231Y661580D01*
X481231Y653780D01*
X481267Y653733D01*
X481274Y653738D01*
X481280Y653731D01*
X483680Y653731D01*
X483727Y653767D01*
G37*
G36*
X478727Y653767D02*
X478727Y653767D01*
X478722Y653774D01*
X478729Y653780D01*
X478729Y661580D01*
X478693Y661627D01*
X478686Y661622D01*
X478680Y661629D01*
X476280Y661629D01*
X476233Y661593D01*
X476238Y661586D01*
X476231Y661580D01*
X476231Y653780D01*
X476267Y653733D01*
X476274Y653738D01*
X476280Y653731D01*
X478680Y653731D01*
X478727Y653767D01*
G37*
G36*
X118047Y653767D02*
X118047Y653767D01*
X118042Y653774D01*
X118049Y653780D01*
X118049Y661580D01*
X118013Y661627D01*
X118006Y661622D01*
X118000Y661629D01*
X115600Y661629D01*
X115553Y661593D01*
X115558Y661586D01*
X115551Y661580D01*
X115551Y653780D01*
X115587Y653733D01*
X115594Y653738D01*
X115600Y653731D01*
X118000Y653731D01*
X118047Y653767D01*
G37*
G36*
X128047Y653767D02*
X128047Y653767D01*
X128042Y653774D01*
X128049Y653780D01*
X128049Y661580D01*
X128013Y661627D01*
X128006Y661622D01*
X128000Y661629D01*
X125600Y661629D01*
X125553Y661593D01*
X125558Y661586D01*
X125551Y661580D01*
X125551Y653780D01*
X125587Y653733D01*
X125594Y653738D01*
X125600Y653731D01*
X128000Y653731D01*
X128047Y653767D01*
G37*
G36*
X463727Y130887D02*
X463727Y130887D01*
X463722Y130894D01*
X463729Y130900D01*
X463729Y138700D01*
X463693Y138747D01*
X463686Y138742D01*
X463680Y138749D01*
X461280Y138749D01*
X461233Y138713D01*
X461238Y138706D01*
X461231Y138700D01*
X461231Y130900D01*
X461267Y130853D01*
X461274Y130858D01*
X461280Y130851D01*
X463680Y130851D01*
X463727Y130887D01*
G37*
G36*
X103047Y130887D02*
X103047Y130887D01*
X103042Y130894D01*
X103049Y130900D01*
X103049Y138700D01*
X103013Y138747D01*
X103006Y138742D01*
X103000Y138749D01*
X100600Y138749D01*
X100553Y138713D01*
X100558Y138706D01*
X100551Y138700D01*
X100551Y130900D01*
X100587Y130853D01*
X100594Y130858D01*
X100600Y130851D01*
X103000Y130851D01*
X103047Y130887D01*
G37*
G36*
X113047Y130887D02*
X113047Y130887D01*
X113042Y130894D01*
X113049Y130900D01*
X113049Y138700D01*
X113013Y138747D01*
X113006Y138742D01*
X113000Y138749D01*
X110600Y138749D01*
X110553Y138713D01*
X110558Y138706D01*
X110551Y138700D01*
X110551Y130900D01*
X110587Y130853D01*
X110594Y130858D01*
X110600Y130851D01*
X113000Y130851D01*
X113047Y130887D01*
G37*
G36*
X118047Y130887D02*
X118047Y130887D01*
X118042Y130894D01*
X118049Y130900D01*
X118049Y138700D01*
X118013Y138747D01*
X118006Y138742D01*
X118000Y138749D01*
X115600Y138749D01*
X115553Y138713D01*
X115558Y138706D01*
X115551Y138700D01*
X115551Y130900D01*
X115587Y130853D01*
X115594Y130858D01*
X115600Y130851D01*
X118000Y130851D01*
X118047Y130887D01*
G37*
G36*
X483727Y130887D02*
X483727Y130887D01*
X483722Y130894D01*
X483729Y130900D01*
X483729Y138700D01*
X483693Y138747D01*
X483686Y138742D01*
X483680Y138749D01*
X481280Y138749D01*
X481233Y138713D01*
X481238Y138706D01*
X481231Y138700D01*
X481231Y130900D01*
X481267Y130853D01*
X481274Y130858D01*
X481280Y130851D01*
X483680Y130851D01*
X483727Y130887D01*
G37*
G36*
X478727Y130887D02*
X478727Y130887D01*
X478722Y130894D01*
X478729Y130900D01*
X478729Y138700D01*
X478693Y138747D01*
X478686Y138742D01*
X478680Y138749D01*
X476280Y138749D01*
X476233Y138713D01*
X476238Y138706D01*
X476231Y138700D01*
X476231Y130900D01*
X476267Y130853D01*
X476274Y130858D01*
X476280Y130851D01*
X478680Y130851D01*
X478727Y130887D01*
G37*
G36*
X108047Y130887D02*
X108047Y130887D01*
X108042Y130894D01*
X108049Y130900D01*
X108049Y138700D01*
X108013Y138747D01*
X108006Y138742D01*
X108000Y138749D01*
X105600Y138749D01*
X105553Y138713D01*
X105558Y138706D01*
X105551Y138700D01*
X105551Y130900D01*
X105587Y130853D01*
X105594Y130858D01*
X105600Y130851D01*
X108000Y130851D01*
X108047Y130887D01*
G37*
G36*
X128047Y130887D02*
X128047Y130887D01*
X128042Y130894D01*
X128049Y130900D01*
X128049Y138700D01*
X128013Y138747D01*
X128006Y138742D01*
X128000Y138749D01*
X125600Y138749D01*
X125553Y138713D01*
X125558Y138706D01*
X125551Y138700D01*
X125551Y130900D01*
X125587Y130853D01*
X125594Y130858D01*
X125600Y130851D01*
X128000Y130851D01*
X128047Y130887D01*
G37*
G36*
X488727Y130887D02*
X488727Y130887D01*
X488722Y130894D01*
X488729Y130900D01*
X488729Y138700D01*
X488693Y138747D01*
X488686Y138742D01*
X488680Y138749D01*
X486280Y138749D01*
X486233Y138713D01*
X486238Y138706D01*
X486231Y138700D01*
X486231Y130900D01*
X486267Y130853D01*
X486274Y130858D01*
X486280Y130851D01*
X488680Y130851D01*
X488727Y130887D01*
G37*
G36*
X123047Y130887D02*
X123047Y130887D01*
X123042Y130894D01*
X123049Y130900D01*
X123049Y138700D01*
X123013Y138747D01*
X123006Y138742D01*
X123000Y138749D01*
X120600Y138749D01*
X120553Y138713D01*
X120558Y138706D01*
X120551Y138700D01*
X120551Y130900D01*
X120587Y130853D01*
X120594Y130858D01*
X120600Y130851D01*
X123000Y130851D01*
X123047Y130887D01*
G37*
G36*
X473727Y130887D02*
X473727Y130887D01*
X473722Y130894D01*
X473729Y130900D01*
X473729Y138700D01*
X473693Y138747D01*
X473686Y138742D01*
X473680Y138749D01*
X471280Y138749D01*
X471233Y138713D01*
X471238Y138706D01*
X471231Y138700D01*
X471231Y130900D01*
X471267Y130853D01*
X471274Y130858D01*
X471280Y130851D01*
X473680Y130851D01*
X473727Y130887D01*
G37*
G36*
X138747Y125587D02*
X138747Y125587D01*
X138742Y125594D01*
X138749Y125600D01*
X138749Y128000D01*
X138713Y128047D01*
X138706Y128042D01*
X138700Y128049D01*
X130900Y128049D01*
X130853Y128013D01*
X130858Y128006D01*
X130851Y128000D01*
X130851Y125600D01*
X130887Y125553D01*
X130894Y125558D01*
X130900Y125551D01*
X138700Y125551D01*
X138747Y125587D01*
G37*
G36*
X499427Y125587D02*
X499427Y125587D01*
X499422Y125594D01*
X499429Y125600D01*
X499429Y128000D01*
X499393Y128047D01*
X499386Y128042D01*
X499380Y128049D01*
X491580Y128049D01*
X491533Y128013D01*
X491538Y128006D01*
X491531Y128000D01*
X491531Y125600D01*
X491567Y125553D01*
X491574Y125558D01*
X491580Y125551D01*
X499380Y125551D01*
X499427Y125587D01*
G37*
G36*
X97747Y125587D02*
X97747Y125587D01*
X97742Y125594D01*
X97749Y125600D01*
X97749Y128000D01*
X97713Y128047D01*
X97706Y128042D01*
X97700Y128049D01*
X89900Y128049D01*
X89853Y128013D01*
X89858Y128006D01*
X89851Y128000D01*
X89851Y125600D01*
X89887Y125553D01*
X89894Y125558D01*
X89900Y125551D01*
X97700Y125551D01*
X97747Y125587D01*
G37*
G36*
X458427Y125587D02*
X458427Y125587D01*
X458422Y125594D01*
X458429Y125600D01*
X458429Y128000D01*
X458393Y128047D01*
X458386Y128042D01*
X458380Y128049D01*
X450580Y128049D01*
X450533Y128013D01*
X450538Y128006D01*
X450531Y128000D01*
X450531Y125600D01*
X450567Y125553D01*
X450574Y125558D01*
X450580Y125551D01*
X458380Y125551D01*
X458427Y125587D01*
G37*
G36*
X468727Y130887D02*
X468727Y130887D01*
X468722Y130894D01*
X468729Y130900D01*
X468729Y138700D01*
X468693Y138747D01*
X468686Y138742D01*
X468680Y138749D01*
X466280Y138749D01*
X466233Y138713D01*
X466238Y138706D01*
X466231Y138700D01*
X466231Y130900D01*
X466267Y130853D01*
X466274Y130858D01*
X466280Y130851D01*
X468680Y130851D01*
X468727Y130887D01*
G37*
G36*
X478727Y694767D02*
X478727Y694767D01*
X478722Y694774D01*
X478729Y694780D01*
X478729Y702580D01*
X478693Y702627D01*
X478686Y702622D01*
X478680Y702629D01*
X476280Y702629D01*
X476233Y702593D01*
X476238Y702586D01*
X476231Y702580D01*
X476231Y694780D01*
X476267Y694733D01*
X476274Y694738D01*
X476280Y694731D01*
X478680Y694731D01*
X478727Y694767D01*
G37*
G36*
X468727Y694767D02*
X468727Y694767D01*
X468722Y694774D01*
X468729Y694780D01*
X468729Y702580D01*
X468693Y702627D01*
X468686Y702622D01*
X468680Y702629D01*
X466280Y702629D01*
X466233Y702593D01*
X466238Y702586D01*
X466231Y702580D01*
X466231Y694780D01*
X466267Y694733D01*
X466274Y694738D01*
X466280Y694731D01*
X468680Y694731D01*
X468727Y694767D01*
G37*
G36*
X103047Y694767D02*
X103047Y694767D01*
X103042Y694774D01*
X103049Y694780D01*
X103049Y702580D01*
X103013Y702627D01*
X103006Y702622D01*
X103000Y702629D01*
X100600Y702629D01*
X100553Y702593D01*
X100558Y702586D01*
X100551Y702580D01*
X100551Y694780D01*
X100587Y694733D01*
X100594Y694738D01*
X100600Y694731D01*
X103000Y694731D01*
X103047Y694767D01*
G37*
G36*
X458427Y120587D02*
X458427Y120587D01*
X458422Y120594D01*
X458429Y120600D01*
X458429Y123000D01*
X458393Y123047D01*
X458386Y123042D01*
X458380Y123049D01*
X450580Y123049D01*
X450533Y123013D01*
X450538Y123006D01*
X450531Y123000D01*
X450531Y120600D01*
X450567Y120553D01*
X450574Y120558D01*
X450580Y120551D01*
X458380Y120551D01*
X458427Y120587D01*
G37*
G36*
X499427Y120587D02*
X499427Y120587D01*
X499422Y120594D01*
X499429Y120600D01*
X499429Y123000D01*
X499393Y123047D01*
X499386Y123042D01*
X499380Y123049D01*
X491580Y123049D01*
X491533Y123013D01*
X491538Y123006D01*
X491531Y123000D01*
X491531Y120600D01*
X491567Y120553D01*
X491574Y120558D01*
X491580Y120551D01*
X499380Y120551D01*
X499427Y120587D01*
G37*
G36*
X97747Y120587D02*
X97747Y120587D01*
X97742Y120594D01*
X97749Y120600D01*
X97749Y123000D01*
X97713Y123047D01*
X97706Y123042D01*
X97700Y123049D01*
X89900Y123049D01*
X89853Y123013D01*
X89858Y123006D01*
X89851Y123000D01*
X89851Y120600D01*
X89887Y120553D01*
X89894Y120558D01*
X89900Y120551D01*
X97700Y120551D01*
X97747Y120587D01*
G37*
G36*
X138747Y120587D02*
X138747Y120587D01*
X138742Y120594D01*
X138749Y120600D01*
X138749Y123000D01*
X138713Y123047D01*
X138706Y123042D01*
X138700Y123049D01*
X130900Y123049D01*
X130853Y123013D01*
X130858Y123006D01*
X130851Y123000D01*
X130851Y120600D01*
X130887Y120553D01*
X130894Y120558D01*
X130900Y120551D01*
X138700Y120551D01*
X138747Y120587D01*
G37*
G36*
X458427Y115587D02*
X458427Y115587D01*
X458422Y115594D01*
X458429Y115600D01*
X458429Y118000D01*
X458393Y118047D01*
X458386Y118042D01*
X458380Y118049D01*
X450580Y118049D01*
X450533Y118013D01*
X450538Y118006D01*
X450531Y118000D01*
X450531Y115600D01*
X450567Y115553D01*
X450574Y115558D01*
X450580Y115551D01*
X458380Y115551D01*
X458427Y115587D01*
G37*
G36*
X97747Y115587D02*
X97747Y115587D01*
X97742Y115594D01*
X97749Y115600D01*
X97749Y118000D01*
X97713Y118047D01*
X97706Y118042D01*
X97700Y118049D01*
X89900Y118049D01*
X89853Y118013D01*
X89858Y118006D01*
X89851Y118000D01*
X89851Y115600D01*
X89887Y115553D01*
X89894Y115558D01*
X89900Y115551D01*
X97700Y115551D01*
X97747Y115587D01*
G37*
G36*
X138747Y115587D02*
X138747Y115587D01*
X138742Y115594D01*
X138749Y115600D01*
X138749Y118000D01*
X138713Y118047D01*
X138706Y118042D01*
X138700Y118049D01*
X130900Y118049D01*
X130853Y118013D01*
X130858Y118006D01*
X130851Y118000D01*
X130851Y115600D01*
X130887Y115553D01*
X130894Y115558D01*
X130900Y115551D01*
X138700Y115551D01*
X138747Y115587D01*
G37*
G36*
X499427Y115587D02*
X499427Y115587D01*
X499422Y115594D01*
X499429Y115600D01*
X499429Y118000D01*
X499393Y118047D01*
X499386Y118042D01*
X499380Y118049D01*
X491580Y118049D01*
X491533Y118013D01*
X491538Y118006D01*
X491531Y118000D01*
X491531Y115600D01*
X491567Y115553D01*
X491574Y115558D01*
X491580Y115551D01*
X499380Y115551D01*
X499427Y115587D01*
G37*
G36*
X138747Y110587D02*
X138747Y110587D01*
X138742Y110594D01*
X138749Y110600D01*
X138749Y113000D01*
X138713Y113047D01*
X138706Y113042D01*
X138700Y113049D01*
X130900Y113049D01*
X130853Y113013D01*
X130858Y113006D01*
X130851Y113000D01*
X130851Y110600D01*
X130887Y110553D01*
X130894Y110558D01*
X130900Y110551D01*
X138700Y110551D01*
X138747Y110587D01*
G37*
G36*
X97747Y110587D02*
X97747Y110587D01*
X97742Y110594D01*
X97749Y110600D01*
X97749Y113000D01*
X97713Y113047D01*
X97706Y113042D01*
X97700Y113049D01*
X89900Y113049D01*
X89853Y113013D01*
X89858Y113006D01*
X89851Y113000D01*
X89851Y110600D01*
X89887Y110553D01*
X89894Y110558D01*
X89900Y110551D01*
X97700Y110551D01*
X97747Y110587D01*
G37*
G36*
X499427Y110587D02*
X499427Y110587D01*
X499422Y110594D01*
X499429Y110600D01*
X499429Y113000D01*
X499393Y113047D01*
X499386Y113042D01*
X499380Y113049D01*
X491580Y113049D01*
X491533Y113013D01*
X491538Y113006D01*
X491531Y113000D01*
X491531Y110600D01*
X491567Y110553D01*
X491574Y110558D01*
X491580Y110551D01*
X499380Y110551D01*
X499427Y110587D01*
G37*
G36*
X128047Y694767D02*
X128047Y694767D01*
X128042Y694774D01*
X128049Y694780D01*
X128049Y702580D01*
X128013Y702627D01*
X128006Y702622D01*
X128000Y702629D01*
X125600Y702629D01*
X125553Y702593D01*
X125558Y702586D01*
X125551Y702580D01*
X125551Y694780D01*
X125587Y694733D01*
X125594Y694738D01*
X125600Y694731D01*
X128000Y694731D01*
X128047Y694767D01*
G37*
G36*
X488727Y694767D02*
X488727Y694767D01*
X488722Y694774D01*
X488729Y694780D01*
X488729Y702580D01*
X488693Y702627D01*
X488686Y702622D01*
X488680Y702629D01*
X486280Y702629D01*
X486233Y702593D01*
X486238Y702586D01*
X486231Y702580D01*
X486231Y694780D01*
X486267Y694733D01*
X486274Y694738D01*
X486280Y694731D01*
X488680Y694731D01*
X488727Y694767D01*
G37*
G36*
X118047Y694767D02*
X118047Y694767D01*
X118042Y694774D01*
X118049Y694780D01*
X118049Y702580D01*
X118013Y702627D01*
X118006Y702622D01*
X118000Y702629D01*
X115600Y702629D01*
X115553Y702593D01*
X115558Y702586D01*
X115551Y702580D01*
X115551Y694780D01*
X115587Y694733D01*
X115594Y694738D01*
X115600Y694731D01*
X118000Y694731D01*
X118047Y694767D01*
G37*
G36*
X108047Y694767D02*
X108047Y694767D01*
X108042Y694774D01*
X108049Y694780D01*
X108049Y702580D01*
X108013Y702627D01*
X108006Y702622D01*
X108000Y702629D01*
X105600Y702629D01*
X105553Y702593D01*
X105558Y702586D01*
X105551Y702580D01*
X105551Y694780D01*
X105587Y694733D01*
X105594Y694738D01*
X105600Y694731D01*
X108000Y694731D01*
X108047Y694767D01*
G37*
G36*
X483727Y694767D02*
X483727Y694767D01*
X483722Y694774D01*
X483729Y694780D01*
X483729Y702580D01*
X483693Y702627D01*
X483686Y702622D01*
X483680Y702629D01*
X481280Y702629D01*
X481233Y702593D01*
X481238Y702586D01*
X481231Y702580D01*
X481231Y694780D01*
X481267Y694733D01*
X481274Y694738D01*
X481280Y694731D01*
X483680Y694731D01*
X483727Y694767D01*
G37*
G36*
X499427Y105587D02*
X499427Y105587D01*
X499422Y105594D01*
X499429Y105600D01*
X499429Y108000D01*
X499393Y108047D01*
X499386Y108042D01*
X499380Y108049D01*
X491580Y108049D01*
X491533Y108013D01*
X491538Y108006D01*
X491531Y108000D01*
X491531Y105600D01*
X491567Y105553D01*
X491574Y105558D01*
X491580Y105551D01*
X499380Y105551D01*
X499427Y105587D01*
G37*
G36*
X458427Y105587D02*
X458427Y105587D01*
X458422Y105594D01*
X458429Y105600D01*
X458429Y108000D01*
X458393Y108047D01*
X458386Y108042D01*
X458380Y108049D01*
X450580Y108049D01*
X450533Y108013D01*
X450538Y108006D01*
X450531Y108000D01*
X450531Y105600D01*
X450567Y105553D01*
X450574Y105558D01*
X450580Y105551D01*
X458380Y105551D01*
X458427Y105587D01*
G37*
G36*
X97747Y105587D02*
X97747Y105587D01*
X97742Y105594D01*
X97749Y105600D01*
X97749Y108000D01*
X97713Y108047D01*
X97706Y108042D01*
X97700Y108049D01*
X89900Y108049D01*
X89853Y108013D01*
X89858Y108006D01*
X89851Y108000D01*
X89851Y105600D01*
X89887Y105553D01*
X89894Y105558D01*
X89900Y105551D01*
X97700Y105551D01*
X97747Y105587D01*
G37*
G36*
X138747Y105587D02*
X138747Y105587D01*
X138742Y105594D01*
X138749Y105600D01*
X138749Y108000D01*
X138713Y108047D01*
X138706Y108042D01*
X138700Y108049D01*
X130900Y108049D01*
X130853Y108013D01*
X130858Y108006D01*
X130851Y108000D01*
X130851Y105600D01*
X130887Y105553D01*
X130894Y105558D01*
X130900Y105551D01*
X138700Y105551D01*
X138747Y105587D01*
G37*
G36*
X458427Y100587D02*
X458427Y100587D01*
X458422Y100594D01*
X458429Y100600D01*
X458429Y103000D01*
X458393Y103047D01*
X458386Y103042D01*
X458380Y103049D01*
X450580Y103049D01*
X450533Y103013D01*
X450538Y103006D01*
X450531Y103000D01*
X450531Y100600D01*
X450567Y100553D01*
X450574Y100558D01*
X450580Y100551D01*
X458380Y100551D01*
X458427Y100587D01*
G37*
G36*
X499427Y100587D02*
X499427Y100587D01*
X499422Y100594D01*
X499429Y100600D01*
X499429Y103000D01*
X499393Y103047D01*
X499386Y103042D01*
X499380Y103049D01*
X491580Y103049D01*
X491533Y103013D01*
X491538Y103006D01*
X491531Y103000D01*
X491531Y100600D01*
X491567Y100553D01*
X491574Y100558D01*
X491580Y100551D01*
X499380Y100551D01*
X499427Y100587D01*
G37*
G36*
X97747Y100587D02*
X97747Y100587D01*
X97742Y100594D01*
X97749Y100600D01*
X97749Y103000D01*
X97713Y103047D01*
X97706Y103042D01*
X97700Y103049D01*
X89900Y103049D01*
X89853Y103013D01*
X89858Y103006D01*
X89851Y103000D01*
X89851Y100600D01*
X89887Y100553D01*
X89894Y100558D01*
X89900Y100551D01*
X97700Y100551D01*
X97747Y100587D01*
G37*
G36*
X138747Y100587D02*
X138747Y100587D01*
X138742Y100594D01*
X138749Y100600D01*
X138749Y103000D01*
X138713Y103047D01*
X138706Y103042D01*
X138700Y103049D01*
X130900Y103049D01*
X130853Y103013D01*
X130858Y103006D01*
X130851Y103000D01*
X130851Y100600D01*
X130887Y100553D01*
X130894Y100558D01*
X130900Y100551D01*
X138700Y100551D01*
X138747Y100587D01*
G37*
G36*
X478727Y89887D02*
X478727Y89887D01*
X478722Y89894D01*
X478729Y89900D01*
X478729Y97700D01*
X478693Y97747D01*
X478686Y97742D01*
X478680Y97749D01*
X476280Y97749D01*
X476233Y97713D01*
X476238Y97706D01*
X476231Y97700D01*
X476231Y89900D01*
X476267Y89853D01*
X476274Y89858D01*
X476280Y89851D01*
X478680Y89851D01*
X478727Y89887D01*
G37*
G36*
X118047Y89887D02*
X118047Y89887D01*
X118042Y89894D01*
X118049Y89900D01*
X118049Y97700D01*
X118013Y97747D01*
X118006Y97742D01*
X118000Y97749D01*
X115600Y97749D01*
X115553Y97713D01*
X115558Y97706D01*
X115551Y97700D01*
X115551Y89900D01*
X115587Y89853D01*
X115594Y89858D01*
X115600Y89851D01*
X118000Y89851D01*
X118047Y89887D01*
G37*
G36*
X128047Y89887D02*
X128047Y89887D01*
X128042Y89894D01*
X128049Y89900D01*
X128049Y97700D01*
X128013Y97747D01*
X128006Y97742D01*
X128000Y97749D01*
X125600Y97749D01*
X125553Y97713D01*
X125558Y97706D01*
X125551Y97700D01*
X125551Y89900D01*
X125587Y89853D01*
X125594Y89858D01*
X125600Y89851D01*
X128000Y89851D01*
X128047Y89887D01*
G37*
G36*
X458427Y110587D02*
X458427Y110587D01*
X458422Y110594D01*
X458429Y110600D01*
X458429Y113000D01*
X458393Y113047D01*
X458386Y113042D01*
X458380Y113049D01*
X450580Y113049D01*
X450533Y113013D01*
X450538Y113006D01*
X450531Y113000D01*
X450531Y110600D01*
X450567Y110553D01*
X450574Y110558D01*
X450580Y110551D01*
X458380Y110551D01*
X458427Y110587D01*
G37*
G36*
X463727Y89887D02*
X463727Y89887D01*
X463722Y89894D01*
X463729Y89900D01*
X463729Y97700D01*
X463693Y97747D01*
X463686Y97742D01*
X463680Y97749D01*
X461280Y97749D01*
X461233Y97713D01*
X461238Y97706D01*
X461231Y97700D01*
X461231Y89900D01*
X461267Y89853D01*
X461274Y89858D01*
X461280Y89851D01*
X463680Y89851D01*
X463727Y89887D01*
G37*
G36*
X468727Y89887D02*
X468727Y89887D01*
X468722Y89894D01*
X468729Y89900D01*
X468729Y97700D01*
X468693Y97747D01*
X468686Y97742D01*
X468680Y97749D01*
X466280Y97749D01*
X466233Y97713D01*
X466238Y97706D01*
X466231Y97700D01*
X466231Y89900D01*
X466267Y89853D01*
X466274Y89858D01*
X466280Y89851D01*
X468680Y89851D01*
X468727Y89887D01*
G37*
G36*
X103047Y89887D02*
X103047Y89887D01*
X103042Y89894D01*
X103049Y89900D01*
X103049Y97700D01*
X103013Y97747D01*
X103006Y97742D01*
X103000Y97749D01*
X100600Y97749D01*
X100553Y97713D01*
X100558Y97706D01*
X100551Y97700D01*
X100551Y89900D01*
X100587Y89853D01*
X100594Y89858D01*
X100600Y89851D01*
X103000Y89851D01*
X103047Y89887D01*
G37*
G36*
X473727Y89887D02*
X473727Y89887D01*
X473722Y89894D01*
X473729Y89900D01*
X473729Y97700D01*
X473693Y97747D01*
X473686Y97742D01*
X473680Y97749D01*
X471280Y97749D01*
X471233Y97713D01*
X471238Y97706D01*
X471231Y97700D01*
X471231Y89900D01*
X471267Y89853D01*
X471274Y89858D01*
X471280Y89851D01*
X473680Y89851D01*
X473727Y89887D01*
G37*
G36*
X108047Y89887D02*
X108047Y89887D01*
X108042Y89894D01*
X108049Y89900D01*
X108049Y97700D01*
X108013Y97747D01*
X108006Y97742D01*
X108000Y97749D01*
X105600Y97749D01*
X105553Y97713D01*
X105558Y97706D01*
X105551Y97700D01*
X105551Y89900D01*
X105587Y89853D01*
X105594Y89858D01*
X105600Y89851D01*
X108000Y89851D01*
X108047Y89887D01*
G37*
G36*
X483727Y89887D02*
X483727Y89887D01*
X483722Y89894D01*
X483729Y89900D01*
X483729Y97700D01*
X483693Y97747D01*
X483686Y97742D01*
X483680Y97749D01*
X481280Y97749D01*
X481233Y97713D01*
X481238Y97706D01*
X481231Y97700D01*
X481231Y89900D01*
X481267Y89853D01*
X481274Y89858D01*
X481280Y89851D01*
X483680Y89851D01*
X483727Y89887D01*
G37*
G36*
X123047Y89887D02*
X123047Y89887D01*
X123042Y89894D01*
X123049Y89900D01*
X123049Y97700D01*
X123013Y97747D01*
X123006Y97742D01*
X123000Y97749D01*
X120600Y97749D01*
X120553Y97713D01*
X120558Y97706D01*
X120551Y97700D01*
X120551Y89900D01*
X120587Y89853D01*
X120594Y89858D01*
X120600Y89851D01*
X123000Y89851D01*
X123047Y89887D01*
G37*
G36*
X113047Y89887D02*
X113047Y89887D01*
X113042Y89894D01*
X113049Y89900D01*
X113049Y97700D01*
X113013Y97747D01*
X113006Y97742D01*
X113000Y97749D01*
X110600Y97749D01*
X110553Y97713D01*
X110558Y97706D01*
X110551Y97700D01*
X110551Y89900D01*
X110587Y89853D01*
X110594Y89858D01*
X110600Y89851D01*
X113000Y89851D01*
X113047Y89887D01*
G37*
G36*
X123047Y694767D02*
X123047Y694767D01*
X123042Y694774D01*
X123049Y694780D01*
X123049Y702580D01*
X123013Y702627D01*
X123006Y702622D01*
X123000Y702629D01*
X120600Y702629D01*
X120553Y702593D01*
X120558Y702586D01*
X120551Y702580D01*
X120551Y694780D01*
X120587Y694733D01*
X120594Y694738D01*
X120600Y694731D01*
X123000Y694731D01*
X123047Y694767D01*
G37*
G36*
X473727Y694767D02*
X473727Y694767D01*
X473722Y694774D01*
X473729Y694780D01*
X473729Y702580D01*
X473693Y702627D01*
X473686Y702622D01*
X473680Y702629D01*
X471280Y702629D01*
X471233Y702593D01*
X471238Y702586D01*
X471231Y702580D01*
X471231Y694780D01*
X471267Y694733D01*
X471274Y694738D01*
X471280Y694731D01*
X473680Y694731D01*
X473727Y694767D01*
G37*
G36*
X463727Y694767D02*
X463727Y694767D01*
X463722Y694774D01*
X463729Y694780D01*
X463729Y702580D01*
X463693Y702627D01*
X463686Y702622D01*
X463680Y702629D01*
X461280Y702629D01*
X461233Y702593D01*
X461238Y702586D01*
X461231Y702580D01*
X461231Y694780D01*
X461267Y694733D01*
X461274Y694738D01*
X461280Y694731D01*
X463680Y694731D01*
X463727Y694767D01*
G37*
G36*
X97747Y689467D02*
X97747Y689467D01*
X97742Y689474D01*
X97749Y689480D01*
X97749Y691880D01*
X97713Y691927D01*
X97706Y691922D01*
X97700Y691929D01*
X89900Y691929D01*
X89853Y691893D01*
X89858Y691886D01*
X89851Y691880D01*
X89851Y689480D01*
X89887Y689433D01*
X89894Y689438D01*
X89900Y689431D01*
X97700Y689431D01*
X97747Y689467D01*
G37*
G36*
X138747Y689467D02*
X138747Y689467D01*
X138742Y689474D01*
X138749Y689480D01*
X138749Y691880D01*
X138713Y691927D01*
X138706Y691922D01*
X138700Y691929D01*
X130900Y691929D01*
X130853Y691893D01*
X130858Y691886D01*
X130851Y691880D01*
X130851Y689480D01*
X130887Y689433D01*
X130894Y689438D01*
X130900Y689431D01*
X138700Y689431D01*
X138747Y689467D01*
G37*
G36*
X458427Y689467D02*
X458427Y689467D01*
X458422Y689474D01*
X458429Y689480D01*
X458429Y691880D01*
X458393Y691927D01*
X458386Y691922D01*
X458380Y691929D01*
X450580Y691929D01*
X450533Y691893D01*
X450538Y691886D01*
X450531Y691880D01*
X450531Y689480D01*
X450567Y689433D01*
X450574Y689438D01*
X450580Y689431D01*
X458380Y689431D01*
X458427Y689467D01*
G37*
G36*
X499427Y689467D02*
X499427Y689467D01*
X499422Y689474D01*
X499429Y689480D01*
X499429Y691880D01*
X499393Y691927D01*
X499386Y691922D01*
X499380Y691929D01*
X491580Y691929D01*
X491533Y691893D01*
X491538Y691886D01*
X491531Y691880D01*
X491531Y689480D01*
X491567Y689433D01*
X491574Y689438D01*
X491580Y689431D01*
X499380Y689431D01*
X499427Y689467D01*
G37*
G36*
X488727Y89887D02*
X488727Y89887D01*
X488722Y89894D01*
X488729Y89900D01*
X488729Y97700D01*
X488693Y97747D01*
X488686Y97742D01*
X488680Y97749D01*
X486280Y97749D01*
X486233Y97713D01*
X486238Y97706D01*
X486231Y97700D01*
X486231Y89900D01*
X486267Y89853D01*
X486274Y89858D01*
X486280Y89851D01*
X488680Y89851D01*
X488727Y89887D01*
G37*
D10*
X78700Y522500D03*
X78700Y509800D03*
X78700Y497100D03*
X78700Y484400D03*
X78700Y471700D03*
X78700Y459000D03*
X78700Y446300D03*
X78700Y433600D03*
X78700Y420900D03*
X78700Y408200D03*
X78700Y395500D03*
X78700Y382800D03*
X78700Y370100D03*
X78700Y357400D03*
X78700Y344700D03*
X78700Y332000D03*
X78700Y319300D03*
X78700Y306600D03*
X78700Y293900D03*
X253700Y293900D03*
X253700Y306600D03*
X253700Y319300D03*
X253700Y332000D03*
X253700Y344700D03*
X253700Y357400D03*
X253700Y370100D03*
X253700Y382800D03*
X253700Y395500D03*
X253700Y408200D03*
X253700Y420900D03*
X253700Y433600D03*
X253700Y446300D03*
X253700Y459000D03*
X253700Y471700D03*
X253700Y484400D03*
X253700Y497100D03*
X253700Y509800D03*
X253700Y522500D03*
D11*
X156200Y446900D03*
D12*
X38100Y461400D03*
X38100Y478400D03*
D13*
X296300Y463550D03*
X313300Y463550D03*
X296300Y479425D03*
X313300Y479425D03*
D14*
X111450Y221170D02*
X104450Y221170D01*
X104450Y228170D01*
X111450Y228170D01*
X111450Y221170D01*
X111450Y224020D02*
X104450Y224020D01*
X104450Y226870D02*
X111450Y226870D01*
X111450Y203630D02*
X104450Y203630D01*
X104450Y210630D01*
X111450Y210630D01*
X111450Y203630D01*
X111450Y206480D02*
X104450Y206480D01*
X104450Y209330D02*
X111450Y209330D01*
D12*
X92075Y207400D03*
X92075Y224400D03*
D15*
X46100Y170000D03*
X30100Y170000D03*
X30100Y211000D03*
X46100Y211000D03*
X46100Y385900D03*
X30100Y385900D03*
X30100Y426900D03*
X46100Y426900D03*
D16*
X121800Y60100D03*
X116800Y60100D03*
D17*
X146550Y60100D03*
X138800Y60100D03*
D16*
X131800Y60100D03*
X126800Y60100D03*
X106800Y60100D03*
X111800Y60100D03*
D17*
X82050Y60100D03*
X89800Y60100D03*
D16*
X96800Y60100D03*
X101800Y60100D03*
D18*
X250524Y225400D03*
X250524Y215900D03*
X250524Y206400D03*
X276526Y206400D03*
X276526Y225400D03*
D19*
X180975Y227400D03*
X180975Y204400D03*
X200025Y227400D03*
X200025Y204400D03*
D20*
X324300Y381000D03*
X324300Y368300D03*
X324300Y355600D03*
X324300Y393700D03*
X324300Y406400D03*
X285300Y406400D03*
X285300Y393700D03*
X285300Y381000D03*
X285300Y368300D03*
X285300Y355600D03*
D12*
X219075Y207400D03*
X219075Y224400D03*
X323850Y224400D03*
X323850Y207400D03*
X234950Y207400D03*
X234950Y224400D03*
X307975Y224400D03*
X307975Y207400D03*
X292100Y224400D03*
X292100Y207400D03*
D13*
X294250Y307975D03*
X277250Y307975D03*
X294250Y292100D03*
X277250Y292100D03*
X294250Y276225D03*
X277250Y276225D03*
X315350Y276225D03*
X332350Y276225D03*
X315350Y292100D03*
X332350Y292100D03*
X315350Y307975D03*
X332350Y307975D03*
D21*
X105100Y171600D03*
X123500Y165100D03*
X123500Y158600D03*
X123500Y171600D03*
X105100Y165100D03*
X105100Y158600D03*
D12*
X139700Y173600D03*
X139700Y156600D03*
X88900Y156600D03*
X88900Y173600D03*
X155575Y83575D03*
X155575Y100575D03*
X171450Y100575D03*
X171450Y83575D03*
D14*
X127325Y221170D02*
X120325Y221170D01*
X120325Y228170D01*
X127325Y228170D01*
X127325Y221170D01*
X127325Y224020D02*
X120325Y224020D01*
X120325Y226870D02*
X127325Y226870D01*
X127325Y203630D02*
X120325Y203630D01*
X120325Y210630D01*
X127325Y210630D01*
X127325Y203630D01*
X127325Y206480D02*
X120325Y206480D01*
X120325Y209330D02*
X127325Y209330D01*
D12*
X139700Y207400D03*
X139700Y224400D03*
X57150Y100575D03*
X57150Y83575D03*
X73025Y100575D03*
X73025Y83575D03*
D10*
X439380Y522500D03*
X439380Y509800D03*
X439380Y497100D03*
X439380Y484400D03*
X439380Y471700D03*
X439380Y459000D03*
X439380Y446300D03*
X439380Y433600D03*
X439380Y420900D03*
X439380Y408200D03*
X439380Y395500D03*
X439380Y382800D03*
X439380Y370100D03*
X439380Y357400D03*
X439380Y344700D03*
X439380Y332000D03*
X439380Y319300D03*
X439380Y306600D03*
X439380Y293900D03*
X614380Y293900D03*
X614380Y306600D03*
X614380Y319300D03*
X614380Y332000D03*
X614380Y344700D03*
X614380Y357400D03*
X614380Y370100D03*
X614380Y382800D03*
X614380Y395500D03*
X614380Y408200D03*
X614380Y420900D03*
X614380Y433600D03*
X614380Y446300D03*
X614380Y459000D03*
X614380Y471700D03*
X614380Y484400D03*
X614380Y497100D03*
X614380Y509800D03*
X614380Y522500D03*
D11*
X516880Y446900D03*
D12*
X398780Y461400D03*
X398780Y478400D03*
D13*
X656980Y463550D03*
X673980Y463550D03*
X656980Y479425D03*
X673980Y479425D03*
D14*
X472130Y221170D02*
X465130Y221170D01*
X465130Y228170D01*
X472130Y228170D01*
X472130Y221170D01*
X472130Y224020D02*
X465130Y224020D01*
X465130Y226870D02*
X472130Y226870D01*
X472130Y203630D02*
X465130Y203630D01*
X465130Y210630D01*
X472130Y210630D01*
X472130Y203630D01*
X472130Y206480D02*
X465130Y206480D01*
X465130Y209330D02*
X472130Y209330D01*
D12*
X452755Y207400D03*
X452755Y224400D03*
D15*
X406780Y170000D03*
X390780Y170000D03*
X390780Y211000D03*
X406780Y211000D03*
X406780Y385900D03*
X390780Y385900D03*
X390780Y426900D03*
X406780Y426900D03*
D16*
X482480Y60100D03*
X477480Y60100D03*
D17*
X507230Y60100D03*
X499480Y60100D03*
D16*
X492480Y60100D03*
X487480Y60100D03*
X467480Y60100D03*
X472480Y60100D03*
D17*
X442730Y60100D03*
X450480Y60100D03*
D16*
X457480Y60100D03*
X462480Y60100D03*
D18*
X611204Y225400D03*
X611204Y215900D03*
X611204Y206400D03*
X637206Y206400D03*
X637206Y225400D03*
D19*
X541655Y227400D03*
X541655Y204400D03*
X560705Y227400D03*
X560705Y204400D03*
D20*
X684980Y381000D03*
X684980Y368300D03*
X684980Y355600D03*
X684980Y393700D03*
X684980Y406400D03*
X645980Y406400D03*
X645980Y393700D03*
X645980Y381000D03*
X645980Y368300D03*
X645980Y355600D03*
D12*
X579755Y207400D03*
X579755Y224400D03*
X684530Y224400D03*
X684530Y207400D03*
X595630Y207400D03*
X595630Y224400D03*
X668655Y224400D03*
X668655Y207400D03*
X652780Y224400D03*
X652780Y207400D03*
D13*
X654930Y307975D03*
X637930Y307975D03*
X654930Y292100D03*
X637930Y292100D03*
X654930Y276225D03*
X637930Y276225D03*
X676030Y276225D03*
X693030Y276225D03*
X676030Y292100D03*
X693030Y292100D03*
X676030Y307975D03*
X693030Y307975D03*
D21*
X465780Y171600D03*
X484180Y165100D03*
X484180Y158600D03*
X484180Y171600D03*
X465780Y165100D03*
X465780Y158600D03*
D12*
X500380Y173600D03*
X500380Y156600D03*
X449580Y156600D03*
X449580Y173600D03*
X516255Y83575D03*
X516255Y100575D03*
X532130Y100575D03*
X532130Y83575D03*
D14*
X488005Y221170D02*
X481005Y221170D01*
X481005Y228170D01*
X488005Y228170D01*
X488005Y221170D01*
X488005Y224020D02*
X481005Y224020D01*
X481005Y226870D02*
X488005Y226870D01*
X488005Y203630D02*
X481005Y203630D01*
X481005Y210630D01*
X488005Y210630D01*
X488005Y203630D01*
X488005Y206480D02*
X481005Y206480D01*
X481005Y209330D02*
X488005Y209330D01*
D12*
X500380Y207400D03*
X500380Y224400D03*
X417830Y100575D03*
X417830Y83575D03*
X433705Y100575D03*
X433705Y83575D03*
D10*
X78700Y1086380D03*
X78700Y1073680D03*
X78700Y1060980D03*
X78700Y1048280D03*
X78700Y1035580D03*
X78700Y1022880D03*
X78700Y1010180D03*
X78700Y997480D03*
X78700Y984780D03*
X78700Y972080D03*
X78700Y959380D03*
X78700Y946680D03*
X78700Y933980D03*
X78700Y921280D03*
X78700Y908580D03*
X78700Y895880D03*
X78700Y883180D03*
X78700Y870480D03*
X78700Y857780D03*
X253700Y857780D03*
X253700Y870480D03*
X253700Y883180D03*
X253700Y895880D03*
X253700Y908580D03*
X253700Y921280D03*
X253700Y933980D03*
X253700Y946680D03*
X253700Y959380D03*
X253700Y972080D03*
X253700Y984780D03*
X253700Y997480D03*
X253700Y1010180D03*
X253700Y1022880D03*
X253700Y1035580D03*
X253700Y1048280D03*
X253700Y1060980D03*
X253700Y1073680D03*
X253700Y1086380D03*
D11*
X156200Y1010780D03*
D12*
X38100Y1025280D03*
X38100Y1042280D03*
D13*
X296300Y1027430D03*
X313300Y1027430D03*
X296300Y1043305D03*
X313300Y1043305D03*
D14*
X111450Y785050D02*
X104450Y785050D01*
X104450Y792050D01*
X111450Y792050D01*
X111450Y785050D01*
X111450Y787900D02*
X104450Y787900D01*
X104450Y790750D02*
X111450Y790750D01*
X111450Y767510D02*
X104450Y767510D01*
X104450Y774510D01*
X111450Y774510D01*
X111450Y767510D01*
X111450Y770360D02*
X104450Y770360D01*
X104450Y773210D02*
X111450Y773210D01*
D12*
X92075Y771280D03*
X92075Y788280D03*
D15*
X46100Y733880D03*
X30100Y733880D03*
X30100Y774880D03*
X46100Y774880D03*
X46100Y949780D03*
X30100Y949780D03*
X30100Y990780D03*
X46100Y990780D03*
D16*
X121800Y623980D03*
X116800Y623980D03*
D17*
X146550Y623980D03*
X138800Y623980D03*
D16*
X131800Y623980D03*
X126800Y623980D03*
X106800Y623980D03*
X111800Y623980D03*
D17*
X82050Y623980D03*
X89800Y623980D03*
D16*
X96800Y623980D03*
X101800Y623980D03*
D18*
X250524Y789280D03*
X250524Y779780D03*
X250524Y770280D03*
X276526Y770280D03*
X276526Y789280D03*
D19*
X180975Y791280D03*
X180975Y768280D03*
X200025Y791280D03*
X200025Y768280D03*
D20*
X324300Y944880D03*
X324300Y932180D03*
X324300Y919480D03*
X324300Y957580D03*
X324300Y970280D03*
X285300Y970280D03*
X285300Y957580D03*
X285300Y944880D03*
X285300Y932180D03*
X285300Y919480D03*
D12*
X219075Y771280D03*
X219075Y788280D03*
X323850Y788280D03*
X323850Y771280D03*
X234950Y771280D03*
X234950Y788280D03*
X307975Y788280D03*
X307975Y771280D03*
X292100Y788280D03*
X292100Y771280D03*
D13*
X294250Y871855D03*
X277250Y871855D03*
X294250Y855980D03*
X277250Y855980D03*
X294250Y840105D03*
X277250Y840105D03*
X315350Y840105D03*
X332350Y840105D03*
X315350Y855980D03*
X332350Y855980D03*
X315350Y871855D03*
X332350Y871855D03*
D21*
X105100Y735480D03*
X123500Y728980D03*
X123500Y722480D03*
X123500Y735480D03*
X105100Y728980D03*
X105100Y722480D03*
D12*
X139700Y737480D03*
X139700Y720480D03*
X88900Y720480D03*
X88900Y737480D03*
X155575Y647455D03*
X155575Y664455D03*
X171450Y664455D03*
X171450Y647455D03*
D14*
X127325Y785050D02*
X120325Y785050D01*
X120325Y792050D01*
X127325Y792050D01*
X127325Y785050D01*
X127325Y787900D02*
X120325Y787900D01*
X120325Y790750D02*
X127325Y790750D01*
X127325Y767510D02*
X120325Y767510D01*
X120325Y774510D01*
X127325Y774510D01*
X127325Y767510D01*
X127325Y770360D02*
X120325Y770360D01*
X120325Y773210D02*
X127325Y773210D01*
D12*
X139700Y771280D03*
X139700Y788280D03*
X57150Y664455D03*
X57150Y647455D03*
X73025Y664455D03*
X73025Y647455D03*
D10*
X439380Y1086380D03*
X439380Y1073680D03*
X439380Y1060980D03*
X439380Y1048280D03*
X439380Y1035580D03*
X439380Y1022880D03*
X439380Y1010180D03*
X439380Y997480D03*
X439380Y984780D03*
X439380Y972080D03*
X439380Y959380D03*
X439380Y946680D03*
X439380Y933980D03*
X439380Y921280D03*
X439380Y908580D03*
X439380Y895880D03*
X439380Y883180D03*
X439380Y870480D03*
X439380Y857780D03*
X614380Y857780D03*
X614380Y870480D03*
X614380Y883180D03*
X614380Y895880D03*
X614380Y908580D03*
X614380Y921280D03*
X614380Y933980D03*
X614380Y946680D03*
X614380Y959380D03*
X614380Y972080D03*
X614380Y984780D03*
X614380Y997480D03*
X614380Y1010180D03*
X614380Y1022880D03*
X614380Y1035580D03*
X614380Y1048280D03*
X614380Y1060980D03*
X614380Y1073680D03*
X614380Y1086380D03*
D11*
X516880Y1010780D03*
D12*
X398780Y1025280D03*
X398780Y1042280D03*
D13*
X656980Y1027430D03*
X673980Y1027430D03*
X656980Y1043305D03*
X673980Y1043305D03*
D14*
X472130Y785050D02*
X465130Y785050D01*
X465130Y792050D01*
X472130Y792050D01*
X472130Y785050D01*
X472130Y787900D02*
X465130Y787900D01*
X465130Y790750D02*
X472130Y790750D01*
X472130Y767510D02*
X465130Y767510D01*
X465130Y774510D01*
X472130Y774510D01*
X472130Y767510D01*
X472130Y770360D02*
X465130Y770360D01*
X465130Y773210D02*
X472130Y773210D01*
D12*
X452755Y771280D03*
X452755Y788280D03*
D15*
X406780Y733880D03*
X390780Y733880D03*
X390780Y774880D03*
X406780Y774880D03*
X406780Y949780D03*
X390780Y949780D03*
X390780Y990780D03*
X406780Y990780D03*
D16*
X482480Y623980D03*
X477480Y623980D03*
D17*
X507230Y623980D03*
X499480Y623980D03*
D16*
X492480Y623980D03*
X487480Y623980D03*
X467480Y623980D03*
X472480Y623980D03*
D17*
X442730Y623980D03*
X450480Y623980D03*
D16*
X457480Y623980D03*
X462480Y623980D03*
D18*
X611204Y789280D03*
X611204Y779780D03*
X611204Y770280D03*
X637206Y770280D03*
X637206Y789280D03*
D19*
X541655Y791280D03*
X541655Y768280D03*
X560705Y791280D03*
X560705Y768280D03*
D20*
X684980Y944880D03*
X684980Y932180D03*
X684980Y919480D03*
X684980Y957580D03*
X684980Y970280D03*
X645980Y970280D03*
X645980Y957580D03*
X645980Y944880D03*
X645980Y932180D03*
X645980Y919480D03*
D12*
X579755Y771280D03*
X579755Y788280D03*
X684530Y788280D03*
X684530Y771280D03*
X595630Y771280D03*
X595630Y788280D03*
X668655Y788280D03*
X668655Y771280D03*
X652780Y788280D03*
X652780Y771280D03*
D13*
X654930Y871855D03*
X637930Y871855D03*
X654930Y855980D03*
X637930Y855980D03*
X654930Y840105D03*
X637930Y840105D03*
X676030Y840105D03*
X693030Y840105D03*
X676030Y855980D03*
X693030Y855980D03*
X676030Y871855D03*
X693030Y871855D03*
D21*
X465780Y735480D03*
X484180Y728980D03*
X484180Y722480D03*
X484180Y735480D03*
X465780Y728980D03*
X465780Y722480D03*
D12*
X500380Y737480D03*
X500380Y720480D03*
X449580Y720480D03*
X449580Y737480D03*
X516255Y647455D03*
X516255Y664455D03*
X532130Y664455D03*
X532130Y647455D03*
D14*
X488005Y785050D02*
X481005Y785050D01*
X481005Y792050D01*
X488005Y792050D01*
X488005Y785050D01*
X488005Y787900D02*
X481005Y787900D01*
X481005Y790750D02*
X488005Y790750D01*
X488005Y767510D02*
X481005Y767510D01*
X481005Y774510D01*
X488005Y774510D01*
X488005Y767510D01*
X488005Y770360D02*
X481005Y770360D01*
X481005Y773210D02*
X488005Y773210D01*
D12*
X500380Y771280D03*
X500380Y788280D03*
X417830Y664455D03*
X417830Y647455D03*
X433705Y664455D03*
X433705Y647455D03*
M02*
