G04 EAGLE Gerber RS-274X export*
G75*
%MOMM*%
%FSLAX34Y34*%
%LPD*%
%INTop Copper*%
%IPPOS*%
%AMOC8*
5,1,8,0,0,1.08239X$1,22.5*%
G01*
%ADD10C,0.279400*%
%ADD11R,1.000000X1.100000*%
%ADD12R,0.700000X0.700000*%
%ADD13R,0.900000X0.800000*%
%ADD14R,0.600000X0.250000*%
%ADD15R,0.750000X0.250000*%
%ADD16R,1.200000X0.550000*%
%ADD17R,1.100000X0.400000*%
%ADD18C,0.736600*%
%ADD19C,1.000000*%
%ADD20C,0.406400*%
%ADD21C,0.685800*%
%ADD22C,0.203200*%

G36*
X243661Y3064D02*
X243661Y3064D01*
X243769Y3072D01*
X243801Y3084D01*
X243836Y3089D01*
X243934Y3133D01*
X244035Y3170D01*
X244063Y3191D01*
X244095Y3205D01*
X244177Y3274D01*
X244264Y3338D01*
X244286Y3366D01*
X244312Y3388D01*
X244372Y3478D01*
X244438Y3564D01*
X244450Y3596D01*
X244470Y3625D01*
X244502Y3728D01*
X244542Y3828D01*
X244545Y3863D01*
X244556Y3896D01*
X244558Y4004D01*
X244568Y4111D01*
X244562Y4146D01*
X244563Y4180D01*
X244536Y4285D01*
X244515Y4391D01*
X244500Y4422D01*
X244491Y4455D01*
X244436Y4548D01*
X244387Y4644D01*
X244363Y4670D01*
X244346Y4700D01*
X244267Y4774D01*
X244194Y4853D01*
X244167Y4868D01*
X244138Y4894D01*
X243948Y4992D01*
X243901Y5018D01*
X242522Y5520D01*
X236415Y10644D01*
X232429Y17549D01*
X231045Y25400D01*
X232429Y33251D01*
X236415Y40155D01*
X242522Y45280D01*
X250014Y48007D01*
X257986Y48007D01*
X265478Y45280D01*
X271585Y40156D01*
X274420Y35246D01*
X274432Y35230D01*
X274439Y35213D01*
X274519Y35119D01*
X274595Y35022D01*
X274611Y35010D01*
X274623Y34996D01*
X274725Y34927D01*
X274825Y34855D01*
X274843Y34849D01*
X274860Y34838D01*
X274977Y34801D01*
X275093Y34759D01*
X275112Y34758D01*
X275131Y34752D01*
X275253Y34749D01*
X275376Y34741D01*
X275395Y34745D01*
X275415Y34745D01*
X275534Y34776D01*
X275654Y34802D01*
X275671Y34811D01*
X275690Y34816D01*
X275796Y34879D01*
X275904Y34938D01*
X275918Y34952D01*
X275934Y34962D01*
X276019Y35051D01*
X276106Y35138D01*
X276116Y35155D01*
X276129Y35169D01*
X276185Y35278D01*
X276245Y35386D01*
X276250Y35405D01*
X276258Y35422D01*
X276271Y35494D01*
X276310Y35662D01*
X276307Y35713D01*
X276314Y35753D01*
X276389Y243775D01*
X276386Y243795D01*
X276388Y243814D01*
X276366Y243935D01*
X276349Y244057D01*
X276341Y244075D01*
X276337Y244094D01*
X276283Y244204D01*
X276233Y244316D01*
X276220Y244331D01*
X276211Y244349D01*
X276128Y244440D01*
X276049Y244533D01*
X276033Y244544D01*
X276019Y244559D01*
X275915Y244623D01*
X275812Y244691D01*
X275794Y244697D01*
X275777Y244707D01*
X275658Y244740D01*
X275541Y244777D01*
X275522Y244777D01*
X275503Y244783D01*
X275380Y244781D01*
X275257Y244784D01*
X275238Y244779D01*
X275218Y244779D01*
X275101Y244743D01*
X274982Y244713D01*
X274965Y244702D01*
X274946Y244697D01*
X274844Y244630D01*
X274738Y244567D01*
X274724Y244553D01*
X274708Y244542D01*
X274661Y244486D01*
X274543Y244360D01*
X274520Y244314D01*
X274494Y244283D01*
X271585Y239245D01*
X265478Y234120D01*
X257986Y231393D01*
X250014Y231393D01*
X242522Y234120D01*
X236415Y239244D01*
X232429Y246149D01*
X231045Y254000D01*
X232429Y261851D01*
X236415Y268755D01*
X242522Y273880D01*
X243901Y274382D01*
X243997Y274433D01*
X244095Y274477D01*
X244122Y274499D01*
X244152Y274516D01*
X244230Y274591D01*
X244312Y274661D01*
X244331Y274689D01*
X244356Y274714D01*
X244410Y274807D01*
X244470Y274897D01*
X244480Y274930D01*
X244497Y274960D01*
X244523Y275065D01*
X244555Y275168D01*
X244556Y275203D01*
X244565Y275237D01*
X244560Y275344D01*
X244563Y275452D01*
X244554Y275486D01*
X244553Y275521D01*
X244518Y275623D01*
X244491Y275727D01*
X244473Y275757D01*
X244462Y275790D01*
X244401Y275879D01*
X244346Y275972D01*
X244320Y275996D01*
X244301Y276024D01*
X244217Y276092D01*
X244138Y276166D01*
X244107Y276182D01*
X244081Y276204D01*
X243981Y276247D01*
X243885Y276296D01*
X243855Y276301D01*
X243819Y276316D01*
X243607Y276342D01*
X243554Y276351D01*
X35846Y276351D01*
X35739Y276336D01*
X35631Y276328D01*
X35599Y276316D01*
X35564Y276311D01*
X35466Y276267D01*
X35365Y276230D01*
X35337Y276209D01*
X35305Y276195D01*
X35223Y276126D01*
X35136Y276062D01*
X35114Y276034D01*
X35088Y276012D01*
X35028Y275922D01*
X34962Y275836D01*
X34950Y275804D01*
X34930Y275775D01*
X34898Y275672D01*
X34858Y275572D01*
X34855Y275537D01*
X34845Y275504D01*
X34842Y275396D01*
X34832Y275289D01*
X34838Y275254D01*
X34837Y275220D01*
X34864Y275115D01*
X34885Y275009D01*
X34900Y274978D01*
X34909Y274945D01*
X34964Y274852D01*
X35013Y274756D01*
X35036Y274730D01*
X35054Y274700D01*
X35133Y274626D01*
X35206Y274547D01*
X35233Y274532D01*
X35262Y274506D01*
X35452Y274408D01*
X35499Y274382D01*
X36878Y273880D01*
X42985Y268756D01*
X46971Y261851D01*
X48355Y254000D01*
X46971Y246149D01*
X42985Y239245D01*
X36878Y234120D01*
X29386Y231393D01*
X21414Y231393D01*
X13922Y234120D01*
X7815Y239244D01*
X5030Y244068D01*
X5018Y244083D01*
X5010Y244101D01*
X4931Y244195D01*
X4855Y244292D01*
X4839Y244303D01*
X4827Y244318D01*
X4725Y244386D01*
X4625Y244458D01*
X4607Y244465D01*
X4590Y244476D01*
X4473Y244513D01*
X4357Y244554D01*
X4338Y244556D01*
X4319Y244561D01*
X4197Y244565D01*
X4073Y244572D01*
X4054Y244568D01*
X4035Y244569D01*
X3916Y244538D01*
X3796Y244511D01*
X3779Y244502D01*
X3760Y244497D01*
X3654Y244434D01*
X3546Y244375D01*
X3532Y244362D01*
X3516Y244352D01*
X3431Y244262D01*
X3344Y244176D01*
X3334Y244159D01*
X3321Y244145D01*
X3265Y244035D01*
X3205Y243928D01*
X3200Y243909D01*
X3192Y243892D01*
X3179Y243819D01*
X3140Y243651D01*
X3143Y243600D01*
X3136Y243561D01*
X3079Y84642D01*
X3080Y84634D01*
X3079Y84625D01*
X3100Y84494D01*
X3119Y84361D01*
X3122Y84353D01*
X3124Y84344D01*
X3180Y84223D01*
X3235Y84101D01*
X3241Y84095D01*
X3244Y84087D01*
X3332Y83986D01*
X3418Y83884D01*
X3426Y83879D01*
X3431Y83873D01*
X3543Y83801D01*
X3655Y83727D01*
X3663Y83724D01*
X3671Y83719D01*
X3798Y83681D01*
X3926Y83641D01*
X3935Y83641D01*
X3943Y83638D01*
X4077Y83637D01*
X4210Y83633D01*
X4219Y83636D01*
X4227Y83635D01*
X4278Y83651D01*
X4485Y83705D01*
X4519Y83725D01*
X4548Y83734D01*
X4866Y83893D01*
X4886Y83886D01*
X4901Y83883D01*
X4915Y83877D01*
X5041Y83858D01*
X5166Y83835D01*
X5181Y83836D01*
X5196Y83834D01*
X5264Y83845D01*
X5448Y83863D01*
X5492Y83880D01*
X5528Y83886D01*
X15539Y87223D01*
X18833Y85576D01*
X19998Y82082D01*
X18730Y79547D01*
X18725Y79531D01*
X18715Y79516D01*
X18680Y79396D01*
X18640Y79277D01*
X18639Y79260D01*
X18634Y79244D01*
X18633Y79118D01*
X18628Y78993D01*
X18632Y78977D01*
X18632Y78960D01*
X18652Y78892D01*
X18695Y78717D01*
X18719Y78675D01*
X18730Y78639D01*
X19998Y76104D01*
X19092Y73387D01*
X19077Y73305D01*
X19066Y73269D01*
X19065Y73240D01*
X19042Y73125D01*
X19042Y73116D01*
X19041Y73108D01*
X19054Y72975D01*
X19065Y72842D01*
X19068Y72834D01*
X19069Y72825D01*
X19119Y72701D01*
X19166Y72576D01*
X19172Y72569D01*
X19175Y72561D01*
X19257Y72456D01*
X19337Y72349D01*
X19344Y72344D01*
X19349Y72337D01*
X19579Y72170D01*
X19597Y72163D01*
X19610Y72154D01*
X19757Y72083D01*
X19825Y72061D01*
X19872Y72035D01*
X21835Y71362D01*
X24639Y67437D01*
X24639Y62613D01*
X21835Y58688D01*
X20544Y58245D01*
X20463Y58204D01*
X20379Y58171D01*
X20337Y58140D01*
X20291Y58116D01*
X20225Y58054D01*
X20153Y58000D01*
X20121Y57958D01*
X20083Y57922D01*
X20037Y57844D01*
X19983Y57772D01*
X19964Y57723D01*
X19937Y57678D01*
X19914Y57590D01*
X19883Y57506D01*
X19878Y57453D01*
X19865Y57403D01*
X19867Y57312D01*
X19860Y57222D01*
X19871Y57171D01*
X19872Y57119D01*
X19899Y57032D01*
X19917Y56944D01*
X19939Y56904D01*
X19957Y56847D01*
X20043Y56718D01*
X20081Y56650D01*
X23476Y52407D01*
X23522Y52363D01*
X23550Y52323D01*
X24644Y51230D01*
X24663Y51138D01*
X24679Y51028D01*
X24691Y50999D01*
X24698Y50968D01*
X24736Y50899D01*
X24795Y50768D01*
X24816Y50743D01*
X24645Y49203D01*
X24647Y49140D01*
X24639Y49091D01*
X24639Y49022D01*
X24647Y48964D01*
X24645Y48906D01*
X24667Y48824D01*
X24679Y48740D01*
X24702Y48687D01*
X24717Y48631D01*
X24760Y48558D01*
X24795Y48481D01*
X24833Y48436D01*
X24862Y48386D01*
X24924Y48328D01*
X24978Y48264D01*
X25027Y48232D01*
X25070Y48192D01*
X25145Y48153D01*
X25215Y48106D01*
X25271Y48089D01*
X25323Y48062D01*
X25391Y48051D01*
X25486Y48021D01*
X25586Y48018D01*
X25654Y48007D01*
X29386Y48007D01*
X36878Y45280D01*
X42985Y40155D01*
X46971Y33251D01*
X48355Y25400D01*
X46971Y17549D01*
X42985Y10645D01*
X36878Y5520D01*
X35499Y5018D01*
X35403Y4967D01*
X35305Y4923D01*
X35278Y4901D01*
X35248Y4884D01*
X35170Y4809D01*
X35088Y4739D01*
X35069Y4711D01*
X35044Y4686D01*
X34990Y4593D01*
X34930Y4503D01*
X34920Y4470D01*
X34903Y4440D01*
X34877Y4335D01*
X34845Y4232D01*
X34844Y4197D01*
X34835Y4163D01*
X34840Y4056D01*
X34837Y3948D01*
X34846Y3914D01*
X34847Y3879D01*
X34882Y3777D01*
X34909Y3673D01*
X34927Y3643D01*
X34938Y3610D01*
X34999Y3521D01*
X35054Y3428D01*
X35080Y3404D01*
X35099Y3376D01*
X35183Y3308D01*
X35262Y3234D01*
X35293Y3218D01*
X35319Y3196D01*
X35419Y3153D01*
X35515Y3104D01*
X35545Y3099D01*
X35581Y3084D01*
X35793Y3058D01*
X35846Y3049D01*
X243554Y3049D01*
X243661Y3064D01*
G37*
%LPC*%
G36*
X87561Y5968D02*
X87561Y5968D01*
X85087Y6993D01*
X83193Y8887D01*
X83133Y9031D01*
X83097Y9093D01*
X83069Y9160D01*
X83025Y9215D01*
X82989Y9276D01*
X82936Y9326D01*
X82891Y9382D01*
X82833Y9423D01*
X82782Y9471D01*
X82718Y9504D01*
X82659Y9546D01*
X82592Y9569D01*
X82529Y9601D01*
X82459Y9615D01*
X82390Y9639D01*
X82320Y9643D01*
X82251Y9657D01*
X82178Y9650D01*
X82106Y9654D01*
X82038Y9638D01*
X81967Y9632D01*
X81900Y9606D01*
X81829Y9590D01*
X81768Y9555D01*
X81702Y9530D01*
X81644Y9486D01*
X81581Y9451D01*
X81540Y9408D01*
X81475Y9359D01*
X81403Y9262D01*
X81351Y9207D01*
X81034Y8733D01*
X80168Y7866D01*
X79148Y7185D01*
X78015Y6715D01*
X77279Y6569D01*
X77279Y12636D01*
X77271Y12694D01*
X77272Y12753D01*
X77251Y12834D01*
X77239Y12918D01*
X77215Y12971D01*
X77200Y13028D01*
X77157Y13100D01*
X77123Y13177D01*
X77085Y13222D01*
X77055Y13272D01*
X76993Y13330D01*
X76939Y13394D01*
X76919Y13407D01*
X76866Y13457D01*
X76812Y13521D01*
X76763Y13554D01*
X76720Y13594D01*
X76645Y13632D01*
X76575Y13679D01*
X76519Y13697D01*
X76467Y13723D01*
X76399Y13735D01*
X76304Y13765D01*
X76204Y13767D01*
X76136Y13779D01*
X64579Y13779D01*
X64579Y25336D01*
X64571Y25394D01*
X64572Y25453D01*
X64551Y25534D01*
X64539Y25618D01*
X64515Y25671D01*
X64500Y25728D01*
X64457Y25800D01*
X64423Y25877D01*
X64385Y25922D01*
X64355Y25972D01*
X64293Y26030D01*
X64239Y26094D01*
X64219Y26107D01*
X64166Y26157D01*
X64112Y26221D01*
X64063Y26254D01*
X64020Y26294D01*
X63945Y26332D01*
X63875Y26379D01*
X63819Y26397D01*
X63767Y26423D01*
X63699Y26435D01*
X63604Y26465D01*
X63504Y26467D01*
X63436Y26479D01*
X57369Y26479D01*
X57515Y27215D01*
X57985Y28348D01*
X58666Y29368D01*
X59532Y30234D01*
X60552Y30915D01*
X61232Y31197D01*
X61331Y31256D01*
X61433Y31308D01*
X61453Y31328D01*
X61477Y31342D01*
X61556Y31425D01*
X61639Y31504D01*
X61653Y31528D01*
X61672Y31548D01*
X61725Y31650D01*
X61783Y31750D01*
X61790Y31776D01*
X61803Y31801D01*
X61825Y31914D01*
X61853Y32025D01*
X61852Y32053D01*
X61858Y32080D01*
X61848Y32195D01*
X61844Y32309D01*
X61836Y32336D01*
X61833Y32363D01*
X61792Y32471D01*
X61757Y32580D01*
X61742Y32600D01*
X61731Y32629D01*
X61570Y32842D01*
X61562Y32853D01*
X61560Y32855D01*
X61559Y32855D01*
X46493Y47922D01*
X45719Y49789D01*
X45719Y143653D01*
X45703Y143767D01*
X45693Y143881D01*
X45683Y143907D01*
X45679Y143934D01*
X45632Y144039D01*
X45591Y144146D01*
X45575Y144168D01*
X45563Y144194D01*
X45489Y144281D01*
X45420Y144373D01*
X45397Y144390D01*
X45380Y144411D01*
X45284Y144474D01*
X45192Y144543D01*
X45166Y144553D01*
X45143Y144568D01*
X45033Y144603D01*
X44926Y144644D01*
X44898Y144646D01*
X44872Y144654D01*
X44757Y144657D01*
X44643Y144666D01*
X44618Y144661D01*
X44588Y144661D01*
X44331Y144594D01*
X44315Y144591D01*
X43781Y144369D01*
X34054Y144369D01*
X33996Y144361D01*
X33938Y144363D01*
X33856Y144341D01*
X33772Y144329D01*
X33719Y144306D01*
X33663Y144291D01*
X33590Y144248D01*
X33513Y144213D01*
X33468Y144175D01*
X33418Y144146D01*
X33360Y144084D01*
X33296Y144030D01*
X33264Y143981D01*
X33224Y143938D01*
X33185Y143863D01*
X33138Y143793D01*
X33121Y143737D01*
X33094Y143685D01*
X33083Y143617D01*
X33053Y143522D01*
X33050Y143422D01*
X33039Y143354D01*
X33039Y133187D01*
X32828Y132977D01*
X32776Y132907D01*
X32716Y132843D01*
X32690Y132793D01*
X32657Y132749D01*
X32626Y132668D01*
X32586Y132590D01*
X32578Y132542D01*
X32556Y132484D01*
X32544Y132336D01*
X32531Y132259D01*
X32531Y130965D01*
X24490Y130965D01*
X16449Y130965D01*
X16449Y132259D01*
X16437Y132345D01*
X16434Y132433D01*
X16417Y132485D01*
X16409Y132540D01*
X16374Y132620D01*
X16347Y132703D01*
X16319Y132742D01*
X16293Y132800D01*
X16197Y132913D01*
X16152Y132977D01*
X15941Y133187D01*
X15941Y152713D01*
X17727Y154499D01*
X23200Y154499D01*
X23231Y154503D01*
X23262Y154501D01*
X23338Y154518D01*
X23426Y154531D01*
X40245Y154531D01*
X40332Y154543D01*
X40419Y154546D01*
X40472Y154563D01*
X40526Y154571D01*
X40606Y154606D01*
X40689Y154633D01*
X40729Y154661D01*
X40786Y154687D01*
X40899Y154783D01*
X40963Y154828D01*
X44517Y158382D01*
X44569Y158452D01*
X44629Y158516D01*
X44655Y158565D01*
X44688Y158609D01*
X44719Y158691D01*
X44759Y158769D01*
X44767Y158817D01*
X44789Y158875D01*
X44801Y159023D01*
X44814Y159100D01*
X44814Y161486D01*
X44807Y161535D01*
X44808Y161544D01*
X44806Y161549D01*
X44808Y161602D01*
X44786Y161684D01*
X44774Y161768D01*
X44751Y161821D01*
X44736Y161877D01*
X44693Y161950D01*
X44658Y162027D01*
X44620Y162072D01*
X44591Y162122D01*
X44529Y162180D01*
X44475Y162244D01*
X44426Y162276D01*
X44383Y162316D01*
X44308Y162355D01*
X44238Y162402D01*
X44182Y162419D01*
X44130Y162446D01*
X44062Y162457D01*
X43967Y162487D01*
X43867Y162490D01*
X43799Y162501D01*
X33833Y162501D01*
X33747Y162489D01*
X33659Y162486D01*
X33607Y162469D01*
X33552Y162461D01*
X33472Y162426D01*
X33389Y162399D01*
X33350Y162371D01*
X33292Y162345D01*
X33179Y162249D01*
X33115Y162204D01*
X31663Y160751D01*
X19137Y160751D01*
X17351Y162537D01*
X17351Y163204D01*
X17343Y163262D01*
X17345Y163320D01*
X17323Y163402D01*
X17311Y163486D01*
X17288Y163539D01*
X17273Y163595D01*
X17230Y163668D01*
X17195Y163745D01*
X17157Y163790D01*
X17128Y163840D01*
X17066Y163898D01*
X17012Y163962D01*
X16963Y163994D01*
X16920Y164034D01*
X16845Y164073D01*
X16775Y164120D01*
X16719Y164137D01*
X16667Y164164D01*
X16599Y164175D01*
X16504Y164205D01*
X16407Y164208D01*
X14512Y164993D01*
X11235Y168270D01*
X9663Y169842D01*
X8889Y171709D01*
X8889Y197861D01*
X9663Y199728D01*
X17442Y207507D01*
X19309Y208281D01*
X116581Y208281D01*
X118448Y207507D01*
X124957Y200998D01*
X125731Y199131D01*
X125731Y187437D01*
X125735Y187408D01*
X125732Y187379D01*
X125755Y187268D01*
X125771Y187155D01*
X125783Y187129D01*
X125788Y187100D01*
X125840Y186999D01*
X125887Y186896D01*
X125906Y186874D01*
X125919Y186848D01*
X125997Y186766D01*
X126070Y186679D01*
X126095Y186663D01*
X126115Y186642D01*
X126213Y186584D01*
X126307Y186521D01*
X126335Y186513D01*
X126360Y186498D01*
X126470Y186470D01*
X126578Y186436D01*
X126608Y186435D01*
X126636Y186428D01*
X126749Y186431D01*
X126862Y186428D01*
X126891Y186436D01*
X126920Y186437D01*
X127028Y186472D01*
X127137Y186500D01*
X127163Y186515D01*
X127191Y186524D01*
X127254Y186570D01*
X127382Y186645D01*
X127425Y186691D01*
X127464Y186719D01*
X131352Y190607D01*
X133219Y191381D01*
X135716Y191381D01*
X135774Y191389D01*
X135832Y191387D01*
X135914Y191409D01*
X135998Y191421D01*
X136051Y191444D01*
X136107Y191459D01*
X136180Y191502D01*
X136257Y191537D01*
X136302Y191575D01*
X136352Y191604D01*
X136410Y191666D01*
X136474Y191720D01*
X136506Y191769D01*
X136546Y191812D01*
X136585Y191887D01*
X136632Y191957D01*
X136649Y192013D01*
X136676Y192065D01*
X136687Y192133D01*
X136717Y192228D01*
X136720Y192328D01*
X136731Y192396D01*
X136731Y193063D01*
X138517Y194849D01*
X151043Y194849D01*
X152829Y193063D01*
X152829Y179537D01*
X151809Y178518D01*
X151774Y178471D01*
X151732Y178431D01*
X151689Y178358D01*
X151639Y178291D01*
X151618Y178236D01*
X151588Y178186D01*
X151567Y178104D01*
X151537Y178025D01*
X151532Y177967D01*
X151518Y177910D01*
X151521Y177826D01*
X151514Y177742D01*
X151525Y177684D01*
X151527Y177626D01*
X151553Y177546D01*
X151570Y177463D01*
X151597Y177411D01*
X151615Y177355D01*
X151655Y177299D01*
X151701Y177211D01*
X151769Y177138D01*
X151809Y177082D01*
X152829Y176063D01*
X152829Y162537D01*
X151043Y160751D01*
X149860Y160751D01*
X149802Y160743D01*
X149744Y160745D01*
X149662Y160723D01*
X149578Y160711D01*
X149525Y160688D01*
X149469Y160673D01*
X149396Y160630D01*
X149319Y160595D01*
X149274Y160557D01*
X149224Y160528D01*
X149166Y160466D01*
X149102Y160412D01*
X149070Y160363D01*
X149030Y160320D01*
X148991Y160245D01*
X148944Y160175D01*
X148927Y160119D01*
X148900Y160067D01*
X148889Y159999D01*
X148859Y159904D01*
X148856Y159804D01*
X148845Y159736D01*
X148845Y155796D01*
X145332Y152284D01*
X145280Y152214D01*
X145220Y152150D01*
X145194Y152101D01*
X145161Y152056D01*
X145130Y151975D01*
X145090Y151897D01*
X145082Y151849D01*
X145060Y151791D01*
X145048Y151643D01*
X145035Y151566D01*
X145035Y150014D01*
X145043Y149956D01*
X145041Y149898D01*
X145063Y149816D01*
X145075Y149732D01*
X145098Y149679D01*
X145113Y149623D01*
X145156Y149550D01*
X145191Y149473D01*
X145229Y149428D01*
X145258Y149378D01*
X145320Y149320D01*
X145374Y149256D01*
X145423Y149224D01*
X145466Y149184D01*
X145541Y149145D01*
X145611Y149098D01*
X145667Y149081D01*
X145719Y149054D01*
X145787Y149043D01*
X145882Y149013D01*
X145982Y149010D01*
X146050Y148999D01*
X151181Y148999D01*
X151233Y148950D01*
X151282Y148924D01*
X151327Y148891D01*
X151408Y148860D01*
X151486Y148820D01*
X151534Y148812D01*
X151592Y148790D01*
X151740Y148778D01*
X151817Y148765D01*
X154084Y148765D01*
X169165Y133684D01*
X169165Y78304D01*
X169177Y78218D01*
X169180Y78130D01*
X169197Y78078D01*
X169205Y78023D01*
X169240Y77943D01*
X169267Y77860D01*
X169295Y77820D01*
X169321Y77763D01*
X169417Y77650D01*
X169462Y77586D01*
X214619Y32429D01*
X214689Y32377D01*
X214753Y32317D01*
X214802Y32291D01*
X214847Y32258D01*
X214928Y32227D01*
X215006Y32187D01*
X215054Y32179D01*
X215112Y32157D01*
X215260Y32145D01*
X215337Y32132D01*
X217239Y32132D01*
X219713Y31107D01*
X221607Y29213D01*
X222632Y26739D01*
X222632Y24061D01*
X221607Y21587D01*
X219788Y19768D01*
X219753Y19721D01*
X219710Y19681D01*
X219668Y19608D01*
X219617Y19541D01*
X219596Y19486D01*
X219567Y19436D01*
X219546Y19354D01*
X219516Y19275D01*
X219511Y19217D01*
X219497Y19160D01*
X219499Y19076D01*
X219492Y18992D01*
X219504Y18934D01*
X219506Y18876D01*
X219532Y18796D01*
X219548Y18713D01*
X219575Y18661D01*
X219593Y18605D01*
X219633Y18549D01*
X219679Y18461D01*
X219748Y18388D01*
X219788Y18332D01*
X221607Y16513D01*
X222632Y14039D01*
X222632Y11361D01*
X221607Y8887D01*
X219713Y6993D01*
X217239Y5968D01*
X214561Y5968D01*
X212087Y6993D01*
X211758Y7322D01*
X211688Y7374D01*
X211624Y7434D01*
X211575Y7460D01*
X211531Y7493D01*
X211449Y7524D01*
X211371Y7564D01*
X211324Y7572D01*
X211265Y7594D01*
X211117Y7606D01*
X211040Y7619D01*
X208060Y7619D01*
X207973Y7607D01*
X207886Y7604D01*
X207833Y7587D01*
X207778Y7579D01*
X207699Y7544D01*
X207615Y7517D01*
X207576Y7489D01*
X207519Y7463D01*
X207406Y7367D01*
X207342Y7322D01*
X207013Y6993D01*
X204539Y5968D01*
X201861Y5968D01*
X199387Y6993D01*
X199058Y7322D01*
X198988Y7374D01*
X198924Y7434D01*
X198875Y7460D01*
X198831Y7493D01*
X198749Y7524D01*
X198671Y7564D01*
X198624Y7572D01*
X198565Y7594D01*
X198417Y7606D01*
X198340Y7619D01*
X195360Y7619D01*
X195273Y7607D01*
X195186Y7604D01*
X195133Y7587D01*
X195078Y7579D01*
X194999Y7544D01*
X194915Y7517D01*
X194876Y7489D01*
X194819Y7463D01*
X194706Y7367D01*
X194642Y7322D01*
X194313Y6993D01*
X191839Y5968D01*
X189161Y5968D01*
X186687Y6993D01*
X184793Y8887D01*
X184733Y9031D01*
X184697Y9094D01*
X184669Y9160D01*
X184625Y9215D01*
X184589Y9276D01*
X184536Y9326D01*
X184491Y9382D01*
X184434Y9423D01*
X184382Y9471D01*
X184318Y9504D01*
X184259Y9546D01*
X184192Y9569D01*
X184129Y9601D01*
X184058Y9615D01*
X183990Y9639D01*
X183920Y9643D01*
X183850Y9657D01*
X183778Y9650D01*
X183706Y9654D01*
X183638Y9638D01*
X183567Y9632D01*
X183500Y9606D01*
X183429Y9590D01*
X183368Y9555D01*
X183302Y9530D01*
X183244Y9487D01*
X183181Y9451D01*
X183140Y9408D01*
X183075Y9358D01*
X183003Y9262D01*
X182951Y9207D01*
X182634Y8733D01*
X181768Y7866D01*
X180748Y7185D01*
X179615Y6715D01*
X178879Y6569D01*
X178879Y12636D01*
X178871Y12694D01*
X178872Y12753D01*
X178851Y12834D01*
X178839Y12918D01*
X178815Y12971D01*
X178800Y13028D01*
X178757Y13100D01*
X178723Y13177D01*
X178685Y13222D01*
X178655Y13272D01*
X178593Y13330D01*
X178539Y13394D01*
X178519Y13407D01*
X178466Y13457D01*
X178412Y13521D01*
X178363Y13554D01*
X178320Y13594D01*
X178245Y13632D01*
X178175Y13679D01*
X178119Y13697D01*
X178067Y13723D01*
X177999Y13735D01*
X177904Y13765D01*
X177804Y13767D01*
X177736Y13779D01*
X166179Y13779D01*
X166179Y25336D01*
X166171Y25394D01*
X166171Y25419D01*
X166179Y25464D01*
X166179Y31531D01*
X166915Y31385D01*
X166971Y31362D01*
X167054Y31340D01*
X167134Y31310D01*
X167191Y31305D01*
X167246Y31291D01*
X167332Y31293D01*
X167418Y31286D01*
X167474Y31297D01*
X167530Y31299D01*
X167612Y31325D01*
X167696Y31342D01*
X167747Y31368D01*
X167801Y31385D01*
X167873Y31433D01*
X167949Y31473D01*
X167990Y31512D01*
X168037Y31544D01*
X168093Y31610D01*
X168155Y31669D01*
X168184Y31718D01*
X168220Y31761D01*
X168255Y31840D01*
X168299Y31914D01*
X168313Y31969D01*
X168336Y32021D01*
X168348Y32106D01*
X168369Y32189D01*
X168367Y32246D01*
X168375Y32303D01*
X168362Y32388D01*
X168360Y32474D01*
X168342Y32528D01*
X168334Y32584D01*
X168299Y32662D01*
X168272Y32744D01*
X168244Y32784D01*
X168217Y32843D01*
X168123Y32953D01*
X168077Y33017D01*
X151228Y49867D01*
X151158Y49919D01*
X151094Y49979D01*
X151045Y50005D01*
X151001Y50038D01*
X150919Y50069D01*
X150841Y50109D01*
X150793Y50117D01*
X150735Y50139D01*
X150587Y50151D01*
X150510Y50164D01*
X105466Y50164D01*
X105379Y50152D01*
X105292Y50149D01*
X105239Y50132D01*
X105184Y50124D01*
X105104Y50089D01*
X105021Y50062D01*
X104982Y50034D01*
X104925Y50008D01*
X104812Y49912D01*
X104748Y49867D01*
X103999Y49118D01*
X101618Y48132D01*
X99042Y48132D01*
X96661Y49118D01*
X94838Y50941D01*
X93852Y53322D01*
X93852Y55898D01*
X94838Y58279D01*
X96661Y60102D01*
X99042Y61088D01*
X101618Y61088D01*
X103272Y60403D01*
X103302Y60395D01*
X103329Y60381D01*
X103406Y60368D01*
X103547Y60332D01*
X103611Y60334D01*
X103660Y60326D01*
X151018Y60326D01*
X151047Y60330D01*
X151076Y60327D01*
X151187Y60350D01*
X151300Y60366D01*
X151326Y60378D01*
X151355Y60383D01*
X151456Y60435D01*
X151559Y60482D01*
X151581Y60501D01*
X151607Y60514D01*
X151689Y60592D01*
X151776Y60665D01*
X151792Y60690D01*
X151813Y60710D01*
X151871Y60808D01*
X151934Y60902D01*
X151942Y60930D01*
X151957Y60955D01*
X151985Y61065D01*
X152019Y61173D01*
X152020Y61203D01*
X152027Y61231D01*
X152024Y61344D01*
X152027Y61457D01*
X152019Y61486D01*
X152018Y61515D01*
X151983Y61623D01*
X151955Y61732D01*
X151940Y61758D01*
X151931Y61786D01*
X151885Y61849D01*
X151810Y61977D01*
X151764Y62020D01*
X151736Y62059D01*
X104493Y109302D01*
X103719Y111169D01*
X103719Y123899D01*
X103712Y123951D01*
X103713Y123980D01*
X103706Y124003D01*
X103704Y124073D01*
X103687Y124125D01*
X103679Y124180D01*
X103644Y124260D01*
X103617Y124343D01*
X103589Y124382D01*
X103563Y124440D01*
X103467Y124553D01*
X103422Y124617D01*
X102251Y125787D01*
X102251Y133604D01*
X102243Y133662D01*
X102245Y133720D01*
X102223Y133802D01*
X102211Y133886D01*
X102188Y133939D01*
X102173Y133995D01*
X102130Y134068D01*
X102095Y134145D01*
X102057Y134190D01*
X102028Y134240D01*
X101966Y134298D01*
X101912Y134362D01*
X101863Y134394D01*
X101820Y134434D01*
X101745Y134473D01*
X101675Y134520D01*
X101619Y134537D01*
X101567Y134564D01*
X101499Y134575D01*
X101404Y134605D01*
X101304Y134608D01*
X101236Y134619D01*
X92695Y134619D01*
X92608Y134607D01*
X92521Y134604D01*
X92468Y134587D01*
X92414Y134579D01*
X92334Y134544D01*
X92251Y134517D01*
X92211Y134489D01*
X92154Y134463D01*
X92041Y134367D01*
X91977Y134322D01*
X83298Y125643D01*
X81431Y124869D01*
X68413Y124869D01*
X68314Y124895D01*
X68249Y124893D01*
X68200Y124901D01*
X62484Y124901D01*
X62426Y124893D01*
X62368Y124895D01*
X62286Y124873D01*
X62202Y124861D01*
X62149Y124838D01*
X62093Y124823D01*
X62020Y124780D01*
X61943Y124745D01*
X61898Y124707D01*
X61848Y124678D01*
X61790Y124616D01*
X61726Y124562D01*
X61694Y124513D01*
X61654Y124470D01*
X61615Y124395D01*
X61568Y124325D01*
X61551Y124269D01*
X61524Y124217D01*
X61513Y124149D01*
X61483Y124054D01*
X61480Y123954D01*
X61469Y123886D01*
X61469Y60437D01*
X61481Y60350D01*
X61484Y60263D01*
X61501Y60210D01*
X61509Y60156D01*
X61544Y60076D01*
X61571Y59993D01*
X61599Y59953D01*
X61625Y59896D01*
X61721Y59783D01*
X61766Y59719D01*
X89056Y32429D01*
X89126Y32377D01*
X89190Y32317D01*
X89239Y32291D01*
X89283Y32258D01*
X89365Y32227D01*
X89443Y32187D01*
X89491Y32179D01*
X89549Y32157D01*
X89697Y32145D01*
X89774Y32132D01*
X90239Y32132D01*
X92713Y31107D01*
X94532Y29288D01*
X94579Y29253D01*
X94619Y29210D01*
X94692Y29168D01*
X94759Y29117D01*
X94814Y29096D01*
X94864Y29067D01*
X94946Y29046D01*
X95025Y29016D01*
X95083Y29011D01*
X95140Y28997D01*
X95224Y28999D01*
X95308Y28992D01*
X95366Y29004D01*
X95424Y29006D01*
X95504Y29032D01*
X95587Y29048D01*
X95639Y29075D01*
X95695Y29093D01*
X95751Y29133D01*
X95839Y29179D01*
X95912Y29248D01*
X95968Y29288D01*
X97787Y31107D01*
X100261Y32132D01*
X102939Y32132D01*
X105413Y31107D01*
X107232Y29288D01*
X107279Y29253D01*
X107319Y29210D01*
X107392Y29168D01*
X107459Y29117D01*
X107514Y29096D01*
X107564Y29067D01*
X107646Y29046D01*
X107725Y29016D01*
X107783Y29011D01*
X107840Y28997D01*
X107924Y28999D01*
X108008Y28992D01*
X108066Y29004D01*
X108124Y29006D01*
X108204Y29032D01*
X108287Y29048D01*
X108339Y29075D01*
X108395Y29093D01*
X108451Y29133D01*
X108539Y29179D01*
X108612Y29248D01*
X108668Y29288D01*
X110592Y31212D01*
X110627Y31258D01*
X110669Y31299D01*
X110712Y31371D01*
X110763Y31439D01*
X110783Y31494D01*
X110813Y31544D01*
X110834Y31626D01*
X110864Y31705D01*
X110869Y31763D01*
X110883Y31820D01*
X110880Y31904D01*
X110887Y31988D01*
X110876Y32045D01*
X110874Y32104D01*
X110848Y32184D01*
X110831Y32267D01*
X110804Y32319D01*
X110786Y32374D01*
X110746Y32430D01*
X110700Y32519D01*
X110632Y32591D01*
X110592Y32648D01*
X108808Y34431D01*
X107822Y36812D01*
X107822Y39388D01*
X108808Y41769D01*
X110631Y43592D01*
X113012Y44578D01*
X115588Y44578D01*
X117969Y43592D01*
X119792Y41769D01*
X120778Y39388D01*
X120778Y39228D01*
X120790Y39141D01*
X120793Y39054D01*
X120810Y39001D01*
X120818Y38947D01*
X120853Y38867D01*
X120880Y38784D01*
X120908Y38744D01*
X120934Y38687D01*
X121030Y38574D01*
X121075Y38510D01*
X127410Y32175D01*
X127480Y32123D01*
X127544Y32063D01*
X127593Y32037D01*
X127637Y32004D01*
X127719Y31973D01*
X127797Y31933D01*
X127845Y31925D01*
X127903Y31903D01*
X128051Y31891D01*
X128128Y31878D01*
X128288Y31878D01*
X130669Y30892D01*
X132492Y29069D01*
X133478Y26688D01*
X133478Y24112D01*
X132492Y21731D01*
X130669Y19908D01*
X128288Y18922D01*
X125712Y18922D01*
X123331Y19908D01*
X121548Y21692D01*
X121501Y21727D01*
X121460Y21769D01*
X121388Y21812D01*
X121320Y21863D01*
X121266Y21883D01*
X121215Y21913D01*
X121134Y21934D01*
X121055Y21964D01*
X120996Y21969D01*
X120940Y21983D01*
X120855Y21980D01*
X120771Y21987D01*
X120714Y21976D01*
X120656Y21974D01*
X120575Y21948D01*
X120493Y21931D01*
X120441Y21904D01*
X120385Y21886D01*
X120329Y21846D01*
X120240Y21800D01*
X120168Y21732D01*
X120112Y21692D01*
X118188Y19768D01*
X118153Y19721D01*
X118110Y19681D01*
X118068Y19608D01*
X118017Y19541D01*
X117996Y19486D01*
X117967Y19436D01*
X117946Y19354D01*
X117916Y19275D01*
X117911Y19217D01*
X117897Y19160D01*
X117899Y19076D01*
X117892Y18992D01*
X117904Y18934D01*
X117906Y18876D01*
X117932Y18796D01*
X117948Y18713D01*
X117975Y18661D01*
X117993Y18605D01*
X118033Y18549D01*
X118079Y18461D01*
X118148Y18388D01*
X118188Y18332D01*
X120007Y16513D01*
X121032Y14039D01*
X121032Y11361D01*
X120007Y8887D01*
X118113Y6993D01*
X115639Y5968D01*
X112961Y5968D01*
X110487Y6993D01*
X110158Y7322D01*
X110088Y7374D01*
X110024Y7434D01*
X109975Y7460D01*
X109931Y7493D01*
X109849Y7524D01*
X109771Y7564D01*
X109724Y7572D01*
X109665Y7594D01*
X109517Y7606D01*
X109440Y7619D01*
X106460Y7619D01*
X106373Y7607D01*
X106286Y7604D01*
X106233Y7587D01*
X106178Y7579D01*
X106099Y7544D01*
X106015Y7517D01*
X105976Y7489D01*
X105919Y7463D01*
X105806Y7367D01*
X105742Y7322D01*
X105413Y6993D01*
X102939Y5968D01*
X100261Y5968D01*
X97787Y6993D01*
X97458Y7322D01*
X97388Y7374D01*
X97324Y7434D01*
X97275Y7460D01*
X97231Y7493D01*
X97149Y7524D01*
X97071Y7564D01*
X97024Y7572D01*
X96965Y7594D01*
X96817Y7606D01*
X96740Y7619D01*
X93760Y7619D01*
X93673Y7607D01*
X93586Y7604D01*
X93533Y7587D01*
X93478Y7579D01*
X93399Y7544D01*
X93315Y7517D01*
X93276Y7489D01*
X93219Y7463D01*
X93106Y7367D01*
X93042Y7322D01*
X92713Y6993D01*
X90239Y5968D01*
X87561Y5968D01*
G37*
%LPD*%
G36*
X156551Y72129D02*
X156551Y72129D01*
X156580Y72128D01*
X156690Y72157D01*
X156801Y72179D01*
X156827Y72193D01*
X156855Y72200D01*
X156953Y72258D01*
X157053Y72310D01*
X157075Y72330D01*
X157100Y72345D01*
X157177Y72428D01*
X157259Y72506D01*
X157274Y72531D01*
X157294Y72553D01*
X157346Y72654D01*
X157403Y72751D01*
X157410Y72780D01*
X157424Y72806D01*
X157437Y72883D01*
X157473Y73027D01*
X157471Y73089D01*
X157479Y73137D01*
X157479Y125992D01*
X157467Y126078D01*
X157464Y126166D01*
X157447Y126218D01*
X157439Y126273D01*
X157404Y126353D01*
X157377Y126436D01*
X157349Y126476D01*
X157323Y126533D01*
X157227Y126646D01*
X157182Y126710D01*
X153554Y130338D01*
X153484Y130390D01*
X153420Y130450D01*
X153371Y130476D01*
X153326Y130509D01*
X153245Y130540D01*
X153167Y130580D01*
X153119Y130588D01*
X153061Y130610D01*
X152913Y130622D01*
X152836Y130635D01*
X151817Y130635D01*
X151731Y130623D01*
X151643Y130620D01*
X151591Y130603D01*
X151536Y130595D01*
X151456Y130560D01*
X151373Y130533D01*
X151333Y130505D01*
X151276Y130479D01*
X151184Y130401D01*
X142637Y130401D01*
X140851Y132187D01*
X140851Y134920D01*
X140839Y135006D01*
X140836Y135094D01*
X140819Y135146D01*
X140811Y135201D01*
X140776Y135281D01*
X140749Y135364D01*
X140721Y135404D01*
X140695Y135461D01*
X140599Y135574D01*
X140554Y135638D01*
X139774Y136418D01*
X139750Y136435D01*
X139731Y136458D01*
X139637Y136521D01*
X139547Y136589D01*
X139519Y136599D01*
X139495Y136615D01*
X139387Y136650D01*
X139281Y136690D01*
X139252Y136692D01*
X139224Y136701D01*
X139110Y136704D01*
X138998Y136713D01*
X138969Y136708D01*
X138940Y136708D01*
X138830Y136680D01*
X138719Y136658D01*
X138693Y136644D01*
X138665Y136637D01*
X138567Y136579D01*
X138467Y136527D01*
X138445Y136506D01*
X138420Y136491D01*
X138343Y136409D01*
X138261Y136331D01*
X138246Y136305D01*
X138226Y136284D01*
X138174Y136183D01*
X138117Y136085D01*
X138110Y136057D01*
X138096Y136031D01*
X138083Y135954D01*
X138047Y135810D01*
X138049Y135747D01*
X138043Y135715D01*
X137497Y135715D01*
X137435Y135707D01*
X137371Y135708D01*
X137294Y135687D01*
X137216Y135676D01*
X137158Y135650D01*
X137097Y135633D01*
X137041Y135597D01*
X136957Y135559D01*
X136875Y135490D01*
X136815Y135451D01*
X136814Y135451D01*
X136780Y135410D01*
X136740Y135376D01*
X136739Y135375D01*
X136690Y135301D01*
X136633Y135232D01*
X136611Y135183D01*
X136582Y135139D01*
X136555Y135053D01*
X136519Y134972D01*
X136512Y134919D01*
X136496Y134868D01*
X136494Y134778D01*
X136482Y134690D01*
X136490Y134637D01*
X136489Y134583D01*
X136511Y134497D01*
X136525Y134409D01*
X136547Y134360D01*
X136560Y134308D01*
X136606Y134232D01*
X136643Y134150D01*
X136678Y134110D01*
X136706Y134064D01*
X136771Y134003D01*
X136829Y133935D01*
X136874Y133906D01*
X136913Y133869D01*
X136993Y133829D01*
X137067Y133780D01*
X137118Y133764D01*
X137166Y133740D01*
X137237Y133728D01*
X137339Y133697D01*
X137432Y133695D01*
X137497Y133685D01*
X138041Y133685D01*
X138041Y133116D01*
X137868Y132469D01*
X137533Y131890D01*
X137060Y131417D01*
X136481Y131082D01*
X135834Y130909D01*
X133515Y130909D01*
X133515Y134386D01*
X133507Y134444D01*
X133509Y134502D01*
X133487Y134584D01*
X133476Y134668D01*
X133452Y134721D01*
X133437Y134777D01*
X133394Y134850D01*
X133359Y134927D01*
X133322Y134972D01*
X133292Y135022D01*
X133230Y135080D01*
X133176Y135144D01*
X133127Y135176D01*
X133084Y135216D01*
X133009Y135255D01*
X132939Y135302D01*
X132883Y135319D01*
X132831Y135346D01*
X132763Y135357D01*
X132668Y135387D01*
X132568Y135390D01*
X132500Y135401D01*
X132442Y135393D01*
X132384Y135395D01*
X132383Y135395D01*
X132302Y135373D01*
X132218Y135361D01*
X132165Y135338D01*
X132108Y135323D01*
X132036Y135280D01*
X131959Y135245D01*
X131914Y135207D01*
X131864Y135178D01*
X131806Y135116D01*
X131742Y135062D01*
X131710Y135013D01*
X131669Y134970D01*
X131631Y134895D01*
X131584Y134825D01*
X131567Y134769D01*
X131540Y134717D01*
X131529Y134649D01*
X131499Y134554D01*
X131496Y134454D01*
X131485Y134386D01*
X131485Y130909D01*
X129166Y130909D01*
X128519Y131082D01*
X127940Y131417D01*
X127374Y131982D01*
X127349Y132015D01*
X127286Y132061D01*
X127229Y132114D01*
X127171Y132144D01*
X127118Y132182D01*
X127045Y132208D01*
X126976Y132244D01*
X126921Y132253D01*
X126851Y132278D01*
X126721Y132286D01*
X126644Y132299D01*
X120534Y132299D01*
X120476Y132291D01*
X120418Y132293D01*
X120336Y132271D01*
X120253Y132259D01*
X120199Y132236D01*
X120143Y132221D01*
X120070Y132178D01*
X119993Y132143D01*
X119949Y132105D01*
X119898Y132076D01*
X119841Y132014D01*
X119776Y131960D01*
X119744Y131911D01*
X119704Y131868D01*
X119665Y131793D01*
X119619Y131723D01*
X119601Y131667D01*
X119574Y131615D01*
X119563Y131547D01*
X119533Y131452D01*
X119530Y131352D01*
X119519Y131284D01*
X119519Y130831D01*
X119066Y130831D01*
X119008Y130823D01*
X118950Y130824D01*
X118868Y130803D01*
X118784Y130791D01*
X118731Y130767D01*
X118675Y130753D01*
X118602Y130709D01*
X118525Y130675D01*
X118480Y130637D01*
X118430Y130607D01*
X118372Y130546D01*
X118308Y130491D01*
X118276Y130443D01*
X118236Y130400D01*
X118197Y130325D01*
X118150Y130255D01*
X118133Y130199D01*
X118106Y130147D01*
X118095Y130079D01*
X118065Y129984D01*
X118062Y129884D01*
X118051Y129816D01*
X118051Y124509D01*
X115966Y124509D01*
X115211Y124712D01*
X115140Y124740D01*
X115101Y124744D01*
X115064Y124756D01*
X114960Y124758D01*
X114857Y124769D01*
X114819Y124762D01*
X114780Y124763D01*
X114679Y124737D01*
X114578Y124719D01*
X114542Y124701D01*
X114505Y124691D01*
X114416Y124638D01*
X114323Y124592D01*
X114294Y124566D01*
X114260Y124546D01*
X114189Y124470D01*
X114113Y124401D01*
X114092Y124367D01*
X114066Y124339D01*
X114019Y124247D01*
X113964Y124158D01*
X113954Y124120D01*
X113936Y124086D01*
X113923Y124009D01*
X113889Y123884D01*
X113890Y123810D01*
X113881Y123755D01*
X113881Y114705D01*
X113888Y114650D01*
X113887Y114610D01*
X113894Y114584D01*
X113896Y114531D01*
X113913Y114478D01*
X113921Y114424D01*
X113956Y114344D01*
X113983Y114261D01*
X114011Y114221D01*
X114037Y114164D01*
X114133Y114051D01*
X114178Y113987D01*
X155746Y72419D01*
X155770Y72402D01*
X155789Y72379D01*
X155883Y72316D01*
X155973Y72248D01*
X156001Y72238D01*
X156025Y72221D01*
X156133Y72187D01*
X156239Y72147D01*
X156268Y72145D01*
X156296Y72136D01*
X156410Y72133D01*
X156522Y72123D01*
X156551Y72129D01*
G37*
G36*
X79057Y136199D02*
X79057Y136199D01*
X79170Y136196D01*
X79199Y136204D01*
X79228Y136205D01*
X79336Y136240D01*
X79445Y136268D01*
X79471Y136283D01*
X79499Y136292D01*
X79562Y136338D01*
X79690Y136413D01*
X79733Y136459D01*
X79772Y136487D01*
X87292Y144007D01*
X89159Y144781D01*
X101236Y144781D01*
X101294Y144789D01*
X101352Y144787D01*
X101434Y144809D01*
X101518Y144821D01*
X101571Y144844D01*
X101627Y144859D01*
X101700Y144902D01*
X101777Y144937D01*
X101822Y144975D01*
X101872Y145004D01*
X101930Y145066D01*
X101994Y145120D01*
X102026Y145169D01*
X102066Y145212D01*
X102105Y145287D01*
X102152Y145357D01*
X102169Y145413D01*
X102196Y145465D01*
X102207Y145533D01*
X102237Y145628D01*
X102240Y145728D01*
X102251Y145796D01*
X102251Y147793D01*
X102239Y147880D01*
X102236Y147967D01*
X102219Y148020D01*
X102211Y148074D01*
X102176Y148154D01*
X102149Y148237D01*
X102121Y148277D01*
X102095Y148334D01*
X101999Y148447D01*
X101954Y148511D01*
X92213Y158252D01*
X91437Y160125D01*
X91436Y160126D01*
X91436Y160127D01*
X91364Y160248D01*
X91293Y160369D01*
X91291Y160370D01*
X91291Y160372D01*
X91188Y160468D01*
X91086Y160565D01*
X91085Y160565D01*
X91083Y160566D01*
X90958Y160631D01*
X90833Y160695D01*
X90832Y160695D01*
X90830Y160696D01*
X90815Y160698D01*
X90554Y160750D01*
X90524Y160747D01*
X90499Y160751D01*
X90257Y160751D01*
X89259Y161750D01*
X89212Y161785D01*
X89171Y161827D01*
X89099Y161870D01*
X89031Y161921D01*
X88977Y161941D01*
X88926Y161971D01*
X88844Y161992D01*
X88766Y162022D01*
X88707Y162027D01*
X88651Y162041D01*
X88566Y162038D01*
X88482Y162045D01*
X88425Y162034D01*
X88367Y162032D01*
X88286Y162006D01*
X88204Y161990D01*
X88152Y161963D01*
X88096Y161945D01*
X88040Y161904D01*
X87951Y161859D01*
X87879Y161790D01*
X87876Y161788D01*
X87261Y161432D01*
X86614Y161259D01*
X83311Y161259D01*
X83311Y168284D01*
X83303Y168342D01*
X83304Y168400D01*
X83283Y168482D01*
X83271Y168565D01*
X83247Y168619D01*
X83233Y168675D01*
X83190Y168748D01*
X83155Y168825D01*
X83117Y168869D01*
X83087Y168920D01*
X83026Y168977D01*
X82971Y169042D01*
X82923Y169074D01*
X82880Y169114D01*
X82805Y169153D01*
X82735Y169199D01*
X82679Y169217D01*
X82627Y169244D01*
X82559Y169255D01*
X82464Y169285D01*
X82364Y169288D01*
X82296Y169299D01*
X81279Y169299D01*
X81279Y170316D01*
X81271Y170374D01*
X81272Y170432D01*
X81251Y170514D01*
X81239Y170597D01*
X81215Y170651D01*
X81201Y170707D01*
X81158Y170780D01*
X81123Y170857D01*
X81085Y170901D01*
X81055Y170952D01*
X80994Y171009D01*
X80939Y171074D01*
X80891Y171106D01*
X80848Y171146D01*
X80773Y171185D01*
X80703Y171231D01*
X80647Y171249D01*
X80595Y171276D01*
X80527Y171287D01*
X80432Y171317D01*
X80332Y171320D01*
X80264Y171331D01*
X76405Y171331D01*
X76347Y171323D01*
X76289Y171324D01*
X76207Y171303D01*
X76123Y171291D01*
X76070Y171267D01*
X76014Y171253D01*
X75941Y171210D01*
X75864Y171175D01*
X75819Y171137D01*
X75769Y171107D01*
X75711Y171046D01*
X75647Y170991D01*
X75615Y170943D01*
X75575Y170900D01*
X75536Y170825D01*
X75489Y170755D01*
X75472Y170699D01*
X75445Y170647D01*
X75434Y170579D01*
X75404Y170484D01*
X75401Y170384D01*
X75390Y170316D01*
X75390Y168284D01*
X75398Y168226D01*
X75396Y168168D01*
X75418Y168086D01*
X75430Y168003D01*
X75453Y167949D01*
X75468Y167893D01*
X75511Y167820D01*
X75546Y167743D01*
X75584Y167698D01*
X75613Y167648D01*
X75675Y167590D01*
X75729Y167526D01*
X75778Y167494D01*
X75821Y167454D01*
X75896Y167415D01*
X75966Y167369D01*
X76022Y167351D01*
X76074Y167324D01*
X76142Y167313D01*
X76237Y167283D01*
X76337Y167280D01*
X76405Y167269D01*
X79249Y167269D01*
X79249Y161259D01*
X75946Y161259D01*
X75299Y161432D01*
X74720Y161767D01*
X74283Y162204D01*
X74213Y162256D01*
X74149Y162316D01*
X74100Y162342D01*
X74056Y162375D01*
X73974Y162406D01*
X73896Y162446D01*
X73849Y162454D01*
X73790Y162476D01*
X73642Y162488D01*
X73565Y162501D01*
X72437Y162501D01*
X72379Y162493D01*
X72321Y162495D01*
X72239Y162473D01*
X72155Y162461D01*
X72102Y162438D01*
X72046Y162423D01*
X71973Y162380D01*
X71896Y162345D01*
X71851Y162307D01*
X71801Y162278D01*
X71743Y162216D01*
X71679Y162162D01*
X71647Y162113D01*
X71607Y162070D01*
X71568Y161995D01*
X71521Y161925D01*
X71504Y161869D01*
X71477Y161817D01*
X71466Y161749D01*
X71436Y161654D01*
X71433Y161554D01*
X71422Y161486D01*
X71422Y160974D01*
X71434Y160887D01*
X71437Y160800D01*
X71454Y160747D01*
X71462Y160693D01*
X71497Y160613D01*
X71524Y160530D01*
X71552Y160490D01*
X71578Y160433D01*
X71674Y160320D01*
X71719Y160256D01*
X73797Y158178D01*
X74571Y156311D01*
X74571Y155514D01*
X74579Y155456D01*
X74577Y155398D01*
X74599Y155316D01*
X74611Y155232D01*
X74634Y155179D01*
X74649Y155123D01*
X74692Y155050D01*
X74727Y154973D01*
X74765Y154928D01*
X74794Y154878D01*
X74856Y154820D01*
X74910Y154756D01*
X74959Y154724D01*
X75002Y154684D01*
X75077Y154645D01*
X75147Y154598D01*
X75203Y154581D01*
X75255Y154554D01*
X75323Y154543D01*
X75418Y154513D01*
X75518Y154510D01*
X75586Y154499D01*
X76253Y154499D01*
X78039Y152713D01*
X78039Y137205D01*
X78043Y137176D01*
X78040Y137147D01*
X78063Y137036D01*
X78079Y136923D01*
X78091Y136897D01*
X78096Y136868D01*
X78148Y136767D01*
X78195Y136664D01*
X78214Y136642D01*
X78227Y136616D01*
X78305Y136534D01*
X78378Y136447D01*
X78403Y136431D01*
X78423Y136410D01*
X78521Y136352D01*
X78615Y136289D01*
X78643Y136281D01*
X78668Y136266D01*
X78778Y136238D01*
X78886Y136204D01*
X78916Y136203D01*
X78944Y136196D01*
X79057Y136199D01*
G37*
%LPC*%
G36*
X49199Y220551D02*
X49199Y220551D01*
X46241Y221777D01*
X43977Y224041D01*
X42751Y226999D01*
X42751Y230201D01*
X43977Y233159D01*
X46241Y235423D01*
X49199Y236649D01*
X52401Y236649D01*
X55359Y235423D01*
X57623Y233159D01*
X58849Y230201D01*
X58849Y226999D01*
X57623Y224041D01*
X55359Y221777D01*
X52401Y220551D01*
X49199Y220551D01*
G37*
%LPD*%
%LPC*%
G36*
X226999Y42751D02*
X226999Y42751D01*
X224041Y43977D01*
X221777Y46241D01*
X220551Y49199D01*
X220551Y52401D01*
X221777Y55359D01*
X224041Y57623D01*
X226999Y58849D01*
X230201Y58849D01*
X233159Y57623D01*
X235423Y55359D01*
X236649Y52401D01*
X236649Y49199D01*
X235423Y46241D01*
X233159Y43977D01*
X230201Y42751D01*
X226999Y42751D01*
G37*
%LPD*%
G36*
X26474Y186309D02*
X26474Y186309D01*
X26532Y186308D01*
X26614Y186329D01*
X26697Y186341D01*
X26751Y186365D01*
X26807Y186379D01*
X26880Y186422D01*
X26957Y186457D01*
X27001Y186495D01*
X27052Y186525D01*
X27109Y186586D01*
X27174Y186641D01*
X27206Y186689D01*
X27246Y186732D01*
X27285Y186807D01*
X27331Y186877D01*
X27349Y186933D01*
X27376Y186985D01*
X27387Y187053D01*
X27417Y187148D01*
X27420Y187248D01*
X27431Y187316D01*
X27431Y194341D01*
X30734Y194341D01*
X31381Y194168D01*
X31960Y193833D01*
X32397Y193396D01*
X32467Y193344D01*
X32531Y193284D01*
X32580Y193258D01*
X32624Y193225D01*
X32706Y193194D01*
X32784Y193154D01*
X32831Y193146D01*
X32890Y193124D01*
X33038Y193112D01*
X33115Y193099D01*
X47649Y193099D01*
X47687Y193070D01*
X47742Y193049D01*
X47792Y193020D01*
X47874Y192999D01*
X47953Y192969D01*
X48011Y192964D01*
X48068Y192949D01*
X48152Y192952D01*
X48236Y192945D01*
X48293Y192957D01*
X48352Y192958D01*
X48432Y192984D01*
X48515Y193001D01*
X48567Y193028D01*
X48622Y193046D01*
X48678Y193086D01*
X48767Y193132D01*
X48839Y193201D01*
X48896Y193241D01*
X52041Y196386D01*
X52058Y196410D01*
X52081Y196429D01*
X52144Y196523D01*
X52212Y196613D01*
X52222Y196641D01*
X52239Y196665D01*
X52273Y196773D01*
X52313Y196879D01*
X52315Y196908D01*
X52324Y196936D01*
X52327Y197050D01*
X52337Y197162D01*
X52331Y197191D01*
X52332Y197220D01*
X52303Y197330D01*
X52281Y197441D01*
X52267Y197467D01*
X52260Y197495D01*
X52202Y197593D01*
X52150Y197693D01*
X52130Y197715D01*
X52115Y197740D01*
X52032Y197817D01*
X51954Y197899D01*
X51929Y197914D01*
X51907Y197934D01*
X51806Y197986D01*
X51709Y198043D01*
X51680Y198050D01*
X51654Y198064D01*
X51577Y198077D01*
X51433Y198113D01*
X51371Y198111D01*
X51323Y198119D01*
X22845Y198119D01*
X22758Y198107D01*
X22671Y198104D01*
X22618Y198087D01*
X22564Y198079D01*
X22484Y198044D01*
X22401Y198017D01*
X22361Y197989D01*
X22304Y197963D01*
X22191Y197867D01*
X22127Y197822D01*
X20379Y196074D01*
X20361Y196050D01*
X20339Y196031D01*
X20276Y195937D01*
X20208Y195847D01*
X20198Y195819D01*
X20181Y195795D01*
X20147Y195687D01*
X20107Y195581D01*
X20105Y195552D01*
X20096Y195524D01*
X20093Y195410D01*
X20083Y195298D01*
X20089Y195269D01*
X20088Y195240D01*
X20117Y195130D01*
X20139Y195019D01*
X20153Y194993D01*
X20160Y194965D01*
X20218Y194867D01*
X20270Y194767D01*
X20291Y194745D01*
X20305Y194720D01*
X20388Y194643D01*
X20466Y194561D01*
X20491Y194546D01*
X20513Y194526D01*
X20614Y194474D01*
X20711Y194417D01*
X20740Y194410D01*
X20766Y194396D01*
X20843Y194383D01*
X20987Y194347D01*
X21049Y194349D01*
X21097Y194341D01*
X23369Y194341D01*
X23369Y187316D01*
X23377Y187258D01*
X23375Y187200D01*
X23397Y187118D01*
X23409Y187035D01*
X23433Y186981D01*
X23447Y186925D01*
X23490Y186852D01*
X23525Y186775D01*
X23563Y186731D01*
X23593Y186680D01*
X23654Y186623D01*
X23709Y186558D01*
X23757Y186526D01*
X23800Y186486D01*
X23875Y186447D01*
X23945Y186401D01*
X24001Y186383D01*
X24053Y186356D01*
X24121Y186345D01*
X24216Y186315D01*
X24316Y186312D01*
X24384Y186301D01*
X26416Y186301D01*
X26474Y186309D01*
G37*
G36*
X43857Y174107D02*
X43857Y174107D01*
X43915Y174105D01*
X43997Y174127D01*
X44081Y174139D01*
X44134Y174162D01*
X44190Y174177D01*
X44263Y174220D01*
X44340Y174255D01*
X44385Y174293D01*
X44435Y174322D01*
X44493Y174384D01*
X44557Y174438D01*
X44589Y174487D01*
X44629Y174530D01*
X44668Y174605D01*
X44715Y174675D01*
X44732Y174731D01*
X44759Y174783D01*
X44770Y174851D01*
X44800Y174946D01*
X44803Y175046D01*
X44814Y175114D01*
X44814Y180486D01*
X44806Y180544D01*
X44808Y180602D01*
X44786Y180684D01*
X44774Y180768D01*
X44751Y180821D01*
X44736Y180877D01*
X44693Y180950D01*
X44658Y181027D01*
X44620Y181072D01*
X44591Y181122D01*
X44529Y181180D01*
X44475Y181244D01*
X44426Y181276D01*
X44383Y181316D01*
X44308Y181355D01*
X44238Y181402D01*
X44182Y181419D01*
X44130Y181446D01*
X44062Y181457D01*
X43967Y181487D01*
X43867Y181490D01*
X43799Y181501D01*
X33956Y181501D01*
X33898Y181493D01*
X33840Y181495D01*
X33758Y181473D01*
X33674Y181461D01*
X33621Y181438D01*
X33565Y181423D01*
X33492Y181380D01*
X33415Y181345D01*
X33370Y181307D01*
X33320Y181278D01*
X33262Y181216D01*
X33198Y181162D01*
X33166Y181113D01*
X33126Y181070D01*
X33087Y180995D01*
X33040Y180925D01*
X33023Y180869D01*
X32996Y180817D01*
X32985Y180749D01*
X32955Y180654D01*
X32952Y180554D01*
X32941Y180486D01*
X32941Y180466D01*
X32768Y179819D01*
X32433Y179240D01*
X32070Y178877D01*
X32035Y178830D01*
X31993Y178790D01*
X31950Y178717D01*
X31899Y178650D01*
X31878Y178595D01*
X31849Y178545D01*
X31828Y178463D01*
X31798Y178384D01*
X31793Y178326D01*
X31779Y178269D01*
X31782Y178185D01*
X31775Y178101D01*
X31786Y178044D01*
X31788Y177985D01*
X31814Y177905D01*
X31830Y177822D01*
X31857Y177770D01*
X31875Y177715D01*
X31916Y177658D01*
X31961Y177570D01*
X32030Y177498D01*
X32070Y177441D01*
X33449Y176063D01*
X33449Y175114D01*
X33457Y175056D01*
X33455Y174998D01*
X33477Y174916D01*
X33489Y174832D01*
X33512Y174779D01*
X33527Y174723D01*
X33570Y174650D01*
X33605Y174573D01*
X33643Y174528D01*
X33672Y174478D01*
X33734Y174420D01*
X33788Y174356D01*
X33837Y174324D01*
X33880Y174284D01*
X33955Y174245D01*
X34025Y174198D01*
X34081Y174181D01*
X34133Y174154D01*
X34201Y174143D01*
X34296Y174113D01*
X34396Y174110D01*
X34464Y174099D01*
X43799Y174099D01*
X43857Y174107D01*
G37*
%LPC*%
G36*
X57369Y13779D02*
X57369Y13779D01*
X57515Y14515D01*
X57985Y15648D01*
X58666Y16668D01*
X59533Y17534D01*
X60538Y18206D01*
X60623Y18282D01*
X60713Y18354D01*
X60729Y18377D01*
X60750Y18395D01*
X60811Y18492D01*
X60877Y18586D01*
X60886Y18613D01*
X60901Y18636D01*
X60932Y18746D01*
X60970Y18855D01*
X60971Y18883D01*
X60979Y18909D01*
X60979Y19024D01*
X60985Y19139D01*
X60979Y19166D01*
X60979Y19194D01*
X60947Y19304D01*
X60921Y19416D01*
X60907Y19440D01*
X60899Y19467D01*
X60838Y19564D01*
X60782Y19664D01*
X60764Y19681D01*
X60748Y19707D01*
X60548Y19884D01*
X60538Y19894D01*
X60535Y19896D01*
X59533Y20566D01*
X58666Y21432D01*
X57985Y22452D01*
X57515Y23585D01*
X57369Y24321D01*
X62421Y24321D01*
X62421Y13779D01*
X57369Y13779D01*
G37*
%LPD*%
%LPC*%
G36*
X158969Y13779D02*
X158969Y13779D01*
X159115Y14515D01*
X159585Y15648D01*
X160266Y16668D01*
X161133Y17534D01*
X162138Y18206D01*
X162223Y18282D01*
X162313Y18354D01*
X162329Y18377D01*
X162350Y18395D01*
X162411Y18493D01*
X162477Y18586D01*
X162486Y18613D01*
X162501Y18636D01*
X162532Y18747D01*
X162570Y18855D01*
X162571Y18883D01*
X162579Y18909D01*
X162579Y19024D01*
X162585Y19139D01*
X162579Y19166D01*
X162579Y19194D01*
X162547Y19304D01*
X162521Y19416D01*
X162507Y19440D01*
X162499Y19467D01*
X162438Y19563D01*
X162382Y19664D01*
X162364Y19681D01*
X162348Y19707D01*
X162149Y19884D01*
X162138Y19894D01*
X161133Y20566D01*
X160266Y21432D01*
X159585Y22452D01*
X159115Y23585D01*
X158969Y24321D01*
X164021Y24321D01*
X164021Y13779D01*
X158969Y13779D01*
G37*
%LPD*%
%LPC*%
G36*
X175985Y6715D02*
X175985Y6715D01*
X174852Y7185D01*
X173832Y7866D01*
X172966Y8733D01*
X172294Y9738D01*
X172272Y9763D01*
X172264Y9776D01*
X172239Y9799D01*
X172218Y9823D01*
X172146Y9913D01*
X172123Y9929D01*
X172105Y9950D01*
X172008Y10011D01*
X171914Y10077D01*
X171887Y10086D01*
X171864Y10101D01*
X171754Y10132D01*
X171645Y10170D01*
X171617Y10171D01*
X171591Y10179D01*
X171476Y10179D01*
X171361Y10185D01*
X171334Y10179D01*
X171306Y10179D01*
X171196Y10147D01*
X171084Y10121D01*
X171060Y10107D01*
X171033Y10099D01*
X170936Y10038D01*
X170836Y9982D01*
X170819Y9964D01*
X170793Y9948D01*
X170694Y9836D01*
X170670Y9816D01*
X170652Y9789D01*
X170616Y9748D01*
X170606Y9738D01*
X170604Y9735D01*
X169934Y8733D01*
X169068Y7866D01*
X168048Y7185D01*
X166915Y6715D01*
X166179Y6569D01*
X166179Y11621D01*
X176721Y11621D01*
X176721Y6569D01*
X175985Y6715D01*
G37*
%LPD*%
%LPC*%
G36*
X74385Y6715D02*
X74385Y6715D01*
X73252Y7185D01*
X72232Y7866D01*
X71366Y8733D01*
X70694Y9738D01*
X70672Y9763D01*
X70664Y9776D01*
X70639Y9799D01*
X70618Y9823D01*
X70546Y9913D01*
X70523Y9929D01*
X70505Y9950D01*
X70407Y10011D01*
X70314Y10077D01*
X70287Y10086D01*
X70264Y10101D01*
X70153Y10132D01*
X70045Y10170D01*
X70017Y10171D01*
X69991Y10179D01*
X69876Y10179D01*
X69761Y10185D01*
X69734Y10179D01*
X69706Y10179D01*
X69596Y10147D01*
X69484Y10121D01*
X69460Y10107D01*
X69433Y10099D01*
X69337Y10038D01*
X69236Y9982D01*
X69219Y9964D01*
X69193Y9948D01*
X69094Y9836D01*
X69070Y9816D01*
X69052Y9789D01*
X69016Y9749D01*
X69006Y9738D01*
X68334Y8733D01*
X67468Y7866D01*
X66448Y7185D01*
X65315Y6715D01*
X64579Y6569D01*
X64579Y11621D01*
X75121Y11621D01*
X75121Y6569D01*
X74385Y6715D01*
G37*
%LPD*%
G36*
X73921Y176430D02*
X73921Y176430D01*
X73950Y176427D01*
X74061Y176450D01*
X74173Y176466D01*
X74200Y176477D01*
X74229Y176483D01*
X74329Y176536D01*
X74433Y176582D01*
X74455Y176601D01*
X74481Y176614D01*
X74563Y176692D01*
X74650Y176765D01*
X74666Y176790D01*
X74687Y176810D01*
X74744Y176908D01*
X74807Y177002D01*
X74816Y177030D01*
X74831Y177055D01*
X74859Y177165D01*
X74893Y177273D01*
X74894Y177302D01*
X74901Y177331D01*
X74897Y177444D01*
X74900Y177557D01*
X74893Y177586D01*
X74892Y177615D01*
X74857Y177723D01*
X74828Y177832D01*
X74814Y177857D01*
X74804Y177886D01*
X74759Y177949D01*
X74683Y178077D01*
X74638Y178120D01*
X74610Y178159D01*
X73892Y178877D01*
X73822Y178930D01*
X73758Y178989D01*
X73709Y179015D01*
X73664Y179048D01*
X73582Y179079D01*
X73505Y179119D01*
X73457Y179127D01*
X73399Y179149D01*
X73251Y179161D01*
X73174Y179174D01*
X66700Y179174D01*
X66642Y179166D01*
X66584Y179168D01*
X66502Y179146D01*
X66419Y179134D01*
X66365Y179111D01*
X66309Y179096D01*
X66236Y179053D01*
X66159Y179018D01*
X66115Y178980D01*
X66064Y178951D01*
X66007Y178889D01*
X65942Y178835D01*
X65910Y178786D01*
X65870Y178743D01*
X65831Y178668D01*
X65785Y178598D01*
X65767Y178542D01*
X65740Y178490D01*
X65729Y178422D01*
X65699Y178327D01*
X65696Y178227D01*
X65685Y178159D01*
X65685Y177441D01*
X65693Y177383D01*
X65692Y177325D01*
X65713Y177243D01*
X65725Y177159D01*
X65749Y177106D01*
X65763Y177050D01*
X65807Y176977D01*
X65841Y176900D01*
X65879Y176855D01*
X65909Y176805D01*
X65970Y176747D01*
X66025Y176683D01*
X66073Y176651D01*
X66116Y176611D01*
X66191Y176572D01*
X66261Y176525D01*
X66317Y176508D01*
X66369Y176481D01*
X66437Y176470D01*
X66532Y176440D01*
X66632Y176437D01*
X66700Y176426D01*
X73892Y176426D01*
X73921Y176430D01*
G37*
%LPC*%
G36*
X25505Y125409D02*
X25505Y125409D01*
X25505Y128935D01*
X32531Y128935D01*
X32531Y127616D01*
X32358Y126969D01*
X32023Y126390D01*
X31550Y125917D01*
X30971Y125582D01*
X30324Y125409D01*
X25505Y125409D01*
G37*
%LPD*%
%LPC*%
G36*
X18656Y125409D02*
X18656Y125409D01*
X18009Y125582D01*
X17430Y125917D01*
X16957Y126390D01*
X16622Y126969D01*
X16449Y127616D01*
X16449Y128935D01*
X23475Y128935D01*
X23475Y125409D01*
X18656Y125409D01*
G37*
%LPD*%
%LPC*%
G36*
X158969Y26479D02*
X158969Y26479D01*
X159115Y27215D01*
X159585Y28348D01*
X160266Y29368D01*
X161132Y30234D01*
X162152Y30915D01*
X163285Y31385D01*
X164021Y31531D01*
X164021Y26479D01*
X158969Y26479D01*
G37*
%LPD*%
%LPC*%
G36*
X61685Y6715D02*
X61685Y6715D01*
X60552Y7185D01*
X59532Y7866D01*
X58666Y8732D01*
X57985Y9752D01*
X57515Y10885D01*
X57369Y11621D01*
X62421Y11621D01*
X62421Y6569D01*
X61685Y6715D01*
G37*
%LPD*%
%LPC*%
G36*
X163285Y6715D02*
X163285Y6715D01*
X162152Y7185D01*
X161132Y7866D01*
X160266Y8732D01*
X159585Y9752D01*
X159115Y10885D01*
X158969Y11621D01*
X164021Y11621D01*
X164021Y6569D01*
X163285Y6715D01*
G37*
%LPD*%
%LPC*%
G36*
X121549Y124509D02*
X121549Y124509D01*
X121549Y128801D01*
X125841Y128801D01*
X125841Y126716D01*
X125668Y126069D01*
X125333Y125490D01*
X124860Y125017D01*
X124281Y124682D01*
X123634Y124509D01*
X121549Y124509D01*
G37*
%LPD*%
D10*
X15198Y82423D02*
X5207Y79093D01*
X15198Y75763D01*
X12700Y69188D02*
X12995Y69184D01*
X13289Y69174D01*
X13584Y69156D01*
X13878Y69132D01*
X14171Y69100D01*
X14463Y69062D01*
X14754Y69016D01*
X15044Y68963D01*
X15333Y68904D01*
X15620Y68838D01*
X15906Y68765D01*
X16190Y68685D01*
X16472Y68598D01*
X16751Y68505D01*
X17029Y68405D01*
X17303Y68298D01*
X17576Y68185D01*
X17845Y68065D01*
X18112Y67939D01*
X18215Y67901D01*
X18316Y67860D01*
X18415Y67816D01*
X18514Y67768D01*
X18610Y67717D01*
X18704Y67662D01*
X18797Y67604D01*
X18887Y67543D01*
X18975Y67478D01*
X19061Y67411D01*
X19144Y67340D01*
X19225Y67267D01*
X19303Y67191D01*
X19379Y67112D01*
X19451Y67030D01*
X19521Y66946D01*
X19587Y66859D01*
X19651Y66771D01*
X19711Y66680D01*
X19768Y66586D01*
X19822Y66491D01*
X19872Y66394D01*
X19919Y66296D01*
X19962Y66196D01*
X20002Y66094D01*
X20038Y65991D01*
X20070Y65887D01*
X20099Y65781D01*
X20124Y65675D01*
X20145Y65568D01*
X20162Y65460D01*
X20176Y65352D01*
X20185Y65243D01*
X20191Y65134D01*
X20193Y65025D01*
X20191Y64916D01*
X20185Y64807D01*
X20176Y64698D01*
X20162Y64590D01*
X20145Y64482D01*
X20124Y64375D01*
X20099Y64268D01*
X20070Y64163D01*
X20038Y64059D01*
X20002Y63956D01*
X19962Y63854D01*
X19919Y63754D01*
X19872Y63655D01*
X19821Y63558D01*
X19768Y63463D01*
X19711Y63370D01*
X19650Y63279D01*
X19587Y63190D01*
X19520Y63104D01*
X19451Y63019D01*
X19378Y62938D01*
X19303Y62859D01*
X19225Y62783D01*
X19144Y62709D01*
X19061Y62639D01*
X18975Y62571D01*
X18887Y62506D01*
X18796Y62445D01*
X18704Y62387D01*
X18609Y62332D01*
X18513Y62281D01*
X18415Y62233D01*
X18315Y62189D01*
X18214Y62148D01*
X18111Y62111D01*
X18112Y62111D02*
X17845Y61985D01*
X17576Y61865D01*
X17303Y61752D01*
X17029Y61645D01*
X16751Y61545D01*
X16472Y61452D01*
X16190Y61365D01*
X15906Y61285D01*
X15620Y61212D01*
X15333Y61146D01*
X15044Y61087D01*
X14754Y61034D01*
X14463Y60988D01*
X14171Y60950D01*
X13878Y60918D01*
X13584Y60894D01*
X13289Y60876D01*
X12995Y60866D01*
X12700Y60862D01*
X12700Y69188D02*
X12405Y69184D01*
X12111Y69174D01*
X11816Y69156D01*
X11522Y69132D01*
X11229Y69100D01*
X10937Y69062D01*
X10646Y69016D01*
X10356Y68963D01*
X10067Y68904D01*
X9780Y68838D01*
X9494Y68765D01*
X9210Y68685D01*
X8928Y68598D01*
X8649Y68505D01*
X8371Y68405D01*
X8097Y68298D01*
X7824Y68185D01*
X7555Y68065D01*
X7288Y67939D01*
X7185Y67901D01*
X7084Y67860D01*
X6985Y67816D01*
X6886Y67768D01*
X6790Y67717D01*
X6696Y67662D01*
X6603Y67604D01*
X6513Y67543D01*
X6425Y67478D01*
X6339Y67411D01*
X6256Y67340D01*
X6175Y67267D01*
X6097Y67191D01*
X6021Y67112D01*
X5949Y67030D01*
X5879Y66946D01*
X5813Y66859D01*
X5749Y66771D01*
X5689Y66680D01*
X5632Y66586D01*
X5578Y66491D01*
X5528Y66394D01*
X5481Y66296D01*
X5438Y66196D01*
X5398Y66094D01*
X5362Y65991D01*
X5330Y65887D01*
X5301Y65781D01*
X5276Y65675D01*
X5255Y65568D01*
X5238Y65460D01*
X5224Y65352D01*
X5215Y65243D01*
X5209Y65134D01*
X5207Y65025D01*
X7288Y62111D02*
X7555Y61985D01*
X7824Y61865D01*
X8097Y61752D01*
X8371Y61645D01*
X8649Y61545D01*
X8928Y61452D01*
X9210Y61365D01*
X9494Y61285D01*
X9780Y61212D01*
X10067Y61146D01*
X10356Y61087D01*
X10646Y61034D01*
X10937Y60988D01*
X11229Y60950D01*
X11522Y60918D01*
X11816Y60894D01*
X12111Y60876D01*
X12405Y60866D01*
X12700Y60862D01*
X7289Y62111D02*
X7186Y62148D01*
X7085Y62189D01*
X6985Y62233D01*
X6887Y62281D01*
X6791Y62332D01*
X6696Y62387D01*
X6604Y62445D01*
X6513Y62506D01*
X6425Y62571D01*
X6339Y62639D01*
X6256Y62709D01*
X6175Y62783D01*
X6097Y62859D01*
X6022Y62938D01*
X5949Y63019D01*
X5880Y63104D01*
X5813Y63190D01*
X5750Y63279D01*
X5689Y63370D01*
X5632Y63463D01*
X5579Y63558D01*
X5528Y63655D01*
X5481Y63754D01*
X5438Y63854D01*
X5398Y63956D01*
X5362Y64059D01*
X5330Y64163D01*
X5301Y64268D01*
X5276Y64375D01*
X5255Y64482D01*
X5238Y64590D01*
X5224Y64698D01*
X5215Y64807D01*
X5209Y64916D01*
X5207Y65025D01*
X8537Y68355D02*
X16863Y61694D01*
X16863Y53556D02*
X20193Y49394D01*
X5207Y49394D01*
X5207Y53556D02*
X5207Y45231D01*
D11*
X81280Y186300D03*
X81280Y169300D03*
X25400Y169300D03*
X25400Y186300D03*
D12*
X119800Y130550D03*
X108800Y130550D03*
X108800Y148850D03*
X119800Y148850D03*
D13*
X110650Y187300D03*
X110650Y168300D03*
X131650Y177800D03*
D11*
X144780Y169300D03*
X144780Y186300D03*
X96520Y186300D03*
X96520Y169300D03*
D14*
X146900Y134700D03*
X146900Y144700D03*
X146900Y139700D03*
X132500Y134700D03*
X132500Y139700D03*
D15*
X133250Y144700D03*
D16*
X66341Y168300D03*
X66341Y177800D03*
X66341Y187300D03*
X40339Y187300D03*
X40339Y168300D03*
D17*
X24490Y149450D03*
X24490Y142950D03*
X24490Y136450D03*
X24490Y129950D03*
X69490Y129950D03*
X69490Y136450D03*
X69490Y142950D03*
X69490Y149450D03*
D18*
X63500Y12700D03*
X63500Y25400D03*
X76200Y12700D03*
X76200Y25400D03*
X88900Y12700D03*
X88900Y25400D03*
X101600Y12700D03*
X101600Y25400D03*
X114300Y12700D03*
X114300Y25400D03*
X165100Y12700D03*
X165100Y25400D03*
X177800Y12700D03*
X177800Y25400D03*
X190500Y12700D03*
X190500Y25400D03*
X203200Y12700D03*
X203200Y25400D03*
X215900Y12700D03*
X215900Y25400D03*
D19*
X50800Y228600D03*
X228600Y50800D03*
D20*
X71510Y177800D02*
X66341Y177800D01*
X80010Y169300D02*
X81280Y169300D01*
X80010Y169300D02*
X71510Y177800D01*
X81280Y169300D02*
X81280Y156210D01*
D21*
X81280Y156210D03*
D20*
X36830Y177800D02*
X33900Y177800D01*
X25400Y186300D01*
D21*
X36830Y177800D03*
X39370Y138430D03*
X9525Y207010D03*
X132080Y127000D03*
D22*
X132500Y134700D02*
X137080Y134700D01*
X139700Y132080D01*
D21*
X128270Y11430D03*
X168910Y142240D03*
X63500Y266700D03*
X114300Y266700D03*
X165100Y266700D03*
X215900Y266700D03*
X215900Y215900D03*
X266700Y215900D03*
X63500Y215900D03*
X114300Y215900D03*
X165100Y215900D03*
X215900Y165100D03*
X266700Y165100D03*
X266700Y114300D03*
X215900Y114300D03*
X215900Y63500D03*
X266700Y63500D03*
D20*
X40339Y168300D02*
X26400Y168300D01*
X25400Y169300D01*
X110650Y168300D02*
X111150Y168300D01*
X25400Y169300D02*
X17390Y169300D01*
X13970Y172720D01*
X13970Y196850D01*
X111150Y168300D02*
X120650Y177800D01*
X20320Y203200D02*
X13970Y196850D01*
X20320Y203200D02*
X115570Y203200D01*
X120650Y198120D01*
X120650Y177800D01*
X80280Y187300D02*
X66341Y187300D01*
X80280Y187300D02*
X81280Y186300D01*
X66341Y168300D02*
X61570Y168300D01*
X55880Y173990D01*
X55880Y181610D01*
X61570Y187300D01*
X66341Y187300D01*
X81280Y186300D02*
X81280Y184829D01*
X96520Y169589D01*
X96520Y169300D01*
X96520Y161130D01*
X108800Y148850D01*
X69490Y149450D02*
X69490Y155300D01*
X66341Y158449D02*
X66341Y168300D01*
X66341Y158449D02*
X69490Y155300D01*
X177800Y30480D02*
X177800Y25400D01*
X177800Y30480D02*
X153035Y55245D01*
X69490Y149450D02*
X52930Y149450D01*
X50800Y147320D01*
X50800Y50800D01*
X76200Y25400D01*
X88900Y12700D01*
X101600Y12700D01*
X177800Y25400D02*
X190500Y12700D01*
X203200Y12700D01*
X114300Y12700D02*
X101600Y12700D01*
X203200Y12700D02*
X215900Y12700D01*
D21*
X100330Y54610D03*
D20*
X100965Y55245D02*
X153035Y55245D01*
X100965Y55245D02*
X100330Y54610D01*
D22*
X146900Y134700D02*
X154940Y134700D01*
X161544Y67056D02*
X203200Y25400D01*
D21*
X114300Y38100D03*
D20*
X127000Y25400D01*
D21*
X127000Y25400D03*
D22*
X161544Y128096D02*
X154940Y134700D01*
X161544Y128096D02*
X161544Y67056D01*
X152400Y144700D02*
X146900Y144700D01*
X165100Y76200D02*
X215900Y25400D01*
X165100Y132000D02*
X152400Y144700D01*
X165100Y132000D02*
X165100Y76200D01*
X146900Y139700D02*
X142240Y139700D01*
X140970Y140970D01*
X140970Y153670D01*
X144780Y157480D01*
X144780Y169300D01*
D20*
X69490Y136450D02*
X60250Y136450D01*
X56388Y132588D01*
X56388Y57912D02*
X88900Y25400D01*
X56388Y57912D02*
X56388Y132588D01*
X108800Y130550D02*
X108800Y112180D01*
X190500Y30480D02*
X190500Y25400D01*
X190500Y30480D02*
X108800Y112180D01*
D22*
X133250Y144700D02*
X133250Y153670D01*
X131650Y155270D01*
X131650Y177800D01*
D20*
X134230Y186300D02*
X144780Y186300D01*
X131650Y183720D02*
X131650Y177800D01*
X131650Y183720D02*
X134230Y186300D01*
X110650Y187300D02*
X97520Y187300D01*
X96520Y186300D01*
X42770Y149450D02*
X24490Y149450D01*
X42770Y149450D02*
X49895Y156575D01*
X49895Y187055D01*
X59690Y196850D01*
X92710Y196850D01*
X96520Y193040D02*
X96520Y186300D01*
X96520Y193040D02*
X92710Y196850D01*
X119800Y148850D02*
X119800Y142660D01*
X116840Y139700D01*
X90170Y139700D01*
X80420Y129950D01*
X69490Y129950D01*
M02*
