G04 EAGLE Gerber RS-274X export*
G75*
%MOMM*%
%FSLAX34Y34*%
%LPD*%
%INBottom Copper*%
%IPPOS*%
%AMOC8*
5,1,8,0,0,1.08239X$1,22.5*%
G01*
%ADD10C,0.736600*%
%ADD11C,1.000000*%
%ADD12C,0.685800*%
%ADD13C,0.406400*%

G36*
X243661Y3064D02*
X243661Y3064D01*
X243769Y3072D01*
X243801Y3084D01*
X243836Y3089D01*
X243934Y3133D01*
X244035Y3170D01*
X244063Y3191D01*
X244095Y3205D01*
X244177Y3274D01*
X244264Y3338D01*
X244286Y3366D01*
X244312Y3388D01*
X244372Y3478D01*
X244438Y3564D01*
X244450Y3596D01*
X244470Y3625D01*
X244502Y3728D01*
X244542Y3828D01*
X244545Y3863D01*
X244555Y3896D01*
X244558Y4004D01*
X244568Y4111D01*
X244562Y4146D01*
X244563Y4180D01*
X244536Y4285D01*
X244515Y4391D01*
X244500Y4422D01*
X244491Y4455D01*
X244436Y4548D01*
X244387Y4644D01*
X244364Y4670D01*
X244346Y4700D01*
X244267Y4774D01*
X244194Y4853D01*
X244167Y4868D01*
X244138Y4894D01*
X243948Y4992D01*
X243901Y5018D01*
X242522Y5520D01*
X236415Y10644D01*
X232429Y17549D01*
X231045Y25400D01*
X232429Y33251D01*
X236415Y40155D01*
X242522Y45280D01*
X250014Y48007D01*
X257986Y48007D01*
X265478Y45280D01*
X271585Y40156D01*
X274420Y35246D01*
X274432Y35230D01*
X274439Y35213D01*
X274519Y35119D01*
X274595Y35022D01*
X274611Y35010D01*
X274623Y34996D01*
X274725Y34927D01*
X274825Y34855D01*
X274843Y34849D01*
X274860Y34838D01*
X274977Y34801D01*
X275093Y34759D01*
X275112Y34758D01*
X275131Y34752D01*
X275253Y34749D01*
X275376Y34741D01*
X275395Y34745D01*
X275415Y34745D01*
X275534Y34776D01*
X275654Y34802D01*
X275671Y34811D01*
X275690Y34816D01*
X275796Y34879D01*
X275904Y34938D01*
X275918Y34952D01*
X275934Y34962D01*
X276019Y35051D01*
X276106Y35138D01*
X276116Y35155D01*
X276129Y35169D01*
X276185Y35278D01*
X276245Y35386D01*
X276250Y35405D01*
X276258Y35422D01*
X276271Y35494D01*
X276310Y35662D01*
X276307Y35713D01*
X276314Y35753D01*
X276389Y243775D01*
X276386Y243795D01*
X276388Y243814D01*
X276366Y243935D01*
X276349Y244057D01*
X276341Y244075D01*
X276337Y244094D01*
X276283Y244204D01*
X276233Y244316D01*
X276220Y244331D01*
X276211Y244349D01*
X276128Y244440D01*
X276049Y244533D01*
X276033Y244544D01*
X276019Y244559D01*
X275915Y244623D01*
X275812Y244691D01*
X275794Y244697D01*
X275777Y244707D01*
X275658Y244740D01*
X275541Y244777D01*
X275522Y244777D01*
X275503Y244783D01*
X275380Y244781D01*
X275257Y244784D01*
X275238Y244779D01*
X275218Y244779D01*
X275101Y244743D01*
X274982Y244713D01*
X274965Y244702D01*
X274946Y244697D01*
X274844Y244630D01*
X274738Y244567D01*
X274724Y244553D01*
X274708Y244542D01*
X274661Y244486D01*
X274543Y244360D01*
X274520Y244314D01*
X274494Y244283D01*
X271585Y239245D01*
X265478Y234120D01*
X257986Y231393D01*
X250014Y231393D01*
X242522Y234120D01*
X236415Y239244D01*
X232429Y246149D01*
X231045Y254000D01*
X232429Y261851D01*
X236415Y268755D01*
X242522Y273880D01*
X243901Y274382D01*
X243997Y274433D01*
X244095Y274477D01*
X244122Y274499D01*
X244152Y274516D01*
X244230Y274591D01*
X244312Y274661D01*
X244331Y274689D01*
X244356Y274714D01*
X244410Y274807D01*
X244470Y274897D01*
X244480Y274930D01*
X244497Y274960D01*
X244523Y275065D01*
X244555Y275168D01*
X244556Y275203D01*
X244565Y275237D01*
X244560Y275344D01*
X244563Y275452D01*
X244554Y275486D01*
X244553Y275521D01*
X244518Y275623D01*
X244491Y275727D01*
X244473Y275757D01*
X244462Y275790D01*
X244401Y275879D01*
X244346Y275972D01*
X244320Y275996D01*
X244301Y276024D01*
X244217Y276092D01*
X244138Y276166D01*
X244107Y276182D01*
X244081Y276204D01*
X243981Y276247D01*
X243885Y276296D01*
X243855Y276301D01*
X243819Y276316D01*
X243607Y276342D01*
X243554Y276351D01*
X35846Y276351D01*
X35739Y276336D01*
X35631Y276328D01*
X35599Y276316D01*
X35564Y276311D01*
X35466Y276267D01*
X35365Y276230D01*
X35337Y276209D01*
X35305Y276195D01*
X35223Y276126D01*
X35136Y276062D01*
X35114Y276034D01*
X35088Y276012D01*
X35028Y275922D01*
X34962Y275836D01*
X34950Y275804D01*
X34930Y275775D01*
X34898Y275672D01*
X34858Y275572D01*
X34855Y275537D01*
X34845Y275504D01*
X34842Y275396D01*
X34832Y275289D01*
X34838Y275254D01*
X34837Y275220D01*
X34864Y275115D01*
X34885Y275009D01*
X34900Y274978D01*
X34909Y274945D01*
X34964Y274852D01*
X35013Y274756D01*
X35036Y274730D01*
X35054Y274700D01*
X35133Y274626D01*
X35206Y274547D01*
X35233Y274532D01*
X35262Y274506D01*
X35452Y274408D01*
X35499Y274382D01*
X36878Y273880D01*
X42985Y268756D01*
X46971Y261851D01*
X48355Y254000D01*
X46971Y246149D01*
X42985Y239245D01*
X36878Y234120D01*
X29386Y231393D01*
X21414Y231393D01*
X13922Y234120D01*
X7815Y239244D01*
X5030Y244068D01*
X5018Y244083D01*
X5010Y244101D01*
X4931Y244195D01*
X4855Y244292D01*
X4839Y244303D01*
X4827Y244318D01*
X4725Y244386D01*
X4625Y244458D01*
X4607Y244465D01*
X4590Y244476D01*
X4473Y244513D01*
X4357Y244554D01*
X4338Y244556D01*
X4319Y244561D01*
X4197Y244565D01*
X4073Y244572D01*
X4054Y244568D01*
X4035Y244569D01*
X3916Y244538D01*
X3796Y244511D01*
X3779Y244502D01*
X3760Y244497D01*
X3654Y244434D01*
X3546Y244375D01*
X3532Y244362D01*
X3516Y244352D01*
X3431Y244262D01*
X3344Y244176D01*
X3334Y244159D01*
X3321Y244145D01*
X3265Y244035D01*
X3205Y243928D01*
X3200Y243909D01*
X3192Y243892D01*
X3179Y243819D01*
X3140Y243651D01*
X3143Y243600D01*
X3136Y243561D01*
X3062Y35711D01*
X3064Y35692D01*
X3062Y35672D01*
X3084Y35551D01*
X3101Y35430D01*
X3109Y35412D01*
X3113Y35392D01*
X3167Y35282D01*
X3217Y35170D01*
X3230Y35155D01*
X3239Y35138D01*
X3322Y35047D01*
X3401Y34953D01*
X3417Y34942D01*
X3431Y34928D01*
X3536Y34864D01*
X3638Y34796D01*
X3656Y34790D01*
X3673Y34779D01*
X3792Y34747D01*
X3909Y34710D01*
X3928Y34709D01*
X3947Y34704D01*
X4070Y34706D01*
X4193Y34702D01*
X4212Y34707D01*
X4232Y34708D01*
X4349Y34743D01*
X4468Y34774D01*
X4485Y34784D01*
X4504Y34790D01*
X4607Y34856D01*
X4712Y34919D01*
X4726Y34934D01*
X4742Y34944D01*
X4789Y35001D01*
X4907Y35126D01*
X4930Y35172D01*
X4956Y35203D01*
X7815Y40155D01*
X13922Y45280D01*
X21414Y48007D01*
X29386Y48007D01*
X36878Y45280D01*
X42985Y40156D01*
X46971Y33251D01*
X48355Y25400D01*
X46971Y17549D01*
X42985Y10644D01*
X36878Y5520D01*
X35499Y5018D01*
X35403Y4967D01*
X35305Y4923D01*
X35278Y4901D01*
X35248Y4884D01*
X35170Y4809D01*
X35088Y4739D01*
X35069Y4711D01*
X35044Y4686D01*
X34990Y4593D01*
X34930Y4503D01*
X34920Y4470D01*
X34903Y4440D01*
X34877Y4335D01*
X34845Y4232D01*
X34844Y4197D01*
X34835Y4163D01*
X34840Y4056D01*
X34837Y3948D01*
X34846Y3914D01*
X34847Y3879D01*
X34882Y3777D01*
X34909Y3673D01*
X34927Y3643D01*
X34938Y3610D01*
X34999Y3521D01*
X35054Y3428D01*
X35080Y3404D01*
X35099Y3376D01*
X35183Y3308D01*
X35262Y3234D01*
X35293Y3218D01*
X35319Y3196D01*
X35419Y3153D01*
X35515Y3104D01*
X35545Y3099D01*
X35581Y3084D01*
X35793Y3058D01*
X35846Y3049D01*
X243554Y3049D01*
X243661Y3064D01*
G37*
%LPC*%
G36*
X87561Y5968D02*
X87561Y5968D01*
X85087Y6993D01*
X83193Y8887D01*
X83133Y9031D01*
X83097Y9094D01*
X83069Y9160D01*
X83025Y9215D01*
X82989Y9276D01*
X82936Y9326D01*
X82891Y9382D01*
X82834Y9423D01*
X82782Y9471D01*
X82718Y9504D01*
X82659Y9546D01*
X82592Y9569D01*
X82529Y9601D01*
X82458Y9615D01*
X82390Y9639D01*
X82320Y9643D01*
X82250Y9657D01*
X82178Y9650D01*
X82106Y9654D01*
X82038Y9638D01*
X81967Y9632D01*
X81900Y9606D01*
X81829Y9590D01*
X81768Y9555D01*
X81702Y9530D01*
X81644Y9487D01*
X81581Y9451D01*
X81540Y9408D01*
X81475Y9358D01*
X81403Y9262D01*
X81351Y9207D01*
X81034Y8733D01*
X80168Y7866D01*
X79148Y7185D01*
X78015Y6715D01*
X77279Y6569D01*
X77279Y12636D01*
X77271Y12694D01*
X77272Y12753D01*
X77251Y12834D01*
X77239Y12918D01*
X77215Y12971D01*
X77200Y13028D01*
X77157Y13100D01*
X77123Y13177D01*
X77085Y13222D01*
X77055Y13272D01*
X76993Y13330D01*
X76939Y13394D01*
X76919Y13407D01*
X76866Y13457D01*
X76812Y13521D01*
X76763Y13554D01*
X76720Y13594D01*
X76645Y13632D01*
X76575Y13679D01*
X76519Y13697D01*
X76467Y13723D01*
X76399Y13735D01*
X76304Y13765D01*
X76204Y13767D01*
X76136Y13779D01*
X64579Y13779D01*
X64579Y25336D01*
X64571Y25394D01*
X64571Y25419D01*
X64579Y25464D01*
X64579Y31531D01*
X65315Y31385D01*
X66448Y30915D01*
X67468Y30234D01*
X68334Y29367D01*
X68651Y28893D01*
X68699Y28839D01*
X68740Y28779D01*
X68794Y28734D01*
X68841Y28681D01*
X68902Y28643D01*
X68957Y28596D01*
X69022Y28568D01*
X69081Y28530D01*
X69151Y28510D01*
X69217Y28481D01*
X69287Y28471D01*
X69355Y28452D01*
X69427Y28452D01*
X69499Y28442D01*
X69568Y28452D01*
X69639Y28452D01*
X69708Y28472D01*
X69780Y28483D01*
X69844Y28512D01*
X69912Y28531D01*
X69973Y28570D01*
X70039Y28600D01*
X70093Y28646D01*
X70152Y28683D01*
X70200Y28737D01*
X70255Y28784D01*
X70287Y28835D01*
X70341Y28896D01*
X70393Y29004D01*
X70433Y29069D01*
X70493Y29213D01*
X70822Y29542D01*
X70874Y29612D01*
X70934Y29676D01*
X70960Y29725D01*
X70993Y29769D01*
X71024Y29851D01*
X71064Y29929D01*
X71072Y29976D01*
X71094Y30035D01*
X71106Y30183D01*
X71119Y30260D01*
X71119Y31491D01*
X71893Y33358D01*
X93555Y55020D01*
X93607Y55090D01*
X93667Y55154D01*
X93693Y55203D01*
X93726Y55247D01*
X93757Y55329D01*
X93797Y55407D01*
X93805Y55455D01*
X93827Y55513D01*
X93839Y55661D01*
X93852Y55738D01*
X93852Y55898D01*
X94838Y58279D01*
X96661Y60102D01*
X99042Y61088D01*
X101618Y61088D01*
X103999Y60102D01*
X105822Y58279D01*
X106808Y55898D01*
X106808Y53322D01*
X105822Y50941D01*
X103999Y49118D01*
X101618Y48132D01*
X101458Y48132D01*
X101371Y48120D01*
X101284Y48117D01*
X101231Y48100D01*
X101177Y48092D01*
X101097Y48057D01*
X101014Y48030D01*
X100974Y48002D01*
X100917Y47976D01*
X100804Y47880D01*
X100740Y47835D01*
X86770Y33865D01*
X86752Y33841D01*
X86730Y33822D01*
X86667Y33728D01*
X86599Y33638D01*
X86589Y33610D01*
X86572Y33586D01*
X86538Y33478D01*
X86498Y33372D01*
X86496Y33343D01*
X86487Y33315D01*
X86484Y33201D01*
X86474Y33089D01*
X86480Y33060D01*
X86479Y33031D01*
X86508Y32921D01*
X86530Y32810D01*
X86544Y32784D01*
X86551Y32756D01*
X86609Y32658D01*
X86661Y32558D01*
X86681Y32536D01*
X86696Y32511D01*
X86779Y32434D01*
X86857Y32352D01*
X86882Y32337D01*
X86904Y32317D01*
X87005Y32265D01*
X87102Y32208D01*
X87131Y32201D01*
X87157Y32187D01*
X87234Y32174D01*
X87378Y32138D01*
X87440Y32140D01*
X87488Y32132D01*
X90239Y32132D01*
X92713Y31107D01*
X94532Y29288D01*
X94579Y29253D01*
X94619Y29210D01*
X94692Y29168D01*
X94759Y29117D01*
X94814Y29096D01*
X94864Y29067D01*
X94946Y29046D01*
X95025Y29016D01*
X95083Y29011D01*
X95140Y28997D01*
X95224Y28999D01*
X95308Y28992D01*
X95366Y29004D01*
X95424Y29006D01*
X95504Y29032D01*
X95587Y29048D01*
X95639Y29075D01*
X95695Y29093D01*
X95751Y29133D01*
X95839Y29179D01*
X95912Y29248D01*
X95968Y29288D01*
X97787Y31107D01*
X100261Y32132D01*
X100726Y32132D01*
X100813Y32144D01*
X100900Y32147D01*
X100953Y32164D01*
X101007Y32172D01*
X101087Y32207D01*
X101171Y32234D01*
X101210Y32262D01*
X101267Y32288D01*
X101380Y32384D01*
X101444Y32429D01*
X107525Y38510D01*
X107577Y38580D01*
X107637Y38644D01*
X107663Y38693D01*
X107696Y38737D01*
X107727Y38819D01*
X107767Y38897D01*
X107775Y38945D01*
X107797Y39003D01*
X107809Y39151D01*
X107822Y39228D01*
X107822Y39388D01*
X108808Y41769D01*
X110631Y43592D01*
X113012Y44578D01*
X115588Y44578D01*
X117969Y43592D01*
X119792Y41769D01*
X120292Y40562D01*
X120350Y40463D01*
X120403Y40361D01*
X120422Y40341D01*
X120436Y40317D01*
X120520Y40238D01*
X120599Y40155D01*
X120623Y40141D01*
X120643Y40122D01*
X120745Y40069D01*
X120844Y40011D01*
X120871Y40005D01*
X120896Y39992D01*
X121008Y39970D01*
X121119Y39941D01*
X121147Y39942D01*
X121174Y39937D01*
X121289Y39947D01*
X121404Y39950D01*
X121430Y39959D01*
X121458Y39961D01*
X121565Y40003D01*
X121674Y40038D01*
X121694Y40052D01*
X121723Y40063D01*
X121935Y40224D01*
X121947Y40233D01*
X138092Y56377D01*
X139959Y57151D01*
X209291Y57151D01*
X211158Y56377D01*
X212730Y54805D01*
X218818Y48717D01*
X218842Y48699D01*
X218861Y48677D01*
X218955Y48614D01*
X219045Y48546D01*
X219073Y48536D01*
X219097Y48519D01*
X219205Y48485D01*
X219311Y48445D01*
X219340Y48443D01*
X219368Y48434D01*
X219482Y48431D01*
X219594Y48421D01*
X219623Y48427D01*
X219652Y48426D01*
X219762Y48455D01*
X219873Y48477D01*
X219899Y48491D01*
X219927Y48498D01*
X220025Y48556D01*
X220125Y48608D01*
X220147Y48628D01*
X220172Y48643D01*
X220249Y48726D01*
X220331Y48804D01*
X220346Y48829D01*
X220366Y48851D01*
X220418Y48952D01*
X220475Y49049D01*
X220482Y49078D01*
X220496Y49104D01*
X220509Y49181D01*
X220545Y49325D01*
X220543Y49387D01*
X220551Y49435D01*
X220551Y52401D01*
X221777Y55359D01*
X224041Y57623D01*
X226999Y58849D01*
X230201Y58849D01*
X233159Y57623D01*
X235423Y55359D01*
X236649Y52401D01*
X236649Y49199D01*
X235423Y46241D01*
X233159Y43977D01*
X230201Y42751D01*
X226999Y42751D01*
X224041Y43977D01*
X222714Y45304D01*
X222690Y45321D01*
X222671Y45344D01*
X222577Y45406D01*
X222487Y45474D01*
X222459Y45485D01*
X222435Y45501D01*
X222327Y45535D01*
X222221Y45576D01*
X222192Y45578D01*
X222164Y45587D01*
X222050Y45590D01*
X221938Y45599D01*
X221909Y45593D01*
X221880Y45594D01*
X221770Y45566D01*
X221659Y45543D01*
X221633Y45530D01*
X221605Y45522D01*
X221507Y45465D01*
X221407Y45412D01*
X221385Y45392D01*
X221360Y45377D01*
X221283Y45295D01*
X221201Y45217D01*
X221186Y45191D01*
X221166Y45170D01*
X221114Y45069D01*
X221057Y44971D01*
X221050Y44943D01*
X221036Y44917D01*
X221023Y44839D01*
X220987Y44696D01*
X220989Y44633D01*
X220981Y44586D01*
X220981Y30260D01*
X220993Y30173D01*
X220996Y30086D01*
X221013Y30033D01*
X221021Y29978D01*
X221056Y29899D01*
X221083Y29815D01*
X221111Y29776D01*
X221137Y29719D01*
X221233Y29606D01*
X221278Y29542D01*
X221607Y29213D01*
X222632Y26739D01*
X222632Y24061D01*
X221607Y21587D01*
X219788Y19768D01*
X219753Y19721D01*
X219710Y19681D01*
X219668Y19608D01*
X219617Y19541D01*
X219596Y19486D01*
X219567Y19436D01*
X219546Y19354D01*
X219516Y19275D01*
X219511Y19217D01*
X219497Y19160D01*
X219499Y19076D01*
X219492Y18992D01*
X219504Y18934D01*
X219506Y18876D01*
X219532Y18796D01*
X219548Y18713D01*
X219575Y18661D01*
X219593Y18605D01*
X219633Y18549D01*
X219679Y18461D01*
X219748Y18388D01*
X219788Y18332D01*
X221607Y16513D01*
X222632Y14039D01*
X222632Y11361D01*
X221607Y8887D01*
X219713Y6993D01*
X217239Y5968D01*
X214561Y5968D01*
X212087Y6993D01*
X210268Y8812D01*
X210221Y8847D01*
X210181Y8890D01*
X210108Y8932D01*
X210041Y8983D01*
X209986Y9004D01*
X209936Y9033D01*
X209854Y9054D01*
X209775Y9084D01*
X209717Y9089D01*
X209660Y9103D01*
X209576Y9101D01*
X209492Y9108D01*
X209434Y9096D01*
X209376Y9094D01*
X209296Y9068D01*
X209213Y9052D01*
X209161Y9025D01*
X209105Y9007D01*
X209049Y8967D01*
X208961Y8921D01*
X208888Y8852D01*
X208832Y8812D01*
X207013Y6993D01*
X204539Y5968D01*
X201861Y5968D01*
X199387Y6993D01*
X197568Y8812D01*
X197521Y8847D01*
X197481Y8890D01*
X197408Y8932D01*
X197341Y8983D01*
X197286Y9004D01*
X197236Y9033D01*
X197154Y9054D01*
X197075Y9084D01*
X197017Y9089D01*
X196960Y9103D01*
X196876Y9101D01*
X196792Y9108D01*
X196734Y9096D01*
X196676Y9094D01*
X196596Y9068D01*
X196513Y9052D01*
X196461Y9025D01*
X196405Y9007D01*
X196349Y8967D01*
X196261Y8921D01*
X196188Y8852D01*
X196132Y8812D01*
X194313Y6993D01*
X191839Y5968D01*
X189161Y5968D01*
X186687Y6993D01*
X184793Y8887D01*
X184733Y9031D01*
X184697Y9094D01*
X184669Y9160D01*
X184625Y9215D01*
X184589Y9276D01*
X184536Y9326D01*
X184491Y9382D01*
X184434Y9423D01*
X184382Y9471D01*
X184318Y9504D01*
X184259Y9546D01*
X184192Y9569D01*
X184129Y9601D01*
X184058Y9615D01*
X183990Y9639D01*
X183920Y9643D01*
X183850Y9657D01*
X183778Y9650D01*
X183706Y9654D01*
X183638Y9638D01*
X183567Y9632D01*
X183500Y9606D01*
X183429Y9590D01*
X183368Y9555D01*
X183302Y9530D01*
X183244Y9487D01*
X183181Y9451D01*
X183140Y9408D01*
X183075Y9358D01*
X183003Y9262D01*
X182951Y9207D01*
X182634Y8733D01*
X181768Y7866D01*
X180748Y7185D01*
X179615Y6715D01*
X178879Y6569D01*
X178879Y12636D01*
X178871Y12694D01*
X178872Y12753D01*
X178851Y12834D01*
X178839Y12918D01*
X178815Y12971D01*
X178800Y13028D01*
X178757Y13100D01*
X178723Y13177D01*
X178685Y13222D01*
X178655Y13272D01*
X178593Y13330D01*
X178539Y13394D01*
X178519Y13407D01*
X178466Y13457D01*
X178412Y13521D01*
X178363Y13554D01*
X178320Y13594D01*
X178245Y13632D01*
X178175Y13679D01*
X178119Y13697D01*
X178067Y13723D01*
X177999Y13735D01*
X177904Y13765D01*
X177804Y13767D01*
X177736Y13779D01*
X166179Y13779D01*
X166179Y25336D01*
X166171Y25394D01*
X166171Y25419D01*
X166179Y25464D01*
X166179Y31531D01*
X166915Y31385D01*
X168048Y30915D01*
X169068Y30234D01*
X169934Y29367D01*
X170251Y28893D01*
X170299Y28839D01*
X170340Y28779D01*
X170394Y28734D01*
X170441Y28681D01*
X170502Y28643D01*
X170557Y28596D01*
X170622Y28568D01*
X170681Y28530D01*
X170751Y28510D01*
X170817Y28481D01*
X170887Y28471D01*
X170955Y28452D01*
X171027Y28452D01*
X171098Y28442D01*
X171168Y28452D01*
X171239Y28452D01*
X171308Y28472D01*
X171380Y28483D01*
X171444Y28512D01*
X171512Y28531D01*
X171573Y28570D01*
X171639Y28600D01*
X171693Y28646D01*
X171752Y28683D01*
X171800Y28737D01*
X171855Y28784D01*
X171887Y28835D01*
X171941Y28896D01*
X171993Y29004D01*
X172033Y29069D01*
X172093Y29213D01*
X173987Y31107D01*
X176461Y32132D01*
X179139Y32132D01*
X181613Y31107D01*
X183432Y29288D01*
X183479Y29253D01*
X183519Y29210D01*
X183592Y29168D01*
X183659Y29117D01*
X183714Y29096D01*
X183764Y29067D01*
X183846Y29046D01*
X183925Y29016D01*
X183983Y29011D01*
X184040Y28997D01*
X184124Y28999D01*
X184208Y28992D01*
X184266Y29004D01*
X184324Y29006D01*
X184404Y29032D01*
X184487Y29048D01*
X184539Y29075D01*
X184595Y29093D01*
X184651Y29133D01*
X184739Y29179D01*
X184812Y29248D01*
X184868Y29288D01*
X186687Y31107D01*
X189161Y32132D01*
X191839Y32132D01*
X194313Y31107D01*
X196132Y29288D01*
X196179Y29253D01*
X196219Y29210D01*
X196292Y29168D01*
X196359Y29117D01*
X196414Y29096D01*
X196464Y29067D01*
X196546Y29046D01*
X196625Y29016D01*
X196683Y29011D01*
X196740Y28997D01*
X196824Y28999D01*
X196908Y28992D01*
X196966Y29004D01*
X197024Y29006D01*
X197104Y29032D01*
X197187Y29048D01*
X197239Y29075D01*
X197294Y29093D01*
X197351Y29133D01*
X197439Y29179D01*
X197512Y29248D01*
X197568Y29288D01*
X197822Y29542D01*
X197874Y29612D01*
X197934Y29676D01*
X197960Y29725D01*
X197993Y29769D01*
X198024Y29851D01*
X198064Y29929D01*
X198072Y29976D01*
X198094Y30035D01*
X198106Y30183D01*
X198119Y30260D01*
X198119Y35575D01*
X198112Y35627D01*
X198113Y35653D01*
X198107Y35676D01*
X198104Y35749D01*
X198087Y35802D01*
X198079Y35856D01*
X198044Y35936D01*
X198017Y36019D01*
X197989Y36059D01*
X197963Y36116D01*
X197867Y36229D01*
X197822Y36293D01*
X193011Y41104D01*
X192941Y41156D01*
X192877Y41216D01*
X192828Y41242D01*
X192784Y41275D01*
X192702Y41306D01*
X192624Y41346D01*
X192576Y41354D01*
X192518Y41376D01*
X192370Y41388D01*
X192293Y41401D01*
X150607Y41401D01*
X150520Y41389D01*
X150433Y41386D01*
X150380Y41369D01*
X150326Y41361D01*
X150246Y41326D01*
X150163Y41299D01*
X150123Y41271D01*
X150066Y41245D01*
X149953Y41149D01*
X149889Y41104D01*
X133775Y24990D01*
X133723Y24920D01*
X133663Y24856D01*
X133637Y24807D01*
X133604Y24763D01*
X133573Y24681D01*
X133533Y24603D01*
X133525Y24555D01*
X133503Y24497D01*
X133491Y24349D01*
X133478Y24272D01*
X133478Y24112D01*
X132492Y21731D01*
X130669Y19908D01*
X128288Y18922D01*
X125712Y18922D01*
X123331Y19908D01*
X121548Y21692D01*
X121501Y21727D01*
X121460Y21769D01*
X121388Y21812D01*
X121320Y21863D01*
X121266Y21883D01*
X121215Y21913D01*
X121134Y21934D01*
X121055Y21964D01*
X120996Y21969D01*
X120940Y21983D01*
X120855Y21980D01*
X120771Y21987D01*
X120714Y21976D01*
X120656Y21974D01*
X120575Y21948D01*
X120493Y21931D01*
X120441Y21904D01*
X120385Y21886D01*
X120329Y21846D01*
X120240Y21800D01*
X120168Y21732D01*
X120112Y21692D01*
X118188Y19768D01*
X118153Y19721D01*
X118110Y19681D01*
X118068Y19608D01*
X118017Y19541D01*
X117996Y19486D01*
X117967Y19436D01*
X117946Y19354D01*
X117916Y19275D01*
X117911Y19217D01*
X117897Y19160D01*
X117899Y19076D01*
X117892Y18992D01*
X117904Y18934D01*
X117906Y18876D01*
X117932Y18796D01*
X117948Y18713D01*
X117975Y18661D01*
X117993Y18605D01*
X118033Y18549D01*
X118079Y18461D01*
X118148Y18388D01*
X118188Y18332D01*
X120007Y16513D01*
X121032Y14039D01*
X121032Y11361D01*
X120007Y8887D01*
X118113Y6993D01*
X115639Y5968D01*
X112961Y5968D01*
X110487Y6993D01*
X108668Y8812D01*
X108621Y8847D01*
X108581Y8890D01*
X108508Y8932D01*
X108441Y8983D01*
X108386Y9004D01*
X108336Y9033D01*
X108254Y9054D01*
X108175Y9084D01*
X108117Y9089D01*
X108060Y9103D01*
X107976Y9101D01*
X107892Y9108D01*
X107834Y9096D01*
X107776Y9094D01*
X107696Y9068D01*
X107613Y9052D01*
X107561Y9025D01*
X107505Y9007D01*
X107449Y8967D01*
X107361Y8921D01*
X107288Y8852D01*
X107232Y8812D01*
X105413Y6993D01*
X102939Y5968D01*
X100261Y5968D01*
X97787Y6993D01*
X95968Y8812D01*
X95921Y8847D01*
X95881Y8890D01*
X95808Y8932D01*
X95741Y8983D01*
X95686Y9004D01*
X95636Y9033D01*
X95554Y9054D01*
X95475Y9084D01*
X95417Y9089D01*
X95360Y9103D01*
X95276Y9101D01*
X95192Y9108D01*
X95134Y9096D01*
X95076Y9094D01*
X94996Y9068D01*
X94913Y9052D01*
X94861Y9025D01*
X94805Y9007D01*
X94749Y8967D01*
X94661Y8921D01*
X94588Y8852D01*
X94532Y8812D01*
X92713Y6993D01*
X90239Y5968D01*
X87561Y5968D01*
G37*
%LPD*%
%LPC*%
G36*
X49199Y220551D02*
X49199Y220551D01*
X46241Y221777D01*
X43977Y224041D01*
X42751Y226999D01*
X42751Y230201D01*
X43977Y233159D01*
X46241Y235423D01*
X49199Y236649D01*
X52401Y236649D01*
X55359Y235423D01*
X57623Y233159D01*
X58849Y230201D01*
X58849Y226999D01*
X57623Y224041D01*
X55359Y221777D01*
X52401Y220551D01*
X49199Y220551D01*
G37*
%LPD*%
%LPC*%
G36*
X57369Y13779D02*
X57369Y13779D01*
X57515Y14515D01*
X57985Y15648D01*
X58666Y16668D01*
X59533Y17534D01*
X60538Y18206D01*
X60623Y18282D01*
X60713Y18354D01*
X60729Y18377D01*
X60750Y18395D01*
X60811Y18492D01*
X60877Y18586D01*
X60886Y18613D01*
X60901Y18636D01*
X60932Y18746D01*
X60970Y18855D01*
X60971Y18883D01*
X60979Y18909D01*
X60979Y19024D01*
X60985Y19139D01*
X60979Y19166D01*
X60979Y19194D01*
X60947Y19304D01*
X60921Y19416D01*
X60907Y19440D01*
X60899Y19467D01*
X60838Y19564D01*
X60782Y19664D01*
X60764Y19681D01*
X60748Y19707D01*
X60548Y19884D01*
X60538Y19894D01*
X60535Y19896D01*
X59533Y20566D01*
X58666Y21432D01*
X57985Y22452D01*
X57515Y23585D01*
X57369Y24321D01*
X62421Y24321D01*
X62421Y13779D01*
X57369Y13779D01*
G37*
%LPD*%
%LPC*%
G36*
X158969Y13779D02*
X158969Y13779D01*
X159115Y14515D01*
X159585Y15648D01*
X160266Y16668D01*
X161133Y17534D01*
X162138Y18206D01*
X162223Y18282D01*
X162313Y18354D01*
X162329Y18377D01*
X162350Y18395D01*
X162411Y18493D01*
X162477Y18586D01*
X162486Y18613D01*
X162501Y18636D01*
X162532Y18747D01*
X162570Y18855D01*
X162571Y18883D01*
X162579Y18909D01*
X162579Y19024D01*
X162585Y19139D01*
X162579Y19166D01*
X162579Y19194D01*
X162547Y19304D01*
X162521Y19416D01*
X162507Y19440D01*
X162499Y19467D01*
X162438Y19563D01*
X162382Y19664D01*
X162364Y19681D01*
X162348Y19707D01*
X162149Y19884D01*
X162138Y19894D01*
X161133Y20566D01*
X160266Y21432D01*
X159585Y22452D01*
X159115Y23585D01*
X158969Y24321D01*
X164021Y24321D01*
X164021Y13779D01*
X158969Y13779D01*
G37*
%LPD*%
%LPC*%
G36*
X74385Y6715D02*
X74385Y6715D01*
X73252Y7185D01*
X72232Y7866D01*
X71366Y8733D01*
X70694Y9738D01*
X70672Y9763D01*
X70664Y9776D01*
X70639Y9799D01*
X70618Y9823D01*
X70546Y9913D01*
X70523Y9929D01*
X70505Y9950D01*
X70408Y10011D01*
X70314Y10077D01*
X70287Y10086D01*
X70264Y10101D01*
X70154Y10132D01*
X70045Y10170D01*
X70017Y10171D01*
X69991Y10179D01*
X69876Y10179D01*
X69761Y10185D01*
X69734Y10179D01*
X69706Y10179D01*
X69596Y10147D01*
X69484Y10121D01*
X69460Y10107D01*
X69433Y10099D01*
X69336Y10038D01*
X69236Y9982D01*
X69219Y9964D01*
X69193Y9948D01*
X69094Y9836D01*
X69070Y9816D01*
X69052Y9789D01*
X69016Y9748D01*
X69006Y9738D01*
X69004Y9735D01*
X68334Y8733D01*
X67468Y7866D01*
X66448Y7185D01*
X65315Y6715D01*
X64579Y6569D01*
X64579Y11621D01*
X75121Y11621D01*
X75121Y6569D01*
X74385Y6715D01*
G37*
%LPD*%
%LPC*%
G36*
X175985Y6715D02*
X175985Y6715D01*
X174852Y7185D01*
X173832Y7866D01*
X172966Y8733D01*
X172294Y9738D01*
X172272Y9763D01*
X172264Y9776D01*
X172239Y9799D01*
X172218Y9823D01*
X172146Y9913D01*
X172123Y9929D01*
X172105Y9950D01*
X172008Y10011D01*
X171914Y10077D01*
X171887Y10086D01*
X171864Y10101D01*
X171754Y10132D01*
X171645Y10170D01*
X171617Y10171D01*
X171591Y10179D01*
X171476Y10179D01*
X171361Y10185D01*
X171334Y10179D01*
X171306Y10179D01*
X171196Y10147D01*
X171084Y10121D01*
X171060Y10107D01*
X171033Y10099D01*
X170936Y10038D01*
X170836Y9982D01*
X170819Y9964D01*
X170793Y9948D01*
X170694Y9836D01*
X170670Y9816D01*
X170652Y9789D01*
X170616Y9748D01*
X170606Y9738D01*
X170604Y9735D01*
X169934Y8733D01*
X169068Y7866D01*
X168048Y7185D01*
X166915Y6715D01*
X166179Y6569D01*
X166179Y11621D01*
X176721Y11621D01*
X176721Y6569D01*
X175985Y6715D01*
G37*
%LPD*%
%LPC*%
G36*
X57369Y26479D02*
X57369Y26479D01*
X57515Y27215D01*
X57985Y28348D01*
X58666Y29368D01*
X59532Y30234D01*
X60552Y30915D01*
X61685Y31385D01*
X62421Y31531D01*
X62421Y26479D01*
X57369Y26479D01*
G37*
%LPD*%
%LPC*%
G36*
X158969Y26479D02*
X158969Y26479D01*
X159115Y27215D01*
X159585Y28348D01*
X160266Y29368D01*
X161132Y30234D01*
X162152Y30915D01*
X163285Y31385D01*
X164021Y31531D01*
X164021Y26479D01*
X158969Y26479D01*
G37*
%LPD*%
%LPC*%
G36*
X61685Y6715D02*
X61685Y6715D01*
X60552Y7185D01*
X59532Y7866D01*
X58666Y8732D01*
X57985Y9752D01*
X57515Y10885D01*
X57369Y11621D01*
X62421Y11621D01*
X62421Y6569D01*
X61685Y6715D01*
G37*
%LPD*%
%LPC*%
G36*
X163285Y6715D02*
X163285Y6715D01*
X162152Y7185D01*
X161132Y7866D01*
X160266Y8732D01*
X159585Y9752D01*
X159115Y10885D01*
X158969Y11621D01*
X164021Y11621D01*
X164021Y6569D01*
X163285Y6715D01*
G37*
%LPD*%
D10*
X63500Y12700D03*
X63500Y25400D03*
X76200Y12700D03*
X76200Y25400D03*
X88900Y12700D03*
X88900Y25400D03*
X101600Y12700D03*
X101600Y25400D03*
X114300Y12700D03*
X114300Y25400D03*
X165100Y12700D03*
X165100Y25400D03*
X177800Y12700D03*
X177800Y25400D03*
X190500Y12700D03*
X190500Y25400D03*
X203200Y12700D03*
X203200Y25400D03*
X215900Y12700D03*
X215900Y25400D03*
D11*
X50800Y228600D03*
X228600Y50800D03*
D12*
X81280Y156210D03*
X36830Y177800D03*
X39370Y138430D03*
X9525Y207010D03*
X132080Y127000D03*
X128270Y11430D03*
X168910Y142240D03*
X63500Y266700D03*
X114300Y266700D03*
X165100Y266700D03*
X215900Y266700D03*
X215900Y215900D03*
X266700Y215900D03*
X63500Y215900D03*
X114300Y215900D03*
X165100Y215900D03*
X215900Y165100D03*
X266700Y165100D03*
X266700Y114300D03*
X215900Y114300D03*
X215900Y63500D03*
X266700Y63500D03*
D13*
X76200Y30480D02*
X76200Y25400D01*
D12*
X100330Y54610D03*
D13*
X76200Y30480D01*
X101600Y25400D02*
X114300Y38100D01*
D12*
X114300Y38100D03*
X127000Y25400D03*
D13*
X148082Y46482D01*
X203200Y38100D02*
X203200Y25400D01*
X194818Y46482D02*
X148082Y46482D01*
X194818Y46482D02*
X203200Y38100D01*
X215900Y44450D02*
X215900Y25400D01*
X215900Y44450D02*
X208280Y52070D01*
X140970Y52070D01*
X114300Y25400D01*
M02*
