G04 EAGLE Gerber RS-274X export*
G75*
%MOMM*%
%FSLAX34Y34*%
%LPD*%
%INSilkscreen Top*%
%IPPOS*%
%AMOC8*
5,1,8,0,0,1.08239X$1,22.5*%
G01*
%ADD10C,0.203200*%
%ADD11C,0.127000*%
%ADD12C,0.508000*%
%ADD13C,0.254000*%
%ADD14C,0.015238*%
%ADD15C,0.152400*%
%ADD16C,0.406400*%

G36*
X149711Y50345D02*
X149711Y50345D01*
X149774Y50358D01*
X149824Y50358D01*
X159652Y52028D01*
X159714Y52048D01*
X159763Y52053D01*
X169343Y54813D01*
X169402Y54840D01*
X169450Y54851D01*
X178661Y58666D01*
X178717Y58699D01*
X178763Y58715D01*
X187489Y63538D01*
X187540Y63577D01*
X187585Y63598D01*
X195716Y69367D01*
X195763Y69412D01*
X195805Y69438D01*
X203238Y76081D01*
X203280Y76131D01*
X203319Y76162D01*
X209962Y83595D01*
X209982Y83625D01*
X209985Y83628D01*
X210002Y83654D01*
X210033Y83684D01*
X215802Y91815D01*
X215832Y91872D01*
X215862Y91911D01*
X220685Y100637D01*
X220708Y100697D01*
X220734Y100739D01*
X224549Y109950D01*
X224565Y110012D01*
X224587Y110057D01*
X227347Y119637D01*
X227356Y119701D01*
X227372Y119748D01*
X229042Y129576D01*
X229044Y129641D01*
X229055Y129689D01*
X229614Y139643D01*
X229608Y139708D01*
X229614Y139757D01*
X229055Y149711D01*
X229042Y149774D01*
X229042Y149824D01*
X227372Y159652D01*
X227352Y159714D01*
X227347Y159763D01*
X224587Y169343D01*
X224560Y169402D01*
X224549Y169450D01*
X220734Y178661D01*
X220701Y178717D01*
X220685Y178763D01*
X215862Y187489D01*
X215823Y187540D01*
X215802Y187585D01*
X210033Y195716D01*
X209988Y195763D01*
X209962Y195805D01*
X203319Y203238D01*
X203269Y203280D01*
X203238Y203319D01*
X195805Y209962D01*
X195761Y209991D01*
X195741Y210009D01*
X195737Y210011D01*
X195716Y210033D01*
X192887Y212040D01*
X190025Y214070D01*
X187585Y215802D01*
X187528Y215832D01*
X187489Y215862D01*
X178763Y220685D01*
X178703Y220708D01*
X178661Y220734D01*
X169450Y224549D01*
X169388Y224565D01*
X169343Y224587D01*
X159763Y227347D01*
X159699Y227356D01*
X159652Y227372D01*
X149824Y229042D01*
X149759Y229044D01*
X149711Y229055D01*
X139757Y229614D01*
X139694Y229608D01*
X139646Y229614D01*
X129776Y229087D01*
X129716Y229075D01*
X129669Y229075D01*
X119912Y227501D01*
X119853Y227483D01*
X119806Y227478D01*
X110272Y224874D01*
X110215Y224850D01*
X110169Y224840D01*
X100966Y221235D01*
X100913Y221205D01*
X100868Y221191D01*
X92101Y216627D01*
X92051Y216591D01*
X92008Y216572D01*
X83776Y211101D01*
X83731Y211060D01*
X83690Y211036D01*
X76088Y204720D01*
X76046Y204675D01*
X76008Y204647D01*
X69122Y197557D01*
X69109Y197540D01*
X69092Y197526D01*
X69025Y197425D01*
X68954Y197328D01*
X68947Y197307D01*
X68935Y197289D01*
X68898Y197174D01*
X68857Y197061D01*
X68855Y197039D01*
X68849Y197018D01*
X68846Y196897D01*
X68837Y196777D01*
X68842Y196756D01*
X68841Y196734D01*
X68872Y196617D01*
X68897Y196499D01*
X68908Y196480D01*
X68913Y196459D01*
X68975Y196355D01*
X69032Y196249D01*
X69047Y196233D01*
X69059Y196214D01*
X69146Y196132D01*
X69231Y196046D01*
X69250Y196035D01*
X69266Y196020D01*
X69373Y195965D01*
X69478Y195905D01*
X69499Y195900D01*
X69519Y195890D01*
X69594Y195878D01*
X69755Y195839D01*
X69808Y195842D01*
X69850Y195835D01*
X151980Y195835D01*
X154560Y193255D01*
X154560Y127421D01*
X148805Y121665D01*
X98846Y121665D01*
X96265Y124246D01*
X96265Y152400D01*
X96253Y152487D01*
X96250Y152574D01*
X96233Y152627D01*
X96225Y152682D01*
X96190Y152761D01*
X96163Y152845D01*
X96135Y152884D01*
X96109Y152941D01*
X96013Y153054D01*
X95968Y153118D01*
X89618Y159468D01*
X89548Y159520D01*
X89484Y159580D01*
X89435Y159606D01*
X89391Y159639D01*
X89309Y159670D01*
X89231Y159710D01*
X89184Y159718D01*
X89125Y159740D01*
X88977Y159752D01*
X88900Y159765D01*
X57150Y159765D01*
X57063Y159753D01*
X56976Y159750D01*
X56923Y159733D01*
X56869Y159725D01*
X56789Y159690D01*
X56705Y159663D01*
X56666Y159635D01*
X56609Y159609D01*
X56496Y159513D01*
X56432Y159468D01*
X50082Y153118D01*
X50030Y153048D01*
X49970Y152984D01*
X49944Y152935D01*
X49911Y152891D01*
X49880Y152809D01*
X49840Y152731D01*
X49832Y152684D01*
X49810Y152625D01*
X49799Y152494D01*
X49799Y152493D01*
X49799Y152488D01*
X49798Y152477D01*
X49785Y152400D01*
X49785Y139700D01*
X49789Y139669D01*
X49786Y139643D01*
X50345Y129689D01*
X50358Y129626D01*
X50358Y129576D01*
X52028Y119748D01*
X52048Y119686D01*
X52053Y119637D01*
X54813Y110057D01*
X54840Y109998D01*
X54851Y109950D01*
X58666Y100739D01*
X58699Y100683D01*
X58715Y100637D01*
X63538Y91911D01*
X63577Y91860D01*
X63598Y91815D01*
X69367Y83684D01*
X69378Y83673D01*
X69381Y83667D01*
X69397Y83653D01*
X69412Y83637D01*
X69438Y83595D01*
X76081Y76162D01*
X76131Y76120D01*
X76162Y76081D01*
X83595Y69438D01*
X83649Y69402D01*
X83684Y69367D01*
X91815Y63598D01*
X91872Y63569D01*
X91911Y63538D01*
X100637Y58715D01*
X100697Y58692D01*
X100739Y58666D01*
X109950Y54851D01*
X110012Y54835D01*
X110057Y54813D01*
X119637Y52053D01*
X119701Y52044D01*
X119748Y52028D01*
X129576Y50358D01*
X129641Y50356D01*
X129689Y50345D01*
X139643Y49786D01*
X139708Y49792D01*
X139757Y49786D01*
X149711Y50345D01*
G37*
D10*
X59351Y49784D02*
X59351Y39116D01*
X58166Y39116D02*
X60537Y39116D01*
X60537Y49784D02*
X58166Y49784D01*
X65913Y49784D02*
X65913Y39116D01*
X71840Y39116D02*
X65913Y49784D01*
X71840Y49784D02*
X71840Y39116D01*
X159766Y42079D02*
X159766Y46821D01*
X159768Y46928D01*
X159774Y47035D01*
X159783Y47141D01*
X159797Y47247D01*
X159814Y47353D01*
X159835Y47458D01*
X159860Y47562D01*
X159889Y47665D01*
X159921Y47767D01*
X159957Y47868D01*
X159997Y47967D01*
X160040Y48065D01*
X160087Y48161D01*
X160137Y48256D01*
X160190Y48349D01*
X160247Y48439D01*
X160307Y48528D01*
X160370Y48614D01*
X160436Y48698D01*
X160506Y48780D01*
X160578Y48859D01*
X160653Y48935D01*
X160731Y49009D01*
X160811Y49079D01*
X160894Y49147D01*
X160979Y49212D01*
X161066Y49273D01*
X161156Y49332D01*
X161248Y49387D01*
X161341Y49439D01*
X161437Y49487D01*
X161534Y49532D01*
X161632Y49574D01*
X161732Y49611D01*
X161834Y49646D01*
X161936Y49676D01*
X162040Y49703D01*
X162144Y49726D01*
X162250Y49745D01*
X162356Y49760D01*
X162462Y49772D01*
X162569Y49780D01*
X162676Y49784D01*
X162782Y49784D01*
X162889Y49780D01*
X162996Y49772D01*
X163102Y49760D01*
X163208Y49745D01*
X163314Y49726D01*
X163418Y49703D01*
X163522Y49676D01*
X163624Y49646D01*
X163726Y49611D01*
X163826Y49574D01*
X163924Y49532D01*
X164021Y49487D01*
X164117Y49439D01*
X164211Y49387D01*
X164302Y49332D01*
X164392Y49273D01*
X164479Y49212D01*
X164564Y49147D01*
X164647Y49079D01*
X164727Y49009D01*
X164805Y48935D01*
X164880Y48859D01*
X164952Y48780D01*
X165022Y48698D01*
X165088Y48614D01*
X165151Y48528D01*
X165211Y48439D01*
X165268Y48349D01*
X165321Y48256D01*
X165371Y48161D01*
X165418Y48065D01*
X165461Y47967D01*
X165501Y47868D01*
X165537Y47767D01*
X165569Y47665D01*
X165598Y47562D01*
X165623Y47458D01*
X165644Y47353D01*
X165661Y47247D01*
X165675Y47141D01*
X165684Y47035D01*
X165690Y46928D01*
X165692Y46821D01*
X165693Y46821D02*
X165693Y42079D01*
X165692Y42079D02*
X165690Y41972D01*
X165684Y41865D01*
X165675Y41759D01*
X165661Y41653D01*
X165644Y41547D01*
X165623Y41442D01*
X165598Y41338D01*
X165569Y41235D01*
X165537Y41133D01*
X165501Y41032D01*
X165461Y40933D01*
X165418Y40835D01*
X165371Y40739D01*
X165321Y40644D01*
X165268Y40551D01*
X165211Y40461D01*
X165151Y40372D01*
X165088Y40286D01*
X165022Y40202D01*
X164952Y40120D01*
X164880Y40041D01*
X164805Y39965D01*
X164727Y39891D01*
X164647Y39821D01*
X164564Y39753D01*
X164479Y39688D01*
X164392Y39627D01*
X164302Y39568D01*
X164210Y39513D01*
X164117Y39461D01*
X164021Y39413D01*
X163924Y39368D01*
X163826Y39326D01*
X163726Y39289D01*
X163624Y39254D01*
X163522Y39224D01*
X163418Y39197D01*
X163314Y39174D01*
X163208Y39155D01*
X163102Y39140D01*
X162996Y39128D01*
X162889Y39120D01*
X162782Y39116D01*
X162676Y39116D01*
X162569Y39120D01*
X162462Y39128D01*
X162356Y39140D01*
X162250Y39155D01*
X162144Y39174D01*
X162040Y39197D01*
X161936Y39224D01*
X161834Y39254D01*
X161732Y39289D01*
X161632Y39326D01*
X161534Y39368D01*
X161437Y39413D01*
X161341Y39461D01*
X161248Y39513D01*
X161156Y39568D01*
X161066Y39627D01*
X160979Y39688D01*
X160894Y39753D01*
X160811Y39821D01*
X160731Y39891D01*
X160653Y39965D01*
X160578Y40041D01*
X160506Y40120D01*
X160436Y40202D01*
X160370Y40286D01*
X160307Y40372D01*
X160247Y40461D01*
X160190Y40551D01*
X160137Y40644D01*
X160087Y40739D01*
X160040Y40835D01*
X159997Y40933D01*
X159957Y41032D01*
X159921Y41133D01*
X159889Y41235D01*
X159860Y41338D01*
X159835Y41442D01*
X159814Y41547D01*
X159797Y41653D01*
X159783Y41759D01*
X159774Y41865D01*
X159768Y41972D01*
X159766Y42079D01*
X171577Y42079D02*
X171577Y49784D01*
X171577Y42079D02*
X171579Y41972D01*
X171585Y41865D01*
X171594Y41759D01*
X171608Y41653D01*
X171625Y41547D01*
X171646Y41442D01*
X171671Y41338D01*
X171700Y41235D01*
X171732Y41133D01*
X171768Y41032D01*
X171808Y40933D01*
X171851Y40835D01*
X171898Y40739D01*
X171948Y40644D01*
X172001Y40551D01*
X172058Y40461D01*
X172118Y40372D01*
X172181Y40286D01*
X172247Y40202D01*
X172317Y40120D01*
X172389Y40041D01*
X172464Y39965D01*
X172542Y39891D01*
X172622Y39821D01*
X172705Y39753D01*
X172790Y39688D01*
X172877Y39627D01*
X172967Y39568D01*
X173059Y39513D01*
X173152Y39461D01*
X173248Y39413D01*
X173345Y39368D01*
X173443Y39326D01*
X173543Y39289D01*
X173645Y39254D01*
X173747Y39224D01*
X173851Y39197D01*
X173955Y39174D01*
X174061Y39155D01*
X174167Y39140D01*
X174273Y39128D01*
X174380Y39120D01*
X174487Y39116D01*
X174593Y39116D01*
X174700Y39120D01*
X174807Y39128D01*
X174913Y39140D01*
X175019Y39155D01*
X175125Y39174D01*
X175229Y39197D01*
X175333Y39224D01*
X175435Y39254D01*
X175537Y39289D01*
X175637Y39326D01*
X175735Y39368D01*
X175832Y39413D01*
X175928Y39461D01*
X176021Y39513D01*
X176113Y39568D01*
X176203Y39627D01*
X176290Y39688D01*
X176375Y39753D01*
X176458Y39821D01*
X176538Y39891D01*
X176616Y39965D01*
X176691Y40041D01*
X176763Y40120D01*
X176833Y40202D01*
X176899Y40286D01*
X176962Y40372D01*
X177022Y40461D01*
X177079Y40551D01*
X177132Y40644D01*
X177182Y40739D01*
X177229Y40835D01*
X177272Y40933D01*
X177312Y41032D01*
X177348Y41133D01*
X177380Y41235D01*
X177409Y41338D01*
X177434Y41442D01*
X177455Y41547D01*
X177472Y41653D01*
X177486Y41759D01*
X177495Y41865D01*
X177501Y41972D01*
X177503Y42079D01*
X177504Y42079D02*
X177504Y49784D01*
X185589Y49784D02*
X185589Y39116D01*
X182626Y49784D02*
X188553Y49784D01*
D11*
X125300Y128700D02*
X125300Y150700D01*
X103300Y150700D02*
X103300Y128700D01*
X113300Y150700D02*
X115300Y150700D01*
X115300Y128700D02*
X113300Y128700D01*
X100600Y126700D02*
X100602Y126752D01*
X100608Y126804D01*
X100618Y126856D01*
X100631Y126906D01*
X100648Y126956D01*
X100669Y127004D01*
X100694Y127050D01*
X100722Y127094D01*
X100753Y127136D01*
X100787Y127176D01*
X100824Y127213D01*
X100864Y127247D01*
X100906Y127278D01*
X100950Y127306D01*
X100996Y127331D01*
X101044Y127352D01*
X101094Y127369D01*
X101144Y127382D01*
X101196Y127392D01*
X101248Y127398D01*
X101300Y127400D01*
X101352Y127398D01*
X101404Y127392D01*
X101456Y127382D01*
X101506Y127369D01*
X101556Y127352D01*
X101604Y127331D01*
X101650Y127306D01*
X101694Y127278D01*
X101736Y127247D01*
X101776Y127213D01*
X101813Y127176D01*
X101847Y127136D01*
X101878Y127094D01*
X101906Y127050D01*
X101931Y127004D01*
X101952Y126956D01*
X101969Y126906D01*
X101982Y126856D01*
X101992Y126804D01*
X101998Y126752D01*
X102000Y126700D01*
X101998Y126648D01*
X101992Y126596D01*
X101982Y126544D01*
X101969Y126494D01*
X101952Y126444D01*
X101931Y126396D01*
X101906Y126350D01*
X101878Y126306D01*
X101847Y126264D01*
X101813Y126224D01*
X101776Y126187D01*
X101736Y126153D01*
X101694Y126122D01*
X101650Y126094D01*
X101604Y126069D01*
X101556Y126048D01*
X101506Y126031D01*
X101456Y126018D01*
X101404Y126008D01*
X101352Y126002D01*
X101300Y126000D01*
X101248Y126002D01*
X101196Y126008D01*
X101144Y126018D01*
X101094Y126031D01*
X101044Y126048D01*
X100996Y126069D01*
X100950Y126094D01*
X100906Y126122D01*
X100864Y126153D01*
X100824Y126187D01*
X100787Y126224D01*
X100753Y126264D01*
X100722Y126306D01*
X100694Y126350D01*
X100669Y126396D01*
X100648Y126444D01*
X100631Y126494D01*
X100618Y126544D01*
X100608Y126596D01*
X100602Y126648D01*
X100600Y126700D01*
D10*
X127650Y185800D02*
X127650Y191800D01*
X119650Y191800D01*
X127650Y169800D02*
X127650Y163800D01*
X119650Y163800D01*
D12*
X129930Y152010D03*
D10*
X131450Y148585D02*
X147950Y148585D01*
X147950Y130815D02*
X131450Y130815D01*
D13*
X63500Y161798D03*
D10*
X57634Y190500D02*
X49046Y190500D01*
X49046Y165100D02*
X57634Y165100D01*
X46252Y175116D02*
X46252Y180484D01*
D14*
X62475Y152075D02*
X61102Y152075D01*
X61102Y152076D02*
X61097Y152160D01*
X61088Y152244D01*
X61074Y152327D01*
X61057Y152410D01*
X61036Y152491D01*
X61012Y152572D01*
X60983Y152651D01*
X60951Y152729D01*
X60915Y152806D01*
X60876Y152880D01*
X60834Y152953D01*
X60788Y153024D01*
X60738Y153092D01*
X60686Y153158D01*
X60631Y153222D01*
X60573Y153283D01*
X60512Y153341D01*
X60448Y153396D01*
X60382Y153448D01*
X60314Y153498D01*
X60243Y153544D01*
X60170Y153586D01*
X60096Y153625D01*
X60019Y153661D01*
X59941Y153693D01*
X59862Y153722D01*
X59781Y153746D01*
X59700Y153767D01*
X59617Y153784D01*
X59534Y153798D01*
X59450Y153807D01*
X59366Y153812D01*
X59365Y155185D01*
X59366Y155185D01*
X59476Y155181D01*
X59586Y155172D01*
X59696Y155160D01*
X59805Y155144D01*
X59913Y155124D01*
X60021Y155101D01*
X60128Y155074D01*
X60234Y155043D01*
X60339Y155008D01*
X60442Y154970D01*
X60544Y154929D01*
X60645Y154884D01*
X60744Y154835D01*
X60841Y154783D01*
X60936Y154728D01*
X61030Y154669D01*
X61121Y154607D01*
X61210Y154542D01*
X61297Y154474D01*
X61382Y154403D01*
X61464Y154329D01*
X61543Y154253D01*
X61619Y154174D01*
X61693Y154092D01*
X61764Y154007D01*
X61832Y153920D01*
X61897Y153831D01*
X61959Y153740D01*
X62018Y153646D01*
X62073Y153551D01*
X62125Y153454D01*
X62174Y153355D01*
X62219Y153254D01*
X62260Y153152D01*
X62298Y153049D01*
X62333Y152944D01*
X62364Y152838D01*
X62391Y152731D01*
X62414Y152623D01*
X62434Y152515D01*
X62450Y152406D01*
X62462Y152296D01*
X62471Y152186D01*
X62475Y152076D01*
X62332Y152076D01*
X62327Y152184D01*
X62319Y152291D01*
X62307Y152398D01*
X62291Y152504D01*
X62271Y152610D01*
X62248Y152715D01*
X62221Y152819D01*
X62190Y152922D01*
X62155Y153024D01*
X62117Y153125D01*
X62076Y153224D01*
X62031Y153322D01*
X61982Y153418D01*
X61931Y153512D01*
X61875Y153605D01*
X61817Y153695D01*
X61756Y153784D01*
X61691Y153870D01*
X61623Y153953D01*
X61553Y154035D01*
X61479Y154113D01*
X61403Y154189D01*
X61325Y154263D01*
X61243Y154333D01*
X61160Y154401D01*
X61074Y154466D01*
X60985Y154527D01*
X60895Y154585D01*
X60802Y154641D01*
X60708Y154692D01*
X60612Y154741D01*
X60514Y154786D01*
X60415Y154827D01*
X60314Y154865D01*
X60212Y154900D01*
X60109Y154931D01*
X60005Y154958D01*
X59900Y154981D01*
X59794Y155001D01*
X59688Y155017D01*
X59581Y155029D01*
X59474Y155037D01*
X59366Y155042D01*
X59366Y154899D01*
X59471Y154894D01*
X59575Y154886D01*
X59679Y154874D01*
X59783Y154858D01*
X59886Y154838D01*
X59988Y154815D01*
X60089Y154788D01*
X60190Y154757D01*
X60289Y154723D01*
X60386Y154685D01*
X60483Y154643D01*
X60578Y154599D01*
X60671Y154550D01*
X60762Y154499D01*
X60851Y154444D01*
X60939Y154386D01*
X61024Y154325D01*
X61107Y154261D01*
X61187Y154193D01*
X61265Y154123D01*
X61341Y154051D01*
X61413Y153975D01*
X61483Y153897D01*
X61551Y153817D01*
X61615Y153734D01*
X61676Y153649D01*
X61734Y153561D01*
X61789Y153472D01*
X61840Y153381D01*
X61889Y153288D01*
X61933Y153193D01*
X61975Y153096D01*
X62013Y152999D01*
X62047Y152900D01*
X62078Y152799D01*
X62105Y152698D01*
X62128Y152596D01*
X62148Y152493D01*
X62164Y152389D01*
X62176Y152285D01*
X62184Y152181D01*
X62189Y152076D01*
X62046Y152076D01*
X62041Y152180D01*
X62032Y152284D01*
X62020Y152388D01*
X62003Y152491D01*
X61982Y152594D01*
X61958Y152695D01*
X61930Y152796D01*
X61898Y152895D01*
X61862Y152993D01*
X61822Y153090D01*
X61779Y153185D01*
X61733Y153279D01*
X61682Y153370D01*
X61629Y153460D01*
X61572Y153547D01*
X61511Y153633D01*
X61448Y153716D01*
X61381Y153796D01*
X61312Y153874D01*
X61239Y153949D01*
X61164Y154022D01*
X61086Y154091D01*
X61006Y154158D01*
X60923Y154221D01*
X60837Y154282D01*
X60750Y154339D01*
X60660Y154392D01*
X60569Y154443D01*
X60475Y154489D01*
X60380Y154532D01*
X60283Y154572D01*
X60185Y154608D01*
X60086Y154640D01*
X59985Y154668D01*
X59884Y154692D01*
X59781Y154713D01*
X59678Y154730D01*
X59574Y154742D01*
X59470Y154751D01*
X59366Y154756D01*
X59366Y154613D01*
X59467Y154608D01*
X59568Y154599D01*
X59669Y154586D01*
X59769Y154570D01*
X59868Y154549D01*
X59967Y154525D01*
X60064Y154497D01*
X60160Y154465D01*
X60255Y154429D01*
X60349Y154390D01*
X60440Y154347D01*
X60531Y154301D01*
X60619Y154251D01*
X60705Y154198D01*
X60789Y154141D01*
X60871Y154082D01*
X60951Y154019D01*
X61028Y153953D01*
X61102Y153884D01*
X61174Y153812D01*
X61243Y153738D01*
X61309Y153661D01*
X61372Y153581D01*
X61431Y153499D01*
X61488Y153415D01*
X61541Y153329D01*
X61591Y153241D01*
X61637Y153150D01*
X61680Y153059D01*
X61719Y152965D01*
X61755Y152870D01*
X61787Y152774D01*
X61815Y152677D01*
X61839Y152578D01*
X61860Y152479D01*
X61876Y152379D01*
X61889Y152278D01*
X61898Y152177D01*
X61903Y152076D01*
X61760Y152076D01*
X61755Y152174D01*
X61746Y152272D01*
X61733Y152369D01*
X61717Y152466D01*
X61696Y152562D01*
X61672Y152657D01*
X61644Y152751D01*
X61612Y152844D01*
X61577Y152935D01*
X61538Y153025D01*
X61496Y153114D01*
X61450Y153201D01*
X61400Y153285D01*
X61348Y153368D01*
X61292Y153449D01*
X61233Y153527D01*
X61170Y153603D01*
X61105Y153677D01*
X61037Y153747D01*
X60967Y153815D01*
X60893Y153880D01*
X60817Y153943D01*
X60739Y154002D01*
X60658Y154058D01*
X60575Y154110D01*
X60491Y154160D01*
X60404Y154206D01*
X60315Y154248D01*
X60225Y154287D01*
X60134Y154322D01*
X60041Y154354D01*
X59947Y154382D01*
X59852Y154406D01*
X59756Y154427D01*
X59659Y154443D01*
X59562Y154456D01*
X59464Y154465D01*
X59366Y154470D01*
X59366Y154327D01*
X59461Y154322D01*
X59555Y154313D01*
X59649Y154300D01*
X59742Y154284D01*
X59835Y154263D01*
X59926Y154239D01*
X60017Y154212D01*
X60106Y154180D01*
X60194Y154145D01*
X60281Y154107D01*
X60365Y154065D01*
X60449Y154019D01*
X60530Y153970D01*
X60609Y153918D01*
X60686Y153863D01*
X60760Y153805D01*
X60833Y153743D01*
X60902Y153679D01*
X60969Y153612D01*
X61033Y153543D01*
X61095Y153470D01*
X61153Y153396D01*
X61208Y153319D01*
X61260Y153240D01*
X61309Y153159D01*
X61355Y153075D01*
X61397Y152991D01*
X61435Y152904D01*
X61470Y152816D01*
X61502Y152727D01*
X61529Y152636D01*
X61553Y152545D01*
X61574Y152452D01*
X61590Y152359D01*
X61603Y152265D01*
X61612Y152171D01*
X61617Y152076D01*
X61474Y152076D01*
X61469Y152167D01*
X61460Y152258D01*
X61447Y152348D01*
X61431Y152437D01*
X61411Y152526D01*
X61387Y152614D01*
X61359Y152701D01*
X61328Y152787D01*
X61294Y152871D01*
X61256Y152954D01*
X61214Y153035D01*
X61169Y153114D01*
X61121Y153192D01*
X61070Y153267D01*
X61016Y153340D01*
X60958Y153411D01*
X60898Y153479D01*
X60835Y153545D01*
X60769Y153608D01*
X60701Y153668D01*
X60630Y153726D01*
X60557Y153780D01*
X60482Y153831D01*
X60404Y153879D01*
X60325Y153924D01*
X60244Y153966D01*
X60161Y154004D01*
X60077Y154038D01*
X59991Y154069D01*
X59904Y154097D01*
X59816Y154121D01*
X59727Y154141D01*
X59638Y154157D01*
X59548Y154170D01*
X59457Y154179D01*
X59366Y154184D01*
X59366Y154041D01*
X59456Y154035D01*
X59545Y154026D01*
X59634Y154013D01*
X59722Y153996D01*
X59810Y153975D01*
X59896Y153950D01*
X59981Y153921D01*
X60065Y153889D01*
X60147Y153853D01*
X60228Y153814D01*
X60307Y153771D01*
X60384Y153724D01*
X60459Y153674D01*
X60531Y153621D01*
X60601Y153565D01*
X60669Y153506D01*
X60734Y153444D01*
X60796Y153379D01*
X60855Y153311D01*
X60911Y153241D01*
X60964Y153169D01*
X61014Y153094D01*
X61061Y153017D01*
X61104Y152938D01*
X61143Y152857D01*
X61179Y152775D01*
X61211Y152691D01*
X61240Y152606D01*
X61265Y152520D01*
X61286Y152432D01*
X61303Y152344D01*
X61316Y152255D01*
X61325Y152166D01*
X61331Y152076D01*
X61187Y152076D01*
X61182Y152162D01*
X61173Y152247D01*
X61160Y152332D01*
X61143Y152416D01*
X61122Y152499D01*
X61098Y152581D01*
X61070Y152662D01*
X61038Y152742D01*
X61003Y152820D01*
X60964Y152897D01*
X60922Y152971D01*
X60876Y153044D01*
X60827Y153115D01*
X60776Y153183D01*
X60721Y153249D01*
X60663Y153312D01*
X60602Y153373D01*
X60539Y153431D01*
X60473Y153486D01*
X60405Y153537D01*
X60334Y153586D01*
X60261Y153632D01*
X60187Y153674D01*
X60110Y153713D01*
X60032Y153748D01*
X59952Y153780D01*
X59871Y153808D01*
X59789Y153832D01*
X59706Y153853D01*
X59622Y153870D01*
X59537Y153883D01*
X59452Y153892D01*
X59366Y153897D01*
D15*
X61790Y127400D02*
X61788Y127302D01*
X61782Y127204D01*
X61773Y127106D01*
X61759Y127009D01*
X61742Y126912D01*
X61721Y126816D01*
X61696Y126721D01*
X61668Y126627D01*
X61635Y126535D01*
X61600Y126443D01*
X61560Y126353D01*
X61518Y126265D01*
X61471Y126178D01*
X61422Y126094D01*
X61369Y126011D01*
X61313Y125931D01*
X61253Y125852D01*
X61191Y125776D01*
X61126Y125703D01*
X61058Y125632D01*
X60987Y125564D01*
X60914Y125499D01*
X60838Y125437D01*
X60759Y125377D01*
X60679Y125321D01*
X60596Y125268D01*
X60512Y125219D01*
X60425Y125172D01*
X60337Y125130D01*
X60247Y125090D01*
X60155Y125055D01*
X60063Y125022D01*
X59969Y124994D01*
X59874Y124969D01*
X59778Y124948D01*
X59681Y124931D01*
X59584Y124917D01*
X59486Y124908D01*
X59388Y124902D01*
X59290Y124900D01*
X34590Y124900D02*
X34492Y124902D01*
X34394Y124908D01*
X34296Y124917D01*
X34199Y124931D01*
X34102Y124948D01*
X34006Y124969D01*
X33911Y124994D01*
X33817Y125022D01*
X33725Y125055D01*
X33633Y125090D01*
X33543Y125130D01*
X33455Y125172D01*
X33368Y125219D01*
X33284Y125268D01*
X33201Y125321D01*
X33121Y125377D01*
X33042Y125437D01*
X32966Y125499D01*
X32893Y125564D01*
X32822Y125632D01*
X32754Y125703D01*
X32689Y125776D01*
X32627Y125852D01*
X32567Y125931D01*
X32511Y126011D01*
X32458Y126094D01*
X32409Y126178D01*
X32362Y126265D01*
X32320Y126353D01*
X32280Y126443D01*
X32245Y126535D01*
X32212Y126627D01*
X32184Y126721D01*
X32159Y126816D01*
X32138Y126912D01*
X32121Y127009D01*
X32107Y127106D01*
X32098Y127204D01*
X32092Y127302D01*
X32090Y127400D01*
D14*
X34515Y155185D02*
X34515Y153812D01*
X34514Y153812D02*
X34430Y153807D01*
X34346Y153798D01*
X34263Y153784D01*
X34180Y153767D01*
X34099Y153746D01*
X34018Y153722D01*
X33939Y153693D01*
X33861Y153661D01*
X33784Y153625D01*
X33710Y153586D01*
X33637Y153544D01*
X33566Y153498D01*
X33498Y153448D01*
X33432Y153396D01*
X33368Y153341D01*
X33307Y153283D01*
X33249Y153222D01*
X33194Y153158D01*
X33142Y153092D01*
X33092Y153024D01*
X33046Y152953D01*
X33004Y152880D01*
X32965Y152806D01*
X32929Y152729D01*
X32897Y152651D01*
X32868Y152572D01*
X32844Y152491D01*
X32823Y152410D01*
X32806Y152327D01*
X32792Y152244D01*
X32783Y152160D01*
X32778Y152076D01*
X31405Y152075D01*
X31405Y152076D01*
X31409Y152186D01*
X31418Y152296D01*
X31430Y152406D01*
X31446Y152515D01*
X31466Y152623D01*
X31489Y152731D01*
X31516Y152838D01*
X31547Y152944D01*
X31582Y153049D01*
X31620Y153152D01*
X31661Y153254D01*
X31706Y153355D01*
X31755Y153454D01*
X31807Y153551D01*
X31862Y153646D01*
X31921Y153740D01*
X31983Y153831D01*
X32048Y153920D01*
X32116Y154007D01*
X32187Y154092D01*
X32261Y154174D01*
X32337Y154253D01*
X32416Y154329D01*
X32498Y154403D01*
X32583Y154474D01*
X32670Y154542D01*
X32759Y154607D01*
X32850Y154669D01*
X32944Y154728D01*
X33039Y154783D01*
X33136Y154835D01*
X33235Y154884D01*
X33336Y154929D01*
X33438Y154970D01*
X33541Y155008D01*
X33646Y155043D01*
X33752Y155074D01*
X33859Y155101D01*
X33967Y155124D01*
X34075Y155144D01*
X34184Y155160D01*
X34294Y155172D01*
X34404Y155181D01*
X34514Y155185D01*
X34514Y155042D01*
X34406Y155037D01*
X34299Y155029D01*
X34192Y155017D01*
X34086Y155001D01*
X33980Y154981D01*
X33875Y154958D01*
X33771Y154931D01*
X33668Y154900D01*
X33566Y154865D01*
X33465Y154827D01*
X33366Y154786D01*
X33268Y154741D01*
X33172Y154692D01*
X33078Y154641D01*
X32985Y154585D01*
X32895Y154527D01*
X32806Y154466D01*
X32720Y154401D01*
X32637Y154333D01*
X32555Y154263D01*
X32477Y154189D01*
X32401Y154113D01*
X32327Y154035D01*
X32257Y153953D01*
X32189Y153870D01*
X32124Y153784D01*
X32063Y153695D01*
X32005Y153605D01*
X31949Y153512D01*
X31898Y153418D01*
X31849Y153322D01*
X31804Y153224D01*
X31763Y153125D01*
X31725Y153024D01*
X31690Y152922D01*
X31659Y152819D01*
X31632Y152715D01*
X31609Y152610D01*
X31589Y152504D01*
X31573Y152398D01*
X31561Y152291D01*
X31553Y152184D01*
X31548Y152076D01*
X31691Y152076D01*
X31696Y152181D01*
X31704Y152285D01*
X31716Y152389D01*
X31732Y152493D01*
X31752Y152596D01*
X31775Y152698D01*
X31802Y152799D01*
X31833Y152900D01*
X31867Y152999D01*
X31905Y153096D01*
X31947Y153193D01*
X31991Y153288D01*
X32040Y153381D01*
X32091Y153472D01*
X32146Y153561D01*
X32204Y153649D01*
X32265Y153734D01*
X32329Y153817D01*
X32397Y153897D01*
X32467Y153975D01*
X32539Y154051D01*
X32615Y154123D01*
X32693Y154193D01*
X32773Y154261D01*
X32856Y154325D01*
X32941Y154386D01*
X33029Y154444D01*
X33118Y154499D01*
X33209Y154550D01*
X33302Y154599D01*
X33397Y154643D01*
X33494Y154685D01*
X33591Y154723D01*
X33690Y154757D01*
X33791Y154788D01*
X33892Y154815D01*
X33994Y154838D01*
X34097Y154858D01*
X34201Y154874D01*
X34305Y154886D01*
X34409Y154894D01*
X34514Y154899D01*
X34514Y154756D01*
X34410Y154751D01*
X34306Y154742D01*
X34202Y154730D01*
X34099Y154713D01*
X33996Y154692D01*
X33895Y154668D01*
X33794Y154640D01*
X33695Y154608D01*
X33597Y154572D01*
X33500Y154532D01*
X33405Y154489D01*
X33311Y154443D01*
X33220Y154392D01*
X33130Y154339D01*
X33043Y154282D01*
X32957Y154221D01*
X32874Y154158D01*
X32794Y154091D01*
X32716Y154022D01*
X32641Y153949D01*
X32568Y153874D01*
X32499Y153796D01*
X32432Y153716D01*
X32369Y153633D01*
X32308Y153547D01*
X32251Y153460D01*
X32198Y153370D01*
X32147Y153279D01*
X32101Y153185D01*
X32058Y153090D01*
X32018Y152993D01*
X31982Y152895D01*
X31950Y152796D01*
X31922Y152695D01*
X31898Y152594D01*
X31877Y152491D01*
X31860Y152388D01*
X31848Y152284D01*
X31839Y152180D01*
X31834Y152076D01*
X31977Y152076D01*
X31982Y152177D01*
X31991Y152278D01*
X32004Y152379D01*
X32020Y152479D01*
X32041Y152578D01*
X32065Y152677D01*
X32093Y152774D01*
X32125Y152870D01*
X32161Y152965D01*
X32200Y153059D01*
X32243Y153150D01*
X32289Y153241D01*
X32339Y153329D01*
X32392Y153415D01*
X32449Y153499D01*
X32508Y153581D01*
X32571Y153661D01*
X32637Y153738D01*
X32706Y153812D01*
X32778Y153884D01*
X32852Y153953D01*
X32929Y154019D01*
X33009Y154082D01*
X33091Y154141D01*
X33175Y154198D01*
X33261Y154251D01*
X33349Y154301D01*
X33440Y154347D01*
X33531Y154390D01*
X33625Y154429D01*
X33720Y154465D01*
X33816Y154497D01*
X33913Y154525D01*
X34012Y154549D01*
X34111Y154570D01*
X34211Y154586D01*
X34312Y154599D01*
X34413Y154608D01*
X34514Y154613D01*
X34514Y154470D01*
X34416Y154465D01*
X34318Y154456D01*
X34221Y154443D01*
X34124Y154427D01*
X34028Y154406D01*
X33933Y154382D01*
X33839Y154354D01*
X33746Y154322D01*
X33655Y154287D01*
X33565Y154248D01*
X33476Y154206D01*
X33389Y154160D01*
X33305Y154110D01*
X33222Y154058D01*
X33141Y154002D01*
X33063Y153943D01*
X32987Y153880D01*
X32913Y153815D01*
X32843Y153747D01*
X32775Y153677D01*
X32710Y153603D01*
X32647Y153527D01*
X32588Y153449D01*
X32532Y153368D01*
X32480Y153285D01*
X32430Y153201D01*
X32384Y153114D01*
X32342Y153025D01*
X32303Y152935D01*
X32268Y152844D01*
X32236Y152751D01*
X32208Y152657D01*
X32184Y152562D01*
X32163Y152466D01*
X32147Y152369D01*
X32134Y152272D01*
X32125Y152174D01*
X32120Y152076D01*
X32263Y152076D01*
X32268Y152171D01*
X32277Y152265D01*
X32290Y152359D01*
X32306Y152452D01*
X32327Y152545D01*
X32351Y152636D01*
X32378Y152727D01*
X32410Y152816D01*
X32445Y152904D01*
X32483Y152991D01*
X32525Y153075D01*
X32571Y153159D01*
X32620Y153240D01*
X32672Y153319D01*
X32727Y153396D01*
X32785Y153470D01*
X32847Y153543D01*
X32911Y153612D01*
X32978Y153679D01*
X33047Y153743D01*
X33120Y153805D01*
X33194Y153863D01*
X33271Y153918D01*
X33350Y153970D01*
X33431Y154019D01*
X33515Y154065D01*
X33599Y154107D01*
X33686Y154145D01*
X33774Y154180D01*
X33863Y154212D01*
X33954Y154239D01*
X34045Y154263D01*
X34138Y154284D01*
X34231Y154300D01*
X34325Y154313D01*
X34419Y154322D01*
X34514Y154327D01*
X34514Y154184D01*
X34423Y154179D01*
X34332Y154170D01*
X34242Y154157D01*
X34153Y154141D01*
X34064Y154121D01*
X33976Y154097D01*
X33889Y154069D01*
X33803Y154038D01*
X33719Y154004D01*
X33636Y153966D01*
X33555Y153924D01*
X33476Y153879D01*
X33398Y153831D01*
X33323Y153780D01*
X33250Y153726D01*
X33179Y153668D01*
X33111Y153608D01*
X33045Y153545D01*
X32982Y153479D01*
X32922Y153411D01*
X32864Y153340D01*
X32810Y153267D01*
X32759Y153192D01*
X32711Y153114D01*
X32666Y153035D01*
X32624Y152954D01*
X32586Y152871D01*
X32552Y152787D01*
X32521Y152701D01*
X32493Y152614D01*
X32469Y152526D01*
X32449Y152437D01*
X32433Y152348D01*
X32420Y152258D01*
X32411Y152167D01*
X32406Y152076D01*
X32549Y152076D01*
X32555Y152166D01*
X32564Y152255D01*
X32577Y152344D01*
X32594Y152432D01*
X32615Y152520D01*
X32640Y152606D01*
X32669Y152691D01*
X32701Y152775D01*
X32737Y152857D01*
X32776Y152938D01*
X32819Y153017D01*
X32866Y153094D01*
X32916Y153169D01*
X32969Y153241D01*
X33025Y153311D01*
X33084Y153379D01*
X33146Y153444D01*
X33211Y153506D01*
X33279Y153565D01*
X33349Y153621D01*
X33421Y153674D01*
X33496Y153724D01*
X33573Y153771D01*
X33652Y153814D01*
X33733Y153853D01*
X33815Y153889D01*
X33899Y153921D01*
X33984Y153950D01*
X34070Y153975D01*
X34158Y153996D01*
X34246Y154013D01*
X34335Y154026D01*
X34424Y154035D01*
X34514Y154041D01*
X34514Y153897D01*
X34428Y153892D01*
X34343Y153883D01*
X34258Y153870D01*
X34174Y153853D01*
X34091Y153832D01*
X34009Y153808D01*
X33928Y153780D01*
X33848Y153748D01*
X33770Y153713D01*
X33693Y153674D01*
X33619Y153632D01*
X33546Y153586D01*
X33475Y153537D01*
X33407Y153486D01*
X33341Y153431D01*
X33278Y153373D01*
X33217Y153312D01*
X33159Y153249D01*
X33104Y153183D01*
X33053Y153115D01*
X33004Y153044D01*
X32958Y152971D01*
X32916Y152897D01*
X32877Y152820D01*
X32842Y152742D01*
X32810Y152662D01*
X32782Y152581D01*
X32758Y152499D01*
X32737Y152416D01*
X32720Y152332D01*
X32707Y152247D01*
X32698Y152162D01*
X32693Y152076D01*
D15*
X32090Y151900D02*
X32090Y127300D01*
X61790Y127300D02*
X61790Y151900D01*
X59290Y154500D02*
X34690Y154500D01*
X34590Y124900D02*
X59290Y124900D01*
D16*
X25500Y155956D02*
X25502Y156016D01*
X25508Y156076D01*
X25518Y156135D01*
X25531Y156193D01*
X25549Y156250D01*
X25570Y156307D01*
X25594Y156361D01*
X25623Y156414D01*
X25654Y156465D01*
X25689Y156514D01*
X25727Y156560D01*
X25768Y156604D01*
X25812Y156645D01*
X25858Y156683D01*
X25907Y156718D01*
X25958Y156749D01*
X26011Y156778D01*
X26065Y156802D01*
X26122Y156823D01*
X26179Y156841D01*
X26237Y156854D01*
X26296Y156864D01*
X26356Y156870D01*
X26416Y156872D01*
X26476Y156870D01*
X26536Y156864D01*
X26595Y156854D01*
X26653Y156841D01*
X26710Y156823D01*
X26767Y156802D01*
X26821Y156778D01*
X26874Y156749D01*
X26925Y156718D01*
X26974Y156683D01*
X27020Y156645D01*
X27064Y156604D01*
X27105Y156560D01*
X27143Y156514D01*
X27178Y156465D01*
X27209Y156414D01*
X27238Y156361D01*
X27262Y156307D01*
X27283Y156250D01*
X27301Y156193D01*
X27314Y156135D01*
X27324Y156076D01*
X27330Y156016D01*
X27332Y155956D01*
X27330Y155896D01*
X27324Y155836D01*
X27314Y155777D01*
X27301Y155719D01*
X27283Y155662D01*
X27262Y155605D01*
X27238Y155551D01*
X27209Y155498D01*
X27178Y155447D01*
X27143Y155398D01*
X27105Y155352D01*
X27064Y155308D01*
X27020Y155267D01*
X26974Y155229D01*
X26925Y155194D01*
X26874Y155163D01*
X26821Y155134D01*
X26767Y155110D01*
X26710Y155089D01*
X26653Y155071D01*
X26595Y155058D01*
X26536Y155048D01*
X26476Y155042D01*
X26416Y155040D01*
X26356Y155042D01*
X26296Y155048D01*
X26237Y155058D01*
X26179Y155071D01*
X26122Y155089D01*
X26065Y155110D01*
X26011Y155134D01*
X25958Y155163D01*
X25907Y155194D01*
X25858Y155229D01*
X25812Y155267D01*
X25768Y155308D01*
X25727Y155352D01*
X25689Y155398D01*
X25654Y155447D01*
X25623Y155498D01*
X25594Y155551D01*
X25570Y155605D01*
X25549Y155662D01*
X25531Y155719D01*
X25518Y155777D01*
X25508Y155836D01*
X25502Y155896D01*
X25500Y155956D01*
D11*
X55880Y20320D02*
X57150Y19050D01*
X55880Y20320D02*
X55880Y30480D01*
X58420Y33020D01*
X68580Y33020D01*
X69850Y31750D01*
X71120Y33020D01*
X81280Y33020D01*
X82550Y31750D01*
X83820Y33020D01*
X93980Y33020D01*
X95250Y31750D01*
X96520Y33020D01*
X106680Y33020D01*
X107950Y31750D01*
X109220Y33020D01*
X119380Y33020D01*
X121920Y30480D01*
X121920Y20320D01*
X120650Y19050D01*
X121920Y17780D01*
X121920Y7620D01*
X119380Y5080D01*
X109220Y5080D01*
X107950Y6350D01*
X106680Y5080D01*
X96520Y5080D01*
X95250Y6350D01*
X93980Y5080D01*
X83820Y5080D01*
X82550Y6350D01*
X81280Y5080D01*
X71120Y5080D01*
X69850Y6350D01*
X68580Y5080D01*
X58420Y5080D01*
X55880Y7620D01*
X55880Y17780D01*
X57150Y19050D01*
X58420Y2540D02*
X68580Y2540D01*
X157480Y20320D02*
X158750Y19050D01*
X157480Y20320D02*
X157480Y30480D01*
X160020Y33020D01*
X170180Y33020D01*
X171450Y31750D01*
X172720Y33020D01*
X182880Y33020D01*
X184150Y31750D01*
X185420Y33020D01*
X195580Y33020D01*
X196850Y31750D01*
X198120Y33020D01*
X208280Y33020D01*
X209550Y31750D01*
X210820Y33020D01*
X220980Y33020D01*
X223520Y30480D01*
X223520Y20320D01*
X222250Y19050D01*
X223520Y17780D01*
X223520Y7620D01*
X220980Y5080D01*
X210820Y5080D01*
X209550Y6350D01*
X208280Y5080D01*
X198120Y5080D01*
X196850Y6350D01*
X195580Y5080D01*
X185420Y5080D01*
X184150Y6350D01*
X182880Y5080D01*
X172720Y5080D01*
X171450Y6350D01*
X170180Y5080D01*
X160020Y5080D01*
X157480Y7620D01*
X157480Y17780D01*
X158750Y19050D01*
X160020Y2540D02*
X170180Y2540D01*
M02*
