G04 EAGLE Gerber RS-274X export*
G75*
%MOMM*%
%FSLAX34Y34*%
%LPD*%
%INSoldermask Top*%
%IPPOS*%
%AMOC8*
5,1,8,0,0,1.08239X$1,22.5*%
G01*
%ADD10R,1.203200X1.303200*%
%ADD11R,0.903200X0.903200*%
%ADD12R,1.103200X1.003200*%
%ADD13R,0.803200X0.453200*%
%ADD14R,0.953200X0.453200*%
%ADD15R,1.403200X0.753200*%
%ADD16R,1.303200X0.603200*%
%ADD17C,0.939800*%
%ADD18C,3.505200*%
%ADD19C,1.203200*%


D10*
X81280Y186300D03*
X81280Y169300D03*
X25400Y169300D03*
X25400Y186300D03*
D11*
X119800Y130550D03*
X108800Y130550D03*
X108800Y148850D03*
X119800Y148850D03*
D12*
X110650Y187300D03*
X110650Y168300D03*
X131650Y177800D03*
D10*
X144780Y169300D03*
X144780Y186300D03*
X96520Y186300D03*
X96520Y169300D03*
D13*
X146900Y134700D03*
X146900Y144700D03*
X146900Y139700D03*
X132500Y134700D03*
X132500Y139700D03*
D14*
X133250Y144700D03*
D15*
X66341Y168300D03*
X66341Y177800D03*
X66341Y187300D03*
X40339Y187300D03*
X40339Y168300D03*
D16*
X24490Y149450D03*
X24490Y142950D03*
X24490Y136450D03*
X24490Y129950D03*
X69490Y129950D03*
X69490Y136450D03*
X69490Y142950D03*
X69490Y149450D03*
D17*
X63500Y12700D03*
X63500Y25400D03*
X76200Y12700D03*
X76200Y25400D03*
X88900Y12700D03*
X88900Y25400D03*
X101600Y12700D03*
X101600Y25400D03*
X114300Y12700D03*
X114300Y25400D03*
X165100Y12700D03*
X165100Y25400D03*
X177800Y12700D03*
X177800Y25400D03*
X190500Y12700D03*
X190500Y25400D03*
X203200Y12700D03*
X203200Y25400D03*
X215900Y12700D03*
X215900Y25400D03*
D18*
X254000Y25400D03*
X25400Y25400D03*
X254000Y254000D03*
X25400Y254000D03*
D19*
X50800Y228600D03*
X228600Y50800D03*
M02*
