M48
;GenerationSoftware,Autodesk,EAGLE,9.5.2*%
;CreationDate,2020-03-09T17:06:12Z*%
FMAT,2
ICI,OFF
METRIC,TZ,000.000
T3C0.381
T2C0.432
T1C3.302
%
G90
M71
T1
X25400Y2540
X2540Y2540
X25400Y25400
X2540Y25400
T2
X17780Y2540
X6350Y2540
X6350Y1270
X7620Y1270
X7620Y2540
X8890Y1270
X8890Y2540
X10160Y1270
X10160Y2540
X11430Y1270
X11430Y2540
X16510Y1270
X16510Y2540
X17780Y1270
X19050Y1270
X19050Y2540
X20320Y1270
X20320Y2540
X21590Y1270
X21590Y2540
T3
X16891Y14224
X8128Y15621
X3683Y17780
X3937Y13843
X952Y20701
X13208Y12700
X12700Y2540
X12827Y1143
X6350Y26670
X11430Y26670
X16510Y26670
X21590Y26670
X21590Y21590
X26670Y21590
X6350Y21590
X11430Y21590
X16510Y21590
X21590Y16510
X26670Y11430
X26670Y16510
X21590Y11430
X21590Y6350
X26670Y6350
X10033Y5461
X11430Y3810
M30