<?xml version="1.0" encoding="UTF-8" standalone="no"?>
<svg
   xmlns:dc="http://purl.org/dc/elements/1.1/"
   xmlns:cc="http://creativecommons.org/ns#"
   xmlns:rdf="http://www.w3.org/1999/02/22-rdf-syntax-ns#"
   xmlns:svg="http://www.w3.org/2000/svg"
   xmlns="http://www.w3.org/2000/svg"
   xmlns:sodipodi="http://sodipodi.sourceforge.net/DTD/sodipodi-0.dtd"
   xmlns:inkscape="http://www.inkscape.org/namespaces/inkscape"
   width="53.758965mm"
   height="55.789745mm"
   viewBox="0 0 53.758965 55.789745"
   version="1.1"
   id="svg23"
   inkscape:version="1.0beta2 (2b71d25, 2019-12-03)"
   sodipodi:docname="hook_v02_various.svg">
  <defs
     id="defs17" />
  <sodipodi:namedview
     inkscape:snap-center="true"
     id="base"
     pagecolor="#ffffff"
     bordercolor="#666666"
     borderopacity="1.0"
     inkscape:pageopacity="0.0"
     inkscape:pageshadow="2"
     inkscape:zoom="1.0513065"
     inkscape:cx="19.319828"
     inkscape:cy="92.77268"
     inkscape:document-units="mm"
     inkscape:current-layer="layer1"
     inkscape:document-rotation="0"
     showgrid="false"
     inkscape:lockguides="true"
     inkscape:window-width="1440"
     inkscape:window-height="855"
     inkscape:window-x="-4"
     inkscape:window-y="23"
     inkscape:window-maximized="0" />
  <metadata
     id="metadata20">
    <rdf:RDF>
      <cc:Work
         rdf:about="">
        <dc:format>image/svg+xml</dc:format>
        <dc:type
           rdf:resource="http://purl.org/dc/dcmitype/StillImage" />
        <dc:title></dc:title>
      </cc:Work>
    </rdf:RDF>
  </metadata>
  <g
     inkscape:label="Layer 1"
     inkscape:groupmode="layer"
     id="layer1">
    <path
       inkscape:connector-curvature="0"
       d="m 41.555084,20.000015 a 4.7624997,4.7624997 0 0 0 -1.48001,0.243396 l -10e-4,-0.0031 a 63.499999,63.499999 0 0 1 -19.43654,3.047876 H 0 v 6.54792 2.97708 h 1.5874998 v 3.174999 H 14.287504 v -3.174999 h 6.35 a 73.025002,73.025002 0 0 0 22.22293,-3.463872 4.7624997,4.7624997 0 0 0 3.48092,-4.5868 4.7624997,4.7624997 0 0 0 -4.7625,-4.7625 4.7624997,4.7624997 0 0 0 -0.0238,0 z"
       style="fill:#008080;stroke-width:0.264583"
       id="rect25" />
    <path
       inkscape:connector-curvature="0"
       d="M 36.302177,1.4829967e-5 A 4.7624997,4.7624997 0 0 0 34.162772,0.51936307 31.75,31.75 0 0 1 20.6375,3.5450182 H 0 v 3.9945881 5.5304117 h 1.5875 v 3.175 h 12.7 v -3.175 h 6.35 A 41.275002,41.275002 0 0 0 38.356831,9.0733628 l -10e-4,-0.00258 a 4.7624997,4.7624997 0 0 0 2.732648,-4.3082642 4.7624997,4.7624997 0 0 0 -4.7625,-4.762500070033 4.7624997,4.7624997 0 0 0 -0.02377,0 z"
       style="fill:#008080;stroke-width:0.264583"
       id="rect25-9" />
    <g
       transform="translate(0,43.089749)"
       id="layer1-9">
      <path
         inkscape:connector-curvature="0"
         transform="scale(0.26458333)"
         d="m 185.09375,-11.677734 a 17.999999,17.999999 0 0 0 -3.03906,0.273437 479.99992,479.99992 0 0 1 -0.0156,0.0039 17.999999,17.999999 0 0 0 -1.44726,0.31836 A 479.99992,479.99992 0 0 1 78.048828,0 479.99992,479.99992 0 0 1 72,-0.0390625 V 0 H 0 V 30.0625 36 H 6.0488281 V 48 H 55.248047 V 36 H 72 V 35.96289 A 515.99988,515.99988 0 0 0 78.048828,36 515.99988,515.99988 0 0 0 188.92578,23.945312 l -0.004,-0.01758 a 17.999999,17.999999 0 0 0 14.26171,-17.6054684 17.999999,17.999999 0 0 0 -18,-17.9999996 17.999999,17.999999 0 0 0 -0.0898,0 z"
         style="fill:#008080;stroke-width:0.248524"
         id="rect10" />
    </g>
  </g>
</svg>
