<?xml version="1.0" encoding="UTF-8" standalone="no"?>
<svg
   xmlns:dc="http://purl.org/dc/elements/1.1/"
   xmlns:cc="http://creativecommons.org/ns#"
   xmlns:rdf="http://www.w3.org/1999/02/22-rdf-syntax-ns#"
   xmlns:svg="http://www.w3.org/2000/svg"
   xmlns="http://www.w3.org/2000/svg"
   id="svg8"
   version="1.1"
   viewBox="0 0 53.758991 15.789748"
   height="15.789748mm"
   width="53.758991mm">
  <defs
     id="defs2" />
  <metadata
     id="metadata5">
    <rdf:RDF>
      <cc:Work
         rdf:about="">
        <dc:format>image/svg+xml</dc:format>
        <dc:type
           rdf:resource="http://purl.org/dc/dcmitype/StillImage" />
        <dc:title></dc:title>
      </cc:Work>
    </rdf:RDF>
  </metadata>
  <g
     transform="translate(0,3.0897486)"
     id="layer1">
    <path
       transform="scale(0.26458333)"
       d="m 185.09375,-11.677734 a 17.999999,17.999999 0 0 0 -3.03906,0.273437 479.99992,479.99992 0 0 1 -0.0156,0.0039 17.999999,17.999999 0 0 0 -1.44726,0.31836 A 479.99992,479.99992 0 0 1 78.048828,0 479.99992,479.99992 0 0 1 72,-0.0390625 V 0 H 0 V 30.0625 36 H 6.0488281 V 48 H 55.248047 V 36 H 72 V 35.96289 A 515.99988,515.99988 0 0 0 78.048828,36 515.99988,515.99988 0 0 0 188.92578,23.945312 l -0.004,-0.01758 a 17.999999,17.999999 0 0 0 14.26171,-17.6054684 17.999999,17.999999 0 0 0 -18,-17.9999996 17.999999,17.999999 0 0 0 -0.0898,0 z"
       style="fill:#008080;stroke-width:0.248524"
       id="rect10" />
  </g>
</svg>
