G04 EAGLE Gerber RS-274X export*
G75*
%MOMM*%
%FSLAX34Y34*%
%LPD*%
%INSolderpaste Bottom*%
%IPPOS*%
%AMOC8*
5,1,8,0,0,1.08239X$1,22.5*%
G01*
%ADD10R,2.400000X0.760000*%


D10*
X18600Y120650D03*
X18600Y107950D03*
X18600Y95250D03*
X18600Y133350D03*
X18600Y146050D03*
X57600Y146050D03*
X57600Y133350D03*
X57600Y120650D03*
X57600Y107950D03*
X57600Y95250D03*
X221800Y120650D03*
X221800Y107950D03*
X221800Y95250D03*
X221800Y133350D03*
X221800Y146050D03*
X260800Y146050D03*
X260800Y133350D03*
X260800Y120650D03*
X260800Y107950D03*
X260800Y95250D03*
X303105Y120650D03*
X303105Y107950D03*
X303105Y95250D03*
X303105Y133350D03*
X303105Y146050D03*
X342105Y146050D03*
X342105Y133350D03*
X342105Y120650D03*
X342105Y107950D03*
X342105Y95250D03*
X506305Y120650D03*
X506305Y107950D03*
X506305Y95250D03*
X506305Y133350D03*
X506305Y146050D03*
X545305Y146050D03*
X545305Y133350D03*
X545305Y120650D03*
X545305Y107950D03*
X545305Y95250D03*
X587611Y120650D03*
X587611Y107950D03*
X587611Y95250D03*
X587611Y133350D03*
X587611Y146050D03*
X626611Y146050D03*
X626611Y133350D03*
X626611Y120650D03*
X626611Y107950D03*
X626611Y95250D03*
X790811Y120650D03*
X790811Y107950D03*
X790811Y95250D03*
X790811Y133350D03*
X790811Y146050D03*
X829811Y146050D03*
X829811Y133350D03*
X829811Y120650D03*
X829811Y107950D03*
X829811Y95250D03*
X18600Y430530D03*
X18600Y417830D03*
X18600Y405130D03*
X18600Y443230D03*
X18600Y455930D03*
X57600Y455930D03*
X57600Y443230D03*
X57600Y430530D03*
X57600Y417830D03*
X57600Y405130D03*
X221800Y430530D03*
X221800Y417830D03*
X221800Y405130D03*
X221800Y443230D03*
X221800Y455930D03*
X260800Y455930D03*
X260800Y443230D03*
X260800Y430530D03*
X260800Y417830D03*
X260800Y405130D03*
X303105Y430530D03*
X303105Y417830D03*
X303105Y405130D03*
X303105Y443230D03*
X303105Y455930D03*
X342105Y455930D03*
X342105Y443230D03*
X342105Y430530D03*
X342105Y417830D03*
X342105Y405130D03*
X506305Y430530D03*
X506305Y417830D03*
X506305Y405130D03*
X506305Y443230D03*
X506305Y455930D03*
X545305Y455930D03*
X545305Y443230D03*
X545305Y430530D03*
X545305Y417830D03*
X545305Y405130D03*
X587611Y430530D03*
X587611Y417830D03*
X587611Y405130D03*
X587611Y443230D03*
X587611Y455930D03*
X626611Y455930D03*
X626611Y443230D03*
X626611Y430530D03*
X626611Y417830D03*
X626611Y405130D03*
X790811Y430530D03*
X790811Y417830D03*
X790811Y405130D03*
X790811Y443230D03*
X790811Y455930D03*
X829811Y455930D03*
X829811Y443230D03*
X829811Y430530D03*
X829811Y417830D03*
X829811Y405130D03*
X18600Y740410D03*
X18600Y727710D03*
X18600Y715010D03*
X18600Y753110D03*
X18600Y765810D03*
X57600Y765810D03*
X57600Y753110D03*
X57600Y740410D03*
X57600Y727710D03*
X57600Y715010D03*
X221800Y740410D03*
X221800Y727710D03*
X221800Y715010D03*
X221800Y753110D03*
X221800Y765810D03*
X260800Y765810D03*
X260800Y753110D03*
X260800Y740410D03*
X260800Y727710D03*
X260800Y715010D03*
X303105Y740410D03*
X303105Y727710D03*
X303105Y715010D03*
X303105Y753110D03*
X303105Y765810D03*
X342105Y765810D03*
X342105Y753110D03*
X342105Y740410D03*
X342105Y727710D03*
X342105Y715010D03*
X506305Y740410D03*
X506305Y727710D03*
X506305Y715010D03*
X506305Y753110D03*
X506305Y765810D03*
X545305Y765810D03*
X545305Y753110D03*
X545305Y740410D03*
X545305Y727710D03*
X545305Y715010D03*
X587611Y740410D03*
X587611Y727710D03*
X587611Y715010D03*
X587611Y753110D03*
X587611Y765810D03*
X626611Y765810D03*
X626611Y753110D03*
X626611Y740410D03*
X626611Y727710D03*
X626611Y715010D03*
X790811Y740410D03*
X790811Y727710D03*
X790811Y715010D03*
X790811Y753110D03*
X790811Y765810D03*
X829811Y765810D03*
X829811Y753110D03*
X829811Y740410D03*
X829811Y727710D03*
X829811Y715010D03*
M02*
