M48
;GenerationSoftware,Autodesk,EAGLE,9.6.0*%
;CreationDate,2020-06-23T17:58:51Z*%
FMAT,2
ICI,OFF
METRIC,TZ,000.000
T3C0.381
T2C1.270
T1C3.810
%
G90
M71
T1
X30991Y27940
X25400Y89916
X25400Y2540
X2540Y2540
X25400Y27940
X2540Y27940
X53851Y2540
X30991Y2540
X53851Y27940
X53851Y33528
X82301Y2540
X59441Y2540
X82301Y27940
X59441Y27940
X25400Y33528
X2540Y33528
X25400Y58928
X2540Y58928
X59441Y89916
X30991Y33528
X53851Y58928
X30991Y58928
X82301Y33528
X59441Y33528
X82301Y58928
X59441Y58928
X25400Y64516
X2540Y64516
X2540Y89916
X53851Y64516
X30991Y64516
X53851Y89916
X30991Y89916
X82301Y64516
X59441Y64516
X82301Y89916
T2
X74046Y81026
X10795Y28575
X17145Y28575
X10795Y19050
X17145Y19050
X39246Y28575
X45596Y28575
X39246Y19050
X45596Y19050
X67696Y28575
X74046Y28575
X67696Y19050
X74046Y19050
X10795Y59563
X17145Y59563
X10795Y50038
X17145Y50038
X39246Y59563
X45596Y59563
X39246Y50038
X45596Y50038
X67696Y59563
X74046Y59563
X67696Y50038
X74046Y50038
X10795Y90551
X17145Y90551
X10795Y81026
X17145Y81026
X39246Y90551
X45596Y90551
X39246Y81026
X45596Y81026
X67696Y90551
X74046Y90551
X67696Y81026
T3
X65791Y21590
X58171Y17780
X63251Y19050
X70871Y16510
X75951Y16510
X75951Y21590
X78491Y24130
X81031Y21590
X83571Y24130
X78491Y19050
X83571Y19050
X69284Y10985
X68077Y15875
X64521Y10160
X76205Y10287
X77094Y11176
X65029Y16065
X75316Y7493
X74554Y9398
X75316Y8636
X63759Y7239
X72522Y10414
X61600Y8001
X68077Y11938
X6350Y60198
X21590Y60198
X8890Y57658
X19050Y57658
X9652Y42672
X1270Y55118
X3810Y52578
X6350Y55118
X8890Y52578
X1270Y48768
X6350Y50038
X13970Y47498
X19050Y47498
X19050Y52578
X21590Y55118
X24130Y52578
X26670Y55118
X21590Y50038
X26670Y50038
X12382Y41974
X11176Y46863
X7620Y41148
X19304Y41275
X20193Y42164
X8128Y47053
X18415Y38481
X17653Y40386
X18415Y39624
X6858Y38227
X15621Y41402
X4699Y38989
X11176Y42926
X34801Y60198
X50041Y60198
X37341Y57658
X47501Y57658
X38103Y42672
X29721Y55118
X32261Y52578
X34801Y55118
X37341Y52578
X29721Y48768
X34801Y50038
X42421Y47498
X47501Y47498
X47501Y52578
X50041Y55118
X52581Y52578
X55121Y55118
X50041Y50038
X55121Y50038
X40833Y41974
X39627Y46863
X36071Y41148
X47755Y41275
X48644Y42164
X36579Y47053
X46866Y38481
X46104Y40386
X46866Y39624
X35309Y38227
X44072Y41402
X33150Y38989
X39627Y42926
X63251Y60198
X78491Y60198
X65791Y57658
X75951Y57658
X66553Y42672
X58171Y55118
X60711Y52578
X63251Y55118
X65791Y52578
X58171Y48768
X63251Y50038
X70871Y47498
X75951Y47498
X75951Y52578
X78491Y55118
X81031Y52578
X83571Y55118
X78491Y50038
X83571Y50038
X69284Y41974
X47501Y21590
X64521Y41148
X76205Y41275
X77094Y42164
X65029Y47053
X75316Y38481
X74554Y40386
X75316Y39624
X63759Y38227
X72522Y41402
X61600Y38989
X68077Y42926
X6350Y91186
X21590Y91186
X8890Y88646
X19050Y88646
X9652Y73660
X1270Y86106
X3810Y83566
X6350Y86106
X8890Y83566
X1270Y79756
X6350Y81026
X13970Y78486
X19050Y78486
X19050Y83566
X21590Y86106
X24130Y83566
X26670Y86106
X21590Y81026
X26670Y81026
X12382Y72962
X11176Y77851
X7620Y72136
X19304Y72263
X20193Y73152
X8128Y78042
X18415Y69469
X17653Y71374
X18415Y70612
X6858Y69215
X15621Y72390
X4699Y69977
X11176Y73914
X34801Y91186
X50041Y91186
X37341Y88646
X47501Y88646
X38103Y73660
X29721Y86106
X32261Y83566
X34801Y86106
X37341Y83566
X29721Y79756
X34801Y81026
X42421Y78486
X47501Y78486
X47501Y83566
X50041Y86106
X52581Y83566
X55121Y86106
X50041Y81026
X55121Y81026
X40833Y72962
X39627Y77851
X36071Y72136
X47755Y72263
X48644Y73152
X36579Y78042
X46866Y69469
X46104Y71374
X46866Y70612
X35309Y69215
X44072Y72390
X33150Y69977
X39627Y73914
X63251Y91186
X78491Y91186
X65791Y88646
X75951Y88646
X66553Y73660
X58171Y86106
X60711Y83566
X63251Y86106
X65791Y83566
X58171Y79756
X63251Y81026
X70871Y78486
X75951Y78486
X6350Y29210
X78491Y86106
X81031Y83566
X83571Y86106
X78491Y81026
X83571Y81026
X69284Y72962
X68077Y77851
X64521Y72136
X76205Y72263
X77094Y73152
X65029Y78042
X75316Y69469
X74554Y71374
X75316Y70612
X63759Y69215
X72522Y72390
X61600Y69977
X68077Y73914
X21590Y29210
X8890Y26670
X19050Y26670
X9652Y11684
X1270Y24130
X3810Y21590
X6350Y24130
X8890Y21590
X1270Y17780
X6350Y19050
X13970Y16510
X19050Y16510
X19050Y21590
X21590Y24130
X24130Y21590
X26670Y24130
X21590Y19050
X26670Y19050
X12382Y10985
X11176Y15875
X7620Y10160
X19304Y10287
X20193Y11176
X8128Y16065
X18415Y7493
X17653Y9398
X68077Y46863
X18415Y8636
X6858Y7239
X15621Y10414
X4699Y8001
X11176Y11938
X34801Y29210
X50041Y29210
X37341Y26670
X47501Y26670
X38103Y11684
X29721Y24130
X32261Y21590
X34801Y24130
X37341Y21590
X29721Y17780
X34801Y19050
X42421Y16510
X47501Y16510
X50041Y24130
X52581Y21590
X55121Y24130
X50041Y19050
X55121Y19050
X40833Y10985
X39627Y15875
X36071Y10160
X47755Y10287
X48644Y11176
X36579Y16065
X46866Y7493
X46104Y9398
X46866Y8636
X35309Y7239
X44072Y10414
X33150Y8001
X39627Y11938
X63251Y29210
X78491Y29210
X65791Y26670
X75951Y26670
X66553Y11684
X58171Y24130
X60711Y21590
X63251Y24130
X75951Y83566
M30