G04 EAGLE Gerber RS-274X export*
G75*
%MOMM*%
%FSLAX34Y34*%
%LPD*%
%INSilkscreen Bottom*%
%IPPOS*%
%AMOC8*
5,1,8,0,0,1.08239X$1,22.5*%
G01*
%ADD10C,0.203200*%


D10*
X42249Y199009D02*
X42249Y188341D01*
X43434Y188341D02*
X41063Y188341D01*
X41063Y199009D02*
X43434Y199009D01*
X35687Y199009D02*
X35687Y188341D01*
X29760Y188341D02*
X35687Y199009D01*
X29760Y199009D02*
X29760Y188341D01*
X256159Y191304D02*
X256159Y196046D01*
X256157Y196153D01*
X256151Y196260D01*
X256142Y196366D01*
X256128Y196472D01*
X256111Y196578D01*
X256090Y196683D01*
X256065Y196787D01*
X256036Y196890D01*
X256004Y196992D01*
X255968Y197093D01*
X255928Y197192D01*
X255885Y197290D01*
X255838Y197386D01*
X255788Y197481D01*
X255735Y197574D01*
X255678Y197664D01*
X255618Y197753D01*
X255555Y197839D01*
X255489Y197923D01*
X255419Y198005D01*
X255347Y198084D01*
X255272Y198160D01*
X255194Y198234D01*
X255114Y198304D01*
X255031Y198372D01*
X254946Y198437D01*
X254859Y198498D01*
X254769Y198557D01*
X254678Y198612D01*
X254584Y198664D01*
X254488Y198712D01*
X254391Y198757D01*
X254293Y198799D01*
X254193Y198836D01*
X254091Y198871D01*
X253989Y198901D01*
X253885Y198928D01*
X253781Y198951D01*
X253675Y198970D01*
X253569Y198985D01*
X253463Y198997D01*
X253356Y199005D01*
X253249Y199009D01*
X253143Y199009D01*
X253036Y199005D01*
X252929Y198997D01*
X252823Y198985D01*
X252717Y198970D01*
X252611Y198951D01*
X252507Y198928D01*
X252403Y198901D01*
X252301Y198871D01*
X252199Y198836D01*
X252099Y198799D01*
X252001Y198757D01*
X251904Y198712D01*
X251808Y198664D01*
X251715Y198612D01*
X251623Y198557D01*
X251533Y198498D01*
X251446Y198437D01*
X251361Y198372D01*
X251278Y198304D01*
X251198Y198234D01*
X251120Y198160D01*
X251045Y198084D01*
X250973Y198005D01*
X250903Y197923D01*
X250837Y197839D01*
X250774Y197753D01*
X250714Y197664D01*
X250657Y197574D01*
X250604Y197481D01*
X250554Y197386D01*
X250507Y197290D01*
X250464Y197192D01*
X250424Y197093D01*
X250388Y196992D01*
X250356Y196890D01*
X250327Y196787D01*
X250302Y196683D01*
X250281Y196578D01*
X250264Y196472D01*
X250250Y196366D01*
X250241Y196260D01*
X250235Y196153D01*
X250233Y196046D01*
X250232Y196046D02*
X250232Y191304D01*
X250233Y191304D02*
X250235Y191197D01*
X250241Y191090D01*
X250250Y190984D01*
X250264Y190878D01*
X250281Y190772D01*
X250302Y190667D01*
X250327Y190563D01*
X250356Y190460D01*
X250388Y190358D01*
X250424Y190257D01*
X250464Y190158D01*
X250507Y190060D01*
X250554Y189964D01*
X250604Y189869D01*
X250657Y189776D01*
X250714Y189686D01*
X250774Y189597D01*
X250837Y189511D01*
X250903Y189427D01*
X250973Y189345D01*
X251045Y189266D01*
X251120Y189190D01*
X251198Y189116D01*
X251278Y189046D01*
X251361Y188978D01*
X251446Y188913D01*
X251533Y188852D01*
X251623Y188793D01*
X251715Y188738D01*
X251808Y188686D01*
X251904Y188638D01*
X252001Y188593D01*
X252099Y188551D01*
X252199Y188514D01*
X252301Y188479D01*
X252403Y188449D01*
X252507Y188422D01*
X252611Y188399D01*
X252717Y188380D01*
X252823Y188365D01*
X252929Y188353D01*
X253036Y188345D01*
X253143Y188341D01*
X253249Y188341D01*
X253356Y188345D01*
X253463Y188353D01*
X253569Y188365D01*
X253675Y188380D01*
X253781Y188399D01*
X253885Y188422D01*
X253989Y188449D01*
X254091Y188479D01*
X254193Y188514D01*
X254293Y188551D01*
X254391Y188593D01*
X254488Y188638D01*
X254584Y188686D01*
X254677Y188738D01*
X254769Y188793D01*
X254859Y188852D01*
X254946Y188913D01*
X255031Y188978D01*
X255114Y189046D01*
X255194Y189116D01*
X255272Y189190D01*
X255347Y189266D01*
X255419Y189345D01*
X255489Y189427D01*
X255555Y189511D01*
X255618Y189597D01*
X255678Y189686D01*
X255735Y189776D01*
X255788Y189869D01*
X255838Y189964D01*
X255885Y190060D01*
X255928Y190158D01*
X255968Y190257D01*
X256004Y190358D01*
X256036Y190460D01*
X256065Y190563D01*
X256090Y190667D01*
X256111Y190772D01*
X256128Y190878D01*
X256142Y190984D01*
X256151Y191090D01*
X256157Y191197D01*
X256159Y191304D01*
X244348Y191304D02*
X244348Y199009D01*
X244348Y191304D02*
X244346Y191197D01*
X244340Y191090D01*
X244331Y190984D01*
X244317Y190878D01*
X244300Y190772D01*
X244279Y190667D01*
X244254Y190563D01*
X244225Y190460D01*
X244193Y190358D01*
X244157Y190257D01*
X244117Y190158D01*
X244074Y190060D01*
X244027Y189964D01*
X243977Y189869D01*
X243924Y189776D01*
X243867Y189686D01*
X243807Y189597D01*
X243744Y189511D01*
X243678Y189427D01*
X243608Y189345D01*
X243536Y189266D01*
X243461Y189190D01*
X243383Y189116D01*
X243303Y189046D01*
X243220Y188978D01*
X243135Y188913D01*
X243048Y188852D01*
X242958Y188793D01*
X242866Y188738D01*
X242773Y188686D01*
X242677Y188638D01*
X242580Y188593D01*
X242482Y188551D01*
X242382Y188514D01*
X242280Y188479D01*
X242178Y188449D01*
X242074Y188422D01*
X241970Y188399D01*
X241864Y188380D01*
X241758Y188365D01*
X241652Y188353D01*
X241545Y188345D01*
X241438Y188341D01*
X241332Y188341D01*
X241225Y188345D01*
X241118Y188353D01*
X241012Y188365D01*
X240906Y188380D01*
X240800Y188399D01*
X240696Y188422D01*
X240592Y188449D01*
X240490Y188479D01*
X240388Y188514D01*
X240288Y188551D01*
X240190Y188593D01*
X240093Y188638D01*
X239997Y188686D01*
X239904Y188738D01*
X239812Y188793D01*
X239722Y188852D01*
X239635Y188913D01*
X239550Y188978D01*
X239467Y189046D01*
X239387Y189116D01*
X239309Y189190D01*
X239234Y189266D01*
X239162Y189345D01*
X239092Y189427D01*
X239026Y189511D01*
X238963Y189597D01*
X238903Y189686D01*
X238846Y189776D01*
X238793Y189869D01*
X238743Y189964D01*
X238696Y190060D01*
X238653Y190158D01*
X238613Y190257D01*
X238577Y190358D01*
X238545Y190460D01*
X238516Y190563D01*
X238491Y190667D01*
X238470Y190772D01*
X238453Y190878D01*
X238439Y190984D01*
X238430Y191090D01*
X238424Y191197D01*
X238422Y191304D01*
X238421Y191304D02*
X238421Y199009D01*
X230336Y199009D02*
X230336Y188341D01*
X233299Y199009D02*
X227372Y199009D01*
X326754Y199009D02*
X326754Y188341D01*
X327939Y188341D02*
X325569Y188341D01*
X325569Y199009D02*
X327939Y199009D01*
X320192Y199009D02*
X320192Y188341D01*
X314266Y188341D02*
X320192Y199009D01*
X314266Y199009D02*
X314266Y188341D01*
X540664Y191304D02*
X540664Y196046D01*
X540662Y196153D01*
X540656Y196260D01*
X540647Y196366D01*
X540633Y196472D01*
X540616Y196578D01*
X540595Y196683D01*
X540570Y196787D01*
X540541Y196890D01*
X540509Y196992D01*
X540473Y197093D01*
X540433Y197192D01*
X540390Y197290D01*
X540343Y197386D01*
X540293Y197481D01*
X540240Y197574D01*
X540183Y197664D01*
X540123Y197753D01*
X540060Y197839D01*
X539994Y197923D01*
X539924Y198005D01*
X539852Y198084D01*
X539777Y198160D01*
X539699Y198234D01*
X539619Y198304D01*
X539536Y198372D01*
X539451Y198437D01*
X539364Y198498D01*
X539274Y198557D01*
X539183Y198612D01*
X539089Y198664D01*
X538993Y198712D01*
X538896Y198757D01*
X538798Y198799D01*
X538698Y198836D01*
X538596Y198871D01*
X538494Y198901D01*
X538390Y198928D01*
X538286Y198951D01*
X538180Y198970D01*
X538074Y198985D01*
X537968Y198997D01*
X537861Y199005D01*
X537754Y199009D01*
X537648Y199009D01*
X537541Y199005D01*
X537434Y198997D01*
X537328Y198985D01*
X537222Y198970D01*
X537116Y198951D01*
X537012Y198928D01*
X536908Y198901D01*
X536806Y198871D01*
X536704Y198836D01*
X536604Y198799D01*
X536506Y198757D01*
X536409Y198712D01*
X536313Y198664D01*
X536220Y198612D01*
X536128Y198557D01*
X536038Y198498D01*
X535951Y198437D01*
X535866Y198372D01*
X535783Y198304D01*
X535703Y198234D01*
X535625Y198160D01*
X535550Y198084D01*
X535478Y198005D01*
X535408Y197923D01*
X535342Y197839D01*
X535279Y197753D01*
X535219Y197664D01*
X535162Y197574D01*
X535109Y197481D01*
X535059Y197386D01*
X535012Y197290D01*
X534969Y197192D01*
X534929Y197093D01*
X534893Y196992D01*
X534861Y196890D01*
X534832Y196787D01*
X534807Y196683D01*
X534786Y196578D01*
X534769Y196472D01*
X534755Y196366D01*
X534746Y196260D01*
X534740Y196153D01*
X534738Y196046D01*
X534738Y191304D01*
X534740Y191197D01*
X534746Y191090D01*
X534755Y190984D01*
X534769Y190878D01*
X534786Y190772D01*
X534807Y190667D01*
X534832Y190563D01*
X534861Y190460D01*
X534893Y190358D01*
X534929Y190257D01*
X534969Y190158D01*
X535012Y190060D01*
X535059Y189964D01*
X535109Y189869D01*
X535162Y189776D01*
X535219Y189686D01*
X535279Y189597D01*
X535342Y189511D01*
X535408Y189427D01*
X535478Y189345D01*
X535550Y189266D01*
X535625Y189190D01*
X535703Y189116D01*
X535783Y189046D01*
X535866Y188978D01*
X535951Y188913D01*
X536038Y188852D01*
X536128Y188793D01*
X536220Y188738D01*
X536313Y188686D01*
X536409Y188638D01*
X536506Y188593D01*
X536604Y188551D01*
X536704Y188514D01*
X536806Y188479D01*
X536908Y188449D01*
X537012Y188422D01*
X537116Y188399D01*
X537222Y188380D01*
X537328Y188365D01*
X537434Y188353D01*
X537541Y188345D01*
X537648Y188341D01*
X537754Y188341D01*
X537861Y188345D01*
X537968Y188353D01*
X538074Y188365D01*
X538180Y188380D01*
X538286Y188399D01*
X538390Y188422D01*
X538494Y188449D01*
X538596Y188479D01*
X538698Y188514D01*
X538798Y188551D01*
X538896Y188593D01*
X538993Y188638D01*
X539089Y188686D01*
X539183Y188738D01*
X539274Y188793D01*
X539364Y188852D01*
X539451Y188913D01*
X539536Y188978D01*
X539619Y189046D01*
X539699Y189116D01*
X539777Y189190D01*
X539852Y189266D01*
X539924Y189345D01*
X539994Y189427D01*
X540060Y189511D01*
X540123Y189597D01*
X540183Y189686D01*
X540240Y189776D01*
X540293Y189869D01*
X540343Y189964D01*
X540390Y190060D01*
X540433Y190158D01*
X540473Y190257D01*
X540509Y190358D01*
X540541Y190460D01*
X540570Y190563D01*
X540595Y190667D01*
X540616Y190772D01*
X540633Y190878D01*
X540647Y190984D01*
X540656Y191090D01*
X540662Y191197D01*
X540664Y191304D01*
X528853Y191304D02*
X528853Y199009D01*
X528853Y191304D02*
X528851Y191197D01*
X528845Y191090D01*
X528836Y190984D01*
X528822Y190878D01*
X528805Y190772D01*
X528784Y190667D01*
X528759Y190563D01*
X528730Y190460D01*
X528698Y190358D01*
X528662Y190257D01*
X528622Y190158D01*
X528579Y190060D01*
X528532Y189964D01*
X528482Y189869D01*
X528429Y189776D01*
X528372Y189686D01*
X528312Y189597D01*
X528249Y189511D01*
X528183Y189427D01*
X528113Y189345D01*
X528041Y189266D01*
X527966Y189190D01*
X527888Y189116D01*
X527808Y189046D01*
X527725Y188978D01*
X527640Y188913D01*
X527553Y188852D01*
X527463Y188793D01*
X527372Y188738D01*
X527278Y188686D01*
X527182Y188638D01*
X527085Y188593D01*
X526987Y188551D01*
X526887Y188514D01*
X526785Y188479D01*
X526683Y188449D01*
X526579Y188422D01*
X526475Y188399D01*
X526369Y188380D01*
X526263Y188365D01*
X526157Y188353D01*
X526050Y188345D01*
X525943Y188341D01*
X525837Y188341D01*
X525730Y188345D01*
X525623Y188353D01*
X525517Y188365D01*
X525411Y188380D01*
X525305Y188399D01*
X525201Y188422D01*
X525097Y188449D01*
X524995Y188479D01*
X524893Y188514D01*
X524793Y188551D01*
X524695Y188593D01*
X524598Y188638D01*
X524502Y188686D01*
X524409Y188738D01*
X524317Y188793D01*
X524227Y188852D01*
X524140Y188913D01*
X524055Y188978D01*
X523972Y189046D01*
X523892Y189116D01*
X523814Y189190D01*
X523739Y189266D01*
X523667Y189345D01*
X523597Y189427D01*
X523531Y189511D01*
X523468Y189597D01*
X523408Y189686D01*
X523351Y189776D01*
X523298Y189869D01*
X523248Y189964D01*
X523201Y190060D01*
X523158Y190158D01*
X523118Y190257D01*
X523082Y190358D01*
X523050Y190460D01*
X523021Y190563D01*
X522996Y190667D01*
X522975Y190772D01*
X522958Y190878D01*
X522944Y190984D01*
X522935Y191090D01*
X522929Y191197D01*
X522927Y191304D01*
X522927Y199009D01*
X514841Y199009D02*
X514841Y188341D01*
X517804Y199009D02*
X511878Y199009D01*
X611260Y199009D02*
X611260Y188341D01*
X612445Y188341D02*
X610074Y188341D01*
X610074Y199009D02*
X612445Y199009D01*
X604698Y199009D02*
X604698Y188341D01*
X598771Y188341D02*
X604698Y199009D01*
X598771Y199009D02*
X598771Y188341D01*
X825170Y191304D02*
X825170Y196046D01*
X825169Y196046D02*
X825167Y196153D01*
X825161Y196260D01*
X825152Y196366D01*
X825138Y196472D01*
X825121Y196578D01*
X825100Y196683D01*
X825075Y196787D01*
X825046Y196890D01*
X825014Y196992D01*
X824978Y197093D01*
X824938Y197192D01*
X824895Y197290D01*
X824848Y197386D01*
X824798Y197481D01*
X824745Y197574D01*
X824688Y197664D01*
X824628Y197753D01*
X824565Y197839D01*
X824499Y197923D01*
X824429Y198005D01*
X824357Y198084D01*
X824282Y198160D01*
X824204Y198234D01*
X824124Y198304D01*
X824041Y198372D01*
X823956Y198437D01*
X823869Y198498D01*
X823779Y198557D01*
X823688Y198612D01*
X823594Y198664D01*
X823498Y198712D01*
X823401Y198757D01*
X823303Y198799D01*
X823203Y198836D01*
X823101Y198871D01*
X822999Y198901D01*
X822895Y198928D01*
X822791Y198951D01*
X822685Y198970D01*
X822579Y198985D01*
X822473Y198997D01*
X822366Y199005D01*
X822259Y199009D01*
X822153Y199009D01*
X822046Y199005D01*
X821939Y198997D01*
X821833Y198985D01*
X821727Y198970D01*
X821621Y198951D01*
X821517Y198928D01*
X821413Y198901D01*
X821311Y198871D01*
X821209Y198836D01*
X821109Y198799D01*
X821011Y198757D01*
X820914Y198712D01*
X820818Y198664D01*
X820725Y198612D01*
X820633Y198557D01*
X820543Y198498D01*
X820456Y198437D01*
X820371Y198372D01*
X820288Y198304D01*
X820208Y198234D01*
X820130Y198160D01*
X820055Y198084D01*
X819983Y198005D01*
X819913Y197923D01*
X819847Y197839D01*
X819784Y197753D01*
X819724Y197664D01*
X819667Y197574D01*
X819614Y197481D01*
X819564Y197386D01*
X819517Y197290D01*
X819474Y197192D01*
X819434Y197093D01*
X819398Y196992D01*
X819366Y196890D01*
X819337Y196787D01*
X819312Y196683D01*
X819291Y196578D01*
X819274Y196472D01*
X819260Y196366D01*
X819251Y196260D01*
X819245Y196153D01*
X819243Y196046D01*
X819243Y191304D01*
X819245Y191197D01*
X819251Y191090D01*
X819260Y190984D01*
X819274Y190878D01*
X819291Y190772D01*
X819312Y190667D01*
X819337Y190563D01*
X819366Y190460D01*
X819398Y190358D01*
X819434Y190257D01*
X819474Y190158D01*
X819517Y190060D01*
X819564Y189964D01*
X819614Y189869D01*
X819667Y189776D01*
X819724Y189686D01*
X819784Y189597D01*
X819847Y189511D01*
X819913Y189427D01*
X819983Y189345D01*
X820055Y189266D01*
X820130Y189190D01*
X820208Y189116D01*
X820288Y189046D01*
X820371Y188978D01*
X820456Y188913D01*
X820543Y188852D01*
X820633Y188793D01*
X820725Y188738D01*
X820818Y188686D01*
X820914Y188638D01*
X821011Y188593D01*
X821109Y188551D01*
X821209Y188514D01*
X821311Y188479D01*
X821413Y188449D01*
X821517Y188422D01*
X821621Y188399D01*
X821727Y188380D01*
X821833Y188365D01*
X821939Y188353D01*
X822046Y188345D01*
X822153Y188341D01*
X822259Y188341D01*
X822366Y188345D01*
X822473Y188353D01*
X822579Y188365D01*
X822685Y188380D01*
X822791Y188399D01*
X822895Y188422D01*
X822999Y188449D01*
X823101Y188479D01*
X823203Y188514D01*
X823303Y188551D01*
X823401Y188593D01*
X823498Y188638D01*
X823594Y188686D01*
X823688Y188738D01*
X823779Y188793D01*
X823869Y188852D01*
X823956Y188913D01*
X824041Y188978D01*
X824124Y189046D01*
X824204Y189116D01*
X824282Y189190D01*
X824357Y189266D01*
X824429Y189345D01*
X824499Y189427D01*
X824565Y189511D01*
X824628Y189597D01*
X824688Y189686D01*
X824745Y189776D01*
X824798Y189869D01*
X824848Y189964D01*
X824895Y190060D01*
X824938Y190158D01*
X824978Y190257D01*
X825014Y190358D01*
X825046Y190460D01*
X825075Y190563D01*
X825100Y190667D01*
X825121Y190772D01*
X825138Y190878D01*
X825152Y190984D01*
X825161Y191090D01*
X825167Y191197D01*
X825169Y191304D01*
X813359Y191304D02*
X813359Y199009D01*
X813359Y191304D02*
X813357Y191197D01*
X813351Y191090D01*
X813342Y190984D01*
X813328Y190878D01*
X813311Y190772D01*
X813290Y190667D01*
X813265Y190563D01*
X813236Y190460D01*
X813204Y190358D01*
X813168Y190257D01*
X813128Y190158D01*
X813085Y190060D01*
X813038Y189964D01*
X812988Y189869D01*
X812935Y189776D01*
X812878Y189686D01*
X812818Y189597D01*
X812755Y189511D01*
X812689Y189427D01*
X812619Y189345D01*
X812547Y189266D01*
X812472Y189190D01*
X812394Y189116D01*
X812314Y189046D01*
X812231Y188978D01*
X812146Y188913D01*
X812059Y188852D01*
X811969Y188793D01*
X811878Y188738D01*
X811784Y188686D01*
X811688Y188638D01*
X811591Y188593D01*
X811493Y188551D01*
X811393Y188514D01*
X811291Y188479D01*
X811189Y188449D01*
X811085Y188422D01*
X810981Y188399D01*
X810875Y188380D01*
X810769Y188365D01*
X810663Y188353D01*
X810556Y188345D01*
X810449Y188341D01*
X810343Y188341D01*
X810236Y188345D01*
X810129Y188353D01*
X810023Y188365D01*
X809917Y188380D01*
X809811Y188399D01*
X809707Y188422D01*
X809603Y188449D01*
X809501Y188479D01*
X809399Y188514D01*
X809299Y188551D01*
X809201Y188593D01*
X809104Y188638D01*
X809008Y188686D01*
X808915Y188738D01*
X808823Y188793D01*
X808733Y188852D01*
X808646Y188913D01*
X808561Y188978D01*
X808478Y189046D01*
X808398Y189116D01*
X808320Y189190D01*
X808245Y189266D01*
X808173Y189345D01*
X808103Y189427D01*
X808037Y189511D01*
X807974Y189597D01*
X807914Y189686D01*
X807857Y189776D01*
X807804Y189869D01*
X807754Y189964D01*
X807707Y190060D01*
X807664Y190158D01*
X807624Y190257D01*
X807588Y190358D01*
X807556Y190460D01*
X807527Y190563D01*
X807502Y190667D01*
X807481Y190772D01*
X807464Y190878D01*
X807450Y190984D01*
X807441Y191090D01*
X807435Y191197D01*
X807433Y191304D01*
X807432Y191304D02*
X807432Y199009D01*
X799347Y199009D02*
X799347Y188341D01*
X802310Y199009D02*
X796383Y199009D01*
X42249Y498221D02*
X42249Y508889D01*
X43434Y498221D02*
X41063Y498221D01*
X41063Y508889D02*
X43434Y508889D01*
X35687Y508889D02*
X35687Y498221D01*
X29760Y498221D02*
X35687Y508889D01*
X29760Y508889D02*
X29760Y498221D01*
X256159Y501184D02*
X256159Y505926D01*
X256157Y506033D01*
X256151Y506140D01*
X256142Y506246D01*
X256128Y506352D01*
X256111Y506458D01*
X256090Y506563D01*
X256065Y506667D01*
X256036Y506770D01*
X256004Y506872D01*
X255968Y506973D01*
X255928Y507072D01*
X255885Y507170D01*
X255838Y507266D01*
X255788Y507361D01*
X255735Y507454D01*
X255678Y507544D01*
X255618Y507633D01*
X255555Y507719D01*
X255489Y507803D01*
X255419Y507885D01*
X255347Y507964D01*
X255272Y508040D01*
X255194Y508114D01*
X255114Y508184D01*
X255031Y508252D01*
X254946Y508317D01*
X254859Y508378D01*
X254769Y508437D01*
X254678Y508492D01*
X254584Y508544D01*
X254488Y508592D01*
X254391Y508637D01*
X254293Y508679D01*
X254193Y508716D01*
X254091Y508751D01*
X253989Y508781D01*
X253885Y508808D01*
X253781Y508831D01*
X253675Y508850D01*
X253569Y508865D01*
X253463Y508877D01*
X253356Y508885D01*
X253249Y508889D01*
X253143Y508889D01*
X253036Y508885D01*
X252929Y508877D01*
X252823Y508865D01*
X252717Y508850D01*
X252611Y508831D01*
X252507Y508808D01*
X252403Y508781D01*
X252301Y508751D01*
X252199Y508716D01*
X252099Y508679D01*
X252001Y508637D01*
X251904Y508592D01*
X251808Y508544D01*
X251715Y508492D01*
X251623Y508437D01*
X251533Y508378D01*
X251446Y508317D01*
X251361Y508252D01*
X251278Y508184D01*
X251198Y508114D01*
X251120Y508040D01*
X251045Y507964D01*
X250973Y507885D01*
X250903Y507803D01*
X250837Y507719D01*
X250774Y507633D01*
X250714Y507544D01*
X250657Y507454D01*
X250604Y507361D01*
X250554Y507266D01*
X250507Y507170D01*
X250464Y507072D01*
X250424Y506973D01*
X250388Y506872D01*
X250356Y506770D01*
X250327Y506667D01*
X250302Y506563D01*
X250281Y506458D01*
X250264Y506352D01*
X250250Y506246D01*
X250241Y506140D01*
X250235Y506033D01*
X250233Y505926D01*
X250232Y505926D02*
X250232Y501184D01*
X250233Y501184D02*
X250235Y501077D01*
X250241Y500970D01*
X250250Y500864D01*
X250264Y500758D01*
X250281Y500652D01*
X250302Y500547D01*
X250327Y500443D01*
X250356Y500340D01*
X250388Y500238D01*
X250424Y500137D01*
X250464Y500038D01*
X250507Y499940D01*
X250554Y499844D01*
X250604Y499749D01*
X250657Y499656D01*
X250714Y499566D01*
X250774Y499477D01*
X250837Y499391D01*
X250903Y499307D01*
X250973Y499225D01*
X251045Y499146D01*
X251120Y499070D01*
X251198Y498996D01*
X251278Y498926D01*
X251361Y498858D01*
X251446Y498793D01*
X251533Y498732D01*
X251623Y498673D01*
X251715Y498618D01*
X251808Y498566D01*
X251904Y498518D01*
X252001Y498473D01*
X252099Y498431D01*
X252199Y498394D01*
X252301Y498359D01*
X252403Y498329D01*
X252507Y498302D01*
X252611Y498279D01*
X252717Y498260D01*
X252823Y498245D01*
X252929Y498233D01*
X253036Y498225D01*
X253143Y498221D01*
X253249Y498221D01*
X253356Y498225D01*
X253463Y498233D01*
X253569Y498245D01*
X253675Y498260D01*
X253781Y498279D01*
X253885Y498302D01*
X253989Y498329D01*
X254091Y498359D01*
X254193Y498394D01*
X254293Y498431D01*
X254391Y498473D01*
X254488Y498518D01*
X254584Y498566D01*
X254677Y498618D01*
X254769Y498673D01*
X254859Y498732D01*
X254946Y498793D01*
X255031Y498858D01*
X255114Y498926D01*
X255194Y498996D01*
X255272Y499070D01*
X255347Y499146D01*
X255419Y499225D01*
X255489Y499307D01*
X255555Y499391D01*
X255618Y499477D01*
X255678Y499566D01*
X255735Y499656D01*
X255788Y499749D01*
X255838Y499844D01*
X255885Y499940D01*
X255928Y500038D01*
X255968Y500137D01*
X256004Y500238D01*
X256036Y500340D01*
X256065Y500443D01*
X256090Y500547D01*
X256111Y500652D01*
X256128Y500758D01*
X256142Y500864D01*
X256151Y500970D01*
X256157Y501077D01*
X256159Y501184D01*
X244348Y501184D02*
X244348Y508889D01*
X244348Y501184D02*
X244346Y501077D01*
X244340Y500970D01*
X244331Y500864D01*
X244317Y500758D01*
X244300Y500652D01*
X244279Y500547D01*
X244254Y500443D01*
X244225Y500340D01*
X244193Y500238D01*
X244157Y500137D01*
X244117Y500038D01*
X244074Y499940D01*
X244027Y499844D01*
X243977Y499749D01*
X243924Y499656D01*
X243867Y499566D01*
X243807Y499477D01*
X243744Y499391D01*
X243678Y499307D01*
X243608Y499225D01*
X243536Y499146D01*
X243461Y499070D01*
X243383Y498996D01*
X243303Y498926D01*
X243220Y498858D01*
X243135Y498793D01*
X243048Y498732D01*
X242958Y498673D01*
X242866Y498618D01*
X242773Y498566D01*
X242677Y498518D01*
X242580Y498473D01*
X242482Y498431D01*
X242382Y498394D01*
X242280Y498359D01*
X242178Y498329D01*
X242074Y498302D01*
X241970Y498279D01*
X241864Y498260D01*
X241758Y498245D01*
X241652Y498233D01*
X241545Y498225D01*
X241438Y498221D01*
X241332Y498221D01*
X241225Y498225D01*
X241118Y498233D01*
X241012Y498245D01*
X240906Y498260D01*
X240800Y498279D01*
X240696Y498302D01*
X240592Y498329D01*
X240490Y498359D01*
X240388Y498394D01*
X240288Y498431D01*
X240190Y498473D01*
X240093Y498518D01*
X239997Y498566D01*
X239904Y498618D01*
X239812Y498673D01*
X239722Y498732D01*
X239635Y498793D01*
X239550Y498858D01*
X239467Y498926D01*
X239387Y498996D01*
X239309Y499070D01*
X239234Y499146D01*
X239162Y499225D01*
X239092Y499307D01*
X239026Y499391D01*
X238963Y499477D01*
X238903Y499566D01*
X238846Y499656D01*
X238793Y499749D01*
X238743Y499844D01*
X238696Y499940D01*
X238653Y500038D01*
X238613Y500137D01*
X238577Y500238D01*
X238545Y500340D01*
X238516Y500443D01*
X238491Y500547D01*
X238470Y500652D01*
X238453Y500758D01*
X238439Y500864D01*
X238430Y500970D01*
X238424Y501077D01*
X238422Y501184D01*
X238421Y501184D02*
X238421Y508889D01*
X230336Y508889D02*
X230336Y498221D01*
X233299Y508889D02*
X227372Y508889D01*
X326754Y508889D02*
X326754Y498221D01*
X327939Y498221D02*
X325569Y498221D01*
X325569Y508889D02*
X327939Y508889D01*
X320192Y508889D02*
X320192Y498221D01*
X314266Y498221D02*
X320192Y508889D01*
X314266Y508889D02*
X314266Y498221D01*
X540664Y501184D02*
X540664Y505926D01*
X540662Y506033D01*
X540656Y506140D01*
X540647Y506246D01*
X540633Y506352D01*
X540616Y506458D01*
X540595Y506563D01*
X540570Y506667D01*
X540541Y506770D01*
X540509Y506872D01*
X540473Y506973D01*
X540433Y507072D01*
X540390Y507170D01*
X540343Y507266D01*
X540293Y507361D01*
X540240Y507454D01*
X540183Y507544D01*
X540123Y507633D01*
X540060Y507719D01*
X539994Y507803D01*
X539924Y507885D01*
X539852Y507964D01*
X539777Y508040D01*
X539699Y508114D01*
X539619Y508184D01*
X539536Y508252D01*
X539451Y508317D01*
X539364Y508378D01*
X539274Y508437D01*
X539183Y508492D01*
X539089Y508544D01*
X538993Y508592D01*
X538896Y508637D01*
X538798Y508679D01*
X538698Y508716D01*
X538596Y508751D01*
X538494Y508781D01*
X538390Y508808D01*
X538286Y508831D01*
X538180Y508850D01*
X538074Y508865D01*
X537968Y508877D01*
X537861Y508885D01*
X537754Y508889D01*
X537648Y508889D01*
X537541Y508885D01*
X537434Y508877D01*
X537328Y508865D01*
X537222Y508850D01*
X537116Y508831D01*
X537012Y508808D01*
X536908Y508781D01*
X536806Y508751D01*
X536704Y508716D01*
X536604Y508679D01*
X536506Y508637D01*
X536409Y508592D01*
X536313Y508544D01*
X536220Y508492D01*
X536128Y508437D01*
X536038Y508378D01*
X535951Y508317D01*
X535866Y508252D01*
X535783Y508184D01*
X535703Y508114D01*
X535625Y508040D01*
X535550Y507964D01*
X535478Y507885D01*
X535408Y507803D01*
X535342Y507719D01*
X535279Y507633D01*
X535219Y507544D01*
X535162Y507454D01*
X535109Y507361D01*
X535059Y507266D01*
X535012Y507170D01*
X534969Y507072D01*
X534929Y506973D01*
X534893Y506872D01*
X534861Y506770D01*
X534832Y506667D01*
X534807Y506563D01*
X534786Y506458D01*
X534769Y506352D01*
X534755Y506246D01*
X534746Y506140D01*
X534740Y506033D01*
X534738Y505926D01*
X534738Y501184D01*
X534740Y501077D01*
X534746Y500970D01*
X534755Y500864D01*
X534769Y500758D01*
X534786Y500652D01*
X534807Y500547D01*
X534832Y500443D01*
X534861Y500340D01*
X534893Y500238D01*
X534929Y500137D01*
X534969Y500038D01*
X535012Y499940D01*
X535059Y499844D01*
X535109Y499749D01*
X535162Y499656D01*
X535219Y499566D01*
X535279Y499477D01*
X535342Y499391D01*
X535408Y499307D01*
X535478Y499225D01*
X535550Y499146D01*
X535625Y499070D01*
X535703Y498996D01*
X535783Y498926D01*
X535866Y498858D01*
X535951Y498793D01*
X536038Y498732D01*
X536128Y498673D01*
X536220Y498618D01*
X536313Y498566D01*
X536409Y498518D01*
X536506Y498473D01*
X536604Y498431D01*
X536704Y498394D01*
X536806Y498359D01*
X536908Y498329D01*
X537012Y498302D01*
X537116Y498279D01*
X537222Y498260D01*
X537328Y498245D01*
X537434Y498233D01*
X537541Y498225D01*
X537648Y498221D01*
X537754Y498221D01*
X537861Y498225D01*
X537968Y498233D01*
X538074Y498245D01*
X538180Y498260D01*
X538286Y498279D01*
X538390Y498302D01*
X538494Y498329D01*
X538596Y498359D01*
X538698Y498394D01*
X538798Y498431D01*
X538896Y498473D01*
X538993Y498518D01*
X539089Y498566D01*
X539183Y498618D01*
X539274Y498673D01*
X539364Y498732D01*
X539451Y498793D01*
X539536Y498858D01*
X539619Y498926D01*
X539699Y498996D01*
X539777Y499070D01*
X539852Y499146D01*
X539924Y499225D01*
X539994Y499307D01*
X540060Y499391D01*
X540123Y499477D01*
X540183Y499566D01*
X540240Y499656D01*
X540293Y499749D01*
X540343Y499844D01*
X540390Y499940D01*
X540433Y500038D01*
X540473Y500137D01*
X540509Y500238D01*
X540541Y500340D01*
X540570Y500443D01*
X540595Y500547D01*
X540616Y500652D01*
X540633Y500758D01*
X540647Y500864D01*
X540656Y500970D01*
X540662Y501077D01*
X540664Y501184D01*
X528853Y501184D02*
X528853Y508889D01*
X528853Y501184D02*
X528851Y501077D01*
X528845Y500970D01*
X528836Y500864D01*
X528822Y500758D01*
X528805Y500652D01*
X528784Y500547D01*
X528759Y500443D01*
X528730Y500340D01*
X528698Y500238D01*
X528662Y500137D01*
X528622Y500038D01*
X528579Y499940D01*
X528532Y499844D01*
X528482Y499749D01*
X528429Y499656D01*
X528372Y499566D01*
X528312Y499477D01*
X528249Y499391D01*
X528183Y499307D01*
X528113Y499225D01*
X528041Y499146D01*
X527966Y499070D01*
X527888Y498996D01*
X527808Y498926D01*
X527725Y498858D01*
X527640Y498793D01*
X527553Y498732D01*
X527463Y498673D01*
X527372Y498618D01*
X527278Y498566D01*
X527182Y498518D01*
X527085Y498473D01*
X526987Y498431D01*
X526887Y498394D01*
X526785Y498359D01*
X526683Y498329D01*
X526579Y498302D01*
X526475Y498279D01*
X526369Y498260D01*
X526263Y498245D01*
X526157Y498233D01*
X526050Y498225D01*
X525943Y498221D01*
X525837Y498221D01*
X525730Y498225D01*
X525623Y498233D01*
X525517Y498245D01*
X525411Y498260D01*
X525305Y498279D01*
X525201Y498302D01*
X525097Y498329D01*
X524995Y498359D01*
X524893Y498394D01*
X524793Y498431D01*
X524695Y498473D01*
X524598Y498518D01*
X524502Y498566D01*
X524409Y498618D01*
X524317Y498673D01*
X524227Y498732D01*
X524140Y498793D01*
X524055Y498858D01*
X523972Y498926D01*
X523892Y498996D01*
X523814Y499070D01*
X523739Y499146D01*
X523667Y499225D01*
X523597Y499307D01*
X523531Y499391D01*
X523468Y499477D01*
X523408Y499566D01*
X523351Y499656D01*
X523298Y499749D01*
X523248Y499844D01*
X523201Y499940D01*
X523158Y500038D01*
X523118Y500137D01*
X523082Y500238D01*
X523050Y500340D01*
X523021Y500443D01*
X522996Y500547D01*
X522975Y500652D01*
X522958Y500758D01*
X522944Y500864D01*
X522935Y500970D01*
X522929Y501077D01*
X522927Y501184D01*
X522927Y508889D01*
X514841Y508889D02*
X514841Y498221D01*
X517804Y508889D02*
X511878Y508889D01*
X611260Y508889D02*
X611260Y498221D01*
X612445Y498221D02*
X610074Y498221D01*
X610074Y508889D02*
X612445Y508889D01*
X604698Y508889D02*
X604698Y498221D01*
X598771Y498221D02*
X604698Y508889D01*
X598771Y508889D02*
X598771Y498221D01*
X825170Y501184D02*
X825170Y505926D01*
X825169Y505926D02*
X825167Y506033D01*
X825161Y506140D01*
X825152Y506246D01*
X825138Y506352D01*
X825121Y506458D01*
X825100Y506563D01*
X825075Y506667D01*
X825046Y506770D01*
X825014Y506872D01*
X824978Y506973D01*
X824938Y507072D01*
X824895Y507170D01*
X824848Y507266D01*
X824798Y507361D01*
X824745Y507454D01*
X824688Y507544D01*
X824628Y507633D01*
X824565Y507719D01*
X824499Y507803D01*
X824429Y507885D01*
X824357Y507964D01*
X824282Y508040D01*
X824204Y508114D01*
X824124Y508184D01*
X824041Y508252D01*
X823956Y508317D01*
X823869Y508378D01*
X823779Y508437D01*
X823688Y508492D01*
X823594Y508544D01*
X823498Y508592D01*
X823401Y508637D01*
X823303Y508679D01*
X823203Y508716D01*
X823101Y508751D01*
X822999Y508781D01*
X822895Y508808D01*
X822791Y508831D01*
X822685Y508850D01*
X822579Y508865D01*
X822473Y508877D01*
X822366Y508885D01*
X822259Y508889D01*
X822153Y508889D01*
X822046Y508885D01*
X821939Y508877D01*
X821833Y508865D01*
X821727Y508850D01*
X821621Y508831D01*
X821517Y508808D01*
X821413Y508781D01*
X821311Y508751D01*
X821209Y508716D01*
X821109Y508679D01*
X821011Y508637D01*
X820914Y508592D01*
X820818Y508544D01*
X820725Y508492D01*
X820633Y508437D01*
X820543Y508378D01*
X820456Y508317D01*
X820371Y508252D01*
X820288Y508184D01*
X820208Y508114D01*
X820130Y508040D01*
X820055Y507964D01*
X819983Y507885D01*
X819913Y507803D01*
X819847Y507719D01*
X819784Y507633D01*
X819724Y507544D01*
X819667Y507454D01*
X819614Y507361D01*
X819564Y507266D01*
X819517Y507170D01*
X819474Y507072D01*
X819434Y506973D01*
X819398Y506872D01*
X819366Y506770D01*
X819337Y506667D01*
X819312Y506563D01*
X819291Y506458D01*
X819274Y506352D01*
X819260Y506246D01*
X819251Y506140D01*
X819245Y506033D01*
X819243Y505926D01*
X819243Y501184D01*
X819245Y501077D01*
X819251Y500970D01*
X819260Y500864D01*
X819274Y500758D01*
X819291Y500652D01*
X819312Y500547D01*
X819337Y500443D01*
X819366Y500340D01*
X819398Y500238D01*
X819434Y500137D01*
X819474Y500038D01*
X819517Y499940D01*
X819564Y499844D01*
X819614Y499749D01*
X819667Y499656D01*
X819724Y499566D01*
X819784Y499477D01*
X819847Y499391D01*
X819913Y499307D01*
X819983Y499225D01*
X820055Y499146D01*
X820130Y499070D01*
X820208Y498996D01*
X820288Y498926D01*
X820371Y498858D01*
X820456Y498793D01*
X820543Y498732D01*
X820633Y498673D01*
X820725Y498618D01*
X820818Y498566D01*
X820914Y498518D01*
X821011Y498473D01*
X821109Y498431D01*
X821209Y498394D01*
X821311Y498359D01*
X821413Y498329D01*
X821517Y498302D01*
X821621Y498279D01*
X821727Y498260D01*
X821833Y498245D01*
X821939Y498233D01*
X822046Y498225D01*
X822153Y498221D01*
X822259Y498221D01*
X822366Y498225D01*
X822473Y498233D01*
X822579Y498245D01*
X822685Y498260D01*
X822791Y498279D01*
X822895Y498302D01*
X822999Y498329D01*
X823101Y498359D01*
X823203Y498394D01*
X823303Y498431D01*
X823401Y498473D01*
X823498Y498518D01*
X823594Y498566D01*
X823688Y498618D01*
X823779Y498673D01*
X823869Y498732D01*
X823956Y498793D01*
X824041Y498858D01*
X824124Y498926D01*
X824204Y498996D01*
X824282Y499070D01*
X824357Y499146D01*
X824429Y499225D01*
X824499Y499307D01*
X824565Y499391D01*
X824628Y499477D01*
X824688Y499566D01*
X824745Y499656D01*
X824798Y499749D01*
X824848Y499844D01*
X824895Y499940D01*
X824938Y500038D01*
X824978Y500137D01*
X825014Y500238D01*
X825046Y500340D01*
X825075Y500443D01*
X825100Y500547D01*
X825121Y500652D01*
X825138Y500758D01*
X825152Y500864D01*
X825161Y500970D01*
X825167Y501077D01*
X825169Y501184D01*
X813359Y501184D02*
X813359Y508889D01*
X813359Y501184D02*
X813357Y501077D01*
X813351Y500970D01*
X813342Y500864D01*
X813328Y500758D01*
X813311Y500652D01*
X813290Y500547D01*
X813265Y500443D01*
X813236Y500340D01*
X813204Y500238D01*
X813168Y500137D01*
X813128Y500038D01*
X813085Y499940D01*
X813038Y499844D01*
X812988Y499749D01*
X812935Y499656D01*
X812878Y499566D01*
X812818Y499477D01*
X812755Y499391D01*
X812689Y499307D01*
X812619Y499225D01*
X812547Y499146D01*
X812472Y499070D01*
X812394Y498996D01*
X812314Y498926D01*
X812231Y498858D01*
X812146Y498793D01*
X812059Y498732D01*
X811969Y498673D01*
X811878Y498618D01*
X811784Y498566D01*
X811688Y498518D01*
X811591Y498473D01*
X811493Y498431D01*
X811393Y498394D01*
X811291Y498359D01*
X811189Y498329D01*
X811085Y498302D01*
X810981Y498279D01*
X810875Y498260D01*
X810769Y498245D01*
X810663Y498233D01*
X810556Y498225D01*
X810449Y498221D01*
X810343Y498221D01*
X810236Y498225D01*
X810129Y498233D01*
X810023Y498245D01*
X809917Y498260D01*
X809811Y498279D01*
X809707Y498302D01*
X809603Y498329D01*
X809501Y498359D01*
X809399Y498394D01*
X809299Y498431D01*
X809201Y498473D01*
X809104Y498518D01*
X809008Y498566D01*
X808915Y498618D01*
X808823Y498673D01*
X808733Y498732D01*
X808646Y498793D01*
X808561Y498858D01*
X808478Y498926D01*
X808398Y498996D01*
X808320Y499070D01*
X808245Y499146D01*
X808173Y499225D01*
X808103Y499307D01*
X808037Y499391D01*
X807974Y499477D01*
X807914Y499566D01*
X807857Y499656D01*
X807804Y499749D01*
X807754Y499844D01*
X807707Y499940D01*
X807664Y500038D01*
X807624Y500137D01*
X807588Y500238D01*
X807556Y500340D01*
X807527Y500443D01*
X807502Y500547D01*
X807481Y500652D01*
X807464Y500758D01*
X807450Y500864D01*
X807441Y500970D01*
X807435Y501077D01*
X807433Y501184D01*
X807432Y501184D02*
X807432Y508889D01*
X799347Y508889D02*
X799347Y498221D01*
X802310Y508889D02*
X796383Y508889D01*
X42249Y808101D02*
X42249Y818769D01*
X43434Y808101D02*
X41063Y808101D01*
X41063Y818769D02*
X43434Y818769D01*
X35687Y818769D02*
X35687Y808101D01*
X29760Y808101D02*
X35687Y818769D01*
X29760Y818769D02*
X29760Y808101D01*
X256159Y811064D02*
X256159Y815806D01*
X256157Y815913D01*
X256151Y816020D01*
X256142Y816126D01*
X256128Y816232D01*
X256111Y816338D01*
X256090Y816443D01*
X256065Y816547D01*
X256036Y816650D01*
X256004Y816752D01*
X255968Y816853D01*
X255928Y816952D01*
X255885Y817050D01*
X255838Y817146D01*
X255788Y817241D01*
X255735Y817334D01*
X255678Y817424D01*
X255618Y817513D01*
X255555Y817599D01*
X255489Y817683D01*
X255419Y817765D01*
X255347Y817844D01*
X255272Y817920D01*
X255194Y817994D01*
X255114Y818064D01*
X255031Y818132D01*
X254946Y818197D01*
X254859Y818258D01*
X254769Y818317D01*
X254678Y818372D01*
X254584Y818424D01*
X254488Y818472D01*
X254391Y818517D01*
X254293Y818559D01*
X254193Y818596D01*
X254091Y818631D01*
X253989Y818661D01*
X253885Y818688D01*
X253781Y818711D01*
X253675Y818730D01*
X253569Y818745D01*
X253463Y818757D01*
X253356Y818765D01*
X253249Y818769D01*
X253143Y818769D01*
X253036Y818765D01*
X252929Y818757D01*
X252823Y818745D01*
X252717Y818730D01*
X252611Y818711D01*
X252507Y818688D01*
X252403Y818661D01*
X252301Y818631D01*
X252199Y818596D01*
X252099Y818559D01*
X252001Y818517D01*
X251904Y818472D01*
X251808Y818424D01*
X251715Y818372D01*
X251623Y818317D01*
X251533Y818258D01*
X251446Y818197D01*
X251361Y818132D01*
X251278Y818064D01*
X251198Y817994D01*
X251120Y817920D01*
X251045Y817844D01*
X250973Y817765D01*
X250903Y817683D01*
X250837Y817599D01*
X250774Y817513D01*
X250714Y817424D01*
X250657Y817334D01*
X250604Y817241D01*
X250554Y817146D01*
X250507Y817050D01*
X250464Y816952D01*
X250424Y816853D01*
X250388Y816752D01*
X250356Y816650D01*
X250327Y816547D01*
X250302Y816443D01*
X250281Y816338D01*
X250264Y816232D01*
X250250Y816126D01*
X250241Y816020D01*
X250235Y815913D01*
X250233Y815806D01*
X250232Y815806D02*
X250232Y811064D01*
X250233Y811064D02*
X250235Y810957D01*
X250241Y810850D01*
X250250Y810744D01*
X250264Y810638D01*
X250281Y810532D01*
X250302Y810427D01*
X250327Y810323D01*
X250356Y810220D01*
X250388Y810118D01*
X250424Y810017D01*
X250464Y809918D01*
X250507Y809820D01*
X250554Y809724D01*
X250604Y809629D01*
X250657Y809536D01*
X250714Y809446D01*
X250774Y809357D01*
X250837Y809271D01*
X250903Y809187D01*
X250973Y809105D01*
X251045Y809026D01*
X251120Y808950D01*
X251198Y808876D01*
X251278Y808806D01*
X251361Y808738D01*
X251446Y808673D01*
X251533Y808612D01*
X251623Y808553D01*
X251715Y808498D01*
X251808Y808446D01*
X251904Y808398D01*
X252001Y808353D01*
X252099Y808311D01*
X252199Y808274D01*
X252301Y808239D01*
X252403Y808209D01*
X252507Y808182D01*
X252611Y808159D01*
X252717Y808140D01*
X252823Y808125D01*
X252929Y808113D01*
X253036Y808105D01*
X253143Y808101D01*
X253249Y808101D01*
X253356Y808105D01*
X253463Y808113D01*
X253569Y808125D01*
X253675Y808140D01*
X253781Y808159D01*
X253885Y808182D01*
X253989Y808209D01*
X254091Y808239D01*
X254193Y808274D01*
X254293Y808311D01*
X254391Y808353D01*
X254488Y808398D01*
X254584Y808446D01*
X254677Y808498D01*
X254769Y808553D01*
X254859Y808612D01*
X254946Y808673D01*
X255031Y808738D01*
X255114Y808806D01*
X255194Y808876D01*
X255272Y808950D01*
X255347Y809026D01*
X255419Y809105D01*
X255489Y809187D01*
X255555Y809271D01*
X255618Y809357D01*
X255678Y809446D01*
X255735Y809536D01*
X255788Y809629D01*
X255838Y809724D01*
X255885Y809820D01*
X255928Y809918D01*
X255968Y810017D01*
X256004Y810118D01*
X256036Y810220D01*
X256065Y810323D01*
X256090Y810427D01*
X256111Y810532D01*
X256128Y810638D01*
X256142Y810744D01*
X256151Y810850D01*
X256157Y810957D01*
X256159Y811064D01*
X244348Y811064D02*
X244348Y818769D01*
X244348Y811064D02*
X244346Y810957D01*
X244340Y810850D01*
X244331Y810744D01*
X244317Y810638D01*
X244300Y810532D01*
X244279Y810427D01*
X244254Y810323D01*
X244225Y810220D01*
X244193Y810118D01*
X244157Y810017D01*
X244117Y809918D01*
X244074Y809820D01*
X244027Y809724D01*
X243977Y809629D01*
X243924Y809536D01*
X243867Y809446D01*
X243807Y809357D01*
X243744Y809271D01*
X243678Y809187D01*
X243608Y809105D01*
X243536Y809026D01*
X243461Y808950D01*
X243383Y808876D01*
X243303Y808806D01*
X243220Y808738D01*
X243135Y808673D01*
X243048Y808612D01*
X242958Y808553D01*
X242866Y808498D01*
X242773Y808446D01*
X242677Y808398D01*
X242580Y808353D01*
X242482Y808311D01*
X242382Y808274D01*
X242280Y808239D01*
X242178Y808209D01*
X242074Y808182D01*
X241970Y808159D01*
X241864Y808140D01*
X241758Y808125D01*
X241652Y808113D01*
X241545Y808105D01*
X241438Y808101D01*
X241332Y808101D01*
X241225Y808105D01*
X241118Y808113D01*
X241012Y808125D01*
X240906Y808140D01*
X240800Y808159D01*
X240696Y808182D01*
X240592Y808209D01*
X240490Y808239D01*
X240388Y808274D01*
X240288Y808311D01*
X240190Y808353D01*
X240093Y808398D01*
X239997Y808446D01*
X239904Y808498D01*
X239812Y808553D01*
X239722Y808612D01*
X239635Y808673D01*
X239550Y808738D01*
X239467Y808806D01*
X239387Y808876D01*
X239309Y808950D01*
X239234Y809026D01*
X239162Y809105D01*
X239092Y809187D01*
X239026Y809271D01*
X238963Y809357D01*
X238903Y809446D01*
X238846Y809536D01*
X238793Y809629D01*
X238743Y809724D01*
X238696Y809820D01*
X238653Y809918D01*
X238613Y810017D01*
X238577Y810118D01*
X238545Y810220D01*
X238516Y810323D01*
X238491Y810427D01*
X238470Y810532D01*
X238453Y810638D01*
X238439Y810744D01*
X238430Y810850D01*
X238424Y810957D01*
X238422Y811064D01*
X238421Y811064D02*
X238421Y818769D01*
X230336Y818769D02*
X230336Y808101D01*
X233299Y818769D02*
X227372Y818769D01*
X326754Y818769D02*
X326754Y808101D01*
X327939Y808101D02*
X325569Y808101D01*
X325569Y818769D02*
X327939Y818769D01*
X320192Y818769D02*
X320192Y808101D01*
X314266Y808101D02*
X320192Y818769D01*
X314266Y818769D02*
X314266Y808101D01*
X540664Y811064D02*
X540664Y815806D01*
X540662Y815913D01*
X540656Y816020D01*
X540647Y816126D01*
X540633Y816232D01*
X540616Y816338D01*
X540595Y816443D01*
X540570Y816547D01*
X540541Y816650D01*
X540509Y816752D01*
X540473Y816853D01*
X540433Y816952D01*
X540390Y817050D01*
X540343Y817146D01*
X540293Y817241D01*
X540240Y817334D01*
X540183Y817424D01*
X540123Y817513D01*
X540060Y817599D01*
X539994Y817683D01*
X539924Y817765D01*
X539852Y817844D01*
X539777Y817920D01*
X539699Y817994D01*
X539619Y818064D01*
X539536Y818132D01*
X539451Y818197D01*
X539364Y818258D01*
X539274Y818317D01*
X539183Y818372D01*
X539089Y818424D01*
X538993Y818472D01*
X538896Y818517D01*
X538798Y818559D01*
X538698Y818596D01*
X538596Y818631D01*
X538494Y818661D01*
X538390Y818688D01*
X538286Y818711D01*
X538180Y818730D01*
X538074Y818745D01*
X537968Y818757D01*
X537861Y818765D01*
X537754Y818769D01*
X537648Y818769D01*
X537541Y818765D01*
X537434Y818757D01*
X537328Y818745D01*
X537222Y818730D01*
X537116Y818711D01*
X537012Y818688D01*
X536908Y818661D01*
X536806Y818631D01*
X536704Y818596D01*
X536604Y818559D01*
X536506Y818517D01*
X536409Y818472D01*
X536313Y818424D01*
X536220Y818372D01*
X536128Y818317D01*
X536038Y818258D01*
X535951Y818197D01*
X535866Y818132D01*
X535783Y818064D01*
X535703Y817994D01*
X535625Y817920D01*
X535550Y817844D01*
X535478Y817765D01*
X535408Y817683D01*
X535342Y817599D01*
X535279Y817513D01*
X535219Y817424D01*
X535162Y817334D01*
X535109Y817241D01*
X535059Y817146D01*
X535012Y817050D01*
X534969Y816952D01*
X534929Y816853D01*
X534893Y816752D01*
X534861Y816650D01*
X534832Y816547D01*
X534807Y816443D01*
X534786Y816338D01*
X534769Y816232D01*
X534755Y816126D01*
X534746Y816020D01*
X534740Y815913D01*
X534738Y815806D01*
X534738Y811064D01*
X534740Y810957D01*
X534746Y810850D01*
X534755Y810744D01*
X534769Y810638D01*
X534786Y810532D01*
X534807Y810427D01*
X534832Y810323D01*
X534861Y810220D01*
X534893Y810118D01*
X534929Y810017D01*
X534969Y809918D01*
X535012Y809820D01*
X535059Y809724D01*
X535109Y809629D01*
X535162Y809536D01*
X535219Y809446D01*
X535279Y809357D01*
X535342Y809271D01*
X535408Y809187D01*
X535478Y809105D01*
X535550Y809026D01*
X535625Y808950D01*
X535703Y808876D01*
X535783Y808806D01*
X535866Y808738D01*
X535951Y808673D01*
X536038Y808612D01*
X536128Y808553D01*
X536220Y808498D01*
X536313Y808446D01*
X536409Y808398D01*
X536506Y808353D01*
X536604Y808311D01*
X536704Y808274D01*
X536806Y808239D01*
X536908Y808209D01*
X537012Y808182D01*
X537116Y808159D01*
X537222Y808140D01*
X537328Y808125D01*
X537434Y808113D01*
X537541Y808105D01*
X537648Y808101D01*
X537754Y808101D01*
X537861Y808105D01*
X537968Y808113D01*
X538074Y808125D01*
X538180Y808140D01*
X538286Y808159D01*
X538390Y808182D01*
X538494Y808209D01*
X538596Y808239D01*
X538698Y808274D01*
X538798Y808311D01*
X538896Y808353D01*
X538993Y808398D01*
X539089Y808446D01*
X539183Y808498D01*
X539274Y808553D01*
X539364Y808612D01*
X539451Y808673D01*
X539536Y808738D01*
X539619Y808806D01*
X539699Y808876D01*
X539777Y808950D01*
X539852Y809026D01*
X539924Y809105D01*
X539994Y809187D01*
X540060Y809271D01*
X540123Y809357D01*
X540183Y809446D01*
X540240Y809536D01*
X540293Y809629D01*
X540343Y809724D01*
X540390Y809820D01*
X540433Y809918D01*
X540473Y810017D01*
X540509Y810118D01*
X540541Y810220D01*
X540570Y810323D01*
X540595Y810427D01*
X540616Y810532D01*
X540633Y810638D01*
X540647Y810744D01*
X540656Y810850D01*
X540662Y810957D01*
X540664Y811064D01*
X528853Y811064D02*
X528853Y818769D01*
X528853Y811064D02*
X528851Y810957D01*
X528845Y810850D01*
X528836Y810744D01*
X528822Y810638D01*
X528805Y810532D01*
X528784Y810427D01*
X528759Y810323D01*
X528730Y810220D01*
X528698Y810118D01*
X528662Y810017D01*
X528622Y809918D01*
X528579Y809820D01*
X528532Y809724D01*
X528482Y809629D01*
X528429Y809536D01*
X528372Y809446D01*
X528312Y809357D01*
X528249Y809271D01*
X528183Y809187D01*
X528113Y809105D01*
X528041Y809026D01*
X527966Y808950D01*
X527888Y808876D01*
X527808Y808806D01*
X527725Y808738D01*
X527640Y808673D01*
X527553Y808612D01*
X527463Y808553D01*
X527372Y808498D01*
X527278Y808446D01*
X527182Y808398D01*
X527085Y808353D01*
X526987Y808311D01*
X526887Y808274D01*
X526785Y808239D01*
X526683Y808209D01*
X526579Y808182D01*
X526475Y808159D01*
X526369Y808140D01*
X526263Y808125D01*
X526157Y808113D01*
X526050Y808105D01*
X525943Y808101D01*
X525837Y808101D01*
X525730Y808105D01*
X525623Y808113D01*
X525517Y808125D01*
X525411Y808140D01*
X525305Y808159D01*
X525201Y808182D01*
X525097Y808209D01*
X524995Y808239D01*
X524893Y808274D01*
X524793Y808311D01*
X524695Y808353D01*
X524598Y808398D01*
X524502Y808446D01*
X524409Y808498D01*
X524317Y808553D01*
X524227Y808612D01*
X524140Y808673D01*
X524055Y808738D01*
X523972Y808806D01*
X523892Y808876D01*
X523814Y808950D01*
X523739Y809026D01*
X523667Y809105D01*
X523597Y809187D01*
X523531Y809271D01*
X523468Y809357D01*
X523408Y809446D01*
X523351Y809536D01*
X523298Y809629D01*
X523248Y809724D01*
X523201Y809820D01*
X523158Y809918D01*
X523118Y810017D01*
X523082Y810118D01*
X523050Y810220D01*
X523021Y810323D01*
X522996Y810427D01*
X522975Y810532D01*
X522958Y810638D01*
X522944Y810744D01*
X522935Y810850D01*
X522929Y810957D01*
X522927Y811064D01*
X522927Y818769D01*
X514841Y818769D02*
X514841Y808101D01*
X517804Y818769D02*
X511878Y818769D01*
X611260Y818769D02*
X611260Y808101D01*
X612445Y808101D02*
X610074Y808101D01*
X610074Y818769D02*
X612445Y818769D01*
X604698Y818769D02*
X604698Y808101D01*
X598771Y808101D02*
X604698Y818769D01*
X598771Y818769D02*
X598771Y808101D01*
X825170Y811064D02*
X825170Y815806D01*
X825169Y815806D02*
X825167Y815913D01*
X825161Y816020D01*
X825152Y816126D01*
X825138Y816232D01*
X825121Y816338D01*
X825100Y816443D01*
X825075Y816547D01*
X825046Y816650D01*
X825014Y816752D01*
X824978Y816853D01*
X824938Y816952D01*
X824895Y817050D01*
X824848Y817146D01*
X824798Y817241D01*
X824745Y817334D01*
X824688Y817424D01*
X824628Y817513D01*
X824565Y817599D01*
X824499Y817683D01*
X824429Y817765D01*
X824357Y817844D01*
X824282Y817920D01*
X824204Y817994D01*
X824124Y818064D01*
X824041Y818132D01*
X823956Y818197D01*
X823869Y818258D01*
X823779Y818317D01*
X823688Y818372D01*
X823594Y818424D01*
X823498Y818472D01*
X823401Y818517D01*
X823303Y818559D01*
X823203Y818596D01*
X823101Y818631D01*
X822999Y818661D01*
X822895Y818688D01*
X822791Y818711D01*
X822685Y818730D01*
X822579Y818745D01*
X822473Y818757D01*
X822366Y818765D01*
X822259Y818769D01*
X822153Y818769D01*
X822046Y818765D01*
X821939Y818757D01*
X821833Y818745D01*
X821727Y818730D01*
X821621Y818711D01*
X821517Y818688D01*
X821413Y818661D01*
X821311Y818631D01*
X821209Y818596D01*
X821109Y818559D01*
X821011Y818517D01*
X820914Y818472D01*
X820818Y818424D01*
X820725Y818372D01*
X820633Y818317D01*
X820543Y818258D01*
X820456Y818197D01*
X820371Y818132D01*
X820288Y818064D01*
X820208Y817994D01*
X820130Y817920D01*
X820055Y817844D01*
X819983Y817765D01*
X819913Y817683D01*
X819847Y817599D01*
X819784Y817513D01*
X819724Y817424D01*
X819667Y817334D01*
X819614Y817241D01*
X819564Y817146D01*
X819517Y817050D01*
X819474Y816952D01*
X819434Y816853D01*
X819398Y816752D01*
X819366Y816650D01*
X819337Y816547D01*
X819312Y816443D01*
X819291Y816338D01*
X819274Y816232D01*
X819260Y816126D01*
X819251Y816020D01*
X819245Y815913D01*
X819243Y815806D01*
X819243Y811064D01*
X819245Y810957D01*
X819251Y810850D01*
X819260Y810744D01*
X819274Y810638D01*
X819291Y810532D01*
X819312Y810427D01*
X819337Y810323D01*
X819366Y810220D01*
X819398Y810118D01*
X819434Y810017D01*
X819474Y809918D01*
X819517Y809820D01*
X819564Y809724D01*
X819614Y809629D01*
X819667Y809536D01*
X819724Y809446D01*
X819784Y809357D01*
X819847Y809271D01*
X819913Y809187D01*
X819983Y809105D01*
X820055Y809026D01*
X820130Y808950D01*
X820208Y808876D01*
X820288Y808806D01*
X820371Y808738D01*
X820456Y808673D01*
X820543Y808612D01*
X820633Y808553D01*
X820725Y808498D01*
X820818Y808446D01*
X820914Y808398D01*
X821011Y808353D01*
X821109Y808311D01*
X821209Y808274D01*
X821311Y808239D01*
X821413Y808209D01*
X821517Y808182D01*
X821621Y808159D01*
X821727Y808140D01*
X821833Y808125D01*
X821939Y808113D01*
X822046Y808105D01*
X822153Y808101D01*
X822259Y808101D01*
X822366Y808105D01*
X822473Y808113D01*
X822579Y808125D01*
X822685Y808140D01*
X822791Y808159D01*
X822895Y808182D01*
X822999Y808209D01*
X823101Y808239D01*
X823203Y808274D01*
X823303Y808311D01*
X823401Y808353D01*
X823498Y808398D01*
X823594Y808446D01*
X823688Y808498D01*
X823779Y808553D01*
X823869Y808612D01*
X823956Y808673D01*
X824041Y808738D01*
X824124Y808806D01*
X824204Y808876D01*
X824282Y808950D01*
X824357Y809026D01*
X824429Y809105D01*
X824499Y809187D01*
X824565Y809271D01*
X824628Y809357D01*
X824688Y809446D01*
X824745Y809536D01*
X824798Y809629D01*
X824848Y809724D01*
X824895Y809820D01*
X824938Y809918D01*
X824978Y810017D01*
X825014Y810118D01*
X825046Y810220D01*
X825075Y810323D01*
X825100Y810427D01*
X825121Y810532D01*
X825138Y810638D01*
X825152Y810744D01*
X825161Y810850D01*
X825167Y810957D01*
X825169Y811064D01*
X813359Y811064D02*
X813359Y818769D01*
X813359Y811064D02*
X813357Y810957D01*
X813351Y810850D01*
X813342Y810744D01*
X813328Y810638D01*
X813311Y810532D01*
X813290Y810427D01*
X813265Y810323D01*
X813236Y810220D01*
X813204Y810118D01*
X813168Y810017D01*
X813128Y809918D01*
X813085Y809820D01*
X813038Y809724D01*
X812988Y809629D01*
X812935Y809536D01*
X812878Y809446D01*
X812818Y809357D01*
X812755Y809271D01*
X812689Y809187D01*
X812619Y809105D01*
X812547Y809026D01*
X812472Y808950D01*
X812394Y808876D01*
X812314Y808806D01*
X812231Y808738D01*
X812146Y808673D01*
X812059Y808612D01*
X811969Y808553D01*
X811878Y808498D01*
X811784Y808446D01*
X811688Y808398D01*
X811591Y808353D01*
X811493Y808311D01*
X811393Y808274D01*
X811291Y808239D01*
X811189Y808209D01*
X811085Y808182D01*
X810981Y808159D01*
X810875Y808140D01*
X810769Y808125D01*
X810663Y808113D01*
X810556Y808105D01*
X810449Y808101D01*
X810343Y808101D01*
X810236Y808105D01*
X810129Y808113D01*
X810023Y808125D01*
X809917Y808140D01*
X809811Y808159D01*
X809707Y808182D01*
X809603Y808209D01*
X809501Y808239D01*
X809399Y808274D01*
X809299Y808311D01*
X809201Y808353D01*
X809104Y808398D01*
X809008Y808446D01*
X808915Y808498D01*
X808823Y808553D01*
X808733Y808612D01*
X808646Y808673D01*
X808561Y808738D01*
X808478Y808806D01*
X808398Y808876D01*
X808320Y808950D01*
X808245Y809026D01*
X808173Y809105D01*
X808103Y809187D01*
X808037Y809271D01*
X807974Y809357D01*
X807914Y809446D01*
X807857Y809536D01*
X807804Y809629D01*
X807754Y809724D01*
X807707Y809820D01*
X807664Y809918D01*
X807624Y810017D01*
X807588Y810118D01*
X807556Y810220D01*
X807527Y810323D01*
X807502Y810427D01*
X807481Y810532D01*
X807464Y810638D01*
X807450Y810744D01*
X807441Y810850D01*
X807435Y810957D01*
X807433Y811064D01*
X807432Y811064D02*
X807432Y818769D01*
X799347Y818769D02*
X799347Y808101D01*
X802310Y818769D02*
X796383Y818769D01*
X63100Y88650D02*
X63100Y57650D01*
X13100Y57650D01*
X13100Y88650D01*
X13100Y152650D02*
X13100Y183650D01*
X63100Y183650D01*
X63100Y152650D01*
X67100Y126650D02*
X72100Y126650D01*
X72100Y114650D01*
X67100Y114650D01*
X68100Y156650D02*
X68102Y156713D01*
X68108Y156775D01*
X68118Y156837D01*
X68131Y156899D01*
X68149Y156959D01*
X68170Y157018D01*
X68195Y157076D01*
X68224Y157132D01*
X68256Y157186D01*
X68291Y157238D01*
X68329Y157287D01*
X68371Y157335D01*
X68415Y157379D01*
X68463Y157421D01*
X68512Y157459D01*
X68564Y157494D01*
X68618Y157526D01*
X68674Y157555D01*
X68732Y157580D01*
X68791Y157601D01*
X68851Y157619D01*
X68913Y157632D01*
X68975Y157642D01*
X69037Y157648D01*
X69100Y157650D01*
X69163Y157648D01*
X69225Y157642D01*
X69287Y157632D01*
X69349Y157619D01*
X69409Y157601D01*
X69468Y157580D01*
X69526Y157555D01*
X69582Y157526D01*
X69636Y157494D01*
X69688Y157459D01*
X69737Y157421D01*
X69785Y157379D01*
X69829Y157335D01*
X69871Y157287D01*
X69909Y157238D01*
X69944Y157186D01*
X69976Y157132D01*
X70005Y157076D01*
X70030Y157018D01*
X70051Y156959D01*
X70069Y156899D01*
X70082Y156837D01*
X70092Y156775D01*
X70098Y156713D01*
X70100Y156650D01*
X70098Y156587D01*
X70092Y156525D01*
X70082Y156463D01*
X70069Y156401D01*
X70051Y156341D01*
X70030Y156282D01*
X70005Y156224D01*
X69976Y156168D01*
X69944Y156114D01*
X69909Y156062D01*
X69871Y156013D01*
X69829Y155965D01*
X69785Y155921D01*
X69737Y155879D01*
X69688Y155841D01*
X69636Y155806D01*
X69582Y155774D01*
X69526Y155745D01*
X69468Y155720D01*
X69409Y155699D01*
X69349Y155681D01*
X69287Y155668D01*
X69225Y155658D01*
X69163Y155652D01*
X69100Y155650D01*
X69037Y155652D01*
X68975Y155658D01*
X68913Y155668D01*
X68851Y155681D01*
X68791Y155699D01*
X68732Y155720D01*
X68674Y155745D01*
X68618Y155774D01*
X68564Y155806D01*
X68512Y155841D01*
X68463Y155879D01*
X68415Y155921D01*
X68371Y155965D01*
X68329Y156013D01*
X68291Y156062D01*
X68256Y156114D01*
X68224Y156168D01*
X68195Y156224D01*
X68170Y156282D01*
X68149Y156341D01*
X68131Y156401D01*
X68118Y156463D01*
X68108Y156525D01*
X68102Y156587D01*
X68100Y156650D01*
X266300Y88650D02*
X266300Y57650D01*
X216300Y57650D01*
X216300Y88650D01*
X216300Y152650D02*
X216300Y183650D01*
X266300Y183650D01*
X266300Y152650D01*
X270300Y126650D02*
X275300Y126650D01*
X275300Y114650D01*
X270300Y114650D01*
X271300Y156650D02*
X271302Y156713D01*
X271308Y156775D01*
X271318Y156837D01*
X271331Y156899D01*
X271349Y156959D01*
X271370Y157018D01*
X271395Y157076D01*
X271424Y157132D01*
X271456Y157186D01*
X271491Y157238D01*
X271529Y157287D01*
X271571Y157335D01*
X271615Y157379D01*
X271663Y157421D01*
X271712Y157459D01*
X271764Y157494D01*
X271818Y157526D01*
X271874Y157555D01*
X271932Y157580D01*
X271991Y157601D01*
X272051Y157619D01*
X272113Y157632D01*
X272175Y157642D01*
X272237Y157648D01*
X272300Y157650D01*
X272363Y157648D01*
X272425Y157642D01*
X272487Y157632D01*
X272549Y157619D01*
X272609Y157601D01*
X272668Y157580D01*
X272726Y157555D01*
X272782Y157526D01*
X272836Y157494D01*
X272888Y157459D01*
X272937Y157421D01*
X272985Y157379D01*
X273029Y157335D01*
X273071Y157287D01*
X273109Y157238D01*
X273144Y157186D01*
X273176Y157132D01*
X273205Y157076D01*
X273230Y157018D01*
X273251Y156959D01*
X273269Y156899D01*
X273282Y156837D01*
X273292Y156775D01*
X273298Y156713D01*
X273300Y156650D01*
X273298Y156587D01*
X273292Y156525D01*
X273282Y156463D01*
X273269Y156401D01*
X273251Y156341D01*
X273230Y156282D01*
X273205Y156224D01*
X273176Y156168D01*
X273144Y156114D01*
X273109Y156062D01*
X273071Y156013D01*
X273029Y155965D01*
X272985Y155921D01*
X272937Y155879D01*
X272888Y155841D01*
X272836Y155806D01*
X272782Y155774D01*
X272726Y155745D01*
X272668Y155720D01*
X272609Y155699D01*
X272549Y155681D01*
X272487Y155668D01*
X272425Y155658D01*
X272363Y155652D01*
X272300Y155650D01*
X272237Y155652D01*
X272175Y155658D01*
X272113Y155668D01*
X272051Y155681D01*
X271991Y155699D01*
X271932Y155720D01*
X271874Y155745D01*
X271818Y155774D01*
X271764Y155806D01*
X271712Y155841D01*
X271663Y155879D01*
X271615Y155921D01*
X271571Y155965D01*
X271529Y156013D01*
X271491Y156062D01*
X271456Y156114D01*
X271424Y156168D01*
X271395Y156224D01*
X271370Y156282D01*
X271349Y156341D01*
X271331Y156401D01*
X271318Y156463D01*
X271308Y156525D01*
X271302Y156587D01*
X271300Y156650D01*
X347605Y88650D02*
X347605Y57650D01*
X297605Y57650D01*
X297605Y88650D01*
X297605Y152650D02*
X297605Y183650D01*
X347605Y183650D01*
X347605Y152650D01*
X351605Y126650D02*
X356605Y126650D01*
X356605Y114650D01*
X351605Y114650D01*
X352605Y156650D02*
X352607Y156713D01*
X352613Y156775D01*
X352623Y156837D01*
X352636Y156899D01*
X352654Y156959D01*
X352675Y157018D01*
X352700Y157076D01*
X352729Y157132D01*
X352761Y157186D01*
X352796Y157238D01*
X352834Y157287D01*
X352876Y157335D01*
X352920Y157379D01*
X352968Y157421D01*
X353017Y157459D01*
X353069Y157494D01*
X353123Y157526D01*
X353179Y157555D01*
X353237Y157580D01*
X353296Y157601D01*
X353356Y157619D01*
X353418Y157632D01*
X353480Y157642D01*
X353542Y157648D01*
X353605Y157650D01*
X353668Y157648D01*
X353730Y157642D01*
X353792Y157632D01*
X353854Y157619D01*
X353914Y157601D01*
X353973Y157580D01*
X354031Y157555D01*
X354087Y157526D01*
X354141Y157494D01*
X354193Y157459D01*
X354242Y157421D01*
X354290Y157379D01*
X354334Y157335D01*
X354376Y157287D01*
X354414Y157238D01*
X354449Y157186D01*
X354481Y157132D01*
X354510Y157076D01*
X354535Y157018D01*
X354556Y156959D01*
X354574Y156899D01*
X354587Y156837D01*
X354597Y156775D01*
X354603Y156713D01*
X354605Y156650D01*
X354603Y156587D01*
X354597Y156525D01*
X354587Y156463D01*
X354574Y156401D01*
X354556Y156341D01*
X354535Y156282D01*
X354510Y156224D01*
X354481Y156168D01*
X354449Y156114D01*
X354414Y156062D01*
X354376Y156013D01*
X354334Y155965D01*
X354290Y155921D01*
X354242Y155879D01*
X354193Y155841D01*
X354141Y155806D01*
X354087Y155774D01*
X354031Y155745D01*
X353973Y155720D01*
X353914Y155699D01*
X353854Y155681D01*
X353792Y155668D01*
X353730Y155658D01*
X353668Y155652D01*
X353605Y155650D01*
X353542Y155652D01*
X353480Y155658D01*
X353418Y155668D01*
X353356Y155681D01*
X353296Y155699D01*
X353237Y155720D01*
X353179Y155745D01*
X353123Y155774D01*
X353069Y155806D01*
X353017Y155841D01*
X352968Y155879D01*
X352920Y155921D01*
X352876Y155965D01*
X352834Y156013D01*
X352796Y156062D01*
X352761Y156114D01*
X352729Y156168D01*
X352700Y156224D01*
X352675Y156282D01*
X352654Y156341D01*
X352636Y156401D01*
X352623Y156463D01*
X352613Y156525D01*
X352607Y156587D01*
X352605Y156650D01*
X550805Y88650D02*
X550805Y57650D01*
X500805Y57650D01*
X500805Y88650D01*
X500805Y152650D02*
X500805Y183650D01*
X550805Y183650D01*
X550805Y152650D01*
X554805Y126650D02*
X559805Y126650D01*
X559805Y114650D01*
X554805Y114650D01*
X555805Y156650D02*
X555807Y156713D01*
X555813Y156775D01*
X555823Y156837D01*
X555836Y156899D01*
X555854Y156959D01*
X555875Y157018D01*
X555900Y157076D01*
X555929Y157132D01*
X555961Y157186D01*
X555996Y157238D01*
X556034Y157287D01*
X556076Y157335D01*
X556120Y157379D01*
X556168Y157421D01*
X556217Y157459D01*
X556269Y157494D01*
X556323Y157526D01*
X556379Y157555D01*
X556437Y157580D01*
X556496Y157601D01*
X556556Y157619D01*
X556618Y157632D01*
X556680Y157642D01*
X556742Y157648D01*
X556805Y157650D01*
X556868Y157648D01*
X556930Y157642D01*
X556992Y157632D01*
X557054Y157619D01*
X557114Y157601D01*
X557173Y157580D01*
X557231Y157555D01*
X557287Y157526D01*
X557341Y157494D01*
X557393Y157459D01*
X557442Y157421D01*
X557490Y157379D01*
X557534Y157335D01*
X557576Y157287D01*
X557614Y157238D01*
X557649Y157186D01*
X557681Y157132D01*
X557710Y157076D01*
X557735Y157018D01*
X557756Y156959D01*
X557774Y156899D01*
X557787Y156837D01*
X557797Y156775D01*
X557803Y156713D01*
X557805Y156650D01*
X557803Y156587D01*
X557797Y156525D01*
X557787Y156463D01*
X557774Y156401D01*
X557756Y156341D01*
X557735Y156282D01*
X557710Y156224D01*
X557681Y156168D01*
X557649Y156114D01*
X557614Y156062D01*
X557576Y156013D01*
X557534Y155965D01*
X557490Y155921D01*
X557442Y155879D01*
X557393Y155841D01*
X557341Y155806D01*
X557287Y155774D01*
X557231Y155745D01*
X557173Y155720D01*
X557114Y155699D01*
X557054Y155681D01*
X556992Y155668D01*
X556930Y155658D01*
X556868Y155652D01*
X556805Y155650D01*
X556742Y155652D01*
X556680Y155658D01*
X556618Y155668D01*
X556556Y155681D01*
X556496Y155699D01*
X556437Y155720D01*
X556379Y155745D01*
X556323Y155774D01*
X556269Y155806D01*
X556217Y155841D01*
X556168Y155879D01*
X556120Y155921D01*
X556076Y155965D01*
X556034Y156013D01*
X555996Y156062D01*
X555961Y156114D01*
X555929Y156168D01*
X555900Y156224D01*
X555875Y156282D01*
X555854Y156341D01*
X555836Y156401D01*
X555823Y156463D01*
X555813Y156525D01*
X555807Y156587D01*
X555805Y156650D01*
X632111Y88650D02*
X632111Y57650D01*
X582111Y57650D01*
X582111Y88650D01*
X582111Y152650D02*
X582111Y183650D01*
X632111Y183650D01*
X632111Y152650D01*
X636111Y126650D02*
X641111Y126650D01*
X641111Y114650D01*
X636111Y114650D01*
X637111Y156650D02*
X637113Y156713D01*
X637119Y156775D01*
X637129Y156837D01*
X637142Y156899D01*
X637160Y156959D01*
X637181Y157018D01*
X637206Y157076D01*
X637235Y157132D01*
X637267Y157186D01*
X637302Y157238D01*
X637340Y157287D01*
X637382Y157335D01*
X637426Y157379D01*
X637474Y157421D01*
X637523Y157459D01*
X637575Y157494D01*
X637629Y157526D01*
X637685Y157555D01*
X637743Y157580D01*
X637802Y157601D01*
X637862Y157619D01*
X637924Y157632D01*
X637986Y157642D01*
X638048Y157648D01*
X638111Y157650D01*
X638174Y157648D01*
X638236Y157642D01*
X638298Y157632D01*
X638360Y157619D01*
X638420Y157601D01*
X638479Y157580D01*
X638537Y157555D01*
X638593Y157526D01*
X638647Y157494D01*
X638699Y157459D01*
X638748Y157421D01*
X638796Y157379D01*
X638840Y157335D01*
X638882Y157287D01*
X638920Y157238D01*
X638955Y157186D01*
X638987Y157132D01*
X639016Y157076D01*
X639041Y157018D01*
X639062Y156959D01*
X639080Y156899D01*
X639093Y156837D01*
X639103Y156775D01*
X639109Y156713D01*
X639111Y156650D01*
X639109Y156587D01*
X639103Y156525D01*
X639093Y156463D01*
X639080Y156401D01*
X639062Y156341D01*
X639041Y156282D01*
X639016Y156224D01*
X638987Y156168D01*
X638955Y156114D01*
X638920Y156062D01*
X638882Y156013D01*
X638840Y155965D01*
X638796Y155921D01*
X638748Y155879D01*
X638699Y155841D01*
X638647Y155806D01*
X638593Y155774D01*
X638537Y155745D01*
X638479Y155720D01*
X638420Y155699D01*
X638360Y155681D01*
X638298Y155668D01*
X638236Y155658D01*
X638174Y155652D01*
X638111Y155650D01*
X638048Y155652D01*
X637986Y155658D01*
X637924Y155668D01*
X637862Y155681D01*
X637802Y155699D01*
X637743Y155720D01*
X637685Y155745D01*
X637629Y155774D01*
X637575Y155806D01*
X637523Y155841D01*
X637474Y155879D01*
X637426Y155921D01*
X637382Y155965D01*
X637340Y156013D01*
X637302Y156062D01*
X637267Y156114D01*
X637235Y156168D01*
X637206Y156224D01*
X637181Y156282D01*
X637160Y156341D01*
X637142Y156401D01*
X637129Y156463D01*
X637119Y156525D01*
X637113Y156587D01*
X637111Y156650D01*
X835311Y88650D02*
X835311Y57650D01*
X785311Y57650D01*
X785311Y88650D01*
X785311Y152650D02*
X785311Y183650D01*
X835311Y183650D01*
X835311Y152650D01*
X839311Y126650D02*
X844311Y126650D01*
X844311Y114650D01*
X839311Y114650D01*
X840311Y156650D02*
X840313Y156713D01*
X840319Y156775D01*
X840329Y156837D01*
X840342Y156899D01*
X840360Y156959D01*
X840381Y157018D01*
X840406Y157076D01*
X840435Y157132D01*
X840467Y157186D01*
X840502Y157238D01*
X840540Y157287D01*
X840582Y157335D01*
X840626Y157379D01*
X840674Y157421D01*
X840723Y157459D01*
X840775Y157494D01*
X840829Y157526D01*
X840885Y157555D01*
X840943Y157580D01*
X841002Y157601D01*
X841062Y157619D01*
X841124Y157632D01*
X841186Y157642D01*
X841248Y157648D01*
X841311Y157650D01*
X841374Y157648D01*
X841436Y157642D01*
X841498Y157632D01*
X841560Y157619D01*
X841620Y157601D01*
X841679Y157580D01*
X841737Y157555D01*
X841793Y157526D01*
X841847Y157494D01*
X841899Y157459D01*
X841948Y157421D01*
X841996Y157379D01*
X842040Y157335D01*
X842082Y157287D01*
X842120Y157238D01*
X842155Y157186D01*
X842187Y157132D01*
X842216Y157076D01*
X842241Y157018D01*
X842262Y156959D01*
X842280Y156899D01*
X842293Y156837D01*
X842303Y156775D01*
X842309Y156713D01*
X842311Y156650D01*
X842309Y156587D01*
X842303Y156525D01*
X842293Y156463D01*
X842280Y156401D01*
X842262Y156341D01*
X842241Y156282D01*
X842216Y156224D01*
X842187Y156168D01*
X842155Y156114D01*
X842120Y156062D01*
X842082Y156013D01*
X842040Y155965D01*
X841996Y155921D01*
X841948Y155879D01*
X841899Y155841D01*
X841847Y155806D01*
X841793Y155774D01*
X841737Y155745D01*
X841679Y155720D01*
X841620Y155699D01*
X841560Y155681D01*
X841498Y155668D01*
X841436Y155658D01*
X841374Y155652D01*
X841311Y155650D01*
X841248Y155652D01*
X841186Y155658D01*
X841124Y155668D01*
X841062Y155681D01*
X841002Y155699D01*
X840943Y155720D01*
X840885Y155745D01*
X840829Y155774D01*
X840775Y155806D01*
X840723Y155841D01*
X840674Y155879D01*
X840626Y155921D01*
X840582Y155965D01*
X840540Y156013D01*
X840502Y156062D01*
X840467Y156114D01*
X840435Y156168D01*
X840406Y156224D01*
X840381Y156282D01*
X840360Y156341D01*
X840342Y156401D01*
X840329Y156463D01*
X840319Y156525D01*
X840313Y156587D01*
X840311Y156650D01*
X63100Y367530D02*
X63100Y398530D01*
X63100Y367530D02*
X13100Y367530D01*
X13100Y398530D01*
X13100Y462530D02*
X13100Y493530D01*
X63100Y493530D01*
X63100Y462530D01*
X67100Y436530D02*
X72100Y436530D01*
X72100Y424530D01*
X67100Y424530D01*
X68100Y466530D02*
X68102Y466593D01*
X68108Y466655D01*
X68118Y466717D01*
X68131Y466779D01*
X68149Y466839D01*
X68170Y466898D01*
X68195Y466956D01*
X68224Y467012D01*
X68256Y467066D01*
X68291Y467118D01*
X68329Y467167D01*
X68371Y467215D01*
X68415Y467259D01*
X68463Y467301D01*
X68512Y467339D01*
X68564Y467374D01*
X68618Y467406D01*
X68674Y467435D01*
X68732Y467460D01*
X68791Y467481D01*
X68851Y467499D01*
X68913Y467512D01*
X68975Y467522D01*
X69037Y467528D01*
X69100Y467530D01*
X69163Y467528D01*
X69225Y467522D01*
X69287Y467512D01*
X69349Y467499D01*
X69409Y467481D01*
X69468Y467460D01*
X69526Y467435D01*
X69582Y467406D01*
X69636Y467374D01*
X69688Y467339D01*
X69737Y467301D01*
X69785Y467259D01*
X69829Y467215D01*
X69871Y467167D01*
X69909Y467118D01*
X69944Y467066D01*
X69976Y467012D01*
X70005Y466956D01*
X70030Y466898D01*
X70051Y466839D01*
X70069Y466779D01*
X70082Y466717D01*
X70092Y466655D01*
X70098Y466593D01*
X70100Y466530D01*
X70098Y466467D01*
X70092Y466405D01*
X70082Y466343D01*
X70069Y466281D01*
X70051Y466221D01*
X70030Y466162D01*
X70005Y466104D01*
X69976Y466048D01*
X69944Y465994D01*
X69909Y465942D01*
X69871Y465893D01*
X69829Y465845D01*
X69785Y465801D01*
X69737Y465759D01*
X69688Y465721D01*
X69636Y465686D01*
X69582Y465654D01*
X69526Y465625D01*
X69468Y465600D01*
X69409Y465579D01*
X69349Y465561D01*
X69287Y465548D01*
X69225Y465538D01*
X69163Y465532D01*
X69100Y465530D01*
X69037Y465532D01*
X68975Y465538D01*
X68913Y465548D01*
X68851Y465561D01*
X68791Y465579D01*
X68732Y465600D01*
X68674Y465625D01*
X68618Y465654D01*
X68564Y465686D01*
X68512Y465721D01*
X68463Y465759D01*
X68415Y465801D01*
X68371Y465845D01*
X68329Y465893D01*
X68291Y465942D01*
X68256Y465994D01*
X68224Y466048D01*
X68195Y466104D01*
X68170Y466162D01*
X68149Y466221D01*
X68131Y466281D01*
X68118Y466343D01*
X68108Y466405D01*
X68102Y466467D01*
X68100Y466530D01*
X266300Y398530D02*
X266300Y367530D01*
X216300Y367530D01*
X216300Y398530D01*
X216300Y462530D02*
X216300Y493530D01*
X266300Y493530D01*
X266300Y462530D01*
X270300Y436530D02*
X275300Y436530D01*
X275300Y424530D01*
X270300Y424530D01*
X271300Y466530D02*
X271302Y466593D01*
X271308Y466655D01*
X271318Y466717D01*
X271331Y466779D01*
X271349Y466839D01*
X271370Y466898D01*
X271395Y466956D01*
X271424Y467012D01*
X271456Y467066D01*
X271491Y467118D01*
X271529Y467167D01*
X271571Y467215D01*
X271615Y467259D01*
X271663Y467301D01*
X271712Y467339D01*
X271764Y467374D01*
X271818Y467406D01*
X271874Y467435D01*
X271932Y467460D01*
X271991Y467481D01*
X272051Y467499D01*
X272113Y467512D01*
X272175Y467522D01*
X272237Y467528D01*
X272300Y467530D01*
X272363Y467528D01*
X272425Y467522D01*
X272487Y467512D01*
X272549Y467499D01*
X272609Y467481D01*
X272668Y467460D01*
X272726Y467435D01*
X272782Y467406D01*
X272836Y467374D01*
X272888Y467339D01*
X272937Y467301D01*
X272985Y467259D01*
X273029Y467215D01*
X273071Y467167D01*
X273109Y467118D01*
X273144Y467066D01*
X273176Y467012D01*
X273205Y466956D01*
X273230Y466898D01*
X273251Y466839D01*
X273269Y466779D01*
X273282Y466717D01*
X273292Y466655D01*
X273298Y466593D01*
X273300Y466530D01*
X273298Y466467D01*
X273292Y466405D01*
X273282Y466343D01*
X273269Y466281D01*
X273251Y466221D01*
X273230Y466162D01*
X273205Y466104D01*
X273176Y466048D01*
X273144Y465994D01*
X273109Y465942D01*
X273071Y465893D01*
X273029Y465845D01*
X272985Y465801D01*
X272937Y465759D01*
X272888Y465721D01*
X272836Y465686D01*
X272782Y465654D01*
X272726Y465625D01*
X272668Y465600D01*
X272609Y465579D01*
X272549Y465561D01*
X272487Y465548D01*
X272425Y465538D01*
X272363Y465532D01*
X272300Y465530D01*
X272237Y465532D01*
X272175Y465538D01*
X272113Y465548D01*
X272051Y465561D01*
X271991Y465579D01*
X271932Y465600D01*
X271874Y465625D01*
X271818Y465654D01*
X271764Y465686D01*
X271712Y465721D01*
X271663Y465759D01*
X271615Y465801D01*
X271571Y465845D01*
X271529Y465893D01*
X271491Y465942D01*
X271456Y465994D01*
X271424Y466048D01*
X271395Y466104D01*
X271370Y466162D01*
X271349Y466221D01*
X271331Y466281D01*
X271318Y466343D01*
X271308Y466405D01*
X271302Y466467D01*
X271300Y466530D01*
X347605Y398530D02*
X347605Y367530D01*
X297605Y367530D01*
X297605Y398530D01*
X297605Y462530D02*
X297605Y493530D01*
X347605Y493530D01*
X347605Y462530D01*
X351605Y436530D02*
X356605Y436530D01*
X356605Y424530D01*
X351605Y424530D01*
X352605Y466530D02*
X352607Y466593D01*
X352613Y466655D01*
X352623Y466717D01*
X352636Y466779D01*
X352654Y466839D01*
X352675Y466898D01*
X352700Y466956D01*
X352729Y467012D01*
X352761Y467066D01*
X352796Y467118D01*
X352834Y467167D01*
X352876Y467215D01*
X352920Y467259D01*
X352968Y467301D01*
X353017Y467339D01*
X353069Y467374D01*
X353123Y467406D01*
X353179Y467435D01*
X353237Y467460D01*
X353296Y467481D01*
X353356Y467499D01*
X353418Y467512D01*
X353480Y467522D01*
X353542Y467528D01*
X353605Y467530D01*
X353668Y467528D01*
X353730Y467522D01*
X353792Y467512D01*
X353854Y467499D01*
X353914Y467481D01*
X353973Y467460D01*
X354031Y467435D01*
X354087Y467406D01*
X354141Y467374D01*
X354193Y467339D01*
X354242Y467301D01*
X354290Y467259D01*
X354334Y467215D01*
X354376Y467167D01*
X354414Y467118D01*
X354449Y467066D01*
X354481Y467012D01*
X354510Y466956D01*
X354535Y466898D01*
X354556Y466839D01*
X354574Y466779D01*
X354587Y466717D01*
X354597Y466655D01*
X354603Y466593D01*
X354605Y466530D01*
X354603Y466467D01*
X354597Y466405D01*
X354587Y466343D01*
X354574Y466281D01*
X354556Y466221D01*
X354535Y466162D01*
X354510Y466104D01*
X354481Y466048D01*
X354449Y465994D01*
X354414Y465942D01*
X354376Y465893D01*
X354334Y465845D01*
X354290Y465801D01*
X354242Y465759D01*
X354193Y465721D01*
X354141Y465686D01*
X354087Y465654D01*
X354031Y465625D01*
X353973Y465600D01*
X353914Y465579D01*
X353854Y465561D01*
X353792Y465548D01*
X353730Y465538D01*
X353668Y465532D01*
X353605Y465530D01*
X353542Y465532D01*
X353480Y465538D01*
X353418Y465548D01*
X353356Y465561D01*
X353296Y465579D01*
X353237Y465600D01*
X353179Y465625D01*
X353123Y465654D01*
X353069Y465686D01*
X353017Y465721D01*
X352968Y465759D01*
X352920Y465801D01*
X352876Y465845D01*
X352834Y465893D01*
X352796Y465942D01*
X352761Y465994D01*
X352729Y466048D01*
X352700Y466104D01*
X352675Y466162D01*
X352654Y466221D01*
X352636Y466281D01*
X352623Y466343D01*
X352613Y466405D01*
X352607Y466467D01*
X352605Y466530D01*
X550805Y398530D02*
X550805Y367530D01*
X500805Y367530D01*
X500805Y398530D01*
X500805Y462530D02*
X500805Y493530D01*
X550805Y493530D01*
X550805Y462530D01*
X554805Y436530D02*
X559805Y436530D01*
X559805Y424530D01*
X554805Y424530D01*
X555805Y466530D02*
X555807Y466593D01*
X555813Y466655D01*
X555823Y466717D01*
X555836Y466779D01*
X555854Y466839D01*
X555875Y466898D01*
X555900Y466956D01*
X555929Y467012D01*
X555961Y467066D01*
X555996Y467118D01*
X556034Y467167D01*
X556076Y467215D01*
X556120Y467259D01*
X556168Y467301D01*
X556217Y467339D01*
X556269Y467374D01*
X556323Y467406D01*
X556379Y467435D01*
X556437Y467460D01*
X556496Y467481D01*
X556556Y467499D01*
X556618Y467512D01*
X556680Y467522D01*
X556742Y467528D01*
X556805Y467530D01*
X556868Y467528D01*
X556930Y467522D01*
X556992Y467512D01*
X557054Y467499D01*
X557114Y467481D01*
X557173Y467460D01*
X557231Y467435D01*
X557287Y467406D01*
X557341Y467374D01*
X557393Y467339D01*
X557442Y467301D01*
X557490Y467259D01*
X557534Y467215D01*
X557576Y467167D01*
X557614Y467118D01*
X557649Y467066D01*
X557681Y467012D01*
X557710Y466956D01*
X557735Y466898D01*
X557756Y466839D01*
X557774Y466779D01*
X557787Y466717D01*
X557797Y466655D01*
X557803Y466593D01*
X557805Y466530D01*
X557803Y466467D01*
X557797Y466405D01*
X557787Y466343D01*
X557774Y466281D01*
X557756Y466221D01*
X557735Y466162D01*
X557710Y466104D01*
X557681Y466048D01*
X557649Y465994D01*
X557614Y465942D01*
X557576Y465893D01*
X557534Y465845D01*
X557490Y465801D01*
X557442Y465759D01*
X557393Y465721D01*
X557341Y465686D01*
X557287Y465654D01*
X557231Y465625D01*
X557173Y465600D01*
X557114Y465579D01*
X557054Y465561D01*
X556992Y465548D01*
X556930Y465538D01*
X556868Y465532D01*
X556805Y465530D01*
X556742Y465532D01*
X556680Y465538D01*
X556618Y465548D01*
X556556Y465561D01*
X556496Y465579D01*
X556437Y465600D01*
X556379Y465625D01*
X556323Y465654D01*
X556269Y465686D01*
X556217Y465721D01*
X556168Y465759D01*
X556120Y465801D01*
X556076Y465845D01*
X556034Y465893D01*
X555996Y465942D01*
X555961Y465994D01*
X555929Y466048D01*
X555900Y466104D01*
X555875Y466162D01*
X555854Y466221D01*
X555836Y466281D01*
X555823Y466343D01*
X555813Y466405D01*
X555807Y466467D01*
X555805Y466530D01*
X632111Y398530D02*
X632111Y367530D01*
X582111Y367530D01*
X582111Y398530D01*
X582111Y462530D02*
X582111Y493530D01*
X632111Y493530D01*
X632111Y462530D01*
X636111Y436530D02*
X641111Y436530D01*
X641111Y424530D01*
X636111Y424530D01*
X637111Y466530D02*
X637113Y466593D01*
X637119Y466655D01*
X637129Y466717D01*
X637142Y466779D01*
X637160Y466839D01*
X637181Y466898D01*
X637206Y466956D01*
X637235Y467012D01*
X637267Y467066D01*
X637302Y467118D01*
X637340Y467167D01*
X637382Y467215D01*
X637426Y467259D01*
X637474Y467301D01*
X637523Y467339D01*
X637575Y467374D01*
X637629Y467406D01*
X637685Y467435D01*
X637743Y467460D01*
X637802Y467481D01*
X637862Y467499D01*
X637924Y467512D01*
X637986Y467522D01*
X638048Y467528D01*
X638111Y467530D01*
X638174Y467528D01*
X638236Y467522D01*
X638298Y467512D01*
X638360Y467499D01*
X638420Y467481D01*
X638479Y467460D01*
X638537Y467435D01*
X638593Y467406D01*
X638647Y467374D01*
X638699Y467339D01*
X638748Y467301D01*
X638796Y467259D01*
X638840Y467215D01*
X638882Y467167D01*
X638920Y467118D01*
X638955Y467066D01*
X638987Y467012D01*
X639016Y466956D01*
X639041Y466898D01*
X639062Y466839D01*
X639080Y466779D01*
X639093Y466717D01*
X639103Y466655D01*
X639109Y466593D01*
X639111Y466530D01*
X639109Y466467D01*
X639103Y466405D01*
X639093Y466343D01*
X639080Y466281D01*
X639062Y466221D01*
X639041Y466162D01*
X639016Y466104D01*
X638987Y466048D01*
X638955Y465994D01*
X638920Y465942D01*
X638882Y465893D01*
X638840Y465845D01*
X638796Y465801D01*
X638748Y465759D01*
X638699Y465721D01*
X638647Y465686D01*
X638593Y465654D01*
X638537Y465625D01*
X638479Y465600D01*
X638420Y465579D01*
X638360Y465561D01*
X638298Y465548D01*
X638236Y465538D01*
X638174Y465532D01*
X638111Y465530D01*
X638048Y465532D01*
X637986Y465538D01*
X637924Y465548D01*
X637862Y465561D01*
X637802Y465579D01*
X637743Y465600D01*
X637685Y465625D01*
X637629Y465654D01*
X637575Y465686D01*
X637523Y465721D01*
X637474Y465759D01*
X637426Y465801D01*
X637382Y465845D01*
X637340Y465893D01*
X637302Y465942D01*
X637267Y465994D01*
X637235Y466048D01*
X637206Y466104D01*
X637181Y466162D01*
X637160Y466221D01*
X637142Y466281D01*
X637129Y466343D01*
X637119Y466405D01*
X637113Y466467D01*
X637111Y466530D01*
X835311Y398530D02*
X835311Y367530D01*
X785311Y367530D01*
X785311Y398530D01*
X785311Y462530D02*
X785311Y493530D01*
X835311Y493530D01*
X835311Y462530D01*
X839311Y436530D02*
X844311Y436530D01*
X844311Y424530D01*
X839311Y424530D01*
X840311Y466530D02*
X840313Y466593D01*
X840319Y466655D01*
X840329Y466717D01*
X840342Y466779D01*
X840360Y466839D01*
X840381Y466898D01*
X840406Y466956D01*
X840435Y467012D01*
X840467Y467066D01*
X840502Y467118D01*
X840540Y467167D01*
X840582Y467215D01*
X840626Y467259D01*
X840674Y467301D01*
X840723Y467339D01*
X840775Y467374D01*
X840829Y467406D01*
X840885Y467435D01*
X840943Y467460D01*
X841002Y467481D01*
X841062Y467499D01*
X841124Y467512D01*
X841186Y467522D01*
X841248Y467528D01*
X841311Y467530D01*
X841374Y467528D01*
X841436Y467522D01*
X841498Y467512D01*
X841560Y467499D01*
X841620Y467481D01*
X841679Y467460D01*
X841737Y467435D01*
X841793Y467406D01*
X841847Y467374D01*
X841899Y467339D01*
X841948Y467301D01*
X841996Y467259D01*
X842040Y467215D01*
X842082Y467167D01*
X842120Y467118D01*
X842155Y467066D01*
X842187Y467012D01*
X842216Y466956D01*
X842241Y466898D01*
X842262Y466839D01*
X842280Y466779D01*
X842293Y466717D01*
X842303Y466655D01*
X842309Y466593D01*
X842311Y466530D01*
X842309Y466467D01*
X842303Y466405D01*
X842293Y466343D01*
X842280Y466281D01*
X842262Y466221D01*
X842241Y466162D01*
X842216Y466104D01*
X842187Y466048D01*
X842155Y465994D01*
X842120Y465942D01*
X842082Y465893D01*
X842040Y465845D01*
X841996Y465801D01*
X841948Y465759D01*
X841899Y465721D01*
X841847Y465686D01*
X841793Y465654D01*
X841737Y465625D01*
X841679Y465600D01*
X841620Y465579D01*
X841560Y465561D01*
X841498Y465548D01*
X841436Y465538D01*
X841374Y465532D01*
X841311Y465530D01*
X841248Y465532D01*
X841186Y465538D01*
X841124Y465548D01*
X841062Y465561D01*
X841002Y465579D01*
X840943Y465600D01*
X840885Y465625D01*
X840829Y465654D01*
X840775Y465686D01*
X840723Y465721D01*
X840674Y465759D01*
X840626Y465801D01*
X840582Y465845D01*
X840540Y465893D01*
X840502Y465942D01*
X840467Y465994D01*
X840435Y466048D01*
X840406Y466104D01*
X840381Y466162D01*
X840360Y466221D01*
X840342Y466281D01*
X840329Y466343D01*
X840319Y466405D01*
X840313Y466467D01*
X840311Y466530D01*
X63100Y677410D02*
X63100Y708410D01*
X63100Y677410D02*
X13100Y677410D01*
X13100Y708410D01*
X13100Y772410D02*
X13100Y803410D01*
X63100Y803410D01*
X63100Y772410D01*
X67100Y746410D02*
X72100Y746410D01*
X72100Y734410D01*
X67100Y734410D01*
X68100Y776410D02*
X68102Y776473D01*
X68108Y776535D01*
X68118Y776597D01*
X68131Y776659D01*
X68149Y776719D01*
X68170Y776778D01*
X68195Y776836D01*
X68224Y776892D01*
X68256Y776946D01*
X68291Y776998D01*
X68329Y777047D01*
X68371Y777095D01*
X68415Y777139D01*
X68463Y777181D01*
X68512Y777219D01*
X68564Y777254D01*
X68618Y777286D01*
X68674Y777315D01*
X68732Y777340D01*
X68791Y777361D01*
X68851Y777379D01*
X68913Y777392D01*
X68975Y777402D01*
X69037Y777408D01*
X69100Y777410D01*
X69163Y777408D01*
X69225Y777402D01*
X69287Y777392D01*
X69349Y777379D01*
X69409Y777361D01*
X69468Y777340D01*
X69526Y777315D01*
X69582Y777286D01*
X69636Y777254D01*
X69688Y777219D01*
X69737Y777181D01*
X69785Y777139D01*
X69829Y777095D01*
X69871Y777047D01*
X69909Y776998D01*
X69944Y776946D01*
X69976Y776892D01*
X70005Y776836D01*
X70030Y776778D01*
X70051Y776719D01*
X70069Y776659D01*
X70082Y776597D01*
X70092Y776535D01*
X70098Y776473D01*
X70100Y776410D01*
X70098Y776347D01*
X70092Y776285D01*
X70082Y776223D01*
X70069Y776161D01*
X70051Y776101D01*
X70030Y776042D01*
X70005Y775984D01*
X69976Y775928D01*
X69944Y775874D01*
X69909Y775822D01*
X69871Y775773D01*
X69829Y775725D01*
X69785Y775681D01*
X69737Y775639D01*
X69688Y775601D01*
X69636Y775566D01*
X69582Y775534D01*
X69526Y775505D01*
X69468Y775480D01*
X69409Y775459D01*
X69349Y775441D01*
X69287Y775428D01*
X69225Y775418D01*
X69163Y775412D01*
X69100Y775410D01*
X69037Y775412D01*
X68975Y775418D01*
X68913Y775428D01*
X68851Y775441D01*
X68791Y775459D01*
X68732Y775480D01*
X68674Y775505D01*
X68618Y775534D01*
X68564Y775566D01*
X68512Y775601D01*
X68463Y775639D01*
X68415Y775681D01*
X68371Y775725D01*
X68329Y775773D01*
X68291Y775822D01*
X68256Y775874D01*
X68224Y775928D01*
X68195Y775984D01*
X68170Y776042D01*
X68149Y776101D01*
X68131Y776161D01*
X68118Y776223D01*
X68108Y776285D01*
X68102Y776347D01*
X68100Y776410D01*
X266300Y708410D02*
X266300Y677410D01*
X216300Y677410D01*
X216300Y708410D01*
X216300Y772410D02*
X216300Y803410D01*
X266300Y803410D01*
X266300Y772410D01*
X270300Y746410D02*
X275300Y746410D01*
X275300Y734410D01*
X270300Y734410D01*
X271300Y776410D02*
X271302Y776473D01*
X271308Y776535D01*
X271318Y776597D01*
X271331Y776659D01*
X271349Y776719D01*
X271370Y776778D01*
X271395Y776836D01*
X271424Y776892D01*
X271456Y776946D01*
X271491Y776998D01*
X271529Y777047D01*
X271571Y777095D01*
X271615Y777139D01*
X271663Y777181D01*
X271712Y777219D01*
X271764Y777254D01*
X271818Y777286D01*
X271874Y777315D01*
X271932Y777340D01*
X271991Y777361D01*
X272051Y777379D01*
X272113Y777392D01*
X272175Y777402D01*
X272237Y777408D01*
X272300Y777410D01*
X272363Y777408D01*
X272425Y777402D01*
X272487Y777392D01*
X272549Y777379D01*
X272609Y777361D01*
X272668Y777340D01*
X272726Y777315D01*
X272782Y777286D01*
X272836Y777254D01*
X272888Y777219D01*
X272937Y777181D01*
X272985Y777139D01*
X273029Y777095D01*
X273071Y777047D01*
X273109Y776998D01*
X273144Y776946D01*
X273176Y776892D01*
X273205Y776836D01*
X273230Y776778D01*
X273251Y776719D01*
X273269Y776659D01*
X273282Y776597D01*
X273292Y776535D01*
X273298Y776473D01*
X273300Y776410D01*
X273298Y776347D01*
X273292Y776285D01*
X273282Y776223D01*
X273269Y776161D01*
X273251Y776101D01*
X273230Y776042D01*
X273205Y775984D01*
X273176Y775928D01*
X273144Y775874D01*
X273109Y775822D01*
X273071Y775773D01*
X273029Y775725D01*
X272985Y775681D01*
X272937Y775639D01*
X272888Y775601D01*
X272836Y775566D01*
X272782Y775534D01*
X272726Y775505D01*
X272668Y775480D01*
X272609Y775459D01*
X272549Y775441D01*
X272487Y775428D01*
X272425Y775418D01*
X272363Y775412D01*
X272300Y775410D01*
X272237Y775412D01*
X272175Y775418D01*
X272113Y775428D01*
X272051Y775441D01*
X271991Y775459D01*
X271932Y775480D01*
X271874Y775505D01*
X271818Y775534D01*
X271764Y775566D01*
X271712Y775601D01*
X271663Y775639D01*
X271615Y775681D01*
X271571Y775725D01*
X271529Y775773D01*
X271491Y775822D01*
X271456Y775874D01*
X271424Y775928D01*
X271395Y775984D01*
X271370Y776042D01*
X271349Y776101D01*
X271331Y776161D01*
X271318Y776223D01*
X271308Y776285D01*
X271302Y776347D01*
X271300Y776410D01*
X347605Y708410D02*
X347605Y677410D01*
X297605Y677410D01*
X297605Y708410D01*
X297605Y772410D02*
X297605Y803410D01*
X347605Y803410D01*
X347605Y772410D01*
X351605Y746410D02*
X356605Y746410D01*
X356605Y734410D01*
X351605Y734410D01*
X352605Y776410D02*
X352607Y776473D01*
X352613Y776535D01*
X352623Y776597D01*
X352636Y776659D01*
X352654Y776719D01*
X352675Y776778D01*
X352700Y776836D01*
X352729Y776892D01*
X352761Y776946D01*
X352796Y776998D01*
X352834Y777047D01*
X352876Y777095D01*
X352920Y777139D01*
X352968Y777181D01*
X353017Y777219D01*
X353069Y777254D01*
X353123Y777286D01*
X353179Y777315D01*
X353237Y777340D01*
X353296Y777361D01*
X353356Y777379D01*
X353418Y777392D01*
X353480Y777402D01*
X353542Y777408D01*
X353605Y777410D01*
X353668Y777408D01*
X353730Y777402D01*
X353792Y777392D01*
X353854Y777379D01*
X353914Y777361D01*
X353973Y777340D01*
X354031Y777315D01*
X354087Y777286D01*
X354141Y777254D01*
X354193Y777219D01*
X354242Y777181D01*
X354290Y777139D01*
X354334Y777095D01*
X354376Y777047D01*
X354414Y776998D01*
X354449Y776946D01*
X354481Y776892D01*
X354510Y776836D01*
X354535Y776778D01*
X354556Y776719D01*
X354574Y776659D01*
X354587Y776597D01*
X354597Y776535D01*
X354603Y776473D01*
X354605Y776410D01*
X354603Y776347D01*
X354597Y776285D01*
X354587Y776223D01*
X354574Y776161D01*
X354556Y776101D01*
X354535Y776042D01*
X354510Y775984D01*
X354481Y775928D01*
X354449Y775874D01*
X354414Y775822D01*
X354376Y775773D01*
X354334Y775725D01*
X354290Y775681D01*
X354242Y775639D01*
X354193Y775601D01*
X354141Y775566D01*
X354087Y775534D01*
X354031Y775505D01*
X353973Y775480D01*
X353914Y775459D01*
X353854Y775441D01*
X353792Y775428D01*
X353730Y775418D01*
X353668Y775412D01*
X353605Y775410D01*
X353542Y775412D01*
X353480Y775418D01*
X353418Y775428D01*
X353356Y775441D01*
X353296Y775459D01*
X353237Y775480D01*
X353179Y775505D01*
X353123Y775534D01*
X353069Y775566D01*
X353017Y775601D01*
X352968Y775639D01*
X352920Y775681D01*
X352876Y775725D01*
X352834Y775773D01*
X352796Y775822D01*
X352761Y775874D01*
X352729Y775928D01*
X352700Y775984D01*
X352675Y776042D01*
X352654Y776101D01*
X352636Y776161D01*
X352623Y776223D01*
X352613Y776285D01*
X352607Y776347D01*
X352605Y776410D01*
X550805Y708410D02*
X550805Y677410D01*
X500805Y677410D01*
X500805Y708410D01*
X500805Y772410D02*
X500805Y803410D01*
X550805Y803410D01*
X550805Y772410D01*
X554805Y746410D02*
X559805Y746410D01*
X559805Y734410D01*
X554805Y734410D01*
X555805Y776410D02*
X555807Y776473D01*
X555813Y776535D01*
X555823Y776597D01*
X555836Y776659D01*
X555854Y776719D01*
X555875Y776778D01*
X555900Y776836D01*
X555929Y776892D01*
X555961Y776946D01*
X555996Y776998D01*
X556034Y777047D01*
X556076Y777095D01*
X556120Y777139D01*
X556168Y777181D01*
X556217Y777219D01*
X556269Y777254D01*
X556323Y777286D01*
X556379Y777315D01*
X556437Y777340D01*
X556496Y777361D01*
X556556Y777379D01*
X556618Y777392D01*
X556680Y777402D01*
X556742Y777408D01*
X556805Y777410D01*
X556868Y777408D01*
X556930Y777402D01*
X556992Y777392D01*
X557054Y777379D01*
X557114Y777361D01*
X557173Y777340D01*
X557231Y777315D01*
X557287Y777286D01*
X557341Y777254D01*
X557393Y777219D01*
X557442Y777181D01*
X557490Y777139D01*
X557534Y777095D01*
X557576Y777047D01*
X557614Y776998D01*
X557649Y776946D01*
X557681Y776892D01*
X557710Y776836D01*
X557735Y776778D01*
X557756Y776719D01*
X557774Y776659D01*
X557787Y776597D01*
X557797Y776535D01*
X557803Y776473D01*
X557805Y776410D01*
X557803Y776347D01*
X557797Y776285D01*
X557787Y776223D01*
X557774Y776161D01*
X557756Y776101D01*
X557735Y776042D01*
X557710Y775984D01*
X557681Y775928D01*
X557649Y775874D01*
X557614Y775822D01*
X557576Y775773D01*
X557534Y775725D01*
X557490Y775681D01*
X557442Y775639D01*
X557393Y775601D01*
X557341Y775566D01*
X557287Y775534D01*
X557231Y775505D01*
X557173Y775480D01*
X557114Y775459D01*
X557054Y775441D01*
X556992Y775428D01*
X556930Y775418D01*
X556868Y775412D01*
X556805Y775410D01*
X556742Y775412D01*
X556680Y775418D01*
X556618Y775428D01*
X556556Y775441D01*
X556496Y775459D01*
X556437Y775480D01*
X556379Y775505D01*
X556323Y775534D01*
X556269Y775566D01*
X556217Y775601D01*
X556168Y775639D01*
X556120Y775681D01*
X556076Y775725D01*
X556034Y775773D01*
X555996Y775822D01*
X555961Y775874D01*
X555929Y775928D01*
X555900Y775984D01*
X555875Y776042D01*
X555854Y776101D01*
X555836Y776161D01*
X555823Y776223D01*
X555813Y776285D01*
X555807Y776347D01*
X555805Y776410D01*
X632111Y708410D02*
X632111Y677410D01*
X582111Y677410D01*
X582111Y708410D01*
X582111Y772410D02*
X582111Y803410D01*
X632111Y803410D01*
X632111Y772410D01*
X636111Y746410D02*
X641111Y746410D01*
X641111Y734410D01*
X636111Y734410D01*
X637111Y776410D02*
X637113Y776473D01*
X637119Y776535D01*
X637129Y776597D01*
X637142Y776659D01*
X637160Y776719D01*
X637181Y776778D01*
X637206Y776836D01*
X637235Y776892D01*
X637267Y776946D01*
X637302Y776998D01*
X637340Y777047D01*
X637382Y777095D01*
X637426Y777139D01*
X637474Y777181D01*
X637523Y777219D01*
X637575Y777254D01*
X637629Y777286D01*
X637685Y777315D01*
X637743Y777340D01*
X637802Y777361D01*
X637862Y777379D01*
X637924Y777392D01*
X637986Y777402D01*
X638048Y777408D01*
X638111Y777410D01*
X638174Y777408D01*
X638236Y777402D01*
X638298Y777392D01*
X638360Y777379D01*
X638420Y777361D01*
X638479Y777340D01*
X638537Y777315D01*
X638593Y777286D01*
X638647Y777254D01*
X638699Y777219D01*
X638748Y777181D01*
X638796Y777139D01*
X638840Y777095D01*
X638882Y777047D01*
X638920Y776998D01*
X638955Y776946D01*
X638987Y776892D01*
X639016Y776836D01*
X639041Y776778D01*
X639062Y776719D01*
X639080Y776659D01*
X639093Y776597D01*
X639103Y776535D01*
X639109Y776473D01*
X639111Y776410D01*
X639109Y776347D01*
X639103Y776285D01*
X639093Y776223D01*
X639080Y776161D01*
X639062Y776101D01*
X639041Y776042D01*
X639016Y775984D01*
X638987Y775928D01*
X638955Y775874D01*
X638920Y775822D01*
X638882Y775773D01*
X638840Y775725D01*
X638796Y775681D01*
X638748Y775639D01*
X638699Y775601D01*
X638647Y775566D01*
X638593Y775534D01*
X638537Y775505D01*
X638479Y775480D01*
X638420Y775459D01*
X638360Y775441D01*
X638298Y775428D01*
X638236Y775418D01*
X638174Y775412D01*
X638111Y775410D01*
X638048Y775412D01*
X637986Y775418D01*
X637924Y775428D01*
X637862Y775441D01*
X637802Y775459D01*
X637743Y775480D01*
X637685Y775505D01*
X637629Y775534D01*
X637575Y775566D01*
X637523Y775601D01*
X637474Y775639D01*
X637426Y775681D01*
X637382Y775725D01*
X637340Y775773D01*
X637302Y775822D01*
X637267Y775874D01*
X637235Y775928D01*
X637206Y775984D01*
X637181Y776042D01*
X637160Y776101D01*
X637142Y776161D01*
X637129Y776223D01*
X637119Y776285D01*
X637113Y776347D01*
X637111Y776410D01*
X835311Y708410D02*
X835311Y677410D01*
X785311Y677410D01*
X785311Y708410D01*
X785311Y772410D02*
X785311Y803410D01*
X835311Y803410D01*
X835311Y772410D01*
X839311Y746410D02*
X844311Y746410D01*
X844311Y734410D01*
X839311Y734410D01*
X840311Y776410D02*
X840313Y776473D01*
X840319Y776535D01*
X840329Y776597D01*
X840342Y776659D01*
X840360Y776719D01*
X840381Y776778D01*
X840406Y776836D01*
X840435Y776892D01*
X840467Y776946D01*
X840502Y776998D01*
X840540Y777047D01*
X840582Y777095D01*
X840626Y777139D01*
X840674Y777181D01*
X840723Y777219D01*
X840775Y777254D01*
X840829Y777286D01*
X840885Y777315D01*
X840943Y777340D01*
X841002Y777361D01*
X841062Y777379D01*
X841124Y777392D01*
X841186Y777402D01*
X841248Y777408D01*
X841311Y777410D01*
X841374Y777408D01*
X841436Y777402D01*
X841498Y777392D01*
X841560Y777379D01*
X841620Y777361D01*
X841679Y777340D01*
X841737Y777315D01*
X841793Y777286D01*
X841847Y777254D01*
X841899Y777219D01*
X841948Y777181D01*
X841996Y777139D01*
X842040Y777095D01*
X842082Y777047D01*
X842120Y776998D01*
X842155Y776946D01*
X842187Y776892D01*
X842216Y776836D01*
X842241Y776778D01*
X842262Y776719D01*
X842280Y776659D01*
X842293Y776597D01*
X842303Y776535D01*
X842309Y776473D01*
X842311Y776410D01*
X842309Y776347D01*
X842303Y776285D01*
X842293Y776223D01*
X842280Y776161D01*
X842262Y776101D01*
X842241Y776042D01*
X842216Y775984D01*
X842187Y775928D01*
X842155Y775874D01*
X842120Y775822D01*
X842082Y775773D01*
X842040Y775725D01*
X841996Y775681D01*
X841948Y775639D01*
X841899Y775601D01*
X841847Y775566D01*
X841793Y775534D01*
X841737Y775505D01*
X841679Y775480D01*
X841620Y775459D01*
X841560Y775441D01*
X841498Y775428D01*
X841436Y775418D01*
X841374Y775412D01*
X841311Y775410D01*
X841248Y775412D01*
X841186Y775418D01*
X841124Y775428D01*
X841062Y775441D01*
X841002Y775459D01*
X840943Y775480D01*
X840885Y775505D01*
X840829Y775534D01*
X840775Y775566D01*
X840723Y775601D01*
X840674Y775639D01*
X840626Y775681D01*
X840582Y775725D01*
X840540Y775773D01*
X840502Y775822D01*
X840467Y775874D01*
X840435Y775928D01*
X840406Y775984D01*
X840381Y776042D01*
X840360Y776101D01*
X840342Y776161D01*
X840329Y776223D01*
X840319Y776285D01*
X840313Y776347D01*
X840311Y776410D01*
M02*
