G04 EAGLE Gerber RS-274X export*
G75*
%MOMM*%
%FSLAX34Y34*%
%LPD*%
%INSilkscreen Top*%
%IPPOS*%
%AMOC8*
5,1,8,0,0,1.08239X$1,22.5*%
G01*
%ADD10C,0.127000*%
%ADD11C,0.508000*%
%ADD12C,0.203200*%
%ADD13C,0.254000*%
%ADD14C,0.600000*%


D10*
X128700Y58850D02*
X128700Y80850D01*
X150700Y80850D02*
X150700Y58850D01*
X140700Y58850D02*
X138700Y58850D01*
X138700Y80850D02*
X140700Y80850D01*
X152000Y82850D02*
X152002Y82902D01*
X152008Y82954D01*
X152018Y83006D01*
X152031Y83056D01*
X152048Y83106D01*
X152069Y83154D01*
X152094Y83200D01*
X152122Y83244D01*
X152153Y83286D01*
X152187Y83326D01*
X152224Y83363D01*
X152264Y83397D01*
X152306Y83428D01*
X152350Y83456D01*
X152396Y83481D01*
X152444Y83502D01*
X152494Y83519D01*
X152544Y83532D01*
X152596Y83542D01*
X152648Y83548D01*
X152700Y83550D01*
X152752Y83548D01*
X152804Y83542D01*
X152856Y83532D01*
X152906Y83519D01*
X152956Y83502D01*
X153004Y83481D01*
X153050Y83456D01*
X153094Y83428D01*
X153136Y83397D01*
X153176Y83363D01*
X153213Y83326D01*
X153247Y83286D01*
X153278Y83244D01*
X153306Y83200D01*
X153331Y83154D01*
X153352Y83106D01*
X153369Y83056D01*
X153382Y83006D01*
X153392Y82954D01*
X153398Y82902D01*
X153400Y82850D01*
X153398Y82798D01*
X153392Y82746D01*
X153382Y82694D01*
X153369Y82644D01*
X153352Y82594D01*
X153331Y82546D01*
X153306Y82500D01*
X153278Y82456D01*
X153247Y82414D01*
X153213Y82374D01*
X153176Y82337D01*
X153136Y82303D01*
X153094Y82272D01*
X153050Y82244D01*
X153004Y82219D01*
X152956Y82198D01*
X152906Y82181D01*
X152856Y82168D01*
X152804Y82158D01*
X152752Y82152D01*
X152700Y82150D01*
X152648Y82152D01*
X152596Y82158D01*
X152544Y82168D01*
X152494Y82181D01*
X152444Y82198D01*
X152396Y82219D01*
X152350Y82244D01*
X152306Y82272D01*
X152264Y82303D01*
X152224Y82337D01*
X152187Y82374D01*
X152153Y82414D01*
X152122Y82456D01*
X152094Y82500D01*
X152069Y82546D01*
X152048Y82594D01*
X152031Y82644D01*
X152018Y82694D01*
X152008Y82746D01*
X152002Y82798D01*
X152000Y82850D01*
D11*
X129930Y132960D03*
D12*
X131450Y129535D02*
X147950Y129535D01*
X147950Y111765D02*
X131450Y111765D01*
D13*
X63500Y123698D03*
D12*
X57634Y152400D02*
X49046Y152400D01*
X49046Y127000D02*
X57634Y127000D01*
X46252Y137016D02*
X46252Y142384D01*
D14*
X36640Y120840D03*
D12*
X29480Y61230D02*
X84820Y61230D01*
X84820Y116570D02*
X29480Y116570D01*
X84820Y116570D02*
X84820Y113300D01*
X84820Y64500D02*
X84820Y61230D01*
X29480Y61230D02*
X29480Y64500D01*
X29480Y113300D02*
X29480Y116570D01*
D10*
X413205Y80850D02*
X413205Y58850D01*
X435205Y58850D02*
X435205Y80850D01*
X425205Y58850D02*
X423205Y58850D01*
X423205Y80850D02*
X425205Y80850D01*
X436505Y82850D02*
X436507Y82902D01*
X436513Y82954D01*
X436523Y83006D01*
X436536Y83056D01*
X436553Y83106D01*
X436574Y83154D01*
X436599Y83200D01*
X436627Y83244D01*
X436658Y83286D01*
X436692Y83326D01*
X436729Y83363D01*
X436769Y83397D01*
X436811Y83428D01*
X436855Y83456D01*
X436901Y83481D01*
X436949Y83502D01*
X436999Y83519D01*
X437049Y83532D01*
X437101Y83542D01*
X437153Y83548D01*
X437205Y83550D01*
X437257Y83548D01*
X437309Y83542D01*
X437361Y83532D01*
X437411Y83519D01*
X437461Y83502D01*
X437509Y83481D01*
X437555Y83456D01*
X437599Y83428D01*
X437641Y83397D01*
X437681Y83363D01*
X437718Y83326D01*
X437752Y83286D01*
X437783Y83244D01*
X437811Y83200D01*
X437836Y83154D01*
X437857Y83106D01*
X437874Y83056D01*
X437887Y83006D01*
X437897Y82954D01*
X437903Y82902D01*
X437905Y82850D01*
X437903Y82798D01*
X437897Y82746D01*
X437887Y82694D01*
X437874Y82644D01*
X437857Y82594D01*
X437836Y82546D01*
X437811Y82500D01*
X437783Y82456D01*
X437752Y82414D01*
X437718Y82374D01*
X437681Y82337D01*
X437641Y82303D01*
X437599Y82272D01*
X437555Y82244D01*
X437509Y82219D01*
X437461Y82198D01*
X437411Y82181D01*
X437361Y82168D01*
X437309Y82158D01*
X437257Y82152D01*
X437205Y82150D01*
X437153Y82152D01*
X437101Y82158D01*
X437049Y82168D01*
X436999Y82181D01*
X436949Y82198D01*
X436901Y82219D01*
X436855Y82244D01*
X436811Y82272D01*
X436769Y82303D01*
X436729Y82337D01*
X436692Y82374D01*
X436658Y82414D01*
X436627Y82456D01*
X436599Y82500D01*
X436574Y82546D01*
X436553Y82594D01*
X436536Y82644D01*
X436523Y82694D01*
X436513Y82746D01*
X436507Y82798D01*
X436505Y82850D01*
D11*
X414435Y132960D03*
D12*
X415955Y129535D02*
X432455Y129535D01*
X432455Y111765D02*
X415955Y111765D01*
D13*
X348005Y123698D03*
D12*
X342139Y152400D02*
X333551Y152400D01*
X333551Y127000D02*
X342139Y127000D01*
X330757Y137016D02*
X330757Y142384D01*
D14*
X321145Y120840D03*
D12*
X313985Y61230D02*
X369325Y61230D01*
X369325Y116570D02*
X313985Y116570D01*
X369325Y116570D02*
X369325Y113300D01*
X369325Y64500D02*
X369325Y61230D01*
X313985Y61230D02*
X313985Y64500D01*
X313985Y113300D02*
X313985Y116570D01*
D10*
X697711Y80850D02*
X697711Y58850D01*
X719711Y58850D02*
X719711Y80850D01*
X709711Y58850D02*
X707711Y58850D01*
X707711Y80850D02*
X709711Y80850D01*
X721011Y82850D02*
X721013Y82902D01*
X721019Y82954D01*
X721029Y83006D01*
X721042Y83056D01*
X721059Y83106D01*
X721080Y83154D01*
X721105Y83200D01*
X721133Y83244D01*
X721164Y83286D01*
X721198Y83326D01*
X721235Y83363D01*
X721275Y83397D01*
X721317Y83428D01*
X721361Y83456D01*
X721407Y83481D01*
X721455Y83502D01*
X721505Y83519D01*
X721555Y83532D01*
X721607Y83542D01*
X721659Y83548D01*
X721711Y83550D01*
X721763Y83548D01*
X721815Y83542D01*
X721867Y83532D01*
X721917Y83519D01*
X721967Y83502D01*
X722015Y83481D01*
X722061Y83456D01*
X722105Y83428D01*
X722147Y83397D01*
X722187Y83363D01*
X722224Y83326D01*
X722258Y83286D01*
X722289Y83244D01*
X722317Y83200D01*
X722342Y83154D01*
X722363Y83106D01*
X722380Y83056D01*
X722393Y83006D01*
X722403Y82954D01*
X722409Y82902D01*
X722411Y82850D01*
X722409Y82798D01*
X722403Y82746D01*
X722393Y82694D01*
X722380Y82644D01*
X722363Y82594D01*
X722342Y82546D01*
X722317Y82500D01*
X722289Y82456D01*
X722258Y82414D01*
X722224Y82374D01*
X722187Y82337D01*
X722147Y82303D01*
X722105Y82272D01*
X722061Y82244D01*
X722015Y82219D01*
X721967Y82198D01*
X721917Y82181D01*
X721867Y82168D01*
X721815Y82158D01*
X721763Y82152D01*
X721711Y82150D01*
X721659Y82152D01*
X721607Y82158D01*
X721555Y82168D01*
X721505Y82181D01*
X721455Y82198D01*
X721407Y82219D01*
X721361Y82244D01*
X721317Y82272D01*
X721275Y82303D01*
X721235Y82337D01*
X721198Y82374D01*
X721164Y82414D01*
X721133Y82456D01*
X721105Y82500D01*
X721080Y82546D01*
X721059Y82594D01*
X721042Y82644D01*
X721029Y82694D01*
X721019Y82746D01*
X721013Y82798D01*
X721011Y82850D01*
D11*
X698941Y132960D03*
D12*
X700461Y129535D02*
X716961Y129535D01*
X716961Y111765D02*
X700461Y111765D01*
D13*
X632511Y123698D03*
D12*
X626645Y152400D02*
X618057Y152400D01*
X618057Y127000D02*
X626645Y127000D01*
X615263Y137016D02*
X615263Y142384D01*
D14*
X605651Y120840D03*
D12*
X598491Y61230D02*
X653831Y61230D01*
X653831Y116570D02*
X598491Y116570D01*
X653831Y116570D02*
X653831Y113300D01*
X653831Y64500D02*
X653831Y61230D01*
X598491Y61230D02*
X598491Y64500D01*
X598491Y113300D02*
X598491Y116570D01*
D10*
X128700Y368730D02*
X128700Y390730D01*
X150700Y390730D02*
X150700Y368730D01*
X140700Y368730D02*
X138700Y368730D01*
X138700Y390730D02*
X140700Y390730D01*
X152000Y392730D02*
X152002Y392782D01*
X152008Y392834D01*
X152018Y392886D01*
X152031Y392936D01*
X152048Y392986D01*
X152069Y393034D01*
X152094Y393080D01*
X152122Y393124D01*
X152153Y393166D01*
X152187Y393206D01*
X152224Y393243D01*
X152264Y393277D01*
X152306Y393308D01*
X152350Y393336D01*
X152396Y393361D01*
X152444Y393382D01*
X152494Y393399D01*
X152544Y393412D01*
X152596Y393422D01*
X152648Y393428D01*
X152700Y393430D01*
X152752Y393428D01*
X152804Y393422D01*
X152856Y393412D01*
X152906Y393399D01*
X152956Y393382D01*
X153004Y393361D01*
X153050Y393336D01*
X153094Y393308D01*
X153136Y393277D01*
X153176Y393243D01*
X153213Y393206D01*
X153247Y393166D01*
X153278Y393124D01*
X153306Y393080D01*
X153331Y393034D01*
X153352Y392986D01*
X153369Y392936D01*
X153382Y392886D01*
X153392Y392834D01*
X153398Y392782D01*
X153400Y392730D01*
X153398Y392678D01*
X153392Y392626D01*
X153382Y392574D01*
X153369Y392524D01*
X153352Y392474D01*
X153331Y392426D01*
X153306Y392380D01*
X153278Y392336D01*
X153247Y392294D01*
X153213Y392254D01*
X153176Y392217D01*
X153136Y392183D01*
X153094Y392152D01*
X153050Y392124D01*
X153004Y392099D01*
X152956Y392078D01*
X152906Y392061D01*
X152856Y392048D01*
X152804Y392038D01*
X152752Y392032D01*
X152700Y392030D01*
X152648Y392032D01*
X152596Y392038D01*
X152544Y392048D01*
X152494Y392061D01*
X152444Y392078D01*
X152396Y392099D01*
X152350Y392124D01*
X152306Y392152D01*
X152264Y392183D01*
X152224Y392217D01*
X152187Y392254D01*
X152153Y392294D01*
X152122Y392336D01*
X152094Y392380D01*
X152069Y392426D01*
X152048Y392474D01*
X152031Y392524D01*
X152018Y392574D01*
X152008Y392626D01*
X152002Y392678D01*
X152000Y392730D01*
D11*
X129930Y442840D03*
D12*
X131450Y439415D02*
X147950Y439415D01*
X147950Y421645D02*
X131450Y421645D01*
D13*
X63500Y433578D03*
D12*
X57634Y462280D02*
X49046Y462280D01*
X49046Y436880D02*
X57634Y436880D01*
X46252Y446896D02*
X46252Y452264D01*
D14*
X36640Y430720D03*
D12*
X29480Y371110D02*
X84820Y371110D01*
X84820Y426450D02*
X29480Y426450D01*
X84820Y426450D02*
X84820Y423180D01*
X84820Y374380D02*
X84820Y371110D01*
X29480Y371110D02*
X29480Y374380D01*
X29480Y423180D02*
X29480Y426450D01*
D10*
X413205Y390730D02*
X413205Y368730D01*
X435205Y368730D02*
X435205Y390730D01*
X425205Y368730D02*
X423205Y368730D01*
X423205Y390730D02*
X425205Y390730D01*
X436505Y392730D02*
X436507Y392782D01*
X436513Y392834D01*
X436523Y392886D01*
X436536Y392936D01*
X436553Y392986D01*
X436574Y393034D01*
X436599Y393080D01*
X436627Y393124D01*
X436658Y393166D01*
X436692Y393206D01*
X436729Y393243D01*
X436769Y393277D01*
X436811Y393308D01*
X436855Y393336D01*
X436901Y393361D01*
X436949Y393382D01*
X436999Y393399D01*
X437049Y393412D01*
X437101Y393422D01*
X437153Y393428D01*
X437205Y393430D01*
X437257Y393428D01*
X437309Y393422D01*
X437361Y393412D01*
X437411Y393399D01*
X437461Y393382D01*
X437509Y393361D01*
X437555Y393336D01*
X437599Y393308D01*
X437641Y393277D01*
X437681Y393243D01*
X437718Y393206D01*
X437752Y393166D01*
X437783Y393124D01*
X437811Y393080D01*
X437836Y393034D01*
X437857Y392986D01*
X437874Y392936D01*
X437887Y392886D01*
X437897Y392834D01*
X437903Y392782D01*
X437905Y392730D01*
X437903Y392678D01*
X437897Y392626D01*
X437887Y392574D01*
X437874Y392524D01*
X437857Y392474D01*
X437836Y392426D01*
X437811Y392380D01*
X437783Y392336D01*
X437752Y392294D01*
X437718Y392254D01*
X437681Y392217D01*
X437641Y392183D01*
X437599Y392152D01*
X437555Y392124D01*
X437509Y392099D01*
X437461Y392078D01*
X437411Y392061D01*
X437361Y392048D01*
X437309Y392038D01*
X437257Y392032D01*
X437205Y392030D01*
X437153Y392032D01*
X437101Y392038D01*
X437049Y392048D01*
X436999Y392061D01*
X436949Y392078D01*
X436901Y392099D01*
X436855Y392124D01*
X436811Y392152D01*
X436769Y392183D01*
X436729Y392217D01*
X436692Y392254D01*
X436658Y392294D01*
X436627Y392336D01*
X436599Y392380D01*
X436574Y392426D01*
X436553Y392474D01*
X436536Y392524D01*
X436523Y392574D01*
X436513Y392626D01*
X436507Y392678D01*
X436505Y392730D01*
D11*
X414435Y442840D03*
D12*
X415955Y439415D02*
X432455Y439415D01*
X432455Y421645D02*
X415955Y421645D01*
D13*
X348005Y433578D03*
D12*
X342139Y462280D02*
X333551Y462280D01*
X333551Y436880D02*
X342139Y436880D01*
X330757Y446896D02*
X330757Y452264D01*
D14*
X321145Y430720D03*
D12*
X313985Y371110D02*
X369325Y371110D01*
X369325Y426450D02*
X313985Y426450D01*
X369325Y426450D02*
X369325Y423180D01*
X369325Y374380D02*
X369325Y371110D01*
X313985Y371110D02*
X313985Y374380D01*
X313985Y423180D02*
X313985Y426450D01*
D10*
X697711Y390730D02*
X697711Y368730D01*
X719711Y368730D02*
X719711Y390730D01*
X709711Y368730D02*
X707711Y368730D01*
X707711Y390730D02*
X709711Y390730D01*
X721011Y392730D02*
X721013Y392782D01*
X721019Y392834D01*
X721029Y392886D01*
X721042Y392936D01*
X721059Y392986D01*
X721080Y393034D01*
X721105Y393080D01*
X721133Y393124D01*
X721164Y393166D01*
X721198Y393206D01*
X721235Y393243D01*
X721275Y393277D01*
X721317Y393308D01*
X721361Y393336D01*
X721407Y393361D01*
X721455Y393382D01*
X721505Y393399D01*
X721555Y393412D01*
X721607Y393422D01*
X721659Y393428D01*
X721711Y393430D01*
X721763Y393428D01*
X721815Y393422D01*
X721867Y393412D01*
X721917Y393399D01*
X721967Y393382D01*
X722015Y393361D01*
X722061Y393336D01*
X722105Y393308D01*
X722147Y393277D01*
X722187Y393243D01*
X722224Y393206D01*
X722258Y393166D01*
X722289Y393124D01*
X722317Y393080D01*
X722342Y393034D01*
X722363Y392986D01*
X722380Y392936D01*
X722393Y392886D01*
X722403Y392834D01*
X722409Y392782D01*
X722411Y392730D01*
X722409Y392678D01*
X722403Y392626D01*
X722393Y392574D01*
X722380Y392524D01*
X722363Y392474D01*
X722342Y392426D01*
X722317Y392380D01*
X722289Y392336D01*
X722258Y392294D01*
X722224Y392254D01*
X722187Y392217D01*
X722147Y392183D01*
X722105Y392152D01*
X722061Y392124D01*
X722015Y392099D01*
X721967Y392078D01*
X721917Y392061D01*
X721867Y392048D01*
X721815Y392038D01*
X721763Y392032D01*
X721711Y392030D01*
X721659Y392032D01*
X721607Y392038D01*
X721555Y392048D01*
X721505Y392061D01*
X721455Y392078D01*
X721407Y392099D01*
X721361Y392124D01*
X721317Y392152D01*
X721275Y392183D01*
X721235Y392217D01*
X721198Y392254D01*
X721164Y392294D01*
X721133Y392336D01*
X721105Y392380D01*
X721080Y392426D01*
X721059Y392474D01*
X721042Y392524D01*
X721029Y392574D01*
X721019Y392626D01*
X721013Y392678D01*
X721011Y392730D01*
D11*
X698941Y442840D03*
D12*
X700461Y439415D02*
X716961Y439415D01*
X716961Y421645D02*
X700461Y421645D01*
D13*
X632511Y433578D03*
D12*
X626645Y462280D02*
X618057Y462280D01*
X618057Y436880D02*
X626645Y436880D01*
X615263Y446896D02*
X615263Y452264D01*
D14*
X605651Y430720D03*
D12*
X598491Y371110D02*
X653831Y371110D01*
X653831Y426450D02*
X598491Y426450D01*
X653831Y426450D02*
X653831Y423180D01*
X653831Y374380D02*
X653831Y371110D01*
X598491Y371110D02*
X598491Y374380D01*
X598491Y423180D02*
X598491Y426450D01*
D10*
X128700Y678610D02*
X128700Y700610D01*
X150700Y700610D02*
X150700Y678610D01*
X140700Y678610D02*
X138700Y678610D01*
X138700Y700610D02*
X140700Y700610D01*
X152000Y702610D02*
X152002Y702662D01*
X152008Y702714D01*
X152018Y702766D01*
X152031Y702816D01*
X152048Y702866D01*
X152069Y702914D01*
X152094Y702960D01*
X152122Y703004D01*
X152153Y703046D01*
X152187Y703086D01*
X152224Y703123D01*
X152264Y703157D01*
X152306Y703188D01*
X152350Y703216D01*
X152396Y703241D01*
X152444Y703262D01*
X152494Y703279D01*
X152544Y703292D01*
X152596Y703302D01*
X152648Y703308D01*
X152700Y703310D01*
X152752Y703308D01*
X152804Y703302D01*
X152856Y703292D01*
X152906Y703279D01*
X152956Y703262D01*
X153004Y703241D01*
X153050Y703216D01*
X153094Y703188D01*
X153136Y703157D01*
X153176Y703123D01*
X153213Y703086D01*
X153247Y703046D01*
X153278Y703004D01*
X153306Y702960D01*
X153331Y702914D01*
X153352Y702866D01*
X153369Y702816D01*
X153382Y702766D01*
X153392Y702714D01*
X153398Y702662D01*
X153400Y702610D01*
X153398Y702558D01*
X153392Y702506D01*
X153382Y702454D01*
X153369Y702404D01*
X153352Y702354D01*
X153331Y702306D01*
X153306Y702260D01*
X153278Y702216D01*
X153247Y702174D01*
X153213Y702134D01*
X153176Y702097D01*
X153136Y702063D01*
X153094Y702032D01*
X153050Y702004D01*
X153004Y701979D01*
X152956Y701958D01*
X152906Y701941D01*
X152856Y701928D01*
X152804Y701918D01*
X152752Y701912D01*
X152700Y701910D01*
X152648Y701912D01*
X152596Y701918D01*
X152544Y701928D01*
X152494Y701941D01*
X152444Y701958D01*
X152396Y701979D01*
X152350Y702004D01*
X152306Y702032D01*
X152264Y702063D01*
X152224Y702097D01*
X152187Y702134D01*
X152153Y702174D01*
X152122Y702216D01*
X152094Y702260D01*
X152069Y702306D01*
X152048Y702354D01*
X152031Y702404D01*
X152018Y702454D01*
X152008Y702506D01*
X152002Y702558D01*
X152000Y702610D01*
D11*
X129930Y752720D03*
D12*
X131450Y749295D02*
X147950Y749295D01*
X147950Y731525D02*
X131450Y731525D01*
D13*
X63500Y743458D03*
D12*
X57634Y772160D02*
X49046Y772160D01*
X49046Y746760D02*
X57634Y746760D01*
X46252Y756776D02*
X46252Y762144D01*
D14*
X36640Y740600D03*
D12*
X29480Y680990D02*
X84820Y680990D01*
X84820Y736330D02*
X29480Y736330D01*
X84820Y736330D02*
X84820Y733060D01*
X84820Y684260D02*
X84820Y680990D01*
X29480Y680990D02*
X29480Y684260D01*
X29480Y733060D02*
X29480Y736330D01*
D10*
X413205Y700610D02*
X413205Y678610D01*
X435205Y678610D02*
X435205Y700610D01*
X425205Y678610D02*
X423205Y678610D01*
X423205Y700610D02*
X425205Y700610D01*
X436505Y702610D02*
X436507Y702662D01*
X436513Y702714D01*
X436523Y702766D01*
X436536Y702816D01*
X436553Y702866D01*
X436574Y702914D01*
X436599Y702960D01*
X436627Y703004D01*
X436658Y703046D01*
X436692Y703086D01*
X436729Y703123D01*
X436769Y703157D01*
X436811Y703188D01*
X436855Y703216D01*
X436901Y703241D01*
X436949Y703262D01*
X436999Y703279D01*
X437049Y703292D01*
X437101Y703302D01*
X437153Y703308D01*
X437205Y703310D01*
X437257Y703308D01*
X437309Y703302D01*
X437361Y703292D01*
X437411Y703279D01*
X437461Y703262D01*
X437509Y703241D01*
X437555Y703216D01*
X437599Y703188D01*
X437641Y703157D01*
X437681Y703123D01*
X437718Y703086D01*
X437752Y703046D01*
X437783Y703004D01*
X437811Y702960D01*
X437836Y702914D01*
X437857Y702866D01*
X437874Y702816D01*
X437887Y702766D01*
X437897Y702714D01*
X437903Y702662D01*
X437905Y702610D01*
X437903Y702558D01*
X437897Y702506D01*
X437887Y702454D01*
X437874Y702404D01*
X437857Y702354D01*
X437836Y702306D01*
X437811Y702260D01*
X437783Y702216D01*
X437752Y702174D01*
X437718Y702134D01*
X437681Y702097D01*
X437641Y702063D01*
X437599Y702032D01*
X437555Y702004D01*
X437509Y701979D01*
X437461Y701958D01*
X437411Y701941D01*
X437361Y701928D01*
X437309Y701918D01*
X437257Y701912D01*
X437205Y701910D01*
X437153Y701912D01*
X437101Y701918D01*
X437049Y701928D01*
X436999Y701941D01*
X436949Y701958D01*
X436901Y701979D01*
X436855Y702004D01*
X436811Y702032D01*
X436769Y702063D01*
X436729Y702097D01*
X436692Y702134D01*
X436658Y702174D01*
X436627Y702216D01*
X436599Y702260D01*
X436574Y702306D01*
X436553Y702354D01*
X436536Y702404D01*
X436523Y702454D01*
X436513Y702506D01*
X436507Y702558D01*
X436505Y702610D01*
D11*
X414435Y752720D03*
D12*
X415955Y749295D02*
X432455Y749295D01*
X432455Y731525D02*
X415955Y731525D01*
D13*
X348005Y743458D03*
D12*
X342139Y772160D02*
X333551Y772160D01*
X333551Y746760D02*
X342139Y746760D01*
X330757Y756776D02*
X330757Y762144D01*
D14*
X321145Y740600D03*
D12*
X313985Y680990D02*
X369325Y680990D01*
X369325Y736330D02*
X313985Y736330D01*
X369325Y736330D02*
X369325Y733060D01*
X369325Y684260D02*
X369325Y680990D01*
X313985Y680990D02*
X313985Y684260D01*
X313985Y733060D02*
X313985Y736330D01*
D10*
X697711Y700610D02*
X697711Y678610D01*
X719711Y678610D02*
X719711Y700610D01*
X709711Y678610D02*
X707711Y678610D01*
X707711Y700610D02*
X709711Y700610D01*
X721011Y702610D02*
X721013Y702662D01*
X721019Y702714D01*
X721029Y702766D01*
X721042Y702816D01*
X721059Y702866D01*
X721080Y702914D01*
X721105Y702960D01*
X721133Y703004D01*
X721164Y703046D01*
X721198Y703086D01*
X721235Y703123D01*
X721275Y703157D01*
X721317Y703188D01*
X721361Y703216D01*
X721407Y703241D01*
X721455Y703262D01*
X721505Y703279D01*
X721555Y703292D01*
X721607Y703302D01*
X721659Y703308D01*
X721711Y703310D01*
X721763Y703308D01*
X721815Y703302D01*
X721867Y703292D01*
X721917Y703279D01*
X721967Y703262D01*
X722015Y703241D01*
X722061Y703216D01*
X722105Y703188D01*
X722147Y703157D01*
X722187Y703123D01*
X722224Y703086D01*
X722258Y703046D01*
X722289Y703004D01*
X722317Y702960D01*
X722342Y702914D01*
X722363Y702866D01*
X722380Y702816D01*
X722393Y702766D01*
X722403Y702714D01*
X722409Y702662D01*
X722411Y702610D01*
X722409Y702558D01*
X722403Y702506D01*
X722393Y702454D01*
X722380Y702404D01*
X722363Y702354D01*
X722342Y702306D01*
X722317Y702260D01*
X722289Y702216D01*
X722258Y702174D01*
X722224Y702134D01*
X722187Y702097D01*
X722147Y702063D01*
X722105Y702032D01*
X722061Y702004D01*
X722015Y701979D01*
X721967Y701958D01*
X721917Y701941D01*
X721867Y701928D01*
X721815Y701918D01*
X721763Y701912D01*
X721711Y701910D01*
X721659Y701912D01*
X721607Y701918D01*
X721555Y701928D01*
X721505Y701941D01*
X721455Y701958D01*
X721407Y701979D01*
X721361Y702004D01*
X721317Y702032D01*
X721275Y702063D01*
X721235Y702097D01*
X721198Y702134D01*
X721164Y702174D01*
X721133Y702216D01*
X721105Y702260D01*
X721080Y702306D01*
X721059Y702354D01*
X721042Y702404D01*
X721029Y702454D01*
X721019Y702506D01*
X721013Y702558D01*
X721011Y702610D01*
D11*
X698941Y752720D03*
D12*
X700461Y749295D02*
X716961Y749295D01*
X716961Y731525D02*
X700461Y731525D01*
D13*
X632511Y743458D03*
D12*
X626645Y772160D02*
X618057Y772160D01*
X618057Y746760D02*
X626645Y746760D01*
X615263Y756776D02*
X615263Y762144D01*
D14*
X605651Y740600D03*
D12*
X598491Y680990D02*
X653831Y680990D01*
X653831Y736330D02*
X598491Y736330D01*
X653831Y736330D02*
X653831Y733060D01*
X653831Y684260D02*
X653831Y680990D01*
X598491Y680990D02*
X598491Y684260D01*
X598491Y733060D02*
X598491Y736330D01*
M02*
