G04 EAGLE Gerber RS-274X export*
G75*
%MOMM*%
%FSLAX34Y34*%
%LPD*%
%INSilkscreen Top*%
%IPPOS*%
%AMOC8*
5,1,8,0,0,1.08239X$1,22.5*%
G01*
%ADD10C,0.127000*%
%ADD11C,0.508000*%
%ADD12C,0.203200*%
%ADD13C,0.254000*%
%ADD14C,0.600000*%


D10*
X128700Y84250D02*
X128700Y106250D01*
X150700Y106250D02*
X150700Y84250D01*
X140700Y84250D02*
X138700Y84250D01*
X138700Y106250D02*
X140700Y106250D01*
X152000Y108250D02*
X152002Y108302D01*
X152008Y108354D01*
X152018Y108406D01*
X152031Y108456D01*
X152048Y108506D01*
X152069Y108554D01*
X152094Y108600D01*
X152122Y108644D01*
X152153Y108686D01*
X152187Y108726D01*
X152224Y108763D01*
X152264Y108797D01*
X152306Y108828D01*
X152350Y108856D01*
X152396Y108881D01*
X152444Y108902D01*
X152494Y108919D01*
X152544Y108932D01*
X152596Y108942D01*
X152648Y108948D01*
X152700Y108950D01*
X152752Y108948D01*
X152804Y108942D01*
X152856Y108932D01*
X152906Y108919D01*
X152956Y108902D01*
X153004Y108881D01*
X153050Y108856D01*
X153094Y108828D01*
X153136Y108797D01*
X153176Y108763D01*
X153213Y108726D01*
X153247Y108686D01*
X153278Y108644D01*
X153306Y108600D01*
X153331Y108554D01*
X153352Y108506D01*
X153369Y108456D01*
X153382Y108406D01*
X153392Y108354D01*
X153398Y108302D01*
X153400Y108250D01*
X153398Y108198D01*
X153392Y108146D01*
X153382Y108094D01*
X153369Y108044D01*
X153352Y107994D01*
X153331Y107946D01*
X153306Y107900D01*
X153278Y107856D01*
X153247Y107814D01*
X153213Y107774D01*
X153176Y107737D01*
X153136Y107703D01*
X153094Y107672D01*
X153050Y107644D01*
X153004Y107619D01*
X152956Y107598D01*
X152906Y107581D01*
X152856Y107568D01*
X152804Y107558D01*
X152752Y107552D01*
X152700Y107550D01*
X152648Y107552D01*
X152596Y107558D01*
X152544Y107568D01*
X152494Y107581D01*
X152444Y107598D01*
X152396Y107619D01*
X152350Y107644D01*
X152306Y107672D01*
X152264Y107703D01*
X152224Y107737D01*
X152187Y107774D01*
X152153Y107814D01*
X152122Y107856D01*
X152094Y107900D01*
X152069Y107946D01*
X152048Y107994D01*
X152031Y108044D01*
X152018Y108094D01*
X152008Y108146D01*
X152002Y108198D01*
X152000Y108250D01*
D11*
X129930Y138040D03*
D12*
X131450Y134615D02*
X147950Y134615D01*
X147950Y116845D02*
X131450Y116845D01*
D13*
X63500Y123698D03*
D12*
X57634Y152400D02*
X49046Y152400D01*
X49046Y127000D02*
X57634Y127000D01*
X46252Y137016D02*
X46252Y142384D01*
D14*
X36640Y120840D03*
D12*
X29480Y61230D02*
X84820Y61230D01*
X84820Y116570D02*
X29480Y116570D01*
X84820Y116570D02*
X84820Y113300D01*
X84820Y64500D02*
X84820Y61230D01*
X29480Y61230D02*
X29480Y64500D01*
X29480Y113300D02*
X29480Y116570D01*
D10*
X413205Y106250D02*
X413205Y84250D01*
X435205Y84250D02*
X435205Y106250D01*
X425205Y84250D02*
X423205Y84250D01*
X423205Y106250D02*
X425205Y106250D01*
X436505Y108250D02*
X436507Y108302D01*
X436513Y108354D01*
X436523Y108406D01*
X436536Y108456D01*
X436553Y108506D01*
X436574Y108554D01*
X436599Y108600D01*
X436627Y108644D01*
X436658Y108686D01*
X436692Y108726D01*
X436729Y108763D01*
X436769Y108797D01*
X436811Y108828D01*
X436855Y108856D01*
X436901Y108881D01*
X436949Y108902D01*
X436999Y108919D01*
X437049Y108932D01*
X437101Y108942D01*
X437153Y108948D01*
X437205Y108950D01*
X437257Y108948D01*
X437309Y108942D01*
X437361Y108932D01*
X437411Y108919D01*
X437461Y108902D01*
X437509Y108881D01*
X437555Y108856D01*
X437599Y108828D01*
X437641Y108797D01*
X437681Y108763D01*
X437718Y108726D01*
X437752Y108686D01*
X437783Y108644D01*
X437811Y108600D01*
X437836Y108554D01*
X437857Y108506D01*
X437874Y108456D01*
X437887Y108406D01*
X437897Y108354D01*
X437903Y108302D01*
X437905Y108250D01*
X437903Y108198D01*
X437897Y108146D01*
X437887Y108094D01*
X437874Y108044D01*
X437857Y107994D01*
X437836Y107946D01*
X437811Y107900D01*
X437783Y107856D01*
X437752Y107814D01*
X437718Y107774D01*
X437681Y107737D01*
X437641Y107703D01*
X437599Y107672D01*
X437555Y107644D01*
X437509Y107619D01*
X437461Y107598D01*
X437411Y107581D01*
X437361Y107568D01*
X437309Y107558D01*
X437257Y107552D01*
X437205Y107550D01*
X437153Y107552D01*
X437101Y107558D01*
X437049Y107568D01*
X436999Y107581D01*
X436949Y107598D01*
X436901Y107619D01*
X436855Y107644D01*
X436811Y107672D01*
X436769Y107703D01*
X436729Y107737D01*
X436692Y107774D01*
X436658Y107814D01*
X436627Y107856D01*
X436599Y107900D01*
X436574Y107946D01*
X436553Y107994D01*
X436536Y108044D01*
X436523Y108094D01*
X436513Y108146D01*
X436507Y108198D01*
X436505Y108250D01*
D11*
X414435Y138040D03*
D12*
X415955Y134615D02*
X432455Y134615D01*
X432455Y116845D02*
X415955Y116845D01*
D13*
X348005Y123698D03*
D12*
X342139Y152400D02*
X333551Y152400D01*
X333551Y127000D02*
X342139Y127000D01*
X330757Y137016D02*
X330757Y142384D01*
D14*
X321145Y120840D03*
D12*
X313985Y61230D02*
X369325Y61230D01*
X369325Y116570D02*
X313985Y116570D01*
X369325Y116570D02*
X369325Y113300D01*
X369325Y64500D02*
X369325Y61230D01*
X313985Y61230D02*
X313985Y64500D01*
X313985Y113300D02*
X313985Y116570D01*
D10*
X697711Y106250D02*
X697711Y84250D01*
X719711Y84250D02*
X719711Y106250D01*
X709711Y84250D02*
X707711Y84250D01*
X707711Y106250D02*
X709711Y106250D01*
X721011Y108250D02*
X721013Y108302D01*
X721019Y108354D01*
X721029Y108406D01*
X721042Y108456D01*
X721059Y108506D01*
X721080Y108554D01*
X721105Y108600D01*
X721133Y108644D01*
X721164Y108686D01*
X721198Y108726D01*
X721235Y108763D01*
X721275Y108797D01*
X721317Y108828D01*
X721361Y108856D01*
X721407Y108881D01*
X721455Y108902D01*
X721505Y108919D01*
X721555Y108932D01*
X721607Y108942D01*
X721659Y108948D01*
X721711Y108950D01*
X721763Y108948D01*
X721815Y108942D01*
X721867Y108932D01*
X721917Y108919D01*
X721967Y108902D01*
X722015Y108881D01*
X722061Y108856D01*
X722105Y108828D01*
X722147Y108797D01*
X722187Y108763D01*
X722224Y108726D01*
X722258Y108686D01*
X722289Y108644D01*
X722317Y108600D01*
X722342Y108554D01*
X722363Y108506D01*
X722380Y108456D01*
X722393Y108406D01*
X722403Y108354D01*
X722409Y108302D01*
X722411Y108250D01*
X722409Y108198D01*
X722403Y108146D01*
X722393Y108094D01*
X722380Y108044D01*
X722363Y107994D01*
X722342Y107946D01*
X722317Y107900D01*
X722289Y107856D01*
X722258Y107814D01*
X722224Y107774D01*
X722187Y107737D01*
X722147Y107703D01*
X722105Y107672D01*
X722061Y107644D01*
X722015Y107619D01*
X721967Y107598D01*
X721917Y107581D01*
X721867Y107568D01*
X721815Y107558D01*
X721763Y107552D01*
X721711Y107550D01*
X721659Y107552D01*
X721607Y107558D01*
X721555Y107568D01*
X721505Y107581D01*
X721455Y107598D01*
X721407Y107619D01*
X721361Y107644D01*
X721317Y107672D01*
X721275Y107703D01*
X721235Y107737D01*
X721198Y107774D01*
X721164Y107814D01*
X721133Y107856D01*
X721105Y107900D01*
X721080Y107946D01*
X721059Y107994D01*
X721042Y108044D01*
X721029Y108094D01*
X721019Y108146D01*
X721013Y108198D01*
X721011Y108250D01*
D11*
X698941Y138040D03*
D12*
X700461Y134615D02*
X716961Y134615D01*
X716961Y116845D02*
X700461Y116845D01*
D13*
X632511Y123698D03*
D12*
X626645Y152400D02*
X618057Y152400D01*
X618057Y127000D02*
X626645Y127000D01*
X615263Y137016D02*
X615263Y142384D01*
D14*
X605651Y120840D03*
D12*
X598491Y61230D02*
X653831Y61230D01*
X653831Y116570D02*
X598491Y116570D01*
X653831Y116570D02*
X653831Y113300D01*
X653831Y64500D02*
X653831Y61230D01*
X598491Y61230D02*
X598491Y64500D01*
X598491Y113300D02*
X598491Y116570D01*
D10*
X128700Y394130D02*
X128700Y416130D01*
X150700Y416130D02*
X150700Y394130D01*
X140700Y394130D02*
X138700Y394130D01*
X138700Y416130D02*
X140700Y416130D01*
X152000Y418130D02*
X152002Y418182D01*
X152008Y418234D01*
X152018Y418286D01*
X152031Y418336D01*
X152048Y418386D01*
X152069Y418434D01*
X152094Y418480D01*
X152122Y418524D01*
X152153Y418566D01*
X152187Y418606D01*
X152224Y418643D01*
X152264Y418677D01*
X152306Y418708D01*
X152350Y418736D01*
X152396Y418761D01*
X152444Y418782D01*
X152494Y418799D01*
X152544Y418812D01*
X152596Y418822D01*
X152648Y418828D01*
X152700Y418830D01*
X152752Y418828D01*
X152804Y418822D01*
X152856Y418812D01*
X152906Y418799D01*
X152956Y418782D01*
X153004Y418761D01*
X153050Y418736D01*
X153094Y418708D01*
X153136Y418677D01*
X153176Y418643D01*
X153213Y418606D01*
X153247Y418566D01*
X153278Y418524D01*
X153306Y418480D01*
X153331Y418434D01*
X153352Y418386D01*
X153369Y418336D01*
X153382Y418286D01*
X153392Y418234D01*
X153398Y418182D01*
X153400Y418130D01*
X153398Y418078D01*
X153392Y418026D01*
X153382Y417974D01*
X153369Y417924D01*
X153352Y417874D01*
X153331Y417826D01*
X153306Y417780D01*
X153278Y417736D01*
X153247Y417694D01*
X153213Y417654D01*
X153176Y417617D01*
X153136Y417583D01*
X153094Y417552D01*
X153050Y417524D01*
X153004Y417499D01*
X152956Y417478D01*
X152906Y417461D01*
X152856Y417448D01*
X152804Y417438D01*
X152752Y417432D01*
X152700Y417430D01*
X152648Y417432D01*
X152596Y417438D01*
X152544Y417448D01*
X152494Y417461D01*
X152444Y417478D01*
X152396Y417499D01*
X152350Y417524D01*
X152306Y417552D01*
X152264Y417583D01*
X152224Y417617D01*
X152187Y417654D01*
X152153Y417694D01*
X152122Y417736D01*
X152094Y417780D01*
X152069Y417826D01*
X152048Y417874D01*
X152031Y417924D01*
X152018Y417974D01*
X152008Y418026D01*
X152002Y418078D01*
X152000Y418130D01*
D11*
X129930Y447920D03*
D12*
X131450Y444495D02*
X147950Y444495D01*
X147950Y426725D02*
X131450Y426725D01*
D13*
X63500Y433578D03*
D12*
X57634Y462280D02*
X49046Y462280D01*
X49046Y436880D02*
X57634Y436880D01*
X46252Y446896D02*
X46252Y452264D01*
D14*
X36640Y430720D03*
D12*
X29480Y371110D02*
X84820Y371110D01*
X84820Y426450D02*
X29480Y426450D01*
X84820Y426450D02*
X84820Y423180D01*
X84820Y374380D02*
X84820Y371110D01*
X29480Y371110D02*
X29480Y374380D01*
X29480Y423180D02*
X29480Y426450D01*
D10*
X413205Y416130D02*
X413205Y394130D01*
X435205Y394130D02*
X435205Y416130D01*
X425205Y394130D02*
X423205Y394130D01*
X423205Y416130D02*
X425205Y416130D01*
X436505Y418130D02*
X436507Y418182D01*
X436513Y418234D01*
X436523Y418286D01*
X436536Y418336D01*
X436553Y418386D01*
X436574Y418434D01*
X436599Y418480D01*
X436627Y418524D01*
X436658Y418566D01*
X436692Y418606D01*
X436729Y418643D01*
X436769Y418677D01*
X436811Y418708D01*
X436855Y418736D01*
X436901Y418761D01*
X436949Y418782D01*
X436999Y418799D01*
X437049Y418812D01*
X437101Y418822D01*
X437153Y418828D01*
X437205Y418830D01*
X437257Y418828D01*
X437309Y418822D01*
X437361Y418812D01*
X437411Y418799D01*
X437461Y418782D01*
X437509Y418761D01*
X437555Y418736D01*
X437599Y418708D01*
X437641Y418677D01*
X437681Y418643D01*
X437718Y418606D01*
X437752Y418566D01*
X437783Y418524D01*
X437811Y418480D01*
X437836Y418434D01*
X437857Y418386D01*
X437874Y418336D01*
X437887Y418286D01*
X437897Y418234D01*
X437903Y418182D01*
X437905Y418130D01*
X437903Y418078D01*
X437897Y418026D01*
X437887Y417974D01*
X437874Y417924D01*
X437857Y417874D01*
X437836Y417826D01*
X437811Y417780D01*
X437783Y417736D01*
X437752Y417694D01*
X437718Y417654D01*
X437681Y417617D01*
X437641Y417583D01*
X437599Y417552D01*
X437555Y417524D01*
X437509Y417499D01*
X437461Y417478D01*
X437411Y417461D01*
X437361Y417448D01*
X437309Y417438D01*
X437257Y417432D01*
X437205Y417430D01*
X437153Y417432D01*
X437101Y417438D01*
X437049Y417448D01*
X436999Y417461D01*
X436949Y417478D01*
X436901Y417499D01*
X436855Y417524D01*
X436811Y417552D01*
X436769Y417583D01*
X436729Y417617D01*
X436692Y417654D01*
X436658Y417694D01*
X436627Y417736D01*
X436599Y417780D01*
X436574Y417826D01*
X436553Y417874D01*
X436536Y417924D01*
X436523Y417974D01*
X436513Y418026D01*
X436507Y418078D01*
X436505Y418130D01*
D11*
X414435Y447920D03*
D12*
X415955Y444495D02*
X432455Y444495D01*
X432455Y426725D02*
X415955Y426725D01*
D13*
X348005Y433578D03*
D12*
X342139Y462280D02*
X333551Y462280D01*
X333551Y436880D02*
X342139Y436880D01*
X330757Y446896D02*
X330757Y452264D01*
D14*
X321145Y430720D03*
D12*
X313985Y371110D02*
X369325Y371110D01*
X369325Y426450D02*
X313985Y426450D01*
X369325Y426450D02*
X369325Y423180D01*
X369325Y374380D02*
X369325Y371110D01*
X313985Y371110D02*
X313985Y374380D01*
X313985Y423180D02*
X313985Y426450D01*
D10*
X697711Y416130D02*
X697711Y394130D01*
X719711Y394130D02*
X719711Y416130D01*
X709711Y394130D02*
X707711Y394130D01*
X707711Y416130D02*
X709711Y416130D01*
X721011Y418130D02*
X721013Y418182D01*
X721019Y418234D01*
X721029Y418286D01*
X721042Y418336D01*
X721059Y418386D01*
X721080Y418434D01*
X721105Y418480D01*
X721133Y418524D01*
X721164Y418566D01*
X721198Y418606D01*
X721235Y418643D01*
X721275Y418677D01*
X721317Y418708D01*
X721361Y418736D01*
X721407Y418761D01*
X721455Y418782D01*
X721505Y418799D01*
X721555Y418812D01*
X721607Y418822D01*
X721659Y418828D01*
X721711Y418830D01*
X721763Y418828D01*
X721815Y418822D01*
X721867Y418812D01*
X721917Y418799D01*
X721967Y418782D01*
X722015Y418761D01*
X722061Y418736D01*
X722105Y418708D01*
X722147Y418677D01*
X722187Y418643D01*
X722224Y418606D01*
X722258Y418566D01*
X722289Y418524D01*
X722317Y418480D01*
X722342Y418434D01*
X722363Y418386D01*
X722380Y418336D01*
X722393Y418286D01*
X722403Y418234D01*
X722409Y418182D01*
X722411Y418130D01*
X722409Y418078D01*
X722403Y418026D01*
X722393Y417974D01*
X722380Y417924D01*
X722363Y417874D01*
X722342Y417826D01*
X722317Y417780D01*
X722289Y417736D01*
X722258Y417694D01*
X722224Y417654D01*
X722187Y417617D01*
X722147Y417583D01*
X722105Y417552D01*
X722061Y417524D01*
X722015Y417499D01*
X721967Y417478D01*
X721917Y417461D01*
X721867Y417448D01*
X721815Y417438D01*
X721763Y417432D01*
X721711Y417430D01*
X721659Y417432D01*
X721607Y417438D01*
X721555Y417448D01*
X721505Y417461D01*
X721455Y417478D01*
X721407Y417499D01*
X721361Y417524D01*
X721317Y417552D01*
X721275Y417583D01*
X721235Y417617D01*
X721198Y417654D01*
X721164Y417694D01*
X721133Y417736D01*
X721105Y417780D01*
X721080Y417826D01*
X721059Y417874D01*
X721042Y417924D01*
X721029Y417974D01*
X721019Y418026D01*
X721013Y418078D01*
X721011Y418130D01*
D11*
X698941Y447920D03*
D12*
X700461Y444495D02*
X716961Y444495D01*
X716961Y426725D02*
X700461Y426725D01*
D13*
X632511Y433578D03*
D12*
X626645Y462280D02*
X618057Y462280D01*
X618057Y436880D02*
X626645Y436880D01*
X615263Y446896D02*
X615263Y452264D01*
D14*
X605651Y430720D03*
D12*
X598491Y371110D02*
X653831Y371110D01*
X653831Y426450D02*
X598491Y426450D01*
X653831Y426450D02*
X653831Y423180D01*
X653831Y374380D02*
X653831Y371110D01*
X598491Y371110D02*
X598491Y374380D01*
X598491Y423180D02*
X598491Y426450D01*
D10*
X128700Y704010D02*
X128700Y726010D01*
X150700Y726010D02*
X150700Y704010D01*
X140700Y704010D02*
X138700Y704010D01*
X138700Y726010D02*
X140700Y726010D01*
X152000Y728010D02*
X152002Y728062D01*
X152008Y728114D01*
X152018Y728166D01*
X152031Y728216D01*
X152048Y728266D01*
X152069Y728314D01*
X152094Y728360D01*
X152122Y728404D01*
X152153Y728446D01*
X152187Y728486D01*
X152224Y728523D01*
X152264Y728557D01*
X152306Y728588D01*
X152350Y728616D01*
X152396Y728641D01*
X152444Y728662D01*
X152494Y728679D01*
X152544Y728692D01*
X152596Y728702D01*
X152648Y728708D01*
X152700Y728710D01*
X152752Y728708D01*
X152804Y728702D01*
X152856Y728692D01*
X152906Y728679D01*
X152956Y728662D01*
X153004Y728641D01*
X153050Y728616D01*
X153094Y728588D01*
X153136Y728557D01*
X153176Y728523D01*
X153213Y728486D01*
X153247Y728446D01*
X153278Y728404D01*
X153306Y728360D01*
X153331Y728314D01*
X153352Y728266D01*
X153369Y728216D01*
X153382Y728166D01*
X153392Y728114D01*
X153398Y728062D01*
X153400Y728010D01*
X153398Y727958D01*
X153392Y727906D01*
X153382Y727854D01*
X153369Y727804D01*
X153352Y727754D01*
X153331Y727706D01*
X153306Y727660D01*
X153278Y727616D01*
X153247Y727574D01*
X153213Y727534D01*
X153176Y727497D01*
X153136Y727463D01*
X153094Y727432D01*
X153050Y727404D01*
X153004Y727379D01*
X152956Y727358D01*
X152906Y727341D01*
X152856Y727328D01*
X152804Y727318D01*
X152752Y727312D01*
X152700Y727310D01*
X152648Y727312D01*
X152596Y727318D01*
X152544Y727328D01*
X152494Y727341D01*
X152444Y727358D01*
X152396Y727379D01*
X152350Y727404D01*
X152306Y727432D01*
X152264Y727463D01*
X152224Y727497D01*
X152187Y727534D01*
X152153Y727574D01*
X152122Y727616D01*
X152094Y727660D01*
X152069Y727706D01*
X152048Y727754D01*
X152031Y727804D01*
X152018Y727854D01*
X152008Y727906D01*
X152002Y727958D01*
X152000Y728010D01*
D11*
X129930Y757800D03*
D12*
X131450Y754375D02*
X147950Y754375D01*
X147950Y736605D02*
X131450Y736605D01*
D13*
X63500Y743458D03*
D12*
X57634Y772160D02*
X49046Y772160D01*
X49046Y746760D02*
X57634Y746760D01*
X46252Y756776D02*
X46252Y762144D01*
D14*
X36640Y740600D03*
D12*
X29480Y680990D02*
X84820Y680990D01*
X84820Y736330D02*
X29480Y736330D01*
X84820Y736330D02*
X84820Y733060D01*
X84820Y684260D02*
X84820Y680990D01*
X29480Y680990D02*
X29480Y684260D01*
X29480Y733060D02*
X29480Y736330D01*
D10*
X413205Y726010D02*
X413205Y704010D01*
X435205Y704010D02*
X435205Y726010D01*
X425205Y704010D02*
X423205Y704010D01*
X423205Y726010D02*
X425205Y726010D01*
X436505Y728010D02*
X436507Y728062D01*
X436513Y728114D01*
X436523Y728166D01*
X436536Y728216D01*
X436553Y728266D01*
X436574Y728314D01*
X436599Y728360D01*
X436627Y728404D01*
X436658Y728446D01*
X436692Y728486D01*
X436729Y728523D01*
X436769Y728557D01*
X436811Y728588D01*
X436855Y728616D01*
X436901Y728641D01*
X436949Y728662D01*
X436999Y728679D01*
X437049Y728692D01*
X437101Y728702D01*
X437153Y728708D01*
X437205Y728710D01*
X437257Y728708D01*
X437309Y728702D01*
X437361Y728692D01*
X437411Y728679D01*
X437461Y728662D01*
X437509Y728641D01*
X437555Y728616D01*
X437599Y728588D01*
X437641Y728557D01*
X437681Y728523D01*
X437718Y728486D01*
X437752Y728446D01*
X437783Y728404D01*
X437811Y728360D01*
X437836Y728314D01*
X437857Y728266D01*
X437874Y728216D01*
X437887Y728166D01*
X437897Y728114D01*
X437903Y728062D01*
X437905Y728010D01*
X437903Y727958D01*
X437897Y727906D01*
X437887Y727854D01*
X437874Y727804D01*
X437857Y727754D01*
X437836Y727706D01*
X437811Y727660D01*
X437783Y727616D01*
X437752Y727574D01*
X437718Y727534D01*
X437681Y727497D01*
X437641Y727463D01*
X437599Y727432D01*
X437555Y727404D01*
X437509Y727379D01*
X437461Y727358D01*
X437411Y727341D01*
X437361Y727328D01*
X437309Y727318D01*
X437257Y727312D01*
X437205Y727310D01*
X437153Y727312D01*
X437101Y727318D01*
X437049Y727328D01*
X436999Y727341D01*
X436949Y727358D01*
X436901Y727379D01*
X436855Y727404D01*
X436811Y727432D01*
X436769Y727463D01*
X436729Y727497D01*
X436692Y727534D01*
X436658Y727574D01*
X436627Y727616D01*
X436599Y727660D01*
X436574Y727706D01*
X436553Y727754D01*
X436536Y727804D01*
X436523Y727854D01*
X436513Y727906D01*
X436507Y727958D01*
X436505Y728010D01*
D11*
X414435Y757800D03*
D12*
X415955Y754375D02*
X432455Y754375D01*
X432455Y736605D02*
X415955Y736605D01*
D13*
X348005Y743458D03*
D12*
X342139Y772160D02*
X333551Y772160D01*
X333551Y746760D02*
X342139Y746760D01*
X330757Y756776D02*
X330757Y762144D01*
D14*
X321145Y740600D03*
D12*
X313985Y680990D02*
X369325Y680990D01*
X369325Y736330D02*
X313985Y736330D01*
X369325Y736330D02*
X369325Y733060D01*
X369325Y684260D02*
X369325Y680990D01*
X313985Y680990D02*
X313985Y684260D01*
X313985Y733060D02*
X313985Y736330D01*
D10*
X697711Y726010D02*
X697711Y704010D01*
X719711Y704010D02*
X719711Y726010D01*
X709711Y704010D02*
X707711Y704010D01*
X707711Y726010D02*
X709711Y726010D01*
X721011Y728010D02*
X721013Y728062D01*
X721019Y728114D01*
X721029Y728166D01*
X721042Y728216D01*
X721059Y728266D01*
X721080Y728314D01*
X721105Y728360D01*
X721133Y728404D01*
X721164Y728446D01*
X721198Y728486D01*
X721235Y728523D01*
X721275Y728557D01*
X721317Y728588D01*
X721361Y728616D01*
X721407Y728641D01*
X721455Y728662D01*
X721505Y728679D01*
X721555Y728692D01*
X721607Y728702D01*
X721659Y728708D01*
X721711Y728710D01*
X721763Y728708D01*
X721815Y728702D01*
X721867Y728692D01*
X721917Y728679D01*
X721967Y728662D01*
X722015Y728641D01*
X722061Y728616D01*
X722105Y728588D01*
X722147Y728557D01*
X722187Y728523D01*
X722224Y728486D01*
X722258Y728446D01*
X722289Y728404D01*
X722317Y728360D01*
X722342Y728314D01*
X722363Y728266D01*
X722380Y728216D01*
X722393Y728166D01*
X722403Y728114D01*
X722409Y728062D01*
X722411Y728010D01*
X722409Y727958D01*
X722403Y727906D01*
X722393Y727854D01*
X722380Y727804D01*
X722363Y727754D01*
X722342Y727706D01*
X722317Y727660D01*
X722289Y727616D01*
X722258Y727574D01*
X722224Y727534D01*
X722187Y727497D01*
X722147Y727463D01*
X722105Y727432D01*
X722061Y727404D01*
X722015Y727379D01*
X721967Y727358D01*
X721917Y727341D01*
X721867Y727328D01*
X721815Y727318D01*
X721763Y727312D01*
X721711Y727310D01*
X721659Y727312D01*
X721607Y727318D01*
X721555Y727328D01*
X721505Y727341D01*
X721455Y727358D01*
X721407Y727379D01*
X721361Y727404D01*
X721317Y727432D01*
X721275Y727463D01*
X721235Y727497D01*
X721198Y727534D01*
X721164Y727574D01*
X721133Y727616D01*
X721105Y727660D01*
X721080Y727706D01*
X721059Y727754D01*
X721042Y727804D01*
X721029Y727854D01*
X721019Y727906D01*
X721013Y727958D01*
X721011Y728010D01*
D11*
X698941Y757800D03*
D12*
X700461Y754375D02*
X716961Y754375D01*
X716961Y736605D02*
X700461Y736605D01*
D13*
X632511Y743458D03*
D12*
X626645Y772160D02*
X618057Y772160D01*
X618057Y746760D02*
X626645Y746760D01*
X615263Y756776D02*
X615263Y762144D01*
D14*
X605651Y740600D03*
D12*
X598491Y680990D02*
X653831Y680990D01*
X653831Y736330D02*
X598491Y736330D01*
X653831Y736330D02*
X653831Y733060D01*
X653831Y684260D02*
X653831Y680990D01*
X598491Y680990D02*
X598491Y684260D01*
X598491Y733060D02*
X598491Y736330D01*
M02*
