G04 EAGLE Gerber RS-274X export*
G75*
%MOMM*%
%FSLAX34Y34*%
%LPD*%
%INSoldermask Bottom*%
%IPPOS*%
%AMOC8*
5,1,8,0,0,1.08239X$1,22.5*%
G01*
%ADD10C,1.473200*%
%ADD11C,4.013200*%
%ADD12C,1.203200*%


D10*
X107950Y285750D03*
X171450Y285750D03*
X107950Y190500D03*
X171450Y190500D03*
X392455Y285750D03*
X455955Y285750D03*
X392455Y190500D03*
X455955Y190500D03*
X676961Y285750D03*
X740461Y285750D03*
X676961Y190500D03*
X740461Y190500D03*
X107950Y595630D03*
X171450Y595630D03*
X107950Y500380D03*
X171450Y500380D03*
X392455Y595630D03*
X455955Y595630D03*
X392455Y500380D03*
X455955Y500380D03*
X676961Y595630D03*
X740461Y595630D03*
X676961Y500380D03*
X740461Y500380D03*
X107950Y905510D03*
X171450Y905510D03*
X107950Y810260D03*
X171450Y810260D03*
X392455Y905510D03*
X455955Y905510D03*
X392455Y810260D03*
X455955Y810260D03*
X676961Y905510D03*
X740461Y905510D03*
X676961Y810260D03*
X740461Y810260D03*
D11*
X254000Y25400D03*
X25400Y25400D03*
X254000Y279400D03*
X25400Y279400D03*
D12*
X50800Y254000D03*
X228600Y50800D03*
D11*
X538505Y25400D03*
X309905Y25400D03*
X538505Y279400D03*
X309905Y279400D03*
D12*
X335305Y254000D03*
X513105Y50800D03*
D11*
X823011Y25400D03*
X594411Y25400D03*
X823011Y279400D03*
X594411Y279400D03*
D12*
X619811Y254000D03*
X797611Y50800D03*
D11*
X254000Y335280D03*
X25400Y335280D03*
X254000Y589280D03*
X25400Y589280D03*
D12*
X50800Y563880D03*
X228600Y360680D03*
D11*
X538505Y335280D03*
X309905Y335280D03*
X538505Y589280D03*
X309905Y589280D03*
D12*
X335305Y563880D03*
X513105Y360680D03*
D11*
X823011Y335280D03*
X594411Y335280D03*
X823011Y589280D03*
X594411Y589280D03*
D12*
X619811Y563880D03*
X797611Y360680D03*
D11*
X254000Y645160D03*
X25400Y645160D03*
X254000Y899160D03*
X25400Y899160D03*
D12*
X50800Y873760D03*
X228600Y670560D03*
D11*
X538505Y645160D03*
X309905Y645160D03*
X538505Y899160D03*
X309905Y899160D03*
D12*
X335305Y873760D03*
X513105Y670560D03*
D11*
X823011Y645160D03*
X594411Y645160D03*
X823011Y899160D03*
X594411Y899160D03*
D12*
X619811Y873760D03*
X797611Y670560D03*
X68580Y945515D03*
X779247Y945515D03*
M02*
