M48
;GenerationSoftware,Autodesk,EAGLE,9.6.0*%
;CreationDate,2020-06-21T05:02:05Z*%
FMAT,2
ICI,OFF
METRIC,TZ,000.000
T2C1.270
T1C3.810
%
G90
M71
T1
X25400Y2540
X2540Y2540
X25400Y27940
X2540Y27940
X53851Y2540
X30991Y2540
X53851Y27940
X30991Y27940
X82301Y2540
X59441Y2540
X82301Y27940
X59441Y27940
X25400Y33528
X2540Y33528
X25400Y58928
X2540Y58928
X53851Y33528
X30991Y33528
X53851Y58928
X30991Y58928
X82301Y33528
X59441Y33528
X82301Y58928
X59441Y58928
X25400Y64516
X2540Y64516
X25400Y89916
X2540Y89916
X53851Y64516
X30991Y64516
X53851Y89916
X30991Y89916
X82301Y64516
X59441Y64516
X82301Y89916
X59441Y89916
T2
X10795Y28575
X17145Y28575
X10795Y19050
X17145Y19050
X39246Y28575
X45596Y28575
X39246Y19050
X45596Y19050
X67696Y28575
X74046Y28575
X67696Y19050
X74046Y19050
X10795Y59563
X17145Y59563
X10795Y50038
X17145Y50038
X39246Y59563
X45596Y59563
X39246Y50038
X45596Y50038
X67696Y59563
X74046Y59563
X67696Y50038
X74046Y50038
X10795Y90551
X17145Y90551
X10795Y81026
X17145Y81026
X39246Y90551
X45596Y90551
X39246Y81026
X45596Y81026
X67696Y90551
X74046Y90551
X67696Y81026
X74046Y81026
M30